M48
; DRILL file KiCad 10.0.1 date 2026-06-09T12:56:58
; FORMAT={-:-/ absolute / metric / decimal}
; #@! TF.CreationDate,2026-06-09T12:56:58+03:00
; #@! TF.GenerationSoftware,Kicad,Pcbnew,10.0.1
; #@! TF.FileFunction,Plated,1,4,PTH
FMAT,2
METRIC
; #@! TA.AperFunction,Plated,PTH,ViaDrill
T1C0.300
; #@! TA.AperFunction,Plated,PTH,ComponentDrill
T2C0.800
; #@! TA.AperFunction,Plated,PTH,ComponentDrill
T3C1.020
; #@! TA.AperFunction,Plated,PTH,ComponentDrill
T4C1.200
; #@! TA.AperFunction,Plated,PTH,ComponentDrill
T5C1.500
; #@! TA.AperFunction,Plated,PTH,ComponentDrill
T6C2.200
%
G90
G05
T1
X137.075Y-155.0
X137.075Y-156.2
X137.075Y-157.4
X137.075Y-158.6
X137.075Y-159.8
X137.075Y-161.0
X137.075Y-167.0
X137.075Y-168.2
X137.075Y-169.4
X137.075Y-170.6
X137.075Y-171.8
X137.075Y-173.0
X137.075Y-174.2
X138.275Y-155.0
X138.275Y-156.2
X138.275Y-157.4
X138.275Y-158.6
X138.275Y-169.4
X138.275Y-170.6
X138.275Y-171.8
X138.275Y-173.0
X138.275Y-174.2
X139.475Y-155.0
X139.475Y-156.2
X139.475Y-157.4
X139.475Y-170.6
X139.475Y-171.8
X139.475Y-173.0
X139.475Y-174.2
X139.82Y-149.695
X140.675Y-155.0
X140.675Y-156.2
X140.675Y-171.8
X140.675Y-173.0
X140.675Y-174.2
X141.153Y-219.25
X141.153Y-220.0
X141.153Y-220.75
X141.875Y-155.0
X141.875Y-156.2
X141.875Y-173.0
X141.875Y-174.2
X143.075Y-155.0
X143.075Y-156.2
X143.075Y-173.0
X143.075Y-174.2
X144.275Y-155.0
X144.275Y-156.2
X144.275Y-173.0
X144.275Y-174.2
X145.475Y-155.0
X145.475Y-156.2
X145.475Y-173.0
X145.475Y-174.2
X146.097Y-219.25
X146.097Y-220.0
X146.097Y-220.75
X146.675Y-155.0
X146.675Y-156.2
X146.675Y-173.0
X146.675Y-174.2
X147.875Y-155.0
X147.875Y-156.2
X147.875Y-171.8
X147.875Y-173.0
X147.875Y-174.2
X149.075Y-155.0
X149.075Y-156.2
X149.075Y-171.8
X149.075Y-173.0
X150.275Y-155.0
X150.275Y-156.2
X150.275Y-157.4
X150.275Y-158.6
X150.275Y-170.6
X150.275Y-171.8
X151.042Y-219.25
X151.042Y-220.0
X151.042Y-220.75
X151.475Y-155.0
X151.475Y-156.2
X151.475Y-157.4
X151.475Y-158.6
X151.475Y-159.8
X151.475Y-169.4
X151.475Y-170.6
X152.675Y-155.0
X152.675Y-156.2
X152.675Y-157.4
X152.675Y-158.6
X152.675Y-159.8
X152.675Y-161.0
X152.675Y-162.2
X152.675Y-163.4
X152.675Y-164.6
X152.675Y-165.8
X152.675Y-167.0
X152.675Y-168.2
X152.675Y-169.4
X155.625Y-148.95
X155.986Y-219.25
X155.986Y-220.0
X155.986Y-220.75
X160.931Y-219.25
X160.931Y-220.0
X160.931Y-220.75
X162.525Y-146.45
X165.875Y-219.25
X165.875Y-220.0
X165.875Y-220.75
X170.819Y-219.25
X170.819Y-220.0
X170.819Y-220.75
X173.875Y-150.25
X174.375Y-132.5
X174.375Y-137.0
X174.875Y-131.5
X175.375Y-132.5
X175.764Y-219.25
X175.764Y-220.0
X175.764Y-220.75
X175.875Y-131.5
X176.375Y-132.5
X176.875Y-131.5
X177.375Y-132.5
X177.875Y-131.5
X177.875Y-133.5
X178.312Y-126.938
X180.075Y-151.75
X180.708Y-219.25
X180.708Y-220.0
X180.708Y-220.75
X183.275Y-164.8
X183.375Y-140.25
X184.963Y-145.338
X185.653Y-219.25
X185.653Y-220.0
X185.653Y-220.75
X186.875Y-150.0
X188.375Y-164.75
X189.375Y-140.25
X189.875Y-150.25
X190.597Y-219.25
X190.597Y-220.0
X190.597Y-220.75
X193.862Y-149.75
X193.862Y-152.0
X194.125Y-165.75
X195.542Y-219.25
X195.542Y-220.0
X195.542Y-220.75
X195.962Y-146.25
X199.262Y-144.6
X200.486Y-219.25
X200.486Y-220.0
X200.486Y-220.75
X201.375Y-144.5
X205.125Y-149.75
X205.125Y-152.0
X205.431Y-219.25
X205.431Y-220.0
X205.431Y-220.75
X205.875Y-165.75
X206.875Y-146.25
X207.22Y-132.155
X210.262Y-144.612
X210.375Y-219.25
X210.375Y-220.0
X210.375Y-220.75
X211.03Y-134.845
X212.375Y-144.5
X214.875Y-132.0
X214.875Y-139.0
X215.319Y-219.25
X215.319Y-220.0
X215.319Y-220.75
X217.125Y-128.0
X217.125Y-135.0
X219.275Y-155.0
X219.275Y-156.2
X219.275Y-157.4
X219.275Y-158.6
X219.275Y-159.8
X219.275Y-161.0
X219.275Y-162.2
X219.275Y-163.4
X219.275Y-164.6
X219.275Y-165.8
X219.275Y-167.0
X219.275Y-168.2
X219.275Y-169.4
X219.375Y-128.0
X219.375Y-135.0
X220.264Y-219.25
X220.264Y-220.0
X220.264Y-220.75
X220.475Y-155.0
X220.475Y-156.2
X220.475Y-157.4
X220.475Y-158.6
X220.475Y-159.8
X220.475Y-169.4
X220.475Y-170.6
X221.625Y-128.0
X221.625Y-135.0
X221.675Y-155.0
X221.675Y-156.2
X221.675Y-157.4
X221.675Y-158.6
X221.675Y-170.6
X221.675Y-171.8
X222.875Y-155.0
X222.875Y-156.2
X222.875Y-171.8
X222.875Y-173.0
X224.075Y-155.0
X224.075Y-156.2
X224.075Y-171.8
X224.075Y-173.0
X224.075Y-174.2
X225.208Y-219.25
X225.208Y-220.0
X225.208Y-220.75
X225.275Y-155.0
X225.275Y-156.2
X225.275Y-173.0
X225.275Y-174.2
X226.475Y-155.0
X226.475Y-156.2
X226.475Y-173.0
X226.475Y-174.2
X227.675Y-155.0
X227.675Y-156.2
X227.675Y-173.0
X227.675Y-174.2
X228.875Y-155.0
X228.875Y-156.2
X228.875Y-173.0
X228.875Y-174.2
X230.075Y-155.0
X230.075Y-156.2
X230.075Y-173.0
X230.075Y-174.2
X230.153Y-219.25
X230.153Y-220.0
X230.153Y-220.75
X231.275Y-155.0
X231.275Y-156.2
X231.275Y-171.8
X231.275Y-173.0
X231.275Y-174.2
X232.475Y-155.0
X232.475Y-156.2
X232.475Y-157.4
X232.475Y-170.6
X232.475Y-171.8
X232.475Y-173.0
X232.475Y-174.2
X233.675Y-155.0
X233.675Y-156.2
X233.675Y-157.4
X233.675Y-158.6
X233.675Y-169.4
X233.675Y-170.6
X233.675Y-171.8
X233.675Y-173.0
X233.675Y-174.2
T2
X143.005Y-146.485
X143.005Y-149.025
X150.625Y-146.485
X150.625Y-149.025
T3
X141.375Y-138.42
X141.375Y-141.42
X144.375Y-138.42
X144.375Y-141.42
X147.375Y-138.42
X147.375Y-141.42
T4
X155.485Y-134.05
X158.025Y-134.05
X160.565Y-134.05
X163.105Y-134.05
X168.185Y-134.05
X170.725Y-134.05
X173.265Y-134.05
X179.485Y-129.95
X182.025Y-129.95
X184.565Y-129.95
X189.645Y-129.95
X192.185Y-129.95
X194.725Y-129.95
X197.265Y-129.95
X227.375Y-146.25
T5
X154.675Y-180.14
X160.125Y-180.14
X165.575Y-180.14
X171.925Y-180.14
X177.375Y-180.14
X182.825Y-180.14
X189.175Y-180.14
X194.625Y-180.14
X200.075Y-180.14
X206.425Y-180.14
X211.875Y-180.14
X217.325Y-180.14
T6
X144.675Y-164.4
X227.0Y-164.4
M30
