%TF.GenerationSoftware,KiCad,Pcbnew,10.0.1*%
%TF.CreationDate,2026-06-09T12:56:55+03:00*%
%TF.ProjectId,Precharge_Nauka,50726563-6861-4726-9765-5f4e61756b61,rev?*%
%TF.SameCoordinates,Original*%
%TF.FileFunction,Copper,L1,Top*%
%TF.FilePolarity,Positive*%
%FSLAX46Y46*%
G04 Gerber Fmt 4.6, Leading zero omitted, Abs format (unit mm)*
G04 Created by KiCad (PCBNEW 10.0.1) date 2026-06-09 12:56:55*
%MOMM*%
%LPD*%
G01*
G04 APERTURE LIST*
G04 Aperture macros list*
%AMRoundRect*
0 Rectangle with rounded corners*
0 $1 Rounding radius*
0 $2 $3 $4 $5 $6 $7 $8 $9 X,Y pos of 4 corners*
0 Add a 4 corners polygon primitive as box body*
4,1,4,$2,$3,$4,$5,$6,$7,$8,$9,$2,$3,0*
0 Add four circle primitives for the rounded corners*
1,1,$1+$1,$2,$3*
1,1,$1+$1,$4,$5*
1,1,$1+$1,$6,$7*
1,1,$1+$1,$8,$9*
0 Add four rect primitives between the rounded corners*
20,1,$1+$1,$2,$3,$4,$5,0*
20,1,$1+$1,$4,$5,$6,$7,0*
20,1,$1+$1,$6,$7,$8,$9,0*
20,1,$1+$1,$8,$9,$2,$3,0*%
G04 Aperture macros list end*
%TA.AperFunction,SMDPad,CuDef*%
%ADD10RoundRect,0.249999X-1.425001X0.450001X-1.425001X-0.450001X1.425001X-0.450001X1.425001X0.450001X0*%
%TD*%
%TA.AperFunction,SMDPad,CuDef*%
%ADD11RoundRect,0.249999X1.425001X-0.450001X1.425001X0.450001X-1.425001X0.450001X-1.425001X-0.450001X0*%
%TD*%
%TA.AperFunction,SMDPad,CuDef*%
%ADD12R,0.640000X1.900000*%
%TD*%
%TA.AperFunction,SMDPad,CuDef*%
%ADD13RoundRect,0.250000X-0.350000X-0.450000X0.350000X-0.450000X0.350000X0.450000X-0.350000X0.450000X0*%
%TD*%
%TA.AperFunction,SMDPad,CuDef*%
%ADD14RoundRect,0.150000X-0.512500X-0.150000X0.512500X-0.150000X0.512500X0.150000X-0.512500X0.150000X0*%
%TD*%
%TA.AperFunction,SMDPad,CuDef*%
%ADD15RoundRect,0.250000X0.625000X-0.312500X0.625000X0.312500X-0.625000X0.312500X-0.625000X-0.312500X0*%
%TD*%
%TA.AperFunction,SMDPad,CuDef*%
%ADD16RoundRect,0.250000X-0.625000X0.400000X-0.625000X-0.400000X0.625000X-0.400000X0.625000X0.400000X0*%
%TD*%
%TA.AperFunction,ComponentPad*%
%ADD17O,1.600000X2.400000*%
%TD*%
%TA.AperFunction,ComponentPad*%
%ADD18C,15.000000*%
%TD*%
%TA.AperFunction,ComponentPad*%
%ADD19R,2.500000X4.500000*%
%TD*%
%TA.AperFunction,ComponentPad*%
%ADD20O,2.500000X4.500000*%
%TD*%
%TA.AperFunction,SMDPad,CuDef*%
%ADD21RoundRect,0.250000X0.350000X0.450000X-0.350000X0.450000X-0.350000X-0.450000X0.350000X-0.450000X0*%
%TD*%
%TA.AperFunction,SMDPad,CuDef*%
%ADD22RoundRect,0.250000X0.450000X-0.350000X0.450000X0.350000X-0.450000X0.350000X-0.450000X-0.350000X0*%
%TD*%
%TA.AperFunction,SMDPad,CuDef*%
%ADD23RoundRect,0.250000X0.475000X-0.337500X0.475000X0.337500X-0.475000X0.337500X-0.475000X-0.337500X0*%
%TD*%
%TA.AperFunction,SMDPad,CuDef*%
%ADD24RoundRect,0.250000X-0.450000X0.350000X-0.450000X-0.350000X0.450000X-0.350000X0.450000X0.350000X0*%
%TD*%
%TA.AperFunction,SMDPad,CuDef*%
%ADD25RoundRect,0.250000X-0.337500X-0.475000X0.337500X-0.475000X0.337500X0.475000X-0.337500X0.475000X0*%
%TD*%
%TA.AperFunction,ComponentPad*%
%ADD26RoundRect,0.250001X0.499999X0.499999X-0.499999X0.499999X-0.499999X-0.499999X0.499999X-0.499999X0*%
%TD*%
%TA.AperFunction,ComponentPad*%
%ADD27C,1.500000*%
%TD*%
%TA.AperFunction,ComponentPad*%
%ADD28C,8.000000*%
%TD*%
%TA.AperFunction,SMDPad,CuDef*%
%ADD29RoundRect,0.250000X-0.412500X-0.650000X0.412500X-0.650000X0.412500X0.650000X-0.412500X0.650000X0*%
%TD*%
%TA.AperFunction,SMDPad,CuDef*%
%ADD30RoundRect,0.162500X-0.162500X0.617500X-0.162500X-0.617500X0.162500X-0.617500X0.162500X0.617500X0*%
%TD*%
%TA.AperFunction,SMDPad,CuDef*%
%ADD31RoundRect,0.250000X-0.312500X-0.625000X0.312500X-0.625000X0.312500X0.625000X-0.312500X0.625000X0*%
%TD*%
%TA.AperFunction,SMDPad,CuDef*%
%ADD32RoundRect,0.250000X0.312500X0.625000X-0.312500X0.625000X-0.312500X-0.625000X0.312500X-0.625000X0*%
%TD*%
%TA.AperFunction,SMDPad,CuDef*%
%ADD33RoundRect,0.150000X0.150000X-0.587500X0.150000X0.587500X-0.150000X0.587500X-0.150000X-0.587500X0*%
%TD*%
%TA.AperFunction,SMDPad,CuDef*%
%ADD34RoundRect,0.162500X0.162500X-0.825000X0.162500X0.825000X-0.162500X0.825000X-0.162500X-0.825000X0*%
%TD*%
%TA.AperFunction,SMDPad,CuDef*%
%ADD35RoundRect,0.250000X-0.625000X0.312500X-0.625000X-0.312500X0.625000X-0.312500X0.625000X0.312500X0*%
%TD*%
%TA.AperFunction,SMDPad,CuDef*%
%ADD36RoundRect,0.150000X0.587500X0.150000X-0.587500X0.150000X-0.587500X-0.150000X0.587500X-0.150000X0*%
%TD*%
%TA.AperFunction,ComponentPad*%
%ADD37RoundRect,0.250000X0.550000X0.550000X-0.550000X0.550000X-0.550000X-0.550000X0.550000X-0.550000X0*%
%TD*%
%TA.AperFunction,ComponentPad*%
%ADD38C,1.600000*%
%TD*%
%TA.AperFunction,SMDPad,CuDef*%
%ADD39RoundRect,0.250000X0.412500X0.650000X-0.412500X0.650000X-0.412500X-0.650000X0.412500X-0.650000X0*%
%TD*%
%TA.AperFunction,ViaPad*%
%ADD40C,0.600000*%
%TD*%
%TA.AperFunction,Conductor*%
%ADD41C,0.500000*%
%TD*%
%TA.AperFunction,Conductor*%
%ADD42C,1.000000*%
%TD*%
%TA.AperFunction,Profile*%
%ADD43C,0.050000*%
%TD*%
%ADD44C,0.150000*%
G04 APERTURE END LIST*
D10*
%TO.P,R102,1*%
%TO.N,Net-(R102-Pad1)*%
X202940789Y-203500000D03*
%TO.P,R102,2*%
%TO.N,Net-(R101-Pad1)*%
X202940789Y-209600000D03*
%TD*%
D11*
%TO.P,R38,1*%
%TO.N,Net-(R38-Pad1)*%
X207888158Y-201050000D03*
%TO.P,R38,2*%
%TO.N,Net-(R37-Pad1)*%
X207888158Y-194950000D03*
%TD*%
%TO.P,R99,1*%
%TO.N,Net-(R100-Pad2)*%
X193046053Y-192550000D03*
%TO.P,R99,2*%
%TO.N,VDC_OUT*%
X193046053Y-186450000D03*
%TD*%
D12*
%TO.P,D1,1,ANODE_1*%
%TO.N,Net-(D1-ANODE)*%
X187145000Y-152250000D03*
%TO.P,D1,2,NC_2*%
%TO.N,unconnected-(D1-NC-Pad2)*%
X185875000Y-152250000D03*
%TO.P,D1,3,CATHODE_3*%
%TO.N,Net-(D1-CATHODE)*%
X184605000Y-152250000D03*
%TO.P,D1,4,Vee_4*%
%TO.N,VDC_OUT*%
X184605000Y-163750000D03*
%TO.P,D1,5,Vout_5*%
%TO.N,Gate*%
X185875000Y-163750000D03*
%TO.P,D1,6,Vcc_6*%
%TO.N,VCC*%
X187145000Y-163750000D03*
%TD*%
D13*
%TO.P,R36,1*%
%TO.N,VDC_OUT*%
X159125000Y-174500000D03*
%TO.P,R36,2*%
%TO.N,Net-(Q5-G)*%
X161125000Y-174500000D03*
%TD*%
D11*
%TO.P,R107,1*%
%TO.N,Net-(R107-Pad1)*%
X143572368Y-192550000D03*
%TO.P,R107,2*%
%TO.N,VDC_OUT*%
X143572368Y-186450000D03*
%TD*%
%TO.P,R37,1*%
%TO.N,Net-(R37-Pad1)*%
X207888158Y-192550000D03*
%TO.P,R37,2*%
%TO.N,VDC_OUT*%
X207888158Y-186450000D03*
%TD*%
%TO.P,R75,1*%
%TO.N,Net-(R75-Pad1)*%
X183151316Y-192550000D03*
%TO.P,R75,2*%
%TO.N,VDC_OUT*%
X183151316Y-186450000D03*
%TD*%
D13*
%TO.P,R17,1*%
%TO.N,GND1*%
X205875000Y-152000000D03*
%TO.P,R17,2*%
%TO.N,Net-(U7-+)*%
X207875000Y-152000000D03*
%TD*%
D11*
%TO.P,R80,1*%
%TO.N,Net-(R78-Pad1)*%
X138625000Y-201050000D03*
%TO.P,R80,2*%
%TO.N,Net-(R79-Pad1)*%
X138625000Y-194950000D03*
%TD*%
%TO.P,R55,1*%
%TO.N,Net-(R55-Pad1)*%
X217782895Y-192550000D03*
%TO.P,R55,2*%
%TO.N,VDC_OUT*%
X217782895Y-186450000D03*
%TD*%
D10*
%TO.P,R98,1*%
%TO.N,Net-(R100-Pad1)*%
X193046053Y-203500000D03*
%TO.P,R98,2*%
%TO.N,Net-(R97-Pad1)*%
X193046053Y-209600000D03*
%TD*%
D11*
%TO.P,R63,1*%
%TO.N,Net-(R63-Pad1)*%
X227677632Y-192550000D03*
%TO.P,R63,2*%
%TO.N,VDC_OUT*%
X227677632Y-186450000D03*
%TD*%
D10*
%TO.P,R40,1*%
%TO.N,Net-(R39-Pad2)*%
X207888158Y-212200000D03*
%TO.P,R40,2*%
%TO.N,VDC_IN*%
X207888158Y-218300000D03*
%TD*%
D14*
%TO.P,U6,1*%
%TO.N,Net-(C6-Pad2)*%
X196987500Y-145300000D03*
%TO.P,U6,2,V-_2*%
%TO.N,GND1*%
X196987500Y-146250000D03*
%TO.P,U6,3,+_3*%
%TO.N,Net-(U6-+)*%
X196987500Y-147200000D03*
%TO.P,U6,4,-_4*%
%TO.N,Net-(U6--)*%
X199262500Y-147200000D03*
%TO.P,U6,5,V+_5*%
%TO.N,+5V*%
X199262500Y-145300000D03*
%TD*%
D11*
%TO.P,R59,1*%
%TO.N,Net-(R59-Pad1)*%
X222730263Y-192550000D03*
%TO.P,R59,2*%
%TO.N,VDC_OUT*%
X222730263Y-186450000D03*
%TD*%
D15*
%TO.P,R11,1*%
%TO.N,Net-(R10-Pad2)*%
X200125000Y-156962500D03*
%TO.P,R11,2*%
%TO.N,Net-(U6--)*%
X200125000Y-154037500D03*
%TD*%
%TO.P,R5,1*%
%TO.N,Net-(R4-Pad2)*%
X198625000Y-162962500D03*
%TO.P,R5,2*%
%TO.N,Net-(R5-Pad2)*%
X198625000Y-160037500D03*
%TD*%
D16*
%TO.P,R30,1*%
%TO.N,Gate*%
X200125000Y-173450000D03*
%TO.P,R30,2*%
%TO.N,Net-(Q3-G)*%
X200125000Y-176550000D03*
%TD*%
D10*
%TO.P,R93,1*%
%TO.N,Net-(R93-Pad1)*%
X178203947Y-212200000D03*
%TO.P,R93,2*%
%TO.N,VDC_IN*%
X178203947Y-218300000D03*
%TD*%
D11*
%TO.P,R119,1*%
%TO.N,Net-(R119-Pad1)*%
X168309211Y-192550000D03*
%TO.P,R119,2*%
%TO.N,VDC_OUT*%
X168309211Y-186450000D03*
%TD*%
%TO.P,R103,1*%
%TO.N,Net-(R103-Pad1)*%
X202940789Y-192550000D03*
%TO.P,R103,2*%
%TO.N,VDC_OUT*%
X202940789Y-186450000D03*
%TD*%
D10*
%TO.P,R78,1*%
%TO.N,Net-(R78-Pad1)*%
X138625000Y-203500000D03*
%TO.P,R78,2*%
%TO.N,Net-(R77-Pad1)*%
X138625000Y-209600000D03*
%TD*%
%TO.P,R121,1*%
%TO.N,Net-(R121-Pad1)*%
X212835526Y-212200000D03*
%TO.P,R121,2*%
%TO.N,VDC_IN*%
X212835526Y-218300000D03*
%TD*%
D17*
%TO.P,D2,1,GND_1*%
%TO.N,GND*%
X179485000Y-129949990D03*
%TO.P,D2,2,Vin_2*%
%TO.N,Net-(D2-Vin)*%
X182025000Y-129949990D03*
%TO.P,D2,3,NC_3*%
%TO.N,unconnected-(D2-NC-Pad3)*%
X184565000Y-129949990D03*
%TO.P,D2,5,NC_5*%
%TO.N,unconnected-(D2-NC-Pad5)*%
X189645000Y-129949990D03*
%TO.P,D2,6,+Vo_6*%
%TO.N,+5V*%
X192185000Y-129949990D03*
%TO.P,D2,7,0V_7*%
%TO.N,GND1*%
X194725000Y-129949990D03*
%TO.P,D2,8,NC_8*%
%TO.N,unconnected-(D2-NC-Pad8)*%
X197265000Y-129949990D03*
%TD*%
D18*
%TO.P,J3,1,Pin_1_1*%
%TO.N,VDC_OUT*%
X227000000Y-164400000D03*
%TD*%
D10*
%TO.P,R54,1*%
%TO.N,Net-(R54-Pad1)*%
X217782895Y-203500000D03*
%TO.P,R54,2*%
%TO.N,Net-(R53-Pad1)*%
X217782895Y-209600000D03*
%TD*%
D16*
%TO.P,R33,1*%
%TO.N,Gate*%
X182875000Y-173450000D03*
%TO.P,R33,2*%
%TO.N,Net-(Q4-G)*%
X182875000Y-176550000D03*
%TD*%
D19*
%TO.P,Q4,1,G_1*%
%TO.N,Net-(Q4-G)*%
X182825000Y-180140000D03*
D20*
%TO.P,Q4,2,D_2*%
%TO.N,VDC_IN*%
X177375000Y-180140000D03*
%TO.P,Q4,3,S_3*%
%TO.N,VDC_OUT*%
X171925000Y-180140000D03*
%TD*%
D18*
%TO.P,J2,1,Pin_1_1*%
%TO.N,VDC_IN*%
X144675000Y-164400000D03*
%TD*%
D10*
%TO.P,R117,1*%
%TO.N,Net-(R117-Pad1)*%
X168309211Y-212200000D03*
%TO.P,R117,2*%
%TO.N,VDC_IN*%
X168309211Y-218300000D03*
%TD*%
D11*
%TO.P,R120,1*%
%TO.N,Net-(R118-Pad1)*%
X168309211Y-201050000D03*
%TO.P,R120,2*%
%TO.N,Net-(R119-Pad1)*%
X168309211Y-194950000D03*
%TD*%
D21*
%TO.P,R21,1*%
%TO.N,Net-(C21-Pad2)*%
X214875000Y-131000000D03*
%TO.P,R21,2*%
%TO.N,Net-(U1B-+)*%
X212875000Y-131000000D03*
%TD*%
D11*
%TO.P,R56,1*%
%TO.N,Net-(R54-Pad1)*%
X217782895Y-201050000D03*
%TO.P,R56,2*%
%TO.N,Net-(R55-Pad1)*%
X217782895Y-194950000D03*
%TD*%
D21*
%TO.P,R201,1*%
%TO.N,Shunt_ON*%
X163125000Y-149700000D03*
%TO.P,R201,2*%
%TO.N,Net-(Q6-G)*%
X161125000Y-149700000D03*
%TD*%
D11*
%TO.P,R83,1*%
%TO.N,Net-(R83-Pad1)*%
X197993421Y-192550000D03*
%TO.P,R83,2*%
%TO.N,VDC_OUT*%
X197993421Y-186450000D03*
%TD*%
%TO.P,R52,1*%
%TO.N,Net-(R50-Pad1)*%
X153467105Y-201050000D03*
%TO.P,R52,2*%
%TO.N,Net-(R51-Pad1)*%
X153467105Y-194950000D03*
%TD*%
D10*
%TO.P,R97,1*%
%TO.N,Net-(R97-Pad1)*%
X193046053Y-212200000D03*
%TO.P,R97,2*%
%TO.N,VDC_IN*%
X193046053Y-218300000D03*
%TD*%
%TO.P,R66,1*%
%TO.N,Net-(R66-Pad1)*%
X148519737Y-203500000D03*
%TO.P,R66,2*%
%TO.N,Net-(R65-Pad1)*%
X148519737Y-209600000D03*
%TD*%
D19*
%TO.P,Q3,1,G_1*%
%TO.N,Net-(Q3-G)*%
X200075000Y-180140000D03*
D20*
%TO.P,Q3,2,D_2*%
%TO.N,VDC_IN*%
X194625000Y-180140000D03*
%TO.P,Q3,3,S_3*%
%TO.N,VDC_OUT*%
X189175000Y-180140000D03*
%TD*%
D10*
%TO.P,R58,1*%
%TO.N,Net-(R58-Pad1)*%
X222730263Y-203500000D03*
%TO.P,R58,2*%
%TO.N,Net-(R57-Pad1)*%
X222730263Y-209600000D03*
%TD*%
D16*
%TO.P,R29,1*%
%TO.N,Gate*%
X217375000Y-173400000D03*
%TO.P,R29,2*%
%TO.N,Net-(Q2-G)*%
X217375000Y-176500000D03*
%TD*%
D10*
%TO.P,R73,1*%
%TO.N,Net-(R73-Pad1)*%
X183151316Y-212200000D03*
%TO.P,R73,2*%
%TO.N,VDC_IN*%
X183151316Y-218300000D03*
%TD*%
D22*
%TO.P,R203,1*%
%TO.N,GND*%
X139820000Y-148700000D03*
%TO.P,R203,2*%
%TO.N,Ready*%
X139820000Y-146700000D03*
%TD*%
D11*
%TO.P,R64,1*%
%TO.N,Net-(R62-Pad1)*%
X227677632Y-201050000D03*
%TO.P,R64,2*%
%TO.N,Net-(R63-Pad1)*%
X227677632Y-194950000D03*
%TD*%
%TO.P,R47,1*%
%TO.N,Net-(R47-Pad1)*%
X173256579Y-192550000D03*
%TO.P,R47,2*%
%TO.N,VDC_OUT*%
X173256579Y-186450000D03*
%TD*%
D10*
%TO.P,R174,1*%
%TO.N,Net-(R174-Pad1)*%
X232625000Y-203500000D03*
%TO.P,R174,2*%
%TO.N,Net-(R173-Pad1)*%
X232625000Y-209600000D03*
%TD*%
D13*
%TO.P,R35,1*%
%TO.N,VDC_OUT*%
X176375000Y-174500000D03*
%TO.P,R35,2*%
%TO.N,Net-(Q4-G)*%
X178375000Y-174500000D03*
%TD*%
D23*
%TO.P,C17,1*%
%TO.N,Net-(C17-Pad1)*%
X183375000Y-143287500D03*
%TO.P,C17,2*%
%TO.N,GND1*%
X183375000Y-141212500D03*
%TD*%
D11*
%TO.P,R43,1*%
%TO.N,Net-(R43-Pad1)*%
X188098684Y-192550000D03*
%TO.P,R43,2*%
%TO.N,VDC_OUT*%
X188098684Y-186450000D03*
%TD*%
D24*
%TO.P,R25,1*%
%TO.N,Net-(R198-Pad2)*%
X185375000Y-141250000D03*
%TO.P,R25,2*%
%TO.N,Net-(C17-Pad1)*%
X185375000Y-143250000D03*
%TD*%
D13*
%TO.P,R12,1*%
%TO.N,Net-(U6--)*%
X199325000Y-152000000D03*
%TO.P,R12,2*%
%TO.N,Net-(C6-Pad2)*%
X201325000Y-152000000D03*
%TD*%
D17*
%TO.P,D3,1,GND_1*%
%TO.N,GND*%
X173265000Y-134050010D03*
%TO.P,D3,2,Vin_2*%
%TO.N,Net-(D3-Vin)*%
X170725000Y-134050010D03*
%TO.P,D3,3,NC_3*%
%TO.N,unconnected-(D3-NC-Pad3)*%
X168185000Y-134050010D03*
%TO.P,D3,5,NC_5*%
%TO.N,unconnected-(D3-NC-Pad5)*%
X163105000Y-134050010D03*
%TO.P,D3,6,+Vo_6*%
%TO.N,VCC*%
X160565000Y-134050010D03*
%TO.P,D3,7,0V_7*%
%TO.N,VDC_OUT*%
X158025000Y-134050010D03*
%TO.P,D3,8,NC_8*%
%TO.N,unconnected-(D3-NC-Pad8)*%
X155485000Y-134050010D03*
%TD*%
D15*
%TO.P,R20,1*%
%TO.N,Net-(R19-Pad2)*%
X207875000Y-156962500D03*
%TO.P,R20,2*%
%TO.N,Net-(U7-+)*%
X207875000Y-154037500D03*
%TD*%
D11*
%TO.P,R68,1*%
%TO.N,Net-(R66-Pad1)*%
X148519737Y-201050000D03*
%TO.P,R68,2*%
%TO.N,Net-(R67-Pad1)*%
X148519737Y-194950000D03*
%TD*%
%TO.P,R91,1*%
%TO.N,Net-(R91-Pad1)*%
X163361842Y-192550000D03*
%TO.P,R91,2*%
%TO.N,VDC_OUT*%
X163361842Y-186450000D03*
%TD*%
D22*
%TO.P,R2,1*%
%TO.N,Net-(U1A-+)*%
X219375000Y-138000000D03*
%TO.P,R2,2*%
%TO.N,GND1*%
X219375000Y-136000000D03*
%TD*%
D13*
%TO.P,R3,1*%
%TO.N,GND1*%
X194825000Y-152000000D03*
%TO.P,R3,2*%
%TO.N,Net-(U6-+)*%
X196825000Y-152000000D03*
%TD*%
%TO.P,R31,1*%
%TO.N,VDC_OUT*%
X210875000Y-174500000D03*
%TO.P,R31,2*%
%TO.N,Net-(Q2-G)*%
X212875000Y-174500000D03*
%TD*%
D11*
%TO.P,R175,1*%
%TO.N,Net-(R175-Pad1)*%
X232625000Y-192550000D03*
%TO.P,R175,2*%
%TO.N,VDC_OUT*%
X232625000Y-186450000D03*
%TD*%
D10*
%TO.P,R46,1*%
%TO.N,Net-(R46-Pad1)*%
X173256579Y-203500000D03*
%TO.P,R46,2*%
%TO.N,Net-(R45-Pad1)*%
X173256579Y-209600000D03*
%TD*%
D11*
%TO.P,R104,1*%
%TO.N,Net-(R102-Pad1)*%
X202940789Y-201050000D03*
%TO.P,R104,2*%
%TO.N,Net-(R103-Pad1)*%
X202940789Y-194950000D03*
%TD*%
D10*
%TO.P,R86,1*%
%TO.N,Net-(R86-Pad1)*%
X158414474Y-203500000D03*
%TO.P,R86,2*%
%TO.N,Net-(R85-Pad1)*%
X158414474Y-209600000D03*
%TD*%
D25*
%TO.P,C6,1*%
%TO.N,Net-(U6--)*%
X199287500Y-149750000D03*
%TO.P,C6,2*%
%TO.N,Net-(C6-Pad2)*%
X201362500Y-149750000D03*
%TD*%
D21*
%TO.P,R199,1*%
%TO.N,+5V*%
X154882500Y-148950000D03*
%TO.P,R199,2*%
%TO.N,Net-(R199-Pad2)*%
X152882500Y-148950000D03*
%TD*%
D10*
%TO.P,R45,1*%
%TO.N,Net-(R45-Pad1)*%
X173256579Y-212200000D03*
%TO.P,R45,2*%
%TO.N,VDC_IN*%
X173256579Y-218300000D03*
%TD*%
D11*
%TO.P,R48,1*%
%TO.N,Net-(R46-Pad1)*%
X173256579Y-201050000D03*
%TO.P,R48,2*%
%TO.N,Net-(R47-Pad1)*%
X173256579Y-194950000D03*
%TD*%
D26*
%TO.P,J1,1,Pin_1_1*%
%TO.N,GND*%
X147375000Y-141420000D03*
D27*
%TO.P,J1,2,Pin_2_2*%
X144375000Y-141420000D03*
%TO.P,J1,3,Pin_3_3*%
%TO.N,Ready*%
X141375000Y-141420000D03*
%TO.P,J1,4,Pin_4_4*%
%TO.N,+27V*%
X147375000Y-138420000D03*
%TO.P,J1,5,Pin_5_5*%
X144375000Y-138420000D03*
%TO.P,J1,6,Pin_6_6*%
%TO.N,Ready*%
X141375000Y-138420000D03*
%TD*%
D10*
%TO.P,R89,1*%
%TO.N,Net-(R89-Pad1)*%
X163361842Y-212200000D03*
%TO.P,R89,2*%
%TO.N,VDC_IN*%
X163361842Y-218300000D03*
%TD*%
D11*
%TO.P,R51,1*%
%TO.N,Net-(R51-Pad1)*%
X153467105Y-192550000D03*
%TO.P,R51,2*%
%TO.N,VDC_OUT*%
X153467105Y-186450000D03*
%TD*%
D28*
%TO.P,J4,1,Pin_1_1*%
%TO.N,GNDPWR*%
X227375000Y-146250000D03*
%TD*%
D10*
%TO.P,R122,1*%
%TO.N,Net-(R122-Pad1)*%
X212835526Y-203500000D03*
%TO.P,R122,2*%
%TO.N,Net-(R121-Pad1)*%
X212835526Y-209600000D03*
%TD*%
D22*
%TO.P,R28,1*%
%TO.N,Net-(U1B--)*%
X219375000Y-131000000D03*
%TO.P,R28,2*%
%TO.N,GND1*%
X219375000Y-129000000D03*
%TD*%
D10*
%TO.P,R106,1*%
%TO.N,Net-(R106-Pad1)*%
X143572368Y-203500000D03*
%TO.P,R106,2*%
%TO.N,Net-(R105-Pad1)*%
X143572368Y-209600000D03*
%TD*%
D11*
%TO.P,R108,1*%
%TO.N,Net-(R106-Pad1)*%
X143572368Y-201050000D03*
%TO.P,R108,2*%
%TO.N,Net-(R107-Pad1)*%
X143572368Y-194950000D03*
%TD*%
%TO.P,R96,1*%
%TO.N,Net-(R94-Pad1)*%
X178203947Y-201050000D03*
%TO.P,R96,2*%
%TO.N,Net-(R95-Pad1)*%
X178203947Y-194950000D03*
%TD*%
D13*
%TO.P,R200,1*%
%TO.N,Net-(R200-Pad1)*%
X152882500Y-146700000D03*
%TO.P,R200,2*%
%TO.N,Net-(Q6-D)*%
X154882500Y-146700000D03*
%TD*%
D10*
%TO.P,R90,1*%
%TO.N,Net-(R90-Pad1)*%
X163361842Y-203500000D03*
%TO.P,R90,2*%
%TO.N,Net-(R89-Pad1)*%
X163361842Y-209600000D03*
%TD*%
%TO.P,R118,1*%
%TO.N,Net-(R118-Pad1)*%
X168309211Y-203500000D03*
%TO.P,R118,2*%
%TO.N,Net-(R117-Pad1)*%
X168309211Y-209600000D03*
%TD*%
D21*
%TO.P,R198,1*%
%TO.N,Net-(U1B-+)*%
X210875000Y-128250000D03*
%TO.P,R198,2*%
%TO.N,Net-(R198-Pad2)*%
X208875000Y-128250000D03*
%TD*%
D29*
%TO.P,C20,1*%
%TO.N,VDC_OUT*%
X184312500Y-168750000D03*
%TO.P,C20,2*%
%TO.N,VCC*%
X187437500Y-168750000D03*
%TD*%
D11*
%TO.P,R44,1*%
%TO.N,Net-(R42-Pad1)*%
X188098684Y-201050000D03*
%TO.P,R44,2*%
%TO.N,Net-(R43-Pad1)*%
X188098684Y-194950000D03*
%TD*%
D10*
%TO.P,R57,1*%
%TO.N,Net-(R57-Pad1)*%
X222730263Y-212200000D03*
%TO.P,R57,2*%
%TO.N,VDC_IN*%
X222730263Y-218300000D03*
%TD*%
D19*
%TO.P,Q2,1,G_1*%
%TO.N,Net-(Q2-G)*%
X217325000Y-180140000D03*
D20*
%TO.P,Q2,2,D_2*%
%TO.N,VDC_IN*%
X211875000Y-180140000D03*
%TO.P,Q2,3,S_3*%
%TO.N,VDC_OUT*%
X206425000Y-180140000D03*
%TD*%
D10*
%TO.P,R53,1*%
%TO.N,Net-(R53-Pad1)*%
X217782895Y-212200000D03*
%TO.P,R53,2*%
%TO.N,VDC_IN*%
X217782895Y-218300000D03*
%TD*%
D11*
%TO.P,R79,1*%
%TO.N,Net-(R79-Pad1)*%
X138625000Y-192550000D03*
%TO.P,R79,2*%
%TO.N,VDC_OUT*%
X138625000Y-186450000D03*
%TD*%
D30*
%TO.P,U3,1*%
%TO.N,Net-(C4-Pad1)*%
X186862500Y-146400000D03*
%TO.P,U3,2*%
%TO.N,Net-(C17-Pad1)*%
X185912500Y-146400000D03*
%TO.P,U3,3,GND_3*%
%TO.N,GND1*%
X184962500Y-146400000D03*
%TO.P,U3,4*%
%TO.N,Shunt_ON*%
X184962500Y-149100000D03*
%TO.P,U3,5,VCC_5*%
%TO.N,+5V*%
X186862500Y-149100000D03*
%TD*%
D24*
%TO.P,R27,1*%
%TO.N,+5V*%
X221625000Y-129000000D03*
%TO.P,R27,2*%
%TO.N,Net-(U1B--)*%
X221625000Y-131000000D03*
%TD*%
D10*
%TO.P,R41,1*%
%TO.N,Net-(R41-Pad1)*%
X188098684Y-212200000D03*
%TO.P,R41,2*%
%TO.N,VDC_IN*%
X188098684Y-218300000D03*
%TD*%
%TO.P,R49,1*%
%TO.N,Net-(R49-Pad1)*%
X153467105Y-212200000D03*
%TO.P,R49,2*%
%TO.N,VDC_IN*%
X153467105Y-218300000D03*
%TD*%
D31*
%TO.P,R4,1*%
%TO.N,VDC_IN*%
X194912500Y-165750000D03*
%TO.P,R4,2*%
%TO.N,Net-(R4-Pad2)*%
X197837500Y-165750000D03*
%TD*%
D19*
%TO.P,Q5,1,G_1*%
%TO.N,Net-(Q5-G)*%
X165575000Y-180140000D03*
D20*
%TO.P,Q5,2,D_2*%
%TO.N,VDC_IN*%
X160125000Y-180140000D03*
%TO.P,Q5,3,S_3*%
%TO.N,VDC_OUT*%
X154675000Y-180140000D03*
%TD*%
D15*
%TO.P,R19,1*%
%TO.N,Net-(R18-Pad2)*%
X207875000Y-162962500D03*
%TO.P,R19,2*%
%TO.N,Net-(R19-Pad2)*%
X207875000Y-160037500D03*
%TD*%
D10*
%TO.P,R94,1*%
%TO.N,Net-(R94-Pad1)*%
X178203947Y-203500000D03*
%TO.P,R94,2*%
%TO.N,Net-(R93-Pad1)*%
X178203947Y-209600000D03*
%TD*%
D11*
%TO.P,R123,1*%
%TO.N,Net-(R123-Pad1)*%
X212835526Y-192550000D03*
%TO.P,R123,2*%
%TO.N,VDC_OUT*%
X212835526Y-186450000D03*
%TD*%
%TO.P,R67,1*%
%TO.N,Net-(R67-Pad1)*%
X148519737Y-192550000D03*
%TO.P,R67,2*%
%TO.N,VDC_OUT*%
X148519737Y-186450000D03*
%TD*%
%TO.P,R87,1*%
%TO.N,Net-(R87-Pad1)*%
X158414474Y-192550000D03*
%TO.P,R87,2*%
%TO.N,VDC_OUT*%
X158414474Y-186450000D03*
%TD*%
D10*
%TO.P,R81,1*%
%TO.N,Net-(R81-Pad1)*%
X197993421Y-212200000D03*
%TO.P,R81,2*%
%TO.N,VDC_IN*%
X197993421Y-218300000D03*
%TD*%
%TO.P,R61,1*%
%TO.N,Net-(R61-Pad1)*%
X227677632Y-212200000D03*
%TO.P,R61,2*%
%TO.N,VDC_IN*%
X227677632Y-218300000D03*
%TD*%
D32*
%TO.P,R22,1*%
%TO.N,GNDPWR*%
X221837500Y-148000000D03*
%TO.P,R22,2*%
%TO.N,Net-(R22-Pad2)*%
X218912500Y-148000000D03*
%TD*%
D15*
%TO.P,R10,1*%
%TO.N,Net-(R10-Pad1)*%
X202125000Y-162962500D03*
%TO.P,R10,2*%
%TO.N,Net-(R10-Pad2)*%
X202125000Y-160037500D03*
%TD*%
D24*
%TO.P,R16,1*%
%TO.N,GND1*%
X173875000Y-151000000D03*
%TO.P,R16,2*%
%TO.N,Net-(Q1-G)*%
X173875000Y-153000000D03*
%TD*%
D21*
%TO.P,R197,1*%
%TO.N,Net-(U1A-+)*%
X209625000Y-138750000D03*
%TO.P,R197,2*%
%TO.N,Net-(R197-Pad2)*%
X207625000Y-138750000D03*
%TD*%
D13*
%TO.P,R26,1*%
%TO.N,Net-(U7--)*%
X210375000Y-152000000D03*
%TO.P,R26,2*%
%TO.N,Net-(C21-Pad2)*%
X212375000Y-152000000D03*
%TD*%
D10*
%TO.P,R85,1*%
%TO.N,Net-(R85-Pad1)*%
X158414474Y-212200000D03*
%TO.P,R85,2*%
%TO.N,VDC_IN*%
X158414474Y-218300000D03*
%TD*%
D11*
%TO.P,R100,1*%
%TO.N,Net-(R100-Pad1)*%
X193046053Y-201050000D03*
%TO.P,R100,2*%
%TO.N,Net-(R100-Pad2)*%
X193046053Y-194950000D03*
%TD*%
D10*
%TO.P,R42,1*%
%TO.N,Net-(R42-Pad1)*%
X188098684Y-203500000D03*
%TO.P,R42,2*%
%TO.N,Net-(R41-Pad1)*%
X188098684Y-209600000D03*
%TD*%
D24*
%TO.P,R15,1*%
%TO.N,Shunt_ON*%
X176125000Y-151000000D03*
%TO.P,R15,2*%
%TO.N,Net-(Q1-G)*%
X176125000Y-153000000D03*
%TD*%
D11*
%TO.P,R88,1*%
%TO.N,Net-(R86-Pad1)*%
X158414474Y-201050000D03*
%TO.P,R88,2*%
%TO.N,Net-(R87-Pad1)*%
X158414474Y-194950000D03*
%TD*%
D10*
%TO.P,R82,1*%
%TO.N,Net-(R82-Pad1)*%
X197993421Y-203500000D03*
%TO.P,R82,2*%
%TO.N,Net-(R81-Pad1)*%
X197993421Y-209600000D03*
%TD*%
D16*
%TO.P,R34,1*%
%TO.N,Gate*%
X165625000Y-173450000D03*
%TO.P,R34,2*%
%TO.N,Net-(Q5-G)*%
X165625000Y-176550000D03*
%TD*%
D25*
%TO.P,C21,1*%
%TO.N,Net-(U7--)*%
X210337500Y-149750000D03*
%TO.P,C21,2*%
%TO.N,Net-(C21-Pad2)*%
X212412500Y-149750000D03*
%TD*%
D11*
%TO.P,R95,1*%
%TO.N,Net-(R95-Pad1)*%
X178203947Y-192550000D03*
%TO.P,R95,2*%
%TO.N,VDC_OUT*%
X178203947Y-186450000D03*
%TD*%
%TO.P,R76,1*%
%TO.N,Net-(R74-Pad1)*%
X183151316Y-201050000D03*
%TO.P,R76,2*%
%TO.N,Net-(R75-Pad1)*%
X183151316Y-194950000D03*
%TD*%
%TO.P,R84,1*%
%TO.N,Net-(R82-Pad1)*%
X197993421Y-201050000D03*
%TO.P,R84,2*%
%TO.N,Net-(R83-Pad1)*%
X197993421Y-194950000D03*
%TD*%
D21*
%TO.P,R8,1*%
%TO.N,Net-(C6-Pad2)*%
X214875000Y-138000000D03*
%TO.P,R8,2*%
%TO.N,Net-(U1A--)*%
X212875000Y-138000000D03*
%TD*%
D24*
%TO.P,R202,1*%
%TO.N,GND1*%
X161132500Y-145700000D03*
%TO.P,R202,2*%
%TO.N,Net-(Q6-G)*%
X161132500Y-147700000D03*
%TD*%
D25*
%TO.P,C3,1*%
%TO.N,GND1*%
X194787500Y-149750000D03*
%TO.P,C3,2*%
%TO.N,Net-(U6-+)*%
X196862500Y-149750000D03*
%TD*%
D10*
%TO.P,R62,1*%
%TO.N,Net-(R62-Pad1)*%
X227677632Y-203500000D03*
%TO.P,R62,2*%
%TO.N,Net-(R61-Pad1)*%
X227677632Y-209600000D03*
%TD*%
D33*
%TO.P,Q1,1,G_1*%
%TO.N,Net-(Q1-G)*%
X178175000Y-152687500D03*
%TO.P,Q1,2,S_2*%
%TO.N,GND1*%
X180075000Y-152687500D03*
%TO.P,Q1,3,D_3*%
%TO.N,Net-(Q1-D)*%
X179125000Y-150812500D03*
%TD*%
D23*
%TO.P,C1,1*%
%TO.N,Net-(U1A-+)*%
X217125000Y-138037500D03*
%TO.P,C1,2*%
%TO.N,GND1*%
X217125000Y-135962500D03*
%TD*%
D22*
%TO.P,R14,1*%
%TO.N,Net-(D1-CATHODE)*%
X182125000Y-153000000D03*
%TO.P,R14,2*%
%TO.N,Net-(Q1-D)*%
X182125000Y-151000000D03*
%TD*%
D10*
%TO.P,R50,1*%
%TO.N,Net-(R50-Pad1)*%
X153467105Y-203500000D03*
%TO.P,R50,2*%
%TO.N,Net-(R49-Pad1)*%
X153467105Y-209600000D03*
%TD*%
%TO.P,R173,1*%
%TO.N,Net-(R173-Pad1)*%
X232625000Y-212200000D03*
%TO.P,R173,2*%
%TO.N,VDC_IN*%
X232625000Y-218300000D03*
%TD*%
D34*
%TO.P,U1,1*%
%TO.N,Net-(R197-Pad2)*%
X207220000Y-136037500D03*
%TO.P,U1,2,-_2*%
%TO.N,Net-(U1A--)*%
X208490000Y-136037500D03*
%TO.P,U1,3,+_3*%
%TO.N,Net-(U1A-+)*%
X209760000Y-136037500D03*
%TO.P,U1,4,V-_4*%
%TO.N,GND1*%
X211030000Y-136037500D03*
%TO.P,U1,5,+_5*%
%TO.N,Net-(U1B-+)*%
X211030000Y-130962500D03*
%TO.P,U1,6,-_6*%
%TO.N,Net-(U1B--)*%
X209760000Y-130962500D03*
%TO.P,U1,7*%
%TO.N,Net-(R198-Pad2)*%
X208490000Y-130962500D03*
%TO.P,U1,8,V+_8*%
%TO.N,+5V*%
X207220000Y-130962500D03*
%TD*%
D35*
%TO.P,R23,1*%
%TO.N,Net-(R22-Pad2)*%
X215875000Y-149037500D03*
%TO.P,R23,2*%
%TO.N,Net-(R23-Pad2)*%
X215875000Y-151962500D03*
%TD*%
D11*
%TO.P,R176,1*%
%TO.N,Net-(R174-Pad1)*%
X232625000Y-201050000D03*
%TO.P,R176,2*%
%TO.N,Net-(R175-Pad1)*%
X232625000Y-194950000D03*
%TD*%
D10*
%TO.P,R74,1*%
%TO.N,Net-(R74-Pad1)*%
X183151316Y-203500000D03*
%TO.P,R74,2*%
%TO.N,Net-(R73-Pad1)*%
X183151316Y-209600000D03*
%TD*%
D32*
%TO.P,R9,1*%
%TO.N,VDC_OUT*%
X205087500Y-165750000D03*
%TO.P,R9,2*%
%TO.N,Net-(R10-Pad1)*%
X202162500Y-165750000D03*
%TD*%
D14*
%TO.P,U7,1*%
%TO.N,Net-(C21-Pad2)*%
X207987500Y-145300000D03*
%TO.P,U7,2,V-_2*%
%TO.N,GND1*%
X207987500Y-146250000D03*
%TO.P,U7,3,+_3*%
%TO.N,Net-(U7-+)*%
X207987500Y-147200000D03*
%TO.P,U7,4,-_4*%
%TO.N,Net-(U7--)*%
X210262500Y-147200000D03*
%TO.P,U7,5,V+_5*%
%TO.N,+5V*%
X210262500Y-145300000D03*
%TD*%
D24*
%TO.P,R13,1*%
%TO.N,+5V*%
X189875000Y-151000000D03*
%TO.P,R13,2*%
%TO.N,Net-(D1-ANODE)*%
X189875000Y-153000000D03*
%TD*%
D36*
%TO.P,Q6,1,G_1*%
%TO.N,Net-(Q6-G)*%
X158820000Y-147650000D03*
%TO.P,Q6,2,S_2*%
%TO.N,GND1*%
X158820000Y-145750000D03*
%TO.P,Q6,3,D_3*%
%TO.N,Net-(Q6-D)*%
X156945000Y-146700000D03*
%TD*%
D10*
%TO.P,R65,1*%
%TO.N,Net-(R65-Pad1)*%
X148519737Y-212200000D03*
%TO.P,R65,2*%
%TO.N,VDC_IN*%
X148519737Y-218300000D03*
%TD*%
D37*
%TO.P,U5,1*%
%TO.N,Net-(R199-Pad2)*%
X150625000Y-149025000D03*
D38*
%TO.P,U5,2*%
%TO.N,Net-(R200-Pad1)*%
X150625000Y-146485000D03*
%TO.P,U5,3*%
%TO.N,Ready*%
X143005000Y-146485000D03*
%TO.P,U5,4*%
%TO.N,+27V*%
X143005000Y-149025000D03*
%TD*%
D32*
%TO.P,R24,1*%
%TO.N,Net-(R23-Pad2)*%
X213587500Y-155000000D03*
%TO.P,R24,2*%
%TO.N,Net-(U7--)*%
X210662500Y-155000000D03*
%TD*%
D39*
%TO.P,C9,1*%
%TO.N,VCC*%
X187437500Y-166250000D03*
%TO.P,C9,2*%
%TO.N,VDC_OUT*%
X184312500Y-166250000D03*
%TD*%
D31*
%TO.P,R18,1*%
%TO.N,VDC_OUT*%
X206912500Y-165750000D03*
%TO.P,R18,2*%
%TO.N,Net-(R18-Pad2)*%
X209837500Y-165750000D03*
%TD*%
D23*
%TO.P,C4,1*%
%TO.N,Net-(C4-Pad1)*%
X189375000Y-143287500D03*
%TO.P,C4,2*%
%TO.N,GND1*%
X189375000Y-141212500D03*
%TD*%
D11*
%TO.P,R60,1*%
%TO.N,Net-(R58-Pad1)*%
X222730263Y-201050000D03*
%TO.P,R60,2*%
%TO.N,Net-(R59-Pad1)*%
X222730263Y-194950000D03*
%TD*%
D10*
%TO.P,R77,1*%
%TO.N,Net-(R77-Pad1)*%
X138625000Y-212200000D03*
%TO.P,R77,2*%
%TO.N,VDC_IN*%
X138625000Y-218300000D03*
%TD*%
%TO.P,R39,1*%
%TO.N,Net-(R38-Pad1)*%
X207888158Y-203500000D03*
%TO.P,R39,2*%
%TO.N,Net-(R39-Pad2)*%
X207888158Y-209600000D03*
%TD*%
D25*
%TO.P,C5,1*%
%TO.N,Net-(U1A--)*%
X212837500Y-136000000D03*
%TO.P,C5,2*%
%TO.N,GND1*%
X214912500Y-136000000D03*
%TD*%
D11*
%TO.P,R124,1*%
%TO.N,Net-(R122-Pad1)*%
X212835526Y-201050000D03*
%TO.P,R124,2*%
%TO.N,Net-(R123-Pad1)*%
X212835526Y-194950000D03*
%TD*%
D10*
%TO.P,R105,1*%
%TO.N,Net-(R105-Pad1)*%
X143572368Y-212200000D03*
%TO.P,R105,2*%
%TO.N,VDC_IN*%
X143572368Y-218300000D03*
%TD*%
D24*
%TO.P,R1,1*%
%TO.N,+5V*%
X221625000Y-136000000D03*
%TO.P,R1,2*%
%TO.N,Net-(U1A-+)*%
X221625000Y-138000000D03*
%TD*%
D15*
%TO.P,R6,1*%
%TO.N,Net-(R5-Pad2)*%
X196875000Y-156962500D03*
%TO.P,R6,2*%
%TO.N,Net-(U6-+)*%
X196875000Y-154037500D03*
%TD*%
D13*
%TO.P,R32,1*%
%TO.N,VDC_OUT*%
X193625000Y-174500000D03*
%TO.P,R32,2*%
%TO.N,Net-(Q3-G)*%
X195625000Y-174500000D03*
%TD*%
D25*
%TO.P,C15,1*%
%TO.N,GND1*%
X205837500Y-149750000D03*
%TO.P,C15,2*%
%TO.N,Net-(U7-+)*%
X207912500Y-149750000D03*
%TD*%
D24*
%TO.P,R7,1*%
%TO.N,Net-(R197-Pad2)*%
X187375000Y-141250000D03*
%TO.P,R7,2*%
%TO.N,Net-(C4-Pad1)*%
X187375000Y-143250000D03*
%TD*%
D25*
%TO.P,C16,1*%
%TO.N,Net-(U1B-+)*%
X212837500Y-129000000D03*
%TO.P,C16,2*%
%TO.N,GND1*%
X214912500Y-129000000D03*
%TD*%
D10*
%TO.P,R101,1*%
%TO.N,Net-(R101-Pad1)*%
X202940789Y-212200000D03*
%TO.P,R101,2*%
%TO.N,VDC_IN*%
X202940789Y-218300000D03*
%TD*%
D11*
%TO.P,R92,1*%
%TO.N,Net-(R90-Pad1)*%
X163361842Y-201050000D03*
%TO.P,R92,2*%
%TO.N,Net-(R91-Pad1)*%
X163361842Y-194950000D03*
%TD*%
D23*
%TO.P,C22,1*%
%TO.N,Net-(U1B--)*%
X217125000Y-131037500D03*
%TO.P,C22,2*%
%TO.N,GND1*%
X217125000Y-128962500D03*
%TD*%
D40*
%TO.N,VDC_IN*%
X205430556Y-220750000D03*
X143075000Y-156200000D03*
X141875000Y-173000000D03*
X152675000Y-161000000D03*
X151475000Y-155000000D03*
X215319445Y-220000000D03*
X137075000Y-169400000D03*
X230152778Y-219250000D03*
X146675000Y-174200000D03*
X138275000Y-171800000D03*
X152675000Y-158600000D03*
X151475000Y-159800000D03*
X152675000Y-155000000D03*
X152675000Y-167000000D03*
X137075000Y-157400000D03*
X185652778Y-220000000D03*
X180708334Y-220750000D03*
X165875000Y-219250000D03*
X230152778Y-220750000D03*
X151475000Y-169400000D03*
X137075000Y-158600000D03*
X137075000Y-156200000D03*
X149075000Y-171800000D03*
X152675000Y-165800000D03*
X146675000Y-173000000D03*
X146097222Y-220750000D03*
X152675000Y-168200000D03*
X152675000Y-169400000D03*
X140675000Y-171800000D03*
X137075000Y-159800000D03*
X149075000Y-156200000D03*
X160930556Y-220750000D03*
X185652778Y-220750000D03*
X145475000Y-156200000D03*
X175763889Y-220750000D03*
X141152778Y-219250000D03*
X144275000Y-156200000D03*
X151475000Y-158600000D03*
X139475000Y-174200000D03*
X205430556Y-219250000D03*
X170819445Y-220000000D03*
X143075000Y-174200000D03*
X155986111Y-220000000D03*
X138275000Y-156200000D03*
X225208334Y-220000000D03*
X138275000Y-174200000D03*
X150275000Y-157400000D03*
X139475000Y-156200000D03*
X160930556Y-219250000D03*
X150275000Y-155000000D03*
X151475000Y-170600000D03*
X205430556Y-220000000D03*
X141152778Y-220750000D03*
X215319445Y-219250000D03*
X140675000Y-173000000D03*
X230152778Y-220000000D03*
X147875000Y-155000000D03*
X137075000Y-171800000D03*
X137075000Y-161000000D03*
X150275000Y-158600000D03*
X190597222Y-220000000D03*
X145475000Y-174200000D03*
X137075000Y-155000000D03*
X152675000Y-163400000D03*
X149075000Y-155000000D03*
X152675000Y-162200000D03*
X146675000Y-155000000D03*
X144275000Y-155000000D03*
X225208334Y-220750000D03*
X150275000Y-170600000D03*
X175763889Y-219250000D03*
X145475000Y-155000000D03*
X138275000Y-157400000D03*
X190597222Y-220750000D03*
X137075000Y-168200000D03*
X180708334Y-219250000D03*
X138275000Y-173000000D03*
X137075000Y-173000000D03*
X175763889Y-220000000D03*
X152675000Y-164600000D03*
X146675000Y-156200000D03*
X144275000Y-174200000D03*
X150275000Y-171800000D03*
X137075000Y-174200000D03*
X195541667Y-220750000D03*
X141152778Y-220000000D03*
X141875000Y-174200000D03*
X165875000Y-220750000D03*
X139475000Y-170600000D03*
X151041667Y-219250000D03*
X220263889Y-220750000D03*
X138275000Y-170600000D03*
X141875000Y-156200000D03*
X210375000Y-219250000D03*
X146097222Y-219250000D03*
X170819445Y-220750000D03*
X146097222Y-220000000D03*
X220263889Y-219250000D03*
X147875000Y-156200000D03*
X151041667Y-220000000D03*
X152675000Y-157400000D03*
X141875000Y-155000000D03*
X151475000Y-156200000D03*
X143075000Y-173000000D03*
X155986111Y-220750000D03*
X139475000Y-173000000D03*
X210375000Y-220000000D03*
X195541667Y-220000000D03*
X152675000Y-159800000D03*
X139475000Y-157400000D03*
X138275000Y-169400000D03*
X210375000Y-220750000D03*
X139475000Y-155000000D03*
X140675000Y-155000000D03*
X200486111Y-219250000D03*
X200486111Y-220000000D03*
X139475000Y-171800000D03*
X150275000Y-156200000D03*
X144275000Y-173000000D03*
X149075000Y-173000000D03*
X137075000Y-167000000D03*
X165875000Y-220000000D03*
X170819445Y-219250000D03*
X160930556Y-220000000D03*
X145475000Y-173000000D03*
X151475000Y-157400000D03*
X143075000Y-155000000D03*
X194125000Y-165750000D03*
X190597222Y-219250000D03*
X152675000Y-156200000D03*
X140675000Y-174200000D03*
X137075000Y-170600000D03*
X185652778Y-219250000D03*
X138275000Y-155000000D03*
X147875000Y-173000000D03*
X147875000Y-171800000D03*
X151041667Y-220750000D03*
X140675000Y-156200000D03*
X225208334Y-219250000D03*
X147875000Y-174200000D03*
X220263889Y-220000000D03*
X195541667Y-219250000D03*
X138275000Y-158600000D03*
X155986111Y-219250000D03*
X180708334Y-220000000D03*
X215319445Y-220750000D03*
X200486111Y-220750000D03*
%TO.N,VDC_OUT*%
X205875000Y-165750000D03*
X230075000Y-174200000D03*
X221675000Y-158600000D03*
X219275000Y-165800000D03*
X230075000Y-156200000D03*
X222875000Y-173000000D03*
X233675000Y-170600000D03*
X231275000Y-173000000D03*
X233675000Y-156200000D03*
X221675000Y-170600000D03*
X233675000Y-174200000D03*
X227675000Y-156200000D03*
X232475000Y-155000000D03*
X232475000Y-171800000D03*
X221675000Y-155000000D03*
X222875000Y-156200000D03*
X233675000Y-155000000D03*
X225275000Y-173000000D03*
X219275000Y-156200000D03*
X225275000Y-174200000D03*
X224075000Y-171800000D03*
X219275000Y-155000000D03*
X226475000Y-155000000D03*
X220475000Y-157400000D03*
X226475000Y-173000000D03*
X233675000Y-171800000D03*
X233675000Y-158600000D03*
X231275000Y-171800000D03*
X220475000Y-169400000D03*
X227675000Y-155000000D03*
X225275000Y-156200000D03*
X233675000Y-169400000D03*
X224075000Y-156200000D03*
X227675000Y-173000000D03*
X219275000Y-168200000D03*
X219275000Y-159800000D03*
X230075000Y-173000000D03*
X221675000Y-156200000D03*
X220475000Y-170600000D03*
X228875000Y-155000000D03*
X219275000Y-158600000D03*
X228875000Y-174200000D03*
X219275000Y-167000000D03*
X219275000Y-164600000D03*
X219275000Y-161000000D03*
X232475000Y-170600000D03*
X222875000Y-155000000D03*
X225275000Y-155000000D03*
X231275000Y-174200000D03*
X228875000Y-173000000D03*
X220475000Y-158600000D03*
X228875000Y-156200000D03*
X226475000Y-156200000D03*
X183275000Y-164800000D03*
X220475000Y-159800000D03*
X226475000Y-174200000D03*
X231275000Y-156200000D03*
X232475000Y-173000000D03*
X231275000Y-155000000D03*
X221675000Y-171800000D03*
X222875000Y-171800000D03*
X232475000Y-174200000D03*
X224075000Y-173000000D03*
X224075000Y-155000000D03*
X230075000Y-155000000D03*
X233675000Y-173000000D03*
X219275000Y-163400000D03*
X232475000Y-156200000D03*
X220475000Y-156200000D03*
X220475000Y-155000000D03*
X227675000Y-174200000D03*
X219275000Y-157400000D03*
X224075000Y-174200000D03*
X219275000Y-169400000D03*
X232475000Y-157400000D03*
X233675000Y-157400000D03*
X219275000Y-162200000D03*
X221675000Y-157400000D03*
%TO.N,VCC*%
X188375000Y-164750000D03*
%TO.N,GND*%
X177375000Y-132500000D03*
X176875000Y-131500000D03*
X174875000Y-131500000D03*
X174375000Y-132500000D03*
X175375000Y-132500000D03*
X177875000Y-131500000D03*
X176375000Y-132500000D03*
X175875000Y-131500000D03*
X139820000Y-149695000D03*
X177875000Y-133500000D03*
%TO.N,+27V*%
X178312500Y-126937500D03*
X174375000Y-137000000D03*
%TO.N,GND1*%
X217125000Y-135000000D03*
X180075000Y-151750000D03*
X173875000Y-150250000D03*
X193862500Y-152000000D03*
X206875000Y-146250000D03*
X205125000Y-152000000D03*
X219375000Y-128000000D03*
X195962500Y-146250000D03*
X189375000Y-140250000D03*
X193862500Y-149750000D03*
X217125000Y-128000000D03*
X162525000Y-146450000D03*
X183375000Y-140250000D03*
X211030000Y-134845000D03*
X205125000Y-149750000D03*
X184962500Y-145337500D03*
X219375000Y-135000000D03*
%TO.N,+5V*%
X221625000Y-128000000D03*
X189875000Y-150250000D03*
X221625000Y-135000000D03*
X186875000Y-150000000D03*
X199262500Y-144600000D03*
X207220000Y-132155000D03*
X210262500Y-144612500D03*
X155625000Y-148950000D03*
%TO.N,Net-(C6-Pad2)*%
X201375000Y-144500000D03*
X214875000Y-139000000D03*
%TO.N,Net-(C21-Pad2)*%
X214875000Y-132000000D03*
X212375000Y-144500000D03*
%TD*%
%TO.N,VDC_IN*%
D41*
X194912500Y-165750000D02*
X194125000Y-165750000D01*
%TO.N,VDC_OUT*%
X156975000Y-174500000D02*
X159125000Y-174500000D01*
X189175000Y-176900000D02*
X191575000Y-174500000D01*
X189175000Y-180140000D02*
X189175000Y-176900000D01*
X154675000Y-176800000D02*
X156975000Y-174500000D01*
X208775000Y-174500000D02*
X210875000Y-174500000D01*
X206425000Y-180140000D02*
X206425000Y-176850000D01*
X191575000Y-174500000D02*
X193625000Y-174500000D01*
X154675000Y-180140000D02*
X154675000Y-176800000D01*
X174375000Y-174500000D02*
X171925000Y-176950000D01*
X206425000Y-176850000D02*
X208775000Y-174500000D01*
X171925000Y-176950000D02*
X171925000Y-180140000D01*
X205087500Y-165750000D02*
X205875000Y-165750000D01*
X206912500Y-165750000D02*
X205875000Y-165750000D01*
X176375000Y-174500000D02*
X174375000Y-174500000D01*
%TO.N,Gate*%
X183025000Y-173450000D02*
X182875000Y-173450000D01*
%TO.N,Net-(D1-CATHODE)*%
X182125000Y-153000000D02*
X183855000Y-153000000D01*
X183855000Y-153000000D02*
X184605000Y-152250000D01*
%TO.N,Net-(D1-ANODE)*%
X187895000Y-153000000D02*
X187145000Y-152250000D01*
X189875000Y-153000000D02*
X187895000Y-153000000D01*
%TO.N,Net-(Q1-G)*%
X177862500Y-153000000D02*
X178175000Y-152687500D01*
X176125000Y-153000000D02*
X177862500Y-153000000D01*
X176125000Y-153000000D02*
X173875000Y-153000000D01*
%TO.N,Net-(Q2-G)*%
X212875000Y-174500000D02*
X215375000Y-174500000D01*
X217325000Y-176550000D02*
X217375000Y-176500000D01*
X215375000Y-174500000D02*
X217375000Y-176500000D01*
X217325000Y-180140000D02*
X217325000Y-176550000D01*
%TO.N,Net-(Q3-G)*%
X200075000Y-176600000D02*
X200125000Y-176550000D01*
X198075000Y-174500000D02*
X200125000Y-176550000D01*
X195625000Y-174500000D02*
X198075000Y-174500000D01*
X200075000Y-180140000D02*
X200075000Y-176600000D01*
%TO.N,Net-(Q4-G)*%
X178375000Y-174500000D02*
X180825000Y-174500000D01*
X180825000Y-174500000D02*
X182875000Y-176550000D01*
X182825000Y-180140000D02*
X182825000Y-176600000D01*
X182825000Y-176600000D02*
X182875000Y-176550000D01*
%TO.N,GND*%
X139820000Y-149695000D02*
X139820000Y-148700000D01*
%TO.N,Net-(Q5-G)*%
X161125000Y-174500000D02*
X163575000Y-174500000D01*
X163575000Y-174500000D02*
X165625000Y-176550000D01*
X165575000Y-176600000D02*
X165625000Y-176550000D01*
X165575000Y-180140000D02*
X165575000Y-176600000D01*
%TO.N,Shunt_ON*%
X177375000Y-149100000D02*
X184962500Y-149100000D01*
X176125000Y-151000000D02*
X176125000Y-150000000D01*
X169775000Y-149100000D02*
X169175000Y-149700000D01*
X177375000Y-149100000D02*
X169775000Y-149100000D01*
X163125000Y-149700000D02*
X169175000Y-149700000D01*
X176125000Y-150000000D02*
X177025000Y-149100000D01*
X177025000Y-149100000D02*
X177375000Y-149100000D01*
%TO.N,GND1*%
X194787500Y-149750000D02*
X193862500Y-149750000D01*
X207987500Y-146250000D02*
X206875000Y-146250000D01*
X162525000Y-146450000D02*
X161775000Y-145700000D01*
X184962500Y-145337500D02*
X184962500Y-146400000D01*
X214912500Y-136000000D02*
X217087500Y-136000000D01*
X217125000Y-135000000D02*
X217125000Y-135962500D01*
X180075000Y-151750000D02*
X180075000Y-152687500D01*
X214912500Y-129000000D02*
X217087500Y-129000000D01*
X219375000Y-129000000D02*
X219375000Y-128000000D01*
X205837500Y-149750000D02*
X205125000Y-149750000D01*
X189375000Y-141212500D02*
X189375000Y-140250000D01*
X195962500Y-146250000D02*
X196987500Y-146250000D01*
X194825000Y-152000000D02*
X193862500Y-152000000D01*
X183375000Y-141212500D02*
X183375000Y-140250000D01*
X161775000Y-145700000D02*
X161132500Y-145700000D01*
X219375000Y-136000000D02*
X219375000Y-135000000D01*
X217087500Y-136000000D02*
X217125000Y-135962500D01*
X205875000Y-152000000D02*
X205125000Y-152000000D01*
X211030000Y-134845000D02*
X211030000Y-136037500D01*
X161082500Y-145750000D02*
X161132500Y-145700000D01*
X217125000Y-128000000D02*
X217125000Y-128962500D01*
X158820000Y-145750000D02*
X161082500Y-145750000D01*
X217087500Y-129000000D02*
X217125000Y-128962500D01*
X173875000Y-151000000D02*
X173875000Y-150250000D01*
%TO.N,Net-(U1A-+)*%
X209625000Y-138750000D02*
X209625000Y-139750000D01*
X209625000Y-139750000D02*
X210375000Y-140500000D01*
X221625000Y-138000000D02*
X217162500Y-138000000D01*
X215875000Y-140500000D02*
X217125000Y-139250000D01*
X210375000Y-140500000D02*
X215875000Y-140500000D01*
X209760000Y-136037500D02*
X209760000Y-138615000D01*
X209760000Y-138615000D02*
X209625000Y-138750000D01*
X217125000Y-139250000D02*
X217125000Y-138037500D01*
X217162500Y-138000000D02*
X217125000Y-138037500D01*
%TO.N,+5V*%
X221625000Y-135000000D02*
X221625000Y-136000000D01*
X199262500Y-144600000D02*
X199262500Y-145250000D01*
X210262500Y-144612500D02*
X210262500Y-145300000D01*
X207220000Y-132155000D02*
X207220000Y-130962500D01*
X221625000Y-128000000D02*
X221625000Y-129000000D01*
X186862500Y-149987500D02*
X186875000Y-150000000D01*
X189875000Y-151000000D02*
X189875000Y-150250000D01*
X186862500Y-149100000D02*
X186862500Y-149987500D01*
X155625000Y-148950000D02*
X154882500Y-148950000D01*
%TO.N,Net-(C4-Pad1)*%
X186862500Y-143762500D02*
X187375000Y-143250000D01*
X189375000Y-143287500D02*
X187412500Y-143287500D01*
X186862500Y-146400000D02*
X186862500Y-143762500D01*
X187412500Y-143287500D02*
X187375000Y-143250000D01*
%TO.N,Net-(U1A--)*%
X212875000Y-138000000D02*
X212875000Y-136037500D01*
X212875000Y-136037500D02*
X212837500Y-136000000D01*
X208490000Y-134885000D02*
X209375000Y-134000000D01*
X212837500Y-134962500D02*
X211875000Y-134000000D01*
X209375000Y-134000000D02*
X211875000Y-134000000D01*
X212837500Y-136000000D02*
X212837500Y-134962500D01*
X208490000Y-136037500D02*
X208490000Y-134885000D01*
%TO.N,Net-(C6-Pad2)*%
X196987500Y-144137500D02*
X196987500Y-145300000D01*
X201362500Y-149750000D02*
X201362500Y-144487500D01*
X200375000Y-143500000D02*
X197625000Y-143500000D01*
X214875000Y-138000000D02*
X214875000Y-139000000D01*
X201325000Y-149787500D02*
X201362500Y-149750000D01*
X201362500Y-144487500D02*
X200375000Y-143500000D01*
X201325000Y-152000000D02*
X201325000Y-149787500D01*
X197625000Y-143500000D02*
X196987500Y-144137500D01*
%TO.N,Net-(U1B-+)*%
X212875000Y-130962500D02*
X212837500Y-131000000D01*
X211067500Y-131000000D02*
X211030000Y-130962500D01*
X212875000Y-129000000D02*
X212875000Y-130962500D01*
X211030000Y-130962500D02*
X211030000Y-128405000D01*
X212837500Y-131000000D02*
X211067500Y-131000000D01*
X211030000Y-128405000D02*
X210875000Y-128250000D01*
%TO.N,Net-(C17-Pad1)*%
X185337500Y-143287500D02*
X185375000Y-143250000D01*
X185912500Y-146400000D02*
X185912500Y-143787500D01*
X183375000Y-143287500D02*
X185337500Y-143287500D01*
X185912500Y-143787500D02*
X185375000Y-143250000D01*
%TO.N,Net-(C21-Pad2)*%
X211625000Y-143500000D02*
X208625000Y-143500000D01*
X214875000Y-131000000D02*
X214875000Y-132000000D01*
X212412500Y-149750000D02*
X212412500Y-151962500D01*
X208625000Y-143500000D02*
X207987500Y-144137500D01*
X212412500Y-149750000D02*
X212412500Y-144287500D01*
X212412500Y-144287500D02*
X211625000Y-143500000D01*
X212412500Y-151962500D02*
X212375000Y-152000000D01*
X207987500Y-144137500D02*
X207987500Y-145300000D01*
%TO.N,Net-(U1B--)*%
X209760000Y-130962500D02*
X209760000Y-132385000D01*
X217125000Y-131750000D02*
X217125000Y-131037500D01*
X217125000Y-131037500D02*
X221587500Y-131037500D01*
X209760000Y-132385000D02*
X210375000Y-133000000D01*
X221587500Y-131037500D02*
X221625000Y-131000000D01*
X210375000Y-133000000D02*
X215875000Y-133000000D01*
X215875000Y-133000000D02*
X217125000Y-131750000D01*
%TO.N,Net-(Q1-D)*%
X181937500Y-150812500D02*
X182125000Y-151000000D01*
X179125000Y-150812500D02*
X181937500Y-150812500D01*
%TO.N,Net-(R18-Pad2)*%
X208837500Y-162962500D02*
X207875000Y-162962500D01*
X209837500Y-163962500D02*
X208837500Y-162962500D01*
X209837500Y-165750000D02*
X209837500Y-163962500D01*
%TO.N,GNDPWR*%
X225625000Y-148000000D02*
X227375000Y-146250000D01*
X221837500Y-148000000D02*
X225625000Y-148000000D01*
%TO.N,Net-(R4-Pad2)*%
X198625000Y-162962500D02*
X198625000Y-164962500D01*
X198625000Y-164962500D02*
X197837500Y-165750000D01*
%TO.N,Net-(R5-Pad2)*%
X196875000Y-157750000D02*
X198625000Y-159500000D01*
X196875000Y-156962500D02*
X196875000Y-157750000D01*
X198625000Y-159500000D02*
X198625000Y-160037500D01*
%TO.N,Net-(R197-Pad2)*%
X207220000Y-136037500D02*
X207220000Y-138345000D01*
X199875000Y-139500000D02*
X203337500Y-136037500D01*
X203337500Y-136037500D02*
X207220000Y-136037500D01*
X187375000Y-140250000D02*
X188125000Y-139500000D01*
X207220000Y-138345000D02*
X207625000Y-138750000D01*
X188125000Y-139500000D02*
X199875000Y-139500000D01*
X187375000Y-141250000D02*
X187375000Y-140250000D01*
%TO.N,Net-(R10-Pad1)*%
X202125000Y-165712500D02*
X202162500Y-165750000D01*
X202125000Y-162962500D02*
X202125000Y-165712500D01*
%TO.N,Net-(R10-Pad2)*%
X200125000Y-156962500D02*
X201587500Y-156962500D01*
X202125000Y-157500000D02*
X202125000Y-160037500D01*
X201587500Y-156962500D02*
X202125000Y-157500000D01*
%TO.N,Net-(R19-Pad2)*%
X207875000Y-160037500D02*
X207875000Y-156962500D01*
%TO.N,Net-(R22-Pad2)*%
X218912500Y-148000000D02*
X216912500Y-148000000D01*
X216912500Y-148000000D02*
X215875000Y-149037500D01*
%TO.N,Net-(R23-Pad2)*%
X213587500Y-155000000D02*
X213587500Y-154250000D01*
X213587500Y-154250000D02*
X215875000Y-151962500D01*
%TO.N,Net-(R198-Pad2)*%
X208490000Y-130962500D02*
X208490000Y-128635000D01*
X208490000Y-132885000D02*
X208490000Y-130962500D01*
X208490000Y-128635000D02*
X208875000Y-128250000D01*
X187500000Y-138375000D02*
X199500000Y-138375000D01*
X199500000Y-138375000D02*
X204125000Y-133750000D01*
X185375000Y-141250000D02*
X185375000Y-140500000D01*
X185375000Y-140500000D02*
X187500000Y-138375000D01*
X207625000Y-133750000D02*
X208490000Y-132885000D01*
X204125000Y-133750000D02*
X207625000Y-133750000D01*
%TO.N,Net-(R37-Pad1)*%
D42*
X207888158Y-192550000D02*
X207888158Y-194950000D01*
%TO.N,Net-(R38-Pad1)*%
X207888158Y-201050000D02*
X207888158Y-203500000D01*
%TO.N,Net-(R41-Pad1)*%
X188098684Y-209600000D02*
X188098684Y-212200000D01*
%TO.N,Net-(R42-Pad1)*%
X188098684Y-201050000D02*
X188098684Y-203500000D01*
%TO.N,Net-(R43-Pad1)*%
X188098684Y-192550000D02*
X188098684Y-194950000D01*
%TO.N,Net-(R45-Pad1)*%
X173256579Y-209600000D02*
X173256579Y-212200000D01*
%TO.N,Net-(R46-Pad1)*%
X173256579Y-201050000D02*
X173256579Y-203500000D01*
%TO.N,Net-(R47-Pad1)*%
X173256579Y-192550000D02*
X173256579Y-194950000D01*
%TO.N,Net-(R49-Pad1)*%
X153467105Y-209600000D02*
X153467105Y-212200000D01*
%TO.N,Net-(R51-Pad1)*%
X153467105Y-192550000D02*
X153467105Y-194950000D01*
%TO.N,Net-(R53-Pad1)*%
X217782895Y-209600000D02*
X217782895Y-212200000D01*
%TO.N,Net-(R55-Pad1)*%
X217782895Y-192550000D02*
X217782895Y-194950000D01*
%TO.N,Net-(R57-Pad1)*%
X222730263Y-209600000D02*
X222730263Y-212200000D01*
%TO.N,Net-(R58-Pad1)*%
X222730263Y-201050000D02*
X222730263Y-203500000D01*
%TO.N,Net-(R59-Pad1)*%
X222730263Y-192550000D02*
X222730263Y-194950000D01*
%TO.N,Net-(R61-Pad1)*%
X227677632Y-209600000D02*
X227677632Y-212200000D01*
%TO.N,Net-(R62-Pad1)*%
X227677632Y-201050000D02*
X227677632Y-203500000D01*
%TO.N,Net-(R63-Pad1)*%
X227677632Y-192550000D02*
X227677632Y-194950000D01*
%TO.N,Net-(R65-Pad1)*%
X148519737Y-209600000D02*
X148519737Y-212200000D01*
%TO.N,Net-(R67-Pad1)*%
X148519737Y-192550000D02*
X148519737Y-194950000D01*
%TO.N,Net-(R73-Pad1)*%
X183151316Y-209600000D02*
X183151316Y-212200000D01*
%TO.N,Net-(R74-Pad1)*%
X183151316Y-201050000D02*
X183151316Y-203500000D01*
%TO.N,Net-(R75-Pad1)*%
X183151316Y-192550000D02*
X183151316Y-194950000D01*
%TO.N,Net-(R77-Pad1)*%
X138625000Y-209600000D02*
X138625000Y-212200000D01*
%TO.N,Net-(R78-Pad1)*%
X138625000Y-201050000D02*
X138625000Y-203500000D01*
%TO.N,Net-(R79-Pad1)*%
X138625000Y-192550000D02*
X138625000Y-194950000D01*
%TO.N,Net-(R81-Pad1)*%
X197993421Y-209600000D02*
X197993421Y-212200000D01*
%TO.N,Net-(R83-Pad1)*%
X197993421Y-192550000D02*
X197993421Y-194950000D01*
%TO.N,Net-(R85-Pad1)*%
X158414474Y-209600000D02*
X158414474Y-212200000D01*
%TO.N,Net-(R87-Pad1)*%
X158414474Y-192550000D02*
X158414474Y-194950000D01*
%TO.N,Net-(R89-Pad1)*%
X163361842Y-209600000D02*
X163361842Y-212200000D01*
%TO.N,Net-(R90-Pad1)*%
X163361842Y-201050000D02*
X163361842Y-203500000D01*
%TO.N,Net-(R91-Pad1)*%
X163361842Y-192550000D02*
X163361842Y-194950000D01*
%TO.N,Net-(R93-Pad1)*%
X178203947Y-209600000D02*
X178203947Y-212200000D01*
%TO.N,Net-(R95-Pad1)*%
X178203947Y-192550000D02*
X178203947Y-194950000D01*
%TO.N,Net-(R97-Pad1)*%
X193046053Y-209600000D02*
X193046053Y-212200000D01*
%TO.N,Net-(R100-Pad1)*%
X193046053Y-201050000D02*
X193046053Y-203500000D01*
%TO.N,Net-(R100-Pad2)*%
X193046053Y-192550000D02*
X193046053Y-194950000D01*
%TO.N,Net-(R101-Pad1)*%
X202940789Y-212200000D02*
X202940789Y-209600000D01*
%TO.N,Net-(R102-Pad1)*%
X202940789Y-201050000D02*
X202940789Y-203500000D01*
%TO.N,Net-(R103-Pad1)*%
X202940789Y-194950000D02*
X202940789Y-192550000D01*
%TO.N,Net-(R105-Pad1)*%
X143572368Y-209600000D02*
X143572368Y-212200000D01*
%TO.N,Net-(R106-Pad1)*%
X143572368Y-201050000D02*
X143572368Y-203500000D01*
%TO.N,Net-(R107-Pad1)*%
X143572368Y-192550000D02*
X143572368Y-194950000D01*
%TO.N,Net-(R117-Pad1)*%
X168309211Y-209600000D02*
X168309211Y-212200000D01*
%TO.N,Net-(R119-Pad1)*%
X168309211Y-192550000D02*
X168309211Y-194950000D01*
%TO.N,Net-(R121-Pad1)*%
X212835526Y-209600000D02*
X212835526Y-212200000D01*
%TO.N,Net-(R122-Pad1)*%
X212835526Y-201050000D02*
X212835526Y-203500000D01*
%TO.N,Net-(R123-Pad1)*%
X212835526Y-192550000D02*
X212835526Y-194950000D01*
%TO.N,Net-(R173-Pad1)*%
X232625000Y-209600000D02*
X232625000Y-212200000D01*
%TO.N,Net-(R174-Pad1)*%
X232625000Y-203500000D02*
X232625000Y-201050000D01*
%TO.N,Net-(R175-Pad1)*%
X232625000Y-192550000D02*
X232625000Y-194950000D01*
%TO.N,Net-(R39-Pad2)*%
X207888158Y-209600000D02*
X207888158Y-212200000D01*
%TO.N,Net-(R50-Pad1)*%
X153467105Y-201050000D02*
X153467105Y-203500000D01*
%TO.N,Net-(R54-Pad1)*%
X217782895Y-201050000D02*
X217782895Y-203500000D01*
%TO.N,Net-(R66-Pad1)*%
X148519737Y-201050000D02*
X148519737Y-203500000D01*
%TO.N,Net-(R82-Pad1)*%
X197993421Y-201050000D02*
X197993421Y-203500000D01*
%TO.N,Net-(R86-Pad1)*%
X158414474Y-201050000D02*
X158414474Y-203500000D01*
%TO.N,Net-(R94-Pad1)*%
X178203947Y-201050000D02*
X178203947Y-203500000D01*
%TO.N,Net-(R118-Pad1)*%
X168309211Y-201050000D02*
X168309211Y-203500000D01*
%TO.N,Net-(Q6-D)*%
D41*
X154882500Y-146700000D02*
X156945000Y-146700000D01*
%TO.N,Net-(Q6-G)*%
X161132500Y-149450000D02*
X160882500Y-149700000D01*
X161082500Y-147650000D02*
X161132500Y-147700000D01*
X158820000Y-147650000D02*
X161082500Y-147650000D01*
X161132500Y-147700000D02*
X161132500Y-149450000D01*
%TO.N,Net-(R199-Pad2)*%
X152807500Y-149025000D02*
X152882500Y-148950000D01*
X150625000Y-149025000D02*
X152807500Y-149025000D01*
%TO.N,Net-(R200-Pad1)*%
X150625000Y-146485000D02*
X152667500Y-146485000D01*
X152667500Y-146485000D02*
X152882500Y-146700000D01*
%TO.N,Ready*%
X140035000Y-146485000D02*
X139820000Y-146700000D01*
X143005000Y-146485000D02*
X140035000Y-146485000D01*
X141375000Y-138420000D02*
X141375000Y-141420000D01*
X139820000Y-142975000D02*
X141375000Y-141420000D01*
X139820000Y-146700000D02*
X139820000Y-142975000D01*
%TO.N,Net-(U6-+)*%
X196862500Y-151962500D02*
X196825000Y-152000000D01*
X196825000Y-152000000D02*
X196825000Y-153987500D01*
X196862500Y-149750000D02*
X196862500Y-151962500D01*
X196987500Y-147200000D02*
X196987500Y-149625000D01*
X196987500Y-149625000D02*
X196862500Y-149750000D01*
X196825000Y-153987500D02*
X196875000Y-154037500D01*
%TO.N,Net-(U6--)*%
X199287500Y-151962500D02*
X199325000Y-152000000D01*
X199287500Y-149750000D02*
X199287500Y-151962500D01*
X199325000Y-153237500D02*
X200125000Y-154037500D01*
X199262500Y-149725000D02*
X199287500Y-149750000D01*
X199325000Y-152000000D02*
X199325000Y-153237500D01*
X199262500Y-147200000D02*
X199262500Y-149725000D01*
%TO.N,Net-(U7-+)*%
X208175000Y-149487500D02*
X207912500Y-149750000D01*
X207875000Y-152000000D02*
X207875000Y-154037500D01*
X207987500Y-149675000D02*
X207912500Y-149750000D01*
X207912500Y-149750000D02*
X207912500Y-151962500D01*
X207987500Y-147200000D02*
X207987500Y-149675000D01*
%TO.N,Net-(U7--)*%
X210375000Y-152000000D02*
X210375000Y-154712500D01*
X210375000Y-154712500D02*
X210662500Y-155000000D01*
X210262500Y-149675000D02*
X210337500Y-149750000D01*
X210075000Y-149487500D02*
X210337500Y-149750000D01*
X210262500Y-147200000D02*
X210262500Y-149675000D01*
X210337500Y-149750000D02*
X210337500Y-151962500D01*
%TD*%
%TA.AperFunction,Conductor*%
%TO.N,VDC_OUT*%
G36*
X184611159Y-162857192D02*
G01*
X184653645Y-162865643D01*
X184676886Y-162872692D01*
X184699030Y-162881864D01*
X184720464Y-162893321D01*
X184756473Y-162917382D01*
X184775262Y-162932802D01*
X184780180Y-162937720D01*
X184789976Y-162946285D01*
X184793073Y-162949733D01*
X184794909Y-162951777D01*
X184805758Y-162965744D01*
X184831675Y-163004531D01*
X184843134Y-163025969D01*
X184852303Y-163048105D01*
X184859359Y-163071367D01*
X184871427Y-163132038D01*
X184873212Y-163144069D01*
X184874402Y-163156145D01*
X184875000Y-163168305D01*
X184875000Y-168989554D01*
X184874804Y-168996521D01*
X184874413Y-169003469D01*
X184873829Y-169010386D01*
X184854779Y-169179457D01*
X184852450Y-169193166D01*
X184849368Y-169206669D01*
X184845518Y-169220031D01*
X184792784Y-169370733D01*
X184787464Y-169383578D01*
X184781458Y-169396050D01*
X184774731Y-169408221D01*
X184689787Y-169543410D01*
X184681739Y-169554753D01*
X184673103Y-169565582D01*
X184663838Y-169575949D01*
X184550949Y-169688838D01*
X184540582Y-169698103D01*
X184529753Y-169706739D01*
X184518410Y-169714787D01*
X184383221Y-169799731D01*
X184371050Y-169806458D01*
X184358578Y-169812464D01*
X184345733Y-169817784D01*
X184195031Y-169870518D01*
X184181669Y-169874368D01*
X184168166Y-169877450D01*
X184154457Y-169879779D01*
X183995807Y-169897655D01*
X183981923Y-169898435D01*
X183968077Y-169898435D01*
X183954193Y-169897655D01*
X183795541Y-169879779D01*
X183781832Y-169877450D01*
X183768329Y-169874368D01*
X183754967Y-169870518D01*
X183604265Y-169817784D01*
X183591420Y-169812464D01*
X183578948Y-169806458D01*
X183566777Y-169799731D01*
X183431588Y-169714787D01*
X183420245Y-169706739D01*
X183409416Y-169698103D01*
X183399049Y-169688838D01*
X183286160Y-169575949D01*
X183276895Y-169565582D01*
X183268259Y-169554753D01*
X183260211Y-169543410D01*
X183175267Y-169408221D01*
X183168540Y-169396050D01*
X183162534Y-169383578D01*
X183157214Y-169370733D01*
X183104480Y-169220029D01*
X183100633Y-169206681D01*
X183097545Y-169193151D01*
X183095221Y-169179472D01*
X183076168Y-169010368D01*
X183075585Y-169003449D01*
X183075195Y-168996497D01*
X183075000Y-168989552D01*
X183075000Y-165073355D01*
X183075148Y-165067289D01*
X183075449Y-165061162D01*
X183075892Y-165055153D01*
X183092421Y-164887322D01*
X183094206Y-164875296D01*
X183096569Y-164863415D01*
X183099518Y-164851638D01*
X183145813Y-164699019D01*
X183149906Y-164687584D01*
X183154550Y-164676373D01*
X183159738Y-164665404D01*
X183234905Y-164524776D01*
X183241159Y-164514343D01*
X183247892Y-164504267D01*
X183255139Y-164494496D01*
X183362101Y-164364163D01*
X183366072Y-164359559D01*
X183370164Y-164355043D01*
X183374333Y-164350665D01*
X184062868Y-163662132D01*
X184275000Y-163450000D01*
X184275000Y-163168297D01*
X184275597Y-163156147D01*
X184276783Y-163144101D01*
X184278568Y-163132061D01*
X184278573Y-163132038D01*
X184290643Y-163071352D01*
X184297699Y-163048095D01*
X184306862Y-163025973D01*
X184318316Y-163004541D01*
X184342388Y-162968516D01*
X184357799Y-162949738D01*
X184374738Y-162932799D01*
X184393524Y-162917383D01*
X184393526Y-162917382D01*
X184429537Y-162893319D01*
X184450965Y-162881864D01*
X184473107Y-162872694D01*
X184496357Y-162865642D01*
X184513462Y-162862239D01*
X184538840Y-162857193D01*
X184563027Y-162854811D01*
X184586976Y-162854811D01*
X184611159Y-162857192D01*
G37*
%TD.AperFunction*%
%TD*%
%TA.AperFunction,Conductor*%
%TO.N,VCC*%
G36*
X187265615Y-162868024D02*
G01*
X187310308Y-162886535D01*
X187366626Y-162924166D01*
X187372519Y-162930059D01*
X187377251Y-162932119D01*
X187400832Y-162958371D01*
X187438462Y-163014688D01*
X187456976Y-163059387D01*
X187472617Y-163138019D01*
X187475000Y-163162210D01*
X187475000Y-163450000D01*
X188377797Y-164352797D01*
X188385969Y-164361813D01*
X188498722Y-164499202D01*
X188512227Y-164519414D01*
X188593121Y-164670756D01*
X188602424Y-164693214D01*
X188652240Y-164857437D01*
X188656982Y-164881278D01*
X188674403Y-165058152D01*
X188675000Y-165070306D01*
X188675000Y-168993038D01*
X188674220Y-169006921D01*
X188674220Y-169006922D01*
X188653999Y-169186382D01*
X188647820Y-169213453D01*
X188590484Y-169377309D01*
X188578437Y-169402326D01*
X188486080Y-169549312D01*
X188468767Y-169571021D01*
X188346021Y-169693767D01*
X188324312Y-169711080D01*
X188177326Y-169803437D01*
X188152309Y-169815484D01*
X187988453Y-169872820D01*
X187961382Y-169878999D01*
X187788884Y-169898435D01*
X187761116Y-169898435D01*
X187588617Y-169878999D01*
X187561546Y-169872820D01*
X187397690Y-169815484D01*
X187372673Y-169803437D01*
X187225687Y-169711080D01*
X187203978Y-169693767D01*
X187081232Y-169571021D01*
X187063919Y-169549312D01*
X186971562Y-169402326D01*
X186959515Y-169377309D01*
X186902179Y-169213453D01*
X186896000Y-169186381D01*
X186875780Y-169006921D01*
X186875000Y-168993038D01*
X186875000Y-163162210D01*
X186877381Y-163138029D01*
X186893025Y-163059379D01*
X186911534Y-163014693D01*
X186949168Y-162958370D01*
X186983370Y-162924168D01*
X187039693Y-162886534D01*
X187084382Y-162868024D01*
X187150813Y-162854811D01*
X187199187Y-162854811D01*
X187265615Y-162868024D01*
G37*
%TD.AperFunction*%
%TD*%
%TA.AperFunction,Conductor*%
%TO.N,VDC_OUT*%
G36*
X233372782Y-154000079D02*
G01*
X233376100Y-154000197D01*
X233377207Y-154000237D01*
X233381627Y-154000474D01*
X233646394Y-154019409D01*
X233655170Y-154020354D01*
X233661849Y-154021314D01*
X233663923Y-154021613D01*
X233672615Y-154023181D01*
X233799047Y-154050685D01*
X233925477Y-154078188D01*
X233934040Y-154080373D01*
X233942509Y-154082859D01*
X233950898Y-154085650D01*
X234193398Y-154176099D01*
X234201536Y-154179470D01*
X234209610Y-154183157D01*
X234217492Y-154187103D01*
X234444633Y-154311132D01*
X234452200Y-154315621D01*
X234459664Y-154320417D01*
X234466907Y-154325446D01*
X234664662Y-154473484D01*
X234674080Y-154480535D01*
X234680973Y-154486091D01*
X234687649Y-154491876D01*
X234694126Y-154497906D01*
X234700573Y-154504353D01*
X234721723Y-154532605D01*
X234734331Y-154555694D01*
X234749500Y-154615123D01*
X234749500Y-187377528D01*
X234749499Y-187377530D01*
X234749500Y-187377531D01*
X234744476Y-187412465D01*
X234737064Y-187437706D01*
X234705769Y-187490450D01*
X234694127Y-187502092D01*
X234687643Y-187508128D01*
X234680966Y-187513913D01*
X234674080Y-187519463D01*
X234466929Y-187674535D01*
X234459664Y-187679579D01*
X234452221Y-187684363D01*
X234444602Y-187688884D01*
X234217506Y-187812887D01*
X234209587Y-187816851D01*
X234201548Y-187820522D01*
X234193374Y-187823908D01*
X233950913Y-187914342D01*
X233942504Y-187917140D01*
X233934035Y-187919626D01*
X233925468Y-187921812D01*
X233672630Y-187976814D01*
X233663920Y-187978386D01*
X233655164Y-187979645D01*
X233646362Y-187980591D01*
X233381628Y-187999525D01*
X233377235Y-187999761D01*
X233372810Y-187999920D01*
X233368357Y-188000000D01*
X137756643Y-188000000D01*
X137752191Y-187999920D01*
X137747765Y-187999761D01*
X137743371Y-187999525D01*
X137478636Y-187980591D01*
X137469834Y-187979645D01*
X137461078Y-187978386D01*
X137452368Y-187976814D01*
X137199530Y-187921812D01*
X137190963Y-187919626D01*
X137182494Y-187917140D01*
X137174086Y-187914342D01*
X136931620Y-187823907D01*
X136923433Y-187820515D01*
X136915405Y-187816848D01*
X136907510Y-187812896D01*
X136830715Y-187770963D01*
X136802466Y-187749816D01*
X136789721Y-187737070D01*
X136757252Y-187680046D01*
X136754349Y-187668668D01*
X136750500Y-187638013D01*
X136750500Y-183414237D01*
X136755522Y-183379306D01*
X136760600Y-183362010D01*
X136795077Y-183306191D01*
X136803675Y-183298186D01*
X136828732Y-183280117D01*
X136907536Y-183237087D01*
X136915390Y-183233155D01*
X136923460Y-183229469D01*
X136931591Y-183226101D01*
X137174095Y-183135653D01*
X137182488Y-183132860D01*
X137190952Y-183130375D01*
X137199520Y-183128188D01*
X137452380Y-183073181D01*
X137461078Y-183071612D01*
X137463541Y-183071257D01*
X137469831Y-183070353D01*
X137478620Y-183069408D01*
X137743377Y-183050473D01*
X137747792Y-183050237D01*
X137748346Y-183050217D01*
X137752220Y-183050079D01*
X137756643Y-183050000D01*
X156806423Y-183050000D01*
X156841355Y-183055022D01*
X156848117Y-183057007D01*
X156861489Y-183060934D01*
X156913449Y-183091449D01*
X156918241Y-183096156D01*
X156934448Y-183115725D01*
X157108931Y-183376856D01*
X157108941Y-183376870D01*
X157287095Y-183593951D01*
X157342719Y-183661729D01*
X157603268Y-183922278D01*
X157603343Y-183922345D01*
X157603864Y-183922767D01*
X157888135Y-184156063D01*
X158044416Y-184260487D01*
X158194533Y-184360792D01*
X158195206Y-184361165D01*
X158196006Y-184361579D01*
X158518432Y-184533919D01*
X158518439Y-184533923D01*
X158522986Y-184536353D01*
X158527961Y-184537997D01*
X158859971Y-184675520D01*
X159212604Y-184782490D01*
X159212610Y-184782491D01*
X159212613Y-184782492D01*
X159212624Y-184782495D01*
X159212632Y-184782496D01*
X159212637Y-184782498D01*
X159213176Y-184782625D01*
X159214452Y-184782859D01*
X159332233Y-184806286D01*
X159574024Y-184854381D01*
X159940750Y-184890500D01*
X159940753Y-184890500D01*
X160309247Y-184890500D01*
X160309250Y-184890500D01*
X160675976Y-184854381D01*
X160746331Y-184840386D01*
X161037375Y-184782495D01*
X161037383Y-184782492D01*
X161037663Y-184782437D01*
X161039089Y-184782027D01*
X161067668Y-184774232D01*
X161069394Y-184772966D01*
X161075600Y-184770900D01*
X161390029Y-184675520D01*
X161730479Y-184534501D01*
X162055468Y-184360791D01*
X162361865Y-184156063D01*
X162646719Y-183922289D01*
X162907289Y-183661719D01*
X163141063Y-183376865D01*
X163303269Y-183134107D01*
X163312746Y-183119922D01*
X163336321Y-183093679D01*
X163352426Y-183080219D01*
X163406667Y-183053973D01*
X163413248Y-183052603D01*
X163438520Y-183050000D01*
X174056423Y-183050000D01*
X174091355Y-183055022D01*
X174098117Y-183057007D01*
X174111489Y-183060934D01*
X174123943Y-183068247D01*
X174135007Y-183070551D01*
X174163449Y-183091449D01*
X174168241Y-183096156D01*
X174184448Y-183115725D01*
X174358931Y-183376856D01*
X174358941Y-183376870D01*
X174537095Y-183593951D01*
X174592719Y-183661729D01*
X174853268Y-183922278D01*
X174853343Y-183922345D01*
X174853864Y-183922767D01*
X175138135Y-184156063D01*
X175294416Y-184260487D01*
X175444533Y-184360792D01*
X175445206Y-184361165D01*
X175446006Y-184361579D01*
X175768432Y-184533919D01*
X175768439Y-184533923D01*
X175772986Y-184536353D01*
X175777961Y-184537997D01*
X176109971Y-184675520D01*
X176462604Y-184782490D01*
X176462610Y-184782491D01*
X176462613Y-184782492D01*
X176462624Y-184782495D01*
X176462632Y-184782496D01*
X176462637Y-184782498D01*
X176463176Y-184782625D01*
X176464452Y-184782859D01*
X176582233Y-184806286D01*
X176824024Y-184854381D01*
X177190750Y-184890500D01*
X177190753Y-184890500D01*
X177559247Y-184890500D01*
X177559250Y-184890500D01*
X177925976Y-184854381D01*
X177996331Y-184840386D01*
X178287375Y-184782495D01*
X178287383Y-184782492D01*
X178287663Y-184782437D01*
X178289089Y-184782027D01*
X178317668Y-184774232D01*
X178319394Y-184772966D01*
X178325600Y-184770900D01*
X178640029Y-184675520D01*
X178980479Y-184534501D01*
X179305468Y-184360791D01*
X179611865Y-184156063D01*
X179896719Y-183922289D01*
X180157289Y-183661719D01*
X180391063Y-183376865D01*
X180553269Y-183134107D01*
X180562746Y-183119922D01*
X180586321Y-183093679D01*
X180602426Y-183080219D01*
X180656667Y-183053973D01*
X180663248Y-183052603D01*
X180688520Y-183050000D01*
X191306423Y-183050000D01*
X191341355Y-183055022D01*
X191348117Y-183057007D01*
X191361489Y-183060934D01*
X191373943Y-183068247D01*
X191385007Y-183070551D01*
X191413449Y-183091449D01*
X191418241Y-183096156D01*
X191434448Y-183115725D01*
X191608931Y-183376856D01*
X191608941Y-183376870D01*
X191787095Y-183593951D01*
X191842719Y-183661729D01*
X192103268Y-183922278D01*
X192103343Y-183922345D01*
X192103864Y-183922767D01*
X192388135Y-184156063D01*
X192544416Y-184260487D01*
X192694533Y-184360792D01*
X192695206Y-184361165D01*
X192696006Y-184361579D01*
X193018432Y-184533919D01*
X193018439Y-184533923D01*
X193022986Y-184536353D01*
X193027961Y-184537997D01*
X193359971Y-184675520D01*
X193712604Y-184782490D01*
X193712610Y-184782491D01*
X193712613Y-184782492D01*
X193712624Y-184782495D01*
X193712632Y-184782496D01*
X193712637Y-184782498D01*
X193713176Y-184782625D01*
X193714452Y-184782859D01*
X193832233Y-184806286D01*
X194074024Y-184854381D01*
X194440750Y-184890500D01*
X194440753Y-184890500D01*
X194809247Y-184890500D01*
X194809250Y-184890500D01*
X195175976Y-184854381D01*
X195246331Y-184840386D01*
X195537375Y-184782495D01*
X195537383Y-184782492D01*
X195537663Y-184782437D01*
X195539089Y-184782027D01*
X195567668Y-184774232D01*
X195569394Y-184772966D01*
X195575600Y-184770900D01*
X195890029Y-184675520D01*
X196230479Y-184534501D01*
X196555468Y-184360791D01*
X196861865Y-184156063D01*
X197146719Y-183922289D01*
X197407289Y-183661719D01*
X197641063Y-183376865D01*
X197803269Y-183134107D01*
X197812746Y-183119922D01*
X197836321Y-183093679D01*
X197852426Y-183080219D01*
X197906667Y-183053973D01*
X197913248Y-183052603D01*
X197938520Y-183050000D01*
X208556423Y-183050000D01*
X208591355Y-183055022D01*
X208598117Y-183057007D01*
X208611489Y-183060934D01*
X208623943Y-183068247D01*
X208635007Y-183070551D01*
X208663449Y-183091449D01*
X208668241Y-183096156D01*
X208684448Y-183115725D01*
X208858931Y-183376856D01*
X208858941Y-183376870D01*
X209037095Y-183593951D01*
X209092719Y-183661729D01*
X209353268Y-183922278D01*
X209353343Y-183922345D01*
X209353864Y-183922767D01*
X209638135Y-184156063D01*
X209794416Y-184260487D01*
X209944533Y-184360792D01*
X209945206Y-184361165D01*
X209946006Y-184361579D01*
X210268432Y-184533919D01*
X210268439Y-184533923D01*
X210272986Y-184536353D01*
X210277961Y-184537997D01*
X210609971Y-184675520D01*
X210962604Y-184782490D01*
X210962610Y-184782491D01*
X210962613Y-184782492D01*
X210962624Y-184782495D01*
X210962632Y-184782496D01*
X210962637Y-184782498D01*
X210963176Y-184782625D01*
X210964452Y-184782859D01*
X211082233Y-184806286D01*
X211324024Y-184854381D01*
X211690750Y-184890500D01*
X211690753Y-184890500D01*
X212059247Y-184890500D01*
X212059250Y-184890500D01*
X212425976Y-184854381D01*
X212496331Y-184840386D01*
X212787375Y-184782495D01*
X212787383Y-184782492D01*
X212787663Y-184782437D01*
X212789089Y-184782027D01*
X212817668Y-184774232D01*
X212819394Y-184772966D01*
X212825600Y-184770900D01*
X213140029Y-184675520D01*
X213480479Y-184534501D01*
X213805468Y-184360791D01*
X214111865Y-184156063D01*
X214396719Y-183922289D01*
X214657289Y-183661719D01*
X214891063Y-183376865D01*
X215053269Y-183134107D01*
X215062746Y-183119922D01*
X215086321Y-183093679D01*
X215102426Y-183080219D01*
X215156667Y-183053973D01*
X215163248Y-183052603D01*
X215188520Y-183050000D01*
X220825000Y-183050000D01*
X223875000Y-180000000D01*
X223875000Y-174800000D01*
X223875000Y-174750000D01*
X218715102Y-169590102D01*
X218712274Y-169587180D01*
X218709488Y-169584205D01*
X218706769Y-169581205D01*
X218636372Y-169500934D01*
X218546323Y-169398252D01*
X218541184Y-169391991D01*
X218536231Y-169385535D01*
X218531522Y-169378962D01*
X218399699Y-169181675D01*
X218395455Y-169174850D01*
X218391369Y-169167773D01*
X218387563Y-169160651D01*
X218384619Y-169154681D01*
X218282624Y-168947856D01*
X218279273Y-168940459D01*
X218276179Y-168932988D01*
X218273324Y-168925401D01*
X218197066Y-168700751D01*
X218194711Y-168692989D01*
X218192612Y-168685156D01*
X218190769Y-168677251D01*
X218144485Y-168444568D01*
X218143163Y-168436561D01*
X218142110Y-168428562D01*
X218141314Y-168420488D01*
X218125397Y-168177633D01*
X218125198Y-168173564D01*
X218125066Y-168169516D01*
X218125000Y-168165475D01*
X218125000Y-156006642D01*
X218125079Y-156002218D01*
X218125237Y-155997792D01*
X218125474Y-155993371D01*
X218144409Y-155728615D01*
X218145349Y-155719862D01*
X218146614Y-155711063D01*
X218148177Y-155702400D01*
X218203189Y-155449514D01*
X218205373Y-155440959D01*
X218205921Y-155439092D01*
X218207860Y-155432486D01*
X218210646Y-155424112D01*
X218301097Y-155181606D01*
X218304478Y-155173445D01*
X218308153Y-155165397D01*
X218312095Y-155157522D01*
X218436138Y-154930353D01*
X218440632Y-154922780D01*
X218445409Y-154915347D01*
X218450451Y-154908086D01*
X218605546Y-154700904D01*
X218611092Y-154694024D01*
X218616877Y-154687348D01*
X218622893Y-154680885D01*
X218805885Y-154497893D01*
X218812348Y-154491877D01*
X218819024Y-154486092D01*
X218825904Y-154480546D01*
X219033086Y-154325450D01*
X219040349Y-154320408D01*
X219040358Y-154320402D01*
X219047780Y-154315632D01*
X219055353Y-154311138D01*
X219282522Y-154187095D01*
X219290397Y-154183153D01*
X219298452Y-154179475D01*
X219306606Y-154176097D01*
X219549112Y-154085646D01*
X219557486Y-154082860D01*
X219564092Y-154080921D01*
X219565959Y-154080373D01*
X219574520Y-154078188D01*
X219827380Y-154023181D01*
X219836078Y-154021612D01*
X219838541Y-154021257D01*
X219844831Y-154020353D01*
X219853620Y-154019408D01*
X220118377Y-154000473D01*
X220122792Y-154000237D01*
X220123346Y-154000217D01*
X220127220Y-154000079D01*
X220131643Y-154000000D01*
X233368357Y-154000000D01*
X233372782Y-154000079D01*
G37*
%TD.AperFunction*%
%TD*%
%TA.AperFunction,Conductor*%
%TO.N,Gate*%
G36*
X185904031Y-163604598D02*
G01*
X185969565Y-163614977D01*
X185969572Y-163614978D01*
X185988489Y-163619520D01*
X186006819Y-163625475D01*
X186024795Y-163632920D01*
X186083917Y-163663044D01*
X186100527Y-163673225D01*
X186104943Y-163676435D01*
X186104933Y-163676447D01*
X186107694Y-163678072D01*
X186116908Y-163684970D01*
X186130275Y-163696554D01*
X186177816Y-163744095D01*
X186190453Y-163758890D01*
X186201785Y-163774487D01*
X186211952Y-163791078D01*
X186242075Y-163850198D01*
X186249520Y-163868171D01*
X186255479Y-163886509D01*
X186260022Y-163905433D01*
X186272709Y-163985536D01*
X186273853Y-163995197D01*
X186274617Y-164004896D01*
X186275000Y-164014633D01*
X186275000Y-165535613D01*
X186274839Y-165541932D01*
X186273071Y-165576569D01*
X186274500Y-165594267D01*
X186274500Y-166950004D01*
X186274662Y-166953167D01*
X186274590Y-166953170D01*
X186274973Y-166960700D01*
X186274996Y-166963319D01*
X186274975Y-166963392D01*
X186275000Y-166964367D01*
X186275000Y-168035613D01*
X186274839Y-168041932D01*
X186273071Y-168076569D01*
X186274500Y-168094267D01*
X186274500Y-169450004D01*
X186274662Y-169453167D01*
X186274590Y-169453170D01*
X186274973Y-169460700D01*
X186274996Y-169463319D01*
X186274975Y-169463392D01*
X186275000Y-169464366D01*
X186275000Y-169800000D01*
X187675000Y-171200000D01*
X217465857Y-171200000D01*
X217471917Y-171200147D01*
X217478047Y-171200448D01*
X217484058Y-171200892D01*
X217651886Y-171217421D01*
X217663910Y-171219205D01*
X217675792Y-171221568D01*
X217687584Y-171224521D01*
X217840181Y-171270810D01*
X217851629Y-171274907D01*
X217862833Y-171279548D01*
X217873818Y-171284744D01*
X217996116Y-171350114D01*
X218014421Y-171359898D01*
X218024857Y-171366153D01*
X218034946Y-171372894D01*
X218044722Y-171380144D01*
X218167959Y-171481282D01*
X218176975Y-171489454D01*
X218185544Y-171498023D01*
X218193716Y-171507039D01*
X218294854Y-171630276D01*
X218302100Y-171640045D01*
X218308847Y-171650142D01*
X218315101Y-171660577D01*
X218390249Y-171801170D01*
X218395451Y-171812168D01*
X218400090Y-171823367D01*
X218404191Y-171834827D01*
X218450471Y-171987393D01*
X218453428Y-171999199D01*
X218455794Y-172011095D01*
X218457579Y-172023129D01*
X218474104Y-172190903D01*
X218474551Y-172196970D01*
X218474850Y-172203053D01*
X218475000Y-172209141D01*
X218475000Y-173590857D01*
X218474850Y-173596945D01*
X218474551Y-173603028D01*
X218474104Y-173609094D01*
X218457580Y-173776864D01*
X218455794Y-173788901D01*
X218453427Y-173800801D01*
X218450471Y-173812605D01*
X218404191Y-173965171D01*
X218400090Y-173976631D01*
X218395451Y-173987830D01*
X218390249Y-173998828D01*
X218315101Y-174139421D01*
X218308842Y-174149864D01*
X218302100Y-174159953D01*
X218294854Y-174169722D01*
X218193716Y-174292959D01*
X218185544Y-174301975D01*
X218176975Y-174310544D01*
X218167959Y-174318716D01*
X218044722Y-174419854D01*
X218034953Y-174427100D01*
X218024864Y-174433842D01*
X218014421Y-174440101D01*
X217873828Y-174515249D01*
X217862830Y-174520451D01*
X217851631Y-174525090D01*
X217840171Y-174529191D01*
X217687605Y-174575471D01*
X217675799Y-174578428D01*
X217663903Y-174580794D01*
X217651869Y-174582579D01*
X217484095Y-174599104D01*
X217478028Y-174599551D01*
X217471945Y-174599850D01*
X217465857Y-174600000D01*
X216605560Y-174600000D01*
X216605559Y-174599999D01*
X216605559Y-174600000D01*
X216570624Y-174594977D01*
X216545382Y-174587565D01*
X216492637Y-174556269D01*
X215853429Y-173917060D01*
X215853422Y-173917053D01*
X215853421Y-173917052D01*
X215853414Y-173917046D01*
X215853411Y-173917044D01*
X215730493Y-173834914D01*
X215730488Y-173834912D01*
X215713571Y-173827904D01*
X215593932Y-173778348D01*
X215593921Y-173778345D01*
X215593917Y-173778343D01*
X215593907Y-173778340D01*
X215593904Y-173778339D01*
X215593900Y-173778338D01*
X215448922Y-173749500D01*
X215448920Y-173749500D01*
X215448918Y-173749500D01*
X214008468Y-173749500D01*
X214008465Y-173749499D01*
X214008464Y-173749500D01*
X213973529Y-173744476D01*
X213954548Y-173738902D01*
X213900998Y-173706792D01*
X213894844Y-173700523D01*
X213877794Y-173678754D01*
X213875739Y-173675422D01*
X213817712Y-173581344D01*
X213693656Y-173457288D01*
X213544334Y-173365186D01*
X213386265Y-173312807D01*
X213383445Y-173311641D01*
X213377792Y-173309999D01*
X213275019Y-173299500D01*
X213275010Y-173299500D01*
X212474998Y-173299500D01*
X212474980Y-173299501D01*
X212474972Y-173299501D01*
X212474953Y-173299503D01*
X212372197Y-173310000D01*
X212372193Y-173310001D01*
X212372032Y-173310056D01*
X212205667Y-173365185D01*
X212205665Y-173365186D01*
X212205663Y-173365187D01*
X212131002Y-173411238D01*
X212056338Y-173457291D01*
X211975285Y-173538345D01*
X211975282Y-173538346D01*
X211975282Y-173538348D01*
X211947027Y-173559498D01*
X211933309Y-173566988D01*
X211865051Y-173581839D01*
X211865036Y-173581837D01*
X211865036Y-173581838D01*
X211865035Y-173581837D01*
X211863245Y-173581710D01*
X211805044Y-173562342D01*
X211798529Y-173558155D01*
X211777893Y-173541525D01*
X211693657Y-173457289D01*
X211693656Y-173457288D01*
X211544334Y-173365186D01*
X211386265Y-173312807D01*
X211383445Y-173311641D01*
X211377792Y-173309999D01*
X211275019Y-173299500D01*
X211275010Y-173299500D01*
X210474998Y-173299500D01*
X210474980Y-173299501D01*
X210474972Y-173299501D01*
X210474953Y-173299503D01*
X210372197Y-173310000D01*
X210372193Y-173310001D01*
X210372032Y-173310056D01*
X210205667Y-173365185D01*
X210205665Y-173365186D01*
X210205663Y-173365187D01*
X210106115Y-173426588D01*
X210056340Y-173457290D01*
X209932287Y-173581343D01*
X209874260Y-173675422D01*
X209874259Y-173675424D01*
X209851644Y-173702521D01*
X209836938Y-173715748D01*
X209781498Y-173744469D01*
X209772932Y-173746416D01*
X209745449Y-173749500D01*
X208701077Y-173749500D01*
X208556104Y-173778336D01*
X208556096Y-173778338D01*
X208556076Y-173778345D01*
X208419519Y-173834908D01*
X208419505Y-173834915D01*
X208419494Y-173834922D01*
X208370269Y-173867813D01*
X208296591Y-173917041D01*
X208296575Y-173917053D01*
X207662558Y-174551073D01*
X207634307Y-174572222D01*
X207611219Y-174584830D01*
X207551789Y-174600000D01*
X199305560Y-174600000D01*
X199270624Y-174594977D01*
X199245382Y-174587565D01*
X199192637Y-174556269D01*
X198553429Y-173917060D01*
X198553422Y-173917053D01*
X198553421Y-173917052D01*
X198553414Y-173917046D01*
X198553411Y-173917044D01*
X198430493Y-173834914D01*
X198430488Y-173834912D01*
X198413571Y-173827904D01*
X198293932Y-173778348D01*
X198293921Y-173778345D01*
X198293917Y-173778343D01*
X198293907Y-173778340D01*
X198293904Y-173778339D01*
X198293900Y-173778338D01*
X198148922Y-173749500D01*
X198148920Y-173749500D01*
X198148918Y-173749500D01*
X196758468Y-173749500D01*
X196758465Y-173749499D01*
X196758464Y-173749500D01*
X196723529Y-173744476D01*
X196704548Y-173738902D01*
X196650998Y-173706792D01*
X196644844Y-173700523D01*
X196627794Y-173678754D01*
X196625739Y-173675422D01*
X196567712Y-173581344D01*
X196443656Y-173457288D01*
X196294334Y-173365186D01*
X196136265Y-173312807D01*
X196133445Y-173311641D01*
X196127792Y-173309999D01*
X196025019Y-173299500D01*
X196025010Y-173299500D01*
X195224998Y-173299500D01*
X195224980Y-173299501D01*
X195224972Y-173299501D01*
X195224953Y-173299503D01*
X195122197Y-173310000D01*
X195122193Y-173310001D01*
X195122032Y-173310056D01*
X194955667Y-173365185D01*
X194955665Y-173365186D01*
X194955663Y-173365187D01*
X194881002Y-173411238D01*
X194806338Y-173457291D01*
X194725285Y-173538345D01*
X194725282Y-173538346D01*
X194725282Y-173538348D01*
X194697027Y-173559498D01*
X194683309Y-173566988D01*
X194615051Y-173581839D01*
X194615036Y-173581837D01*
X194615036Y-173581838D01*
X194615035Y-173581837D01*
X194613245Y-173581710D01*
X194555044Y-173562342D01*
X194548529Y-173558155D01*
X194527893Y-173541525D01*
X194443657Y-173457289D01*
X194443656Y-173457288D01*
X194294334Y-173365186D01*
X194136265Y-173312807D01*
X194133445Y-173311641D01*
X194127792Y-173309999D01*
X194025019Y-173299500D01*
X194025010Y-173299500D01*
X193224998Y-173299500D01*
X193224980Y-173299501D01*
X193224972Y-173299501D01*
X193224953Y-173299503D01*
X193122197Y-173310000D01*
X193122193Y-173310001D01*
X193122032Y-173310056D01*
X192955667Y-173365185D01*
X192955665Y-173365186D01*
X192955663Y-173365187D01*
X192856115Y-173426588D01*
X192806340Y-173457290D01*
X192682287Y-173581343D01*
X192624260Y-173675422D01*
X192624259Y-173675424D01*
X192601644Y-173702521D01*
X192586938Y-173715748D01*
X192531498Y-173744469D01*
X192522932Y-173746416D01*
X192495449Y-173749500D01*
X191501076Y-173749500D01*
X191472242Y-173755234D01*
X191408295Y-173767950D01*
X191408261Y-173767961D01*
X191356093Y-173778339D01*
X191356083Y-173778342D01*
X191276081Y-173811479D01*
X191276082Y-173811480D01*
X191219505Y-173834915D01*
X191218130Y-173835833D01*
X191218129Y-173835834D01*
X191137372Y-173889795D01*
X191137370Y-173889796D01*
X191096594Y-173917040D01*
X191096583Y-173917048D01*
X191096576Y-173917053D01*
X190462559Y-174551073D01*
X190434308Y-174572222D01*
X190411220Y-174584830D01*
X190351790Y-174600000D01*
X182055560Y-174600000D01*
X182020624Y-174594977D01*
X181995382Y-174587565D01*
X181942637Y-174556269D01*
X181303429Y-173917060D01*
X181303422Y-173917053D01*
X181303421Y-173917052D01*
X181303414Y-173917046D01*
X181303411Y-173917044D01*
X181180493Y-173834914D01*
X181180488Y-173834912D01*
X181163571Y-173827904D01*
X181043932Y-173778348D01*
X181043921Y-173778345D01*
X181043917Y-173778343D01*
X181043907Y-173778340D01*
X181043904Y-173778339D01*
X181043900Y-173778338D01*
X180898922Y-173749500D01*
X180898920Y-173749500D01*
X180898918Y-173749500D01*
X179508468Y-173749500D01*
X179508465Y-173749499D01*
X179508464Y-173749500D01*
X179473529Y-173744476D01*
X179454548Y-173738902D01*
X179400998Y-173706792D01*
X179394844Y-173700523D01*
X179377794Y-173678754D01*
X179375739Y-173675422D01*
X179317712Y-173581344D01*
X179193656Y-173457288D01*
X179044334Y-173365186D01*
X178886265Y-173312807D01*
X178883445Y-173311641D01*
X178877792Y-173309999D01*
X178775019Y-173299500D01*
X178775010Y-173299500D01*
X177974998Y-173299500D01*
X177974980Y-173299501D01*
X177974972Y-173299501D01*
X177974953Y-173299503D01*
X177872197Y-173310000D01*
X177872193Y-173310001D01*
X177872032Y-173310056D01*
X177705667Y-173365185D01*
X177705665Y-173365186D01*
X177705663Y-173365187D01*
X177631002Y-173411238D01*
X177556338Y-173457291D01*
X177475285Y-173538345D01*
X177475282Y-173538346D01*
X177475282Y-173538348D01*
X177447027Y-173559498D01*
X177433309Y-173566988D01*
X177365051Y-173581839D01*
X177365036Y-173581837D01*
X177365036Y-173581838D01*
X177365035Y-173581837D01*
X177363245Y-173581710D01*
X177305044Y-173562342D01*
X177298529Y-173558155D01*
X177277893Y-173541525D01*
X177193657Y-173457289D01*
X177193656Y-173457288D01*
X177044334Y-173365186D01*
X176886265Y-173312807D01*
X176883445Y-173311641D01*
X176877792Y-173309999D01*
X176775019Y-173299500D01*
X176775010Y-173299500D01*
X175974998Y-173299500D01*
X175974980Y-173299501D01*
X175974972Y-173299501D01*
X175974953Y-173299503D01*
X175872197Y-173310000D01*
X175872193Y-173310001D01*
X175872032Y-173310056D01*
X175705667Y-173365185D01*
X175705665Y-173365186D01*
X175705663Y-173365187D01*
X175606115Y-173426588D01*
X175556340Y-173457290D01*
X175432287Y-173581343D01*
X175374260Y-173675422D01*
X175374259Y-173675424D01*
X175351644Y-173702521D01*
X175336938Y-173715748D01*
X175281498Y-173744469D01*
X175272932Y-173746416D01*
X175245449Y-173749500D01*
X174301078Y-173749500D01*
X174156096Y-173778338D01*
X174156079Y-173778344D01*
X174019517Y-173834908D01*
X174019508Y-173834913D01*
X174019491Y-173834923D01*
X173896584Y-173917048D01*
X173896580Y-173917050D01*
X173896575Y-173917054D01*
X173262559Y-174551073D01*
X173234308Y-174572222D01*
X173211220Y-174584830D01*
X173151790Y-174600000D01*
X165484143Y-174600000D01*
X165478063Y-174599851D01*
X165471971Y-174599551D01*
X165465904Y-174599104D01*
X165298129Y-174582579D01*
X165286095Y-174580794D01*
X165274199Y-174578428D01*
X165262393Y-174575471D01*
X165109827Y-174529191D01*
X165098367Y-174525090D01*
X165087168Y-174520451D01*
X165076170Y-174515249D01*
X165057610Y-174505328D01*
X164935569Y-174440096D01*
X164925142Y-174433847D01*
X164915045Y-174427100D01*
X164905276Y-174419854D01*
X164782039Y-174318716D01*
X164773023Y-174310544D01*
X164764454Y-174301975D01*
X164756282Y-174292959D01*
X164655144Y-174169722D01*
X164647898Y-174159953D01*
X164641147Y-174149850D01*
X164634905Y-174139435D01*
X164559745Y-173998821D01*
X164554554Y-173987846D01*
X164549900Y-173976612D01*
X164545807Y-173965171D01*
X164531211Y-173917051D01*
X164531210Y-173917047D01*
X164499524Y-173812593D01*
X164496567Y-173800786D01*
X164494206Y-173788915D01*
X164492421Y-173776882D01*
X164492419Y-173776864D01*
X164475892Y-173609058D01*
X164475448Y-173603028D01*
X164475147Y-173596917D01*
X164475000Y-173590857D01*
X164475000Y-172209141D01*
X164475148Y-172203075D01*
X164475149Y-172203053D01*
X164475449Y-172196948D01*
X164475892Y-172190939D01*
X164492421Y-172023109D01*
X164494206Y-172011083D01*
X164496570Y-171999199D01*
X164499518Y-171987425D01*
X164545813Y-171834806D01*
X164549908Y-171823367D01*
X164554550Y-171812160D01*
X164559738Y-171801191D01*
X164634905Y-171660563D01*
X164641156Y-171650135D01*
X164647889Y-171640058D01*
X164655130Y-171630292D01*
X164756295Y-171507023D01*
X164764448Y-171498028D01*
X164773028Y-171489448D01*
X164782023Y-171481295D01*
X164905292Y-171380130D01*
X164915058Y-171372889D01*
X164925135Y-171366156D01*
X164935563Y-171359905D01*
X165076191Y-171284738D01*
X165087160Y-171279550D01*
X165098371Y-171274906D01*
X165109806Y-171270813D01*
X165262425Y-171224518D01*
X165274202Y-171221569D01*
X165286085Y-171219205D01*
X165298109Y-171217421D01*
X165465940Y-171200892D01*
X165471952Y-171200448D01*
X165478081Y-171200147D01*
X165484143Y-171200000D01*
X184075000Y-171200000D01*
X185475000Y-169800000D01*
X185475000Y-169464366D01*
X185475004Y-169463319D01*
X185475026Y-169460700D01*
X185475410Y-169453169D01*
X185475339Y-169453166D01*
X185475497Y-169450034D01*
X185475500Y-169450009D01*
X185475499Y-168094245D01*
X185477477Y-168087509D01*
X185475659Y-168051754D01*
X185475582Y-168050241D01*
X185475582Y-168050234D01*
X185475160Y-168041932D01*
X185475000Y-168035637D01*
X185475000Y-166964383D01*
X185475160Y-166958079D01*
X185476962Y-166922666D01*
X185475499Y-166905265D01*
X185475499Y-165549992D01*
X185475499Y-165548601D01*
X185475160Y-165541932D01*
X185475000Y-165535637D01*
X185475000Y-164014634D01*
X185475382Y-164004912D01*
X185476145Y-163995210D01*
X185477287Y-163985559D01*
X185489979Y-163905421D01*
X185494516Y-163886519D01*
X185500477Y-163868171D01*
X185507913Y-163850215D01*
X185538055Y-163791060D01*
X185548205Y-163774497D01*
X185559553Y-163758879D01*
X185572173Y-163744104D01*
X185619104Y-163697173D01*
X185633879Y-163684553D01*
X185649497Y-163673205D01*
X185666060Y-163663055D01*
X185725209Y-163632916D01*
X185743168Y-163625477D01*
X185761518Y-163619516D01*
X185780417Y-163614979D01*
X185838305Y-163605811D01*
X185845969Y-163604598D01*
X185865364Y-163603072D01*
X185884634Y-163603072D01*
X185904031Y-163604598D01*
G37*
%TD.AperFunction*%
%TD*%
%TA.AperFunction,Conductor*%
%TO.N,VDC_IN*%
G36*
X234381061Y-217000597D02*
G01*
X234557945Y-217018018D01*
X234581765Y-217022756D01*
X234661497Y-217046942D01*
X234719934Y-217085239D01*
X234748390Y-217149051D01*
X234749500Y-217165602D01*
X234749500Y-221250443D01*
X234748903Y-221262598D01*
X234736995Y-221383494D01*
X234732253Y-221407334D01*
X234696653Y-221524693D01*
X234687350Y-221547152D01*
X234629537Y-221655311D01*
X234616033Y-221675521D01*
X234538230Y-221770326D01*
X234521040Y-221787516D01*
X234426235Y-221865319D01*
X234406025Y-221878823D01*
X234297866Y-221936636D01*
X234275410Y-221945937D01*
X234216727Y-221963739D01*
X234158048Y-221981539D01*
X234134208Y-221986281D01*
X234013193Y-221998200D01*
X234006061Y-221998903D01*
X233993908Y-221999500D01*
X185488898Y-221999500D01*
X185464707Y-221997117D01*
X185386391Y-221981539D01*
X185351004Y-221974500D01*
X185351003Y-221974500D01*
X137334789Y-221974500D01*
X137334049Y-221974390D01*
X137333681Y-221974495D01*
X137298792Y-221969160D01*
X137224586Y-221946649D01*
X137202130Y-221937347D01*
X137093975Y-221879537D01*
X137073764Y-221866033D01*
X136978959Y-221788230D01*
X136961769Y-221771040D01*
X136883966Y-221676235D01*
X136870462Y-221656025D01*
X136812644Y-221547855D01*
X136803351Y-221525420D01*
X136767744Y-221408042D01*
X136763004Y-221384207D01*
X136751097Y-221263311D01*
X136750500Y-221251157D01*
X136750500Y-217124000D01*
X136770185Y-217056961D01*
X136822989Y-217011206D01*
X136874500Y-217000000D01*
X234368907Y-217000000D01*
X234381061Y-217000597D01*
G37*
%TD.AperFunction*%
%TD*%
%TA.AperFunction,Conductor*%
%TO.N,VDC_IN*%
G36*
X151879418Y-154000316D02*
G01*
X152150790Y-154019724D01*
X152168291Y-154022241D01*
X152429803Y-154079129D01*
X152446762Y-154084108D01*
X152697524Y-154177638D01*
X152713616Y-154184987D01*
X152948501Y-154313244D01*
X152963375Y-154322802D01*
X152994908Y-154346408D01*
X153177624Y-154483188D01*
X153190994Y-154494774D01*
X153380225Y-154684005D01*
X153391811Y-154697375D01*
X153552193Y-154911619D01*
X153561758Y-154926503D01*
X153690011Y-155161382D01*
X153697361Y-155177475D01*
X153790888Y-155428229D01*
X153795872Y-155445205D01*
X153852757Y-155706702D01*
X153855275Y-155724214D01*
X153874684Y-155995581D01*
X153875000Y-156004427D01*
X153875000Y-168167506D01*
X153874735Y-168175616D01*
X153858421Y-168424521D01*
X153856303Y-168440603D01*
X153808437Y-168681238D01*
X153804239Y-168696904D01*
X153725371Y-168929243D01*
X153719164Y-168944229D01*
X153610645Y-169164283D01*
X153602535Y-169178329D01*
X153466222Y-169382337D01*
X153456348Y-169395206D01*
X153291887Y-169582737D01*
X153286340Y-169588659D01*
X148713659Y-174161340D01*
X148707737Y-174166887D01*
X148520206Y-174331348D01*
X148507337Y-174341222D01*
X148303329Y-174477535D01*
X148289283Y-174485645D01*
X148069229Y-174594164D01*
X148054243Y-174600371D01*
X147821904Y-174679239D01*
X147806238Y-174683437D01*
X147565603Y-174731303D01*
X147549521Y-174733421D01*
X147300616Y-174749735D01*
X147292506Y-174750000D01*
X137754428Y-174750000D01*
X137745582Y-174749684D01*
X137474214Y-174730275D01*
X137456702Y-174727757D01*
X137195205Y-174670872D01*
X137178229Y-174665888D01*
X136927476Y-174572362D01*
X136911388Y-174565014D01*
X136815072Y-174512422D01*
X136765667Y-174463016D01*
X136750500Y-174403590D01*
X136750500Y-154346408D01*
X136770185Y-154279369D01*
X136815069Y-154237578D01*
X136911392Y-154184982D01*
X136927465Y-154177641D01*
X137178241Y-154084107D01*
X137195192Y-154079130D01*
X137456710Y-154022240D01*
X137474207Y-154019724D01*
X137745582Y-154000316D01*
X137754428Y-154000000D01*
X151870572Y-154000000D01*
X151879418Y-154000316D01*
G37*
%TD.AperFunction*%
%TD*%
D43*
X135750000Y-129500000D02*
G75*
G02*
X140250001Y-125000000I4500000J0D01*
G01*
X135750000Y-221250000D02*
X135750000Y-129500000D01*
X137500000Y-223000000D02*
X234000000Y-223000000D01*
X137500000Y-223000714D02*
G75*
G02*
X135749286Y-221250000I0J1750714D01*
G01*
X231250000Y-125000000D02*
X140250000Y-125000000D01*
X231250000Y-125000000D02*
G75*
G02*
X235750000Y-129500000I0J-4500000D01*
G01*
X235750000Y-129500000D02*
X235750000Y-221250000D01*
X235750714Y-221249286D02*
G75*
G02*
X234000000Y-223000014I-1750714J-14D01*
G01*
D44*
X185083333Y-116304819D02*
X185273809Y-116304819D01*
X185273809Y-116304819D02*
X185369047Y-116257200D01*
X185369047Y-116257200D02*
X185416666Y-116209580D01*
X185416666Y-116209580D02*
X185511904Y-116066723D01*
X185511904Y-116066723D02*
X185559523Y-115876247D01*
X185559523Y-115876247D02*
X185559523Y-115495295D01*
X185559523Y-115495295D02*
X185511904Y-115400057D01*
X185511904Y-115400057D02*
X185464285Y-115352438D01*
X185464285Y-115352438D02*
X185369047Y-115304819D01*
X185369047Y-115304819D02*
X185178571Y-115304819D01*
X185178571Y-115304819D02*
X185083333Y-115352438D01*
X185083333Y-115352438D02*
X185035714Y-115400057D01*
X185035714Y-115400057D02*
X184988095Y-115495295D01*
X184988095Y-115495295D02*
X184988095Y-115733390D01*
X184988095Y-115733390D02*
X185035714Y-115828628D01*
X185035714Y-115828628D02*
X185083333Y-115876247D01*
X185083333Y-115876247D02*
X185178571Y-115923866D01*
X185178571Y-115923866D02*
X185369047Y-115923866D01*
X185369047Y-115923866D02*
X185464285Y-115876247D01*
X185464285Y-115876247D02*
X185511904Y-115828628D01*
X185511904Y-115828628D02*
X185559523Y-115733390D01*
X186511904Y-116304819D02*
X185940476Y-116304819D01*
X186226190Y-116304819D02*
X186226190Y-115304819D01*
X186226190Y-115304819D02*
X186130952Y-115447676D01*
X186130952Y-115447676D02*
X186035714Y-115542914D01*
X186035714Y-115542914D02*
X185940476Y-115590533D01*
D43*
X140250000Y-129000000D02*
X140250000Y-116413580D01*
X231250000Y-116413580D02*
X231250000Y-129000000D01*
X140250000Y-117000000D02*
X231250000Y-117000000D01*
X140250000Y-117000000D02*
X141376504Y-116413579D01*
X140250000Y-117000000D02*
X141376504Y-117586421D01*
X231250000Y-117000000D02*
X230123496Y-117586421D01*
X231250000Y-117000000D02*
X230123496Y-116413579D01*
D44*
X128054819Y-174666666D02*
X128054819Y-174476190D01*
X128054819Y-174476190D02*
X128007200Y-174380952D01*
X128007200Y-174380952D02*
X127959580Y-174333333D01*
X127959580Y-174333333D02*
X127816723Y-174238095D01*
X127816723Y-174238095D02*
X127626247Y-174190476D01*
X127626247Y-174190476D02*
X127245295Y-174190476D01*
X127245295Y-174190476D02*
X127150057Y-174238095D01*
X127150057Y-174238095D02*
X127102438Y-174285714D01*
X127102438Y-174285714D02*
X127054819Y-174380952D01*
X127054819Y-174380952D02*
X127054819Y-174571428D01*
X127054819Y-174571428D02*
X127102438Y-174666666D01*
X127102438Y-174666666D02*
X127150057Y-174714285D01*
X127150057Y-174714285D02*
X127245295Y-174761904D01*
X127245295Y-174761904D02*
X127483390Y-174761904D01*
X127483390Y-174761904D02*
X127578628Y-174714285D01*
X127578628Y-174714285D02*
X127626247Y-174666666D01*
X127626247Y-174666666D02*
X127673866Y-174571428D01*
X127673866Y-174571428D02*
X127673866Y-174380952D01*
X127673866Y-174380952D02*
X127626247Y-174285714D01*
X127626247Y-174285714D02*
X127578628Y-174238095D01*
X127578628Y-174238095D02*
X127483390Y-174190476D01*
X127483390Y-173619047D02*
X127435771Y-173714285D01*
X127435771Y-173714285D02*
X127388152Y-173761904D01*
X127388152Y-173761904D02*
X127292914Y-173809523D01*
X127292914Y-173809523D02*
X127245295Y-173809523D01*
X127245295Y-173809523D02*
X127150057Y-173761904D01*
X127150057Y-173761904D02*
X127102438Y-173714285D01*
X127102438Y-173714285D02*
X127054819Y-173619047D01*
X127054819Y-173619047D02*
X127054819Y-173428571D01*
X127054819Y-173428571D02*
X127102438Y-173333333D01*
X127102438Y-173333333D02*
X127150057Y-173285714D01*
X127150057Y-173285714D02*
X127245295Y-173238095D01*
X127245295Y-173238095D02*
X127292914Y-173238095D01*
X127292914Y-173238095D02*
X127388152Y-173285714D01*
X127388152Y-173285714D02*
X127435771Y-173333333D01*
X127435771Y-173333333D02*
X127483390Y-173428571D01*
X127483390Y-173428571D02*
X127483390Y-173619047D01*
X127483390Y-173619047D02*
X127531009Y-173714285D01*
X127531009Y-173714285D02*
X127578628Y-173761904D01*
X127578628Y-173761904D02*
X127673866Y-173809523D01*
X127673866Y-173809523D02*
X127864342Y-173809523D01*
X127864342Y-173809523D02*
X127959580Y-173761904D01*
X127959580Y-173761904D02*
X128007200Y-173714285D01*
X128007200Y-173714285D02*
X128054819Y-173619047D01*
X128054819Y-173619047D02*
X128054819Y-173428571D01*
X128054819Y-173428571D02*
X128007200Y-173333333D01*
X128007200Y-173333333D02*
X127959580Y-173285714D01*
X127959580Y-173285714D02*
X127864342Y-173238095D01*
X127864342Y-173238095D02*
X127673866Y-173238095D01*
X127673866Y-173238095D02*
X127578628Y-173285714D01*
X127578628Y-173285714D02*
X127531009Y-173333333D01*
X127531009Y-173333333D02*
X127483390Y-173428571D01*
D43*
X185250000Y-125000000D02*
X128163580Y-125000000D01*
X128163580Y-223000000D02*
X185250000Y-223000000D01*
X128750000Y-125000000D02*
X128750000Y-223000000D01*
X128750000Y-125000000D02*
X129336421Y-126126504D01*
X128750000Y-125000000D02*
X128163579Y-126126504D01*
X128750000Y-223000000D02*
X128163579Y-221873496D01*
X128750000Y-223000000D02*
X129336421Y-221873496D01*
D44*
X185083333Y-109554819D02*
X184511905Y-109554819D01*
X184797619Y-109554819D02*
X184797619Y-108554819D01*
X184797619Y-108554819D02*
X184702381Y-108697676D01*
X184702381Y-108697676D02*
X184607143Y-108792914D01*
X184607143Y-108792914D02*
X184511905Y-108840533D01*
X185702381Y-108554819D02*
X185797619Y-108554819D01*
X185797619Y-108554819D02*
X185892857Y-108602438D01*
X185892857Y-108602438D02*
X185940476Y-108650057D01*
X185940476Y-108650057D02*
X185988095Y-108745295D01*
X185988095Y-108745295D02*
X186035714Y-108935771D01*
X186035714Y-108935771D02*
X186035714Y-109173866D01*
X186035714Y-109173866D02*
X185988095Y-109364342D01*
X185988095Y-109364342D02*
X185940476Y-109459580D01*
X185940476Y-109459580D02*
X185892857Y-109507200D01*
X185892857Y-109507200D02*
X185797619Y-109554819D01*
X185797619Y-109554819D02*
X185702381Y-109554819D01*
X185702381Y-109554819D02*
X185607143Y-109507200D01*
X185607143Y-109507200D02*
X185559524Y-109459580D01*
X185559524Y-109459580D02*
X185511905Y-109364342D01*
X185511905Y-109364342D02*
X185464286Y-109173866D01*
X185464286Y-109173866D02*
X185464286Y-108935771D01*
X185464286Y-108935771D02*
X185511905Y-108745295D01*
X185511905Y-108745295D02*
X185559524Y-108650057D01*
X185559524Y-108650057D02*
X185607143Y-108602438D01*
X185607143Y-108602438D02*
X185702381Y-108554819D01*
X186654762Y-108554819D02*
X186750000Y-108554819D01*
X186750000Y-108554819D02*
X186845238Y-108602438D01*
X186845238Y-108602438D02*
X186892857Y-108650057D01*
X186892857Y-108650057D02*
X186940476Y-108745295D01*
X186940476Y-108745295D02*
X186988095Y-108935771D01*
X186988095Y-108935771D02*
X186988095Y-109173866D01*
X186988095Y-109173866D02*
X186940476Y-109364342D01*
X186940476Y-109364342D02*
X186892857Y-109459580D01*
X186892857Y-109459580D02*
X186845238Y-109507200D01*
X186845238Y-109507200D02*
X186750000Y-109554819D01*
X186750000Y-109554819D02*
X186654762Y-109554819D01*
X186654762Y-109554819D02*
X186559524Y-109507200D01*
X186559524Y-109507200D02*
X186511905Y-109459580D01*
X186511905Y-109459580D02*
X186464286Y-109364342D01*
X186464286Y-109364342D02*
X186416667Y-109173866D01*
X186416667Y-109173866D02*
X186416667Y-108935771D01*
X186416667Y-108935771D02*
X186464286Y-108745295D01*
X186464286Y-108745295D02*
X186511905Y-108650057D01*
X186511905Y-108650057D02*
X186559524Y-108602438D01*
X186559524Y-108602438D02*
X186654762Y-108554819D01*
D43*
X135750000Y-129000000D02*
X135750000Y-109663580D01*
X235750000Y-109663580D02*
X235750000Y-129000000D01*
X135750000Y-110250000D02*
X235750000Y-110250000D01*
X135750000Y-110250000D02*
X136876504Y-109663579D01*
X135750000Y-110250000D02*
X136876504Y-110836421D01*
X235750000Y-110250000D02*
X234623496Y-110836421D01*
X235750000Y-110250000D02*
X234623496Y-109663579D01*
M02*
