%TF.GenerationSoftware,KiCad,Pcbnew,10.0.1*%
%TF.CreationDate,2026-06-09T12:56:55+03:00*%
%TF.ProjectId,Precharge_Nauka,50726563-6861-4726-9765-5f4e61756b61,rev?*%
%TF.SameCoordinates,Original*%
%TF.FileFunction,Copper,L4,Bot*%
%TF.FilePolarity,Positive*%
%FSLAX46Y46*%
G04 Gerber Fmt 4.6, Leading zero omitted, Abs format (unit mm)*
G04 Created by KiCad (PCBNEW 10.0.1) date 2026-06-09 12:56:55*
%MOMM*%
%LPD*%
G01*
G04 APERTURE LIST*
G04 Aperture macros list*
%AMRoundRect*
0 Rectangle with rounded corners*
0 $1 Rounding radius*
0 $2 $3 $4 $5 $6 $7 $8 $9 X,Y pos of 4 corners*
0 Add a 4 corners polygon primitive as box body*
4,1,4,$2,$3,$4,$5,$6,$7,$8,$9,$2,$3,0*
0 Add four circle primitives for the rounded corners*
1,1,$1+$1,$2,$3*
1,1,$1+$1,$4,$5*
1,1,$1+$1,$6,$7*
1,1,$1+$1,$8,$9*
0 Add four rect primitives between the rounded corners*
20,1,$1+$1,$2,$3,$4,$5,0*
20,1,$1+$1,$4,$5,$6,$7,0*
20,1,$1+$1,$6,$7,$8,$9,0*
20,1,$1+$1,$8,$9,$2,$3,0*%
G04 Aperture macros list end*
%TA.AperFunction,ComponentPad*%
%ADD10O,1.600000X2.400000*%
%TD*%
%TA.AperFunction,ComponentPad*%
%ADD11C,15.000000*%
%TD*%
%TA.AperFunction,ComponentPad*%
%ADD12R,2.500000X4.500000*%
%TD*%
%TA.AperFunction,ComponentPad*%
%ADD13O,2.500000X4.500000*%
%TD*%
%TA.AperFunction,ComponentPad*%
%ADD14RoundRect,0.250001X0.499999X0.499999X-0.499999X0.499999X-0.499999X-0.499999X0.499999X-0.499999X0*%
%TD*%
%TA.AperFunction,ComponentPad*%
%ADD15C,1.500000*%
%TD*%
%TA.AperFunction,ComponentPad*%
%ADD16C,8.000000*%
%TD*%
%TA.AperFunction,ComponentPad*%
%ADD17RoundRect,0.250000X0.550000X0.550000X-0.550000X0.550000X-0.550000X-0.550000X0.550000X-0.550000X0*%
%TD*%
%TA.AperFunction,ComponentPad*%
%ADD18C,1.600000*%
%TD*%
%TA.AperFunction,SMDPad,CuDef*%
%ADD19RoundRect,0.249999X-1.425001X0.450001X-1.425001X-0.450001X1.425001X-0.450001X1.425001X0.450001X0*%
%TD*%
%TA.AperFunction,SMDPad,CuDef*%
%ADD20RoundRect,0.249999X1.425001X-0.450001X1.425001X0.450001X-1.425001X0.450001X-1.425001X-0.450001X0*%
%TD*%
%TA.AperFunction,SMDPad,CuDef*%
%ADD21RoundRect,0.250000X-0.650000X0.412500X-0.650000X-0.412500X0.650000X-0.412500X0.650000X0.412500X0*%
%TD*%
%TA.AperFunction,SMDPad,CuDef*%
%ADD22RoundRect,0.250000X-0.400000X-1.450000X0.400000X-1.450000X0.400000X1.450000X-0.400000X1.450000X0*%
%TD*%
%TA.AperFunction,SMDPad,CuDef*%
%ADD23RoundRect,0.250000X0.337500X0.475000X-0.337500X0.475000X-0.337500X-0.475000X0.337500X-0.475000X0*%
%TD*%
%TA.AperFunction,SMDPad,CuDef*%
%ADD24RoundRect,0.250000X0.650000X-0.412500X0.650000X0.412500X-0.650000X0.412500X-0.650000X-0.412500X0*%
%TD*%
%TA.AperFunction,SMDPad,CuDef*%
%ADD25RoundRect,0.250000X0.412500X0.650000X-0.412500X0.650000X-0.412500X-0.650000X0.412500X-0.650000X0*%
%TD*%
%TA.AperFunction,SMDPad,CuDef*%
%ADD26RoundRect,0.250000X-0.412500X-0.650000X0.412500X-0.650000X0.412500X0.650000X-0.412500X0.650000X0*%
%TD*%
%TA.AperFunction,SMDPad,CuDef*%
%ADD27RoundRect,0.250000X0.400000X1.450000X-0.400000X1.450000X-0.400000X-1.450000X0.400000X-1.450000X0*%
%TD*%
%TA.AperFunction,SMDPad,CuDef*%
%ADD28RoundRect,0.250000X0.475000X-0.337500X0.475000X0.337500X-0.475000X0.337500X-0.475000X-0.337500X0*%
%TD*%
%TA.AperFunction,ViaPad*%
%ADD29C,0.600000*%
%TD*%
%TA.AperFunction,Conductor*%
%ADD30C,1.000000*%
%TD*%
%TA.AperFunction,Conductor*%
%ADD31C,0.500000*%
%TD*%
%TA.AperFunction,Profile*%
%ADD32C,0.050000*%
%TD*%
%ADD33C,0.150000*%
G04 APERTURE END LIST*
D10*
%TO.P,D2,1,GND_1*%
%TO.N,GND*%
X179485000Y-129949990D03*
%TO.P,D2,2,Vin_2*%
%TO.N,Net-(D2-Vin)*%
X182025000Y-129949990D03*
%TO.P,D2,3,NC_3*%
%TO.N,unconnected-(D2-NC-Pad3)*%
X184565000Y-129949990D03*
%TO.P,D2,5,NC_5*%
%TO.N,unconnected-(D2-NC-Pad5)*%
X189645000Y-129949990D03*
%TO.P,D2,6,+Vo_6*%
%TO.N,+5V*%
X192185000Y-129949990D03*
%TO.P,D2,7,0V_7*%
%TO.N,GND1*%
X194725000Y-129949990D03*
%TO.P,D2,8,NC_8*%
%TO.N,unconnected-(D2-NC-Pad8)*%
X197265000Y-129949990D03*
%TD*%
D11*
%TO.P,J3,1,Pin_1_1*%
%TO.N,VDC_OUT*%
X227000000Y-164400000D03*
%TD*%
D12*
%TO.P,Q4,1,G_1*%
%TO.N,Net-(Q4-G)*%
X182825000Y-180140000D03*
D13*
%TO.P,Q4,2,D_2*%
%TO.N,VDC_IN*%
X177375000Y-180140000D03*
%TO.P,Q4,3,S_3*%
%TO.N,VDC_OUT*%
X171925000Y-180140000D03*
%TD*%
D11*
%TO.P,J2,1,Pin_1_1*%
%TO.N,VDC_IN*%
X144675000Y-164400000D03*
%TD*%
D12*
%TO.P,Q3,1,G_1*%
%TO.N,Net-(Q3-G)*%
X200075000Y-180140000D03*
D13*
%TO.P,Q3,2,D_2*%
%TO.N,VDC_IN*%
X194625000Y-180140000D03*
%TO.P,Q3,3,S_3*%
%TO.N,VDC_OUT*%
X189175000Y-180140000D03*
%TD*%
D10*
%TO.P,D3,1,GND_1*%
%TO.N,GND*%
X173265000Y-134050010D03*
%TO.P,D3,2,Vin_2*%
%TO.N,Net-(D3-Vin)*%
X170725000Y-134050010D03*
%TO.P,D3,3,NC_3*%
%TO.N,unconnected-(D3-NC-Pad3)*%
X168185000Y-134050010D03*
%TO.P,D3,5,NC_5*%
%TO.N,unconnected-(D3-NC-Pad5)*%
X163105000Y-134050010D03*
%TO.P,D3,6,+Vo_6*%
%TO.N,VCC*%
X160565000Y-134050010D03*
%TO.P,D3,7,0V_7*%
%TO.N,VDC_OUT*%
X158025000Y-134050010D03*
%TO.P,D3,8,NC_8*%
%TO.N,unconnected-(D3-NC-Pad8)*%
X155485000Y-134050010D03*
%TD*%
D14*
%TO.P,J1,1,Pin_1_1*%
%TO.N,GND*%
X147375000Y-141420000D03*
D15*
%TO.P,J1,2,Pin_2_2*%
X144375000Y-141420000D03*
%TO.P,J1,3,Pin_3_3*%
%TO.N,Ready*%
X141375000Y-141420000D03*
%TO.P,J1,4,Pin_4_4*%
%TO.N,+27V*%
X147375000Y-138420000D03*
%TO.P,J1,5,Pin_5_5*%
X144375000Y-138420000D03*
%TO.P,J1,6,Pin_6_6*%
%TO.N,Ready*%
X141375000Y-138420000D03*
%TD*%
D16*
%TO.P,J4,1,Pin_1_1*%
%TO.N,GNDPWR*%
X227375000Y-146250000D03*
%TD*%
D12*
%TO.P,Q2,1,G_1*%
%TO.N,Net-(Q2-G)*%
X217325000Y-180140000D03*
D13*
%TO.P,Q2,2,D_2*%
%TO.N,VDC_IN*%
X211875000Y-180140000D03*
%TO.P,Q2,3,S_3*%
%TO.N,VDC_OUT*%
X206425000Y-180140000D03*
%TD*%
D12*
%TO.P,Q5,1,G_1*%
%TO.N,Net-(Q5-G)*%
X165575000Y-180140000D03*
D13*
%TO.P,Q5,2,D_2*%
%TO.N,VDC_IN*%
X160125000Y-180140000D03*
%TO.P,Q5,3,S_3*%
%TO.N,VDC_OUT*%
X154675000Y-180140000D03*
%TD*%
D17*
%TO.P,U5,1*%
%TO.N,Net-(R199-Pad2)*%
X150625000Y-149025000D03*
D18*
%TO.P,U5,2*%
%TO.N,Net-(R200-Pad1)*%
X150625000Y-146485000D03*
%TO.P,U5,3*%
%TO.N,Ready*%
X143005000Y-146485000D03*
%TO.P,U5,4*%
%TO.N,+27V*%
X143005000Y-149025000D03*
%TD*%
D19*
%TO.P,R113,1*%
%TO.N,Net-(R113-Pad1)*%
X217782895Y-212200000D03*
%TO.P,R113,2*%
%TO.N,VDC_IN*%
X217782895Y-218300000D03*
%TD*%
%TO.P,R114,1*%
%TO.N,Net-(R114-Pad1)*%
X217782895Y-203450000D03*
%TO.P,R114,2*%
%TO.N,Net-(R113-Pad1)*%
X217782895Y-209550000D03*
%TD*%
%TO.P,R185,1*%
%TO.N,Net-(R185-Pad1)*%
X168309211Y-212200000D03*
%TO.P,R185,2*%
%TO.N,VDC_IN*%
X168309211Y-218300000D03*
%TD*%
%TO.P,R193,1*%
%TO.N,Net-(R193-Pad1)*%
X202940789Y-212200000D03*
%TO.P,R193,2*%
%TO.N,VDC_IN*%
X202940789Y-218300000D03*
%TD*%
D20*
%TO.P,R156,1*%
%TO.N,Net-(R154-Pad1)*%
X188098684Y-201050000D03*
%TO.P,R156,2*%
%TO.N,Net-(R155-Pad1)*%
X188098684Y-194950000D03*
%TD*%
%TO.P,R147,1*%
%TO.N,Net-(R147-Pad1)*%
X148519737Y-192550000D03*
%TO.P,R147,2*%
%TO.N,VDC_OUT*%
X148519737Y-186450000D03*
%TD*%
D21*
%TO.P,C18,1*%
%TO.N,+27V*%
X176625000Y-126937500D03*
%TO.P,C18,2*%
%TO.N,GND*%
X176625000Y-130062500D03*
%TD*%
D19*
%TO.P,R158,1*%
%TO.N,Net-(R158-Pad1)*%
X197993421Y-203450000D03*
%TO.P,R158,2*%
%TO.N,Net-(R157-Pad1)*%
X197993421Y-209550000D03*
%TD*%
D20*
%TO.P,R116,1*%
%TO.N,Net-(R114-Pad1)*%
X217782895Y-201050000D03*
%TO.P,R116,2*%
%TO.N,Net-(R115-Pad1)*%
X217782895Y-194950000D03*
%TD*%
%TO.P,R195,1*%
%TO.N,Net-(R195-Pad1)*%
X202940789Y-192550000D03*
%TO.P,R195,2*%
%TO.N,VDC_OUT*%
X202940789Y-186450000D03*
%TD*%
D19*
%TO.P,R190,1*%
%TO.N,Net-(R190-Pad1)*%
X183151316Y-203450000D03*
%TO.P,R190,2*%
%TO.N,Net-(R189-Pad1)*%
X183151316Y-209550000D03*
%TD*%
D20*
%TO.P,R171,1*%
%TO.N,Net-(R171-Pad1)*%
X173256579Y-192550000D03*
%TO.P,R171,2*%
%TO.N,VDC_OUT*%
X173256579Y-186450000D03*
%TD*%
%TO.P,R180,1*%
%TO.N,Net-(R178-Pad1)*%
X207888158Y-201050000D03*
%TO.P,R180,2*%
%TO.N,Net-(R179-Pad1)*%
X207888158Y-194950000D03*
%TD*%
%TO.P,R164,1*%
%TO.N,Net-(R162-Pad1)*%
X138625000Y-201050000D03*
%TO.P,R164,2*%
%TO.N,Net-(R163-Pad1)*%
X138625000Y-194950000D03*
%TD*%
%TO.P,R127,1*%
%TO.N,Net-(R127-Pad1)*%
X232625000Y-192550000D03*
%TO.P,R127,2*%
%TO.N,VDC_OUT*%
X232625000Y-186450000D03*
%TD*%
D19*
%TO.P,R133,1*%
%TO.N,Net-(R133-Pad1)*%
X178203947Y-212200000D03*
%TO.P,R133,2*%
%TO.N,VDC_IN*%
X178203947Y-218300000D03*
%TD*%
%TO.P,R142,1*%
%TO.N,Net-(R142-Pad1)*%
X222730263Y-203450000D03*
%TO.P,R142,2*%
%TO.N,Net-(R141-Pad1)*%
X222730263Y-209550000D03*
%TD*%
%TO.P,R129,1*%
%TO.N,Net-(R129-Pad1)*%
X153467105Y-212200000D03*
%TO.P,R129,2*%
%TO.N,VDC_IN*%
X153467105Y-218300000D03*
%TD*%
%TO.P,R126,1*%
%TO.N,Net-(R126-Pad1)*%
X232625000Y-203450000D03*
%TO.P,R126,2*%
%TO.N,Net-(R125-Pad1)*%
X232625000Y-209550000D03*
%TD*%
%TO.P,R137,1*%
%TO.N,Net-(R137-Pad1)*%
X193046053Y-212200000D03*
%TO.P,R137,2*%
%TO.N,VDC_IN*%
X193046053Y-218300000D03*
%TD*%
%TO.P,R134,1*%
%TO.N,Net-(R134-Pad1)*%
X178203947Y-203450000D03*
%TO.P,R134,2*%
%TO.N,Net-(R133-Pad1)*%
X178203947Y-209550000D03*
%TD*%
%TO.P,R161,1*%
%TO.N,Net-(R161-Pad1)*%
X138625000Y-212200000D03*
%TO.P,R161,2*%
%TO.N,VDC_IN*%
X138625000Y-218300000D03*
%TD*%
D20*
%TO.P,R160,1*%
%TO.N,Net-(R158-Pad1)*%
X197993421Y-201050000D03*
%TO.P,R160,2*%
%TO.N,Net-(R159-Pad1)*%
X197993421Y-194950000D03*
%TD*%
D19*
%TO.P,R146,1*%
%TO.N,Net-(R146-Pad1)*%
X148519737Y-203450000D03*
%TO.P,R146,2*%
%TO.N,Net-(R145-Pad1)*%
X148519737Y-209550000D03*
%TD*%
%TO.P,R149,1*%
%TO.N,Net-(R149-Pad1)*%
X158414474Y-212200000D03*
%TO.P,R149,2*%
%TO.N,VDC_IN*%
X158414474Y-218300000D03*
%TD*%
%TO.P,R170,1*%
%TO.N,Net-(R170-Pad1)*%
X173256579Y-203450000D03*
%TO.P,R170,2*%
%TO.N,Net-(R169-Pad1)*%
X173256579Y-209550000D03*
%TD*%
%TO.P,R189,1*%
%TO.N,Net-(R189-Pad1)*%
X183151316Y-212200000D03*
%TO.P,R189,2*%
%TO.N,VDC_IN*%
X183151316Y-218300000D03*
%TD*%
%TO.P,R138,1*%
%TO.N,Net-(R138-Pad1)*%
X193046053Y-203450000D03*
%TO.P,R138,2*%
%TO.N,Net-(R137-Pad1)*%
X193046053Y-209550000D03*
%TD*%
%TO.P,R157,1*%
%TO.N,Net-(R157-Pad1)*%
X197993421Y-212200000D03*
%TO.P,R157,2*%
%TO.N,VDC_IN*%
X197993421Y-218300000D03*
%TD*%
%TO.P,R181,1*%
%TO.N,Net-(R181-Pad1)*%
X143572368Y-212200000D03*
%TO.P,R181,2*%
%TO.N,VDC_IN*%
X143572368Y-218300000D03*
%TD*%
D20*
%TO.P,R187,1*%
%TO.N,Net-(R187-Pad1)*%
X168309211Y-192550000D03*
%TO.P,R187,2*%
%TO.N,VDC_OUT*%
X168309211Y-186450000D03*
%TD*%
%TO.P,R188,1*%
%TO.N,Net-(R186-Pad1)*%
X168309211Y-201050000D03*
%TO.P,R188,2*%
%TO.N,Net-(R187-Pad1)*%
X168309211Y-194950000D03*
%TD*%
%TO.P,R184,1*%
%TO.N,Net-(R182-Pad1)*%
X143572368Y-201050000D03*
%TO.P,R184,2*%
%TO.N,Net-(R183-Pad1)*%
X143572368Y-194950000D03*
%TD*%
%TO.P,R168,1*%
%TO.N,Net-(R166-Pad1)*%
X163361842Y-201050000D03*
%TO.P,R168,2*%
%TO.N,Net-(R167-Pad1)*%
X163361842Y-194950000D03*
%TD*%
%TO.P,R167,1*%
%TO.N,Net-(R167-Pad1)*%
X163361842Y-192550000D03*
%TO.P,R167,2*%
%TO.N,VDC_OUT*%
X163361842Y-186450000D03*
%TD*%
%TO.P,R159,1*%
%TO.N,Net-(R159-Pad1)*%
X197993421Y-192550000D03*
%TO.P,R159,2*%
%TO.N,VDC_OUT*%
X197993421Y-186450000D03*
%TD*%
%TO.P,R143,1*%
%TO.N,Net-(R143-Pad1)*%
X222730263Y-192550000D03*
%TO.P,R143,2*%
%TO.N,VDC_OUT*%
X222730263Y-186450000D03*
%TD*%
D19*
%TO.P,R165,1*%
%TO.N,Net-(R165-Pad1)*%
X163361842Y-212200000D03*
%TO.P,R165,2*%
%TO.N,VDC_IN*%
X163361842Y-218300000D03*
%TD*%
D22*
%TO.P,L2,1*%
%TO.N,Net-(D3-Vin)*%
X169650000Y-127750000D03*
%TO.P,L2,2*%
%TO.N,+27V*%
X174100000Y-127750000D03*
%TD*%
D20*
%TO.P,R172,1*%
%TO.N,Net-(R170-Pad1)*%
X173256579Y-201050000D03*
%TO.P,R172,2*%
%TO.N,Net-(R171-Pad1)*%
X173256579Y-194950000D03*
%TD*%
%TO.P,R148,1*%
%TO.N,Net-(R146-Pad1)*%
X148519737Y-201050000D03*
%TO.P,R148,2*%
%TO.N,Net-(R147-Pad1)*%
X148519737Y-194950000D03*
%TD*%
%TO.P,R115,1*%
%TO.N,Net-(R115-Pad1)*%
X217782895Y-192550000D03*
%TO.P,R115,2*%
%TO.N,VDC_OUT*%
X217782895Y-186450000D03*
%TD*%
%TO.P,R140,1*%
%TO.N,Net-(R138-Pad1)*%
X193046053Y-201050000D03*
%TO.P,R140,2*%
%TO.N,Net-(R139-Pad1)*%
X193046053Y-194950000D03*
%TD*%
%TO.P,R136,1*%
%TO.N,Net-(R134-Pad1)*%
X178203947Y-201050000D03*
%TO.P,R136,2*%
%TO.N,Net-(R135-Pad1)*%
X178203947Y-194950000D03*
%TD*%
%TO.P,R144,1*%
%TO.N,Net-(R142-Pad1)*%
X222730263Y-201050000D03*
%TO.P,R144,2*%
%TO.N,Net-(R143-Pad1)*%
X222730263Y-194950000D03*
%TD*%
D19*
%TO.P,R141,1*%
%TO.N,Net-(R141-Pad1)*%
X222730263Y-212200000D03*
%TO.P,R141,2*%
%TO.N,VDC_IN*%
X222730263Y-218300000D03*
%TD*%
D23*
%TO.P,C10,1*%
%TO.N,GND1*%
X210162500Y-133500000D03*
%TO.P,C10,2*%
%TO.N,+5V*%
X208087500Y-133500000D03*
%TD*%
%TO.P,C2,1*%
%TO.N,+5V*%
X199162500Y-146250000D03*
%TO.P,C2,2*%
%TO.N,GND1*%
X197087500Y-146250000D03*
%TD*%
D19*
%TO.P,R150,1*%
%TO.N,Net-(R150-Pad1)*%
X158414474Y-203450000D03*
%TO.P,R150,2*%
%TO.N,Net-(R149-Pad1)*%
X158414474Y-209550000D03*
%TD*%
%TO.P,R70,1*%
%TO.N,Net-(R70-Pad1)*%
X227677632Y-203450000D03*
%TO.P,R70,2*%
%TO.N,Net-(R69-Pad1)*%
X227677632Y-209550000D03*
%TD*%
%TO.P,R153,1*%
%TO.N,Net-(R153-Pad1)*%
X188098684Y-212200000D03*
%TO.P,R153,2*%
%TO.N,VDC_IN*%
X188098684Y-218300000D03*
%TD*%
D20*
%TO.P,R139,1*%
%TO.N,Net-(R139-Pad1)*%
X193046053Y-192550000D03*
%TO.P,R139,2*%
%TO.N,VDC_OUT*%
X193046053Y-186450000D03*
%TD*%
D24*
%TO.P,C11,1*%
%TO.N,+27V*%
X176065000Y-137012490D03*
%TO.P,C11,2*%
%TO.N,GND*%
X176065000Y-133887490D03*
%TD*%
D19*
%TO.P,R69,1*%
%TO.N,Net-(R69-Pad1)*%
X227677632Y-212200000D03*
%TO.P,R69,2*%
%TO.N,VDC_IN*%
X227677632Y-218300000D03*
%TD*%
D25*
%TO.P,C12,1*%
%TO.N,Net-(D2-Vin)*%
X182377500Y-132949990D03*
%TO.P,C12,2*%
%TO.N,GND*%
X179252500Y-132949990D03*
%TD*%
D20*
%TO.P,R71,1*%
%TO.N,Net-(R71-Pad1)*%
X227677632Y-192550000D03*
%TO.P,R71,2*%
%TO.N,VDC_OUT*%
X227677632Y-186450000D03*
%TD*%
%TO.P,R151,1*%
%TO.N,Net-(R151-Pad1)*%
X158414474Y-192550000D03*
%TO.P,R151,2*%
%TO.N,VDC_OUT*%
X158414474Y-186450000D03*
%TD*%
%TO.P,R179,1*%
%TO.N,Net-(R179-Pad1)*%
X207888158Y-192550000D03*
%TO.P,R179,2*%
%TO.N,VDC_OUT*%
X207888158Y-186450000D03*
%TD*%
D19*
%TO.P,R109,1*%
%TO.N,Net-(R109-Pad1)*%
X212835526Y-212200000D03*
%TO.P,R109,2*%
%TO.N,VDC_IN*%
X212835526Y-218300000D03*
%TD*%
%TO.P,R182,1*%
%TO.N,Net-(R182-Pad1)*%
X143572368Y-203450000D03*
%TO.P,R182,2*%
%TO.N,Net-(R181-Pad1)*%
X143572368Y-209550000D03*
%TD*%
D20*
%TO.P,R196,1*%
%TO.N,Net-(R194-Pad1)*%
X202940789Y-201050000D03*
%TO.P,R196,2*%
%TO.N,Net-(R195-Pad1)*%
X202940789Y-194950000D03*
%TD*%
D25*
%TO.P,C13,1*%
%TO.N,GND1*%
X195065000Y-132649980D03*
%TO.P,C13,2*%
%TO.N,+5V*%
X191940000Y-132649980D03*
%TD*%
D26*
%TO.P,C19,1*%
%TO.N,Net-(D3-Vin)*%
X170312500Y-131000000D03*
%TO.P,C19,2*%
%TO.N,GND*%
X173437500Y-131000000D03*
%TD*%
D19*
%TO.P,R125,1*%
%TO.N,Net-(R125-Pad1)*%
X232625000Y-212200000D03*
%TO.P,R125,2*%
%TO.N,VDC_IN*%
X232625000Y-218300000D03*
%TD*%
%TO.P,R145,1*%
%TO.N,Net-(R145-Pad1)*%
X148519737Y-212200000D03*
%TO.P,R145,2*%
%TO.N,VDC_IN*%
X148519737Y-218300000D03*
%TD*%
D20*
%TO.P,R112,1*%
%TO.N,Net-(R110-Pad1)*%
X212835526Y-201050000D03*
%TO.P,R112,2*%
%TO.N,Net-(R111-Pad1)*%
X212835526Y-194950000D03*
%TD*%
%TO.P,R131,1*%
%TO.N,Net-(R131-Pad1)*%
X153467105Y-192550000D03*
%TO.P,R131,2*%
%TO.N,VDC_OUT*%
X153467105Y-186450000D03*
%TD*%
D19*
%TO.P,R177,1*%
%TO.N,Net-(R177-Pad1)*%
X207888158Y-212200000D03*
%TO.P,R177,2*%
%TO.N,VDC_IN*%
X207888158Y-218300000D03*
%TD*%
D20*
%TO.P,R183,1*%
%TO.N,Net-(R183-Pad1)*%
X143572368Y-192550000D03*
%TO.P,R183,2*%
%TO.N,VDC_OUT*%
X143572368Y-186450000D03*
%TD*%
%TO.P,R191,1*%
%TO.N,Net-(R191-Pad1)*%
X183151316Y-192550000D03*
%TO.P,R191,2*%
%TO.N,VDC_OUT*%
X183151316Y-186450000D03*
%TD*%
D19*
%TO.P,R186,1*%
%TO.N,Net-(R186-Pad1)*%
X168309211Y-203450000D03*
%TO.P,R186,2*%
%TO.N,Net-(R185-Pad1)*%
X168309211Y-209550000D03*
%TD*%
%TO.P,R178,1*%
%TO.N,Net-(R178-Pad1)*%
X207888158Y-203450000D03*
%TO.P,R178,2*%
%TO.N,Net-(R177-Pad1)*%
X207888158Y-209550000D03*
%TD*%
D20*
%TO.P,R72,1*%
%TO.N,Net-(R70-Pad1)*%
X227677632Y-201050000D03*
%TO.P,R72,2*%
%TO.N,Net-(R71-Pad1)*%
X227677632Y-194950000D03*
%TD*%
%TO.P,R192,1*%
%TO.N,Net-(R190-Pad1)*%
X183151316Y-201050000D03*
%TO.P,R192,2*%
%TO.N,Net-(R191-Pad1)*%
X183151316Y-194950000D03*
%TD*%
D19*
%TO.P,R130,1*%
%TO.N,Net-(R130-Pad1)*%
X153467105Y-203450000D03*
%TO.P,R130,2*%
%TO.N,Net-(R129-Pad1)*%
X153467105Y-209550000D03*
%TD*%
D20*
%TO.P,R111,1*%
%TO.N,Net-(R111-Pad1)*%
X212835526Y-192550000D03*
%TO.P,R111,2*%
%TO.N,VDC_OUT*%
X212835526Y-186450000D03*
%TD*%
D19*
%TO.P,R169,1*%
%TO.N,Net-(R169-Pad1)*%
X173256579Y-212200000D03*
%TO.P,R169,2*%
%TO.N,VDC_IN*%
X173256579Y-218300000D03*
%TD*%
D27*
%TO.P,L1,1*%
%TO.N,Net-(D2-Vin)*%
X183040000Y-136449990D03*
%TO.P,L1,2*%
%TO.N,+27V*%
X178590000Y-136449990D03*
%TD*%
D19*
%TO.P,R162,1*%
%TO.N,Net-(R162-Pad1)*%
X138625000Y-203450000D03*
%TO.P,R162,2*%
%TO.N,Net-(R161-Pad1)*%
X138625000Y-209550000D03*
%TD*%
D23*
%TO.P,C14,1*%
%TO.N,+5V*%
X210162500Y-146250000D03*
%TO.P,C14,2*%
%TO.N,GND1*%
X208087500Y-146250000D03*
%TD*%
D19*
%TO.P,R110,1*%
%TO.N,Net-(R110-Pad1)*%
X212835526Y-203450000D03*
%TO.P,R110,2*%
%TO.N,Net-(R109-Pad1)*%
X212835526Y-209550000D03*
%TD*%
D20*
%TO.P,R128,1*%
%TO.N,Net-(R126-Pad1)*%
X232625000Y-201050000D03*
%TO.P,R128,2*%
%TO.N,Net-(R127-Pad1)*%
X232625000Y-194950000D03*
%TD*%
%TO.P,R135,1*%
%TO.N,Net-(R135-Pad1)*%
X178203947Y-192550000D03*
%TO.P,R135,2*%
%TO.N,VDC_OUT*%
X178203947Y-186450000D03*
%TD*%
D28*
%TO.P,C7,1*%
%TO.N,+5V*%
X185875000Y-148787500D03*
%TO.P,C7,2*%
%TO.N,GND1*%
X185875000Y-146712500D03*
%TD*%
D19*
%TO.P,R154,1*%
%TO.N,Net-(R154-Pad1)*%
X188098684Y-203450000D03*
%TO.P,R154,2*%
%TO.N,Net-(R153-Pad1)*%
X188098684Y-209550000D03*
%TD*%
D20*
%TO.P,R155,1*%
%TO.N,Net-(R155-Pad1)*%
X188098684Y-192550000D03*
%TO.P,R155,2*%
%TO.N,VDC_OUT*%
X188098684Y-186450000D03*
%TD*%
%TO.P,R132,1*%
%TO.N,Net-(R130-Pad1)*%
X153467105Y-201050000D03*
%TO.P,R132,2*%
%TO.N,Net-(R131-Pad1)*%
X153467105Y-194950000D03*
%TD*%
%TO.P,R163,1*%
%TO.N,Net-(R163-Pad1)*%
X138625000Y-192550000D03*
%TO.P,R163,2*%
%TO.N,VDC_OUT*%
X138625000Y-186450000D03*
%TD*%
D19*
%TO.P,R166,1*%
%TO.N,Net-(R166-Pad1)*%
X163361842Y-203450000D03*
%TO.P,R166,2*%
%TO.N,Net-(R165-Pad1)*%
X163361842Y-209550000D03*
%TD*%
%TO.P,R194,1*%
%TO.N,Net-(R194-Pad1)*%
X202940789Y-203450000D03*
%TO.P,R194,2*%
%TO.N,Net-(R193-Pad1)*%
X202940789Y-209550000D03*
%TD*%
D20*
%TO.P,R152,1*%
%TO.N,Net-(R150-Pad1)*%
X158414474Y-201050000D03*
%TO.P,R152,2*%
%TO.N,Net-(R151-Pad1)*%
X158414474Y-194950000D03*
%TD*%
D29*
%TO.N,VDC_IN*%
X205430556Y-220750000D03*
X143075000Y-156200000D03*
X141875000Y-173000000D03*
X152675000Y-161000000D03*
X151475000Y-155000000D03*
X215319445Y-220000000D03*
X137075000Y-169400000D03*
X230152778Y-219250000D03*
X146675000Y-174200000D03*
X138275000Y-171800000D03*
X152675000Y-158600000D03*
X151475000Y-159800000D03*
X152675000Y-155000000D03*
X152675000Y-167000000D03*
X137075000Y-157400000D03*
X185652778Y-220000000D03*
X180708334Y-220750000D03*
X165875000Y-219250000D03*
X230152778Y-220750000D03*
X151475000Y-169400000D03*
X137075000Y-158600000D03*
X137075000Y-156200000D03*
X149075000Y-171800000D03*
X152675000Y-165800000D03*
X146675000Y-173000000D03*
X146097222Y-220750000D03*
X152675000Y-168200000D03*
X152675000Y-169400000D03*
X140675000Y-171800000D03*
X137075000Y-159800000D03*
X149075000Y-156200000D03*
X160930556Y-220750000D03*
X185652778Y-220750000D03*
X145475000Y-156200000D03*
X175763889Y-220750000D03*
X141152778Y-219250000D03*
X144275000Y-156200000D03*
X151475000Y-158600000D03*
X139475000Y-174200000D03*
X205430556Y-219250000D03*
X170819445Y-220000000D03*
X143075000Y-174200000D03*
X155986111Y-220000000D03*
X138275000Y-156200000D03*
X225208334Y-220000000D03*
X138275000Y-174200000D03*
X150275000Y-157400000D03*
X139475000Y-156200000D03*
X160930556Y-219250000D03*
X150275000Y-155000000D03*
X151475000Y-170600000D03*
X205430556Y-220000000D03*
X141152778Y-220750000D03*
X215319445Y-219250000D03*
X140675000Y-173000000D03*
X230152778Y-220000000D03*
X147875000Y-155000000D03*
X137075000Y-171800000D03*
X137075000Y-161000000D03*
X150275000Y-158600000D03*
X190597222Y-220000000D03*
X145475000Y-174200000D03*
X137075000Y-155000000D03*
X152675000Y-163400000D03*
X149075000Y-155000000D03*
X152675000Y-162200000D03*
X146675000Y-155000000D03*
X144275000Y-155000000D03*
X225208334Y-220750000D03*
X150275000Y-170600000D03*
X175763889Y-219250000D03*
X145475000Y-155000000D03*
X138275000Y-157400000D03*
X190597222Y-220750000D03*
X137075000Y-168200000D03*
X180708334Y-219250000D03*
X138275000Y-173000000D03*
X137075000Y-173000000D03*
X175763889Y-220000000D03*
X152675000Y-164600000D03*
X146675000Y-156200000D03*
X144275000Y-174200000D03*
X150275000Y-171800000D03*
X137075000Y-174200000D03*
X195541667Y-220750000D03*
X141152778Y-220000000D03*
X141875000Y-174200000D03*
X165875000Y-220750000D03*
X139475000Y-170600000D03*
X151041667Y-219250000D03*
X220263889Y-220750000D03*
X138275000Y-170600000D03*
X141875000Y-156200000D03*
X210375000Y-219250000D03*
X146097222Y-219250000D03*
X170819445Y-220750000D03*
X146097222Y-220000000D03*
X220263889Y-219250000D03*
X147875000Y-156200000D03*
X151041667Y-220000000D03*
X152675000Y-157400000D03*
X141875000Y-155000000D03*
X151475000Y-156200000D03*
X143075000Y-173000000D03*
X155986111Y-220750000D03*
X139475000Y-173000000D03*
X210375000Y-220000000D03*
X195541667Y-220000000D03*
X152675000Y-159800000D03*
X139475000Y-157400000D03*
X138275000Y-169400000D03*
X210375000Y-220750000D03*
X139475000Y-155000000D03*
X140675000Y-155000000D03*
X200486111Y-219250000D03*
X200486111Y-220000000D03*
X139475000Y-171800000D03*
X150275000Y-156200000D03*
X144275000Y-173000000D03*
X149075000Y-173000000D03*
X137075000Y-167000000D03*
X165875000Y-220000000D03*
X170819445Y-219250000D03*
X160930556Y-220000000D03*
X145475000Y-173000000D03*
X151475000Y-157400000D03*
X143075000Y-155000000D03*
X194125000Y-165750000D03*
X190597222Y-219250000D03*
X152675000Y-156200000D03*
X140675000Y-174200000D03*
X137075000Y-170600000D03*
X185652778Y-219250000D03*
X138275000Y-155000000D03*
X147875000Y-173000000D03*
X147875000Y-171800000D03*
X151041667Y-220750000D03*
X140675000Y-156200000D03*
X225208334Y-219250000D03*
X147875000Y-174200000D03*
X220263889Y-220000000D03*
X195541667Y-219250000D03*
X138275000Y-158600000D03*
X155986111Y-219250000D03*
X180708334Y-220000000D03*
X215319445Y-220750000D03*
X200486111Y-220750000D03*
%TO.N,VDC_OUT*%
X205875000Y-165750000D03*
X230075000Y-174200000D03*
X221675000Y-158600000D03*
X219275000Y-165800000D03*
X230075000Y-156200000D03*
X222875000Y-173000000D03*
X233675000Y-170600000D03*
X231275000Y-173000000D03*
X233675000Y-156200000D03*
X221675000Y-170600000D03*
X233675000Y-174200000D03*
X227675000Y-156200000D03*
X232475000Y-155000000D03*
X232475000Y-171800000D03*
X221675000Y-155000000D03*
X222875000Y-156200000D03*
X233675000Y-155000000D03*
X225275000Y-173000000D03*
X219275000Y-156200000D03*
X225275000Y-174200000D03*
X224075000Y-171800000D03*
X219275000Y-155000000D03*
X226475000Y-155000000D03*
X220475000Y-157400000D03*
X226475000Y-173000000D03*
X233675000Y-171800000D03*
X233675000Y-158600000D03*
X231275000Y-171800000D03*
X220475000Y-169400000D03*
X227675000Y-155000000D03*
X225275000Y-156200000D03*
X233675000Y-169400000D03*
X224075000Y-156200000D03*
X227675000Y-173000000D03*
X219275000Y-168200000D03*
X219275000Y-159800000D03*
X230075000Y-173000000D03*
X221675000Y-156200000D03*
X220475000Y-170600000D03*
X228875000Y-155000000D03*
X219275000Y-158600000D03*
X228875000Y-174200000D03*
X219275000Y-167000000D03*
X219275000Y-164600000D03*
X219275000Y-161000000D03*
X232475000Y-170600000D03*
X222875000Y-155000000D03*
X225275000Y-155000000D03*
X231275000Y-174200000D03*
X228875000Y-173000000D03*
X220475000Y-158600000D03*
X228875000Y-156200000D03*
X226475000Y-156200000D03*
X183275000Y-164800000D03*
X220475000Y-159800000D03*
X226475000Y-174200000D03*
X231275000Y-156200000D03*
X232475000Y-173000000D03*
X231275000Y-155000000D03*
X221675000Y-171800000D03*
X222875000Y-171800000D03*
X232475000Y-174200000D03*
X224075000Y-173000000D03*
X224075000Y-155000000D03*
X230075000Y-155000000D03*
X233675000Y-173000000D03*
X219275000Y-163400000D03*
X232475000Y-156200000D03*
X220475000Y-156200000D03*
X220475000Y-155000000D03*
X227675000Y-174200000D03*
X219275000Y-157400000D03*
X224075000Y-174200000D03*
X219275000Y-169400000D03*
X232475000Y-157400000D03*
X233675000Y-157400000D03*
X219275000Y-162200000D03*
X221675000Y-157400000D03*
%TO.N,VCC*%
X188375000Y-164750000D03*
%TO.N,GND*%
X177375000Y-132500000D03*
X176875000Y-131500000D03*
X174875000Y-131500000D03*
X174375000Y-132500000D03*
X175375000Y-132500000D03*
X177875000Y-131500000D03*
X176375000Y-132500000D03*
X175875000Y-131500000D03*
X139820000Y-149695000D03*
X177875000Y-133500000D03*
%TO.N,+27V*%
X178312500Y-126937500D03*
X174375000Y-137000000D03*
%TO.N,GND1*%
X217125000Y-135000000D03*
X180075000Y-151750000D03*
X173875000Y-150250000D03*
X193862500Y-152000000D03*
X206875000Y-146250000D03*
X205125000Y-152000000D03*
X219375000Y-128000000D03*
X195962500Y-146250000D03*
X189375000Y-140250000D03*
X193862500Y-149750000D03*
X217125000Y-128000000D03*
X162525000Y-146450000D03*
X183375000Y-140250000D03*
X211030000Y-134845000D03*
X205125000Y-149750000D03*
X184962500Y-145337500D03*
X219375000Y-135000000D03*
%TO.N,+5V*%
X221625000Y-128000000D03*
X189875000Y-150250000D03*
X221625000Y-135000000D03*
X186875000Y-150000000D03*
X199262500Y-144600000D03*
X207220000Y-132155000D03*
X210262500Y-144612500D03*
X155625000Y-148950000D03*
%TO.N,Net-(C6-Pad2)*%
X201375000Y-144500000D03*
X214875000Y-139000000D03*
%TO.N,Net-(C21-Pad2)*%
X214875000Y-132000000D03*
X212375000Y-144500000D03*
%TD*%
%TO.N,VDC_OUT*%
D30*
X180975000Y-167100000D02*
X183275000Y-164800000D01*
X161675000Y-141800000D02*
X165175000Y-141800000D01*
X173325000Y-167100000D02*
X180975000Y-167100000D01*
X158025000Y-134050010D02*
X158025000Y-138150000D01*
X168375000Y-145000000D02*
X168375000Y-162150000D01*
X168375000Y-162150000D02*
X173325000Y-167100000D01*
X158025000Y-138150000D02*
X161675000Y-141800000D01*
X165175000Y-141800000D02*
X168375000Y-145000000D01*
%TO.N,VCC*%
X162775000Y-139850000D02*
X160565000Y-137640000D01*
X188375000Y-164750000D02*
X186525000Y-162900000D01*
X182525000Y-162900000D02*
X180325000Y-165100000D01*
X170275000Y-161200000D02*
X170275000Y-144000000D01*
X180325000Y-165100000D02*
X174175000Y-165100000D01*
X174175000Y-165100000D02*
X170275000Y-161200000D01*
X170275000Y-144000000D02*
X166125000Y-139850000D01*
X186525000Y-162900000D02*
X182525000Y-162900000D01*
X160565000Y-137640000D02*
X160565000Y-134050010D01*
X166125000Y-139850000D02*
X162775000Y-139850000D01*
%TO.N,+27V*%
X176627500Y-136449990D02*
X176065000Y-137012490D01*
X178590000Y-136449990D02*
X176627500Y-136449990D01*
X174387490Y-137012490D02*
X174375000Y-137000000D01*
X176065000Y-137012490D02*
X174387490Y-137012490D01*
X176625000Y-126937500D02*
X174662500Y-126937500D01*
X178312500Y-126937500D02*
X176625000Y-126937500D01*
X174662500Y-126937500D02*
X174100000Y-127500000D01*
%TO.N,GND1*%
D31*
X208087500Y-146250000D02*
X206875000Y-146250000D01*
X211030000Y-134845000D02*
X211030000Y-134367500D01*
X211030000Y-134367500D02*
X210162500Y-133500000D01*
D30*
X195065000Y-130289990D02*
X194725000Y-129949990D01*
D31*
X185875000Y-146250000D02*
X184962500Y-145337500D01*
X197087500Y-146250000D02*
X195962500Y-146250000D01*
D30*
X195065000Y-132649980D02*
X195065000Y-130289990D01*
D31*
X185875000Y-146712500D02*
X185875000Y-146250000D01*
%TO.N,+5V*%
X207220000Y-132155000D02*
X207220000Y-132632500D01*
X199162500Y-144700000D02*
X199262500Y-144600000D01*
D30*
X191940000Y-132649980D02*
X191940000Y-130194990D01*
D31*
X210162500Y-144712500D02*
X210262500Y-144612500D01*
X199162500Y-146250000D02*
X199162500Y-144700000D01*
X185875000Y-148787500D02*
X185875000Y-149000000D01*
X207220000Y-132632500D02*
X208087500Y-133500000D01*
X185875000Y-149000000D02*
X186875000Y-150000000D01*
D30*
X191940000Y-130194990D02*
X192185000Y-129949990D01*
D31*
X210162500Y-146250000D02*
X210162500Y-144712500D01*
%TO.N,Net-(C6-Pad2)*%
X214875000Y-139000000D02*
X206875000Y-139000000D01*
X206875000Y-139000000D02*
X201375000Y-144500000D01*
%TO.N,Net-(C21-Pad2)*%
X216375000Y-137000000D02*
X216375000Y-140500000D01*
X216375000Y-140500000D02*
X212375000Y-144500000D01*
X214875000Y-132000000D02*
X214875000Y-135500000D01*
X214875000Y-135500000D02*
X216375000Y-137000000D01*
%TO.N,Net-(D2-Vin)*%
D30*
X182025000Y-129949990D02*
X182025000Y-132597490D01*
X183040000Y-133612490D02*
X182377500Y-132949990D01*
X183040000Y-136449990D02*
X183040000Y-133612490D01*
X182025000Y-132597490D02*
X182377500Y-132949990D01*
%TO.N,Net-(D3-Vin)*%
X170725000Y-131412500D02*
X170312500Y-131000000D01*
X170725000Y-134050010D02*
X170725000Y-131412500D01*
X169650000Y-127500000D02*
X169650000Y-130337500D01*
X169650000Y-130337500D02*
X170312500Y-131000000D01*
%TO.N,Net-(R69-Pad1)*%
X227677632Y-209550000D02*
X227677632Y-212200000D01*
%TO.N,Net-(R71-Pad1)*%
X227677632Y-192550000D02*
X227677632Y-194950000D01*
%TO.N,Net-(R109-Pad1)*%
X212835526Y-209550000D02*
X212835526Y-212200000D01*
%TO.N,Net-(R110-Pad1)*%
X212835526Y-201050000D02*
X212835526Y-203450000D01*
%TO.N,Net-(R111-Pad1)*%
X212835526Y-192550000D02*
X212835526Y-194950000D01*
%TO.N,Net-(R113-Pad1)*%
X217782895Y-209550000D02*
X217782895Y-212200000D01*
%TO.N,Net-(R115-Pad1)*%
X217782895Y-192550000D02*
X217782895Y-194950000D01*
%TO.N,Net-(R125-Pad1)*%
X232625000Y-209550000D02*
X232625000Y-212200000D01*
%TO.N,Net-(R126-Pad1)*%
X232625000Y-201050000D02*
X232625000Y-203450000D01*
%TO.N,Net-(R127-Pad1)*%
X232625000Y-192550000D02*
X232625000Y-194950000D01*
%TO.N,Net-(R129-Pad1)*%
X153467105Y-209550000D02*
X153467105Y-212200000D01*
%TO.N,Net-(R131-Pad1)*%
X153467105Y-192550000D02*
X153467105Y-194950000D01*
%TO.N,Net-(R133-Pad1)*%
X178203947Y-209550000D02*
X178203947Y-212200000D01*
%TO.N,Net-(R135-Pad1)*%
X178203947Y-192550000D02*
X178203947Y-194950000D01*
%TO.N,Net-(R137-Pad1)*%
X193046053Y-209550000D02*
X193046053Y-212200000D01*
%TO.N,Net-(R138-Pad1)*%
X193046053Y-201050000D02*
X193046053Y-203450000D01*
%TO.N,Net-(R139-Pad1)*%
X193046053Y-192550000D02*
X193046053Y-194950000D01*
%TO.N,Net-(R141-Pad1)*%
X222730263Y-209550000D02*
X222730263Y-212200000D01*
%TO.N,Net-(R142-Pad1)*%
X222730263Y-201050000D02*
X222730263Y-203450000D01*
%TO.N,Net-(R143-Pad1)*%
X222730263Y-192550000D02*
X222730263Y-194950000D01*
%TO.N,Net-(R145-Pad1)*%
X148519737Y-209550000D02*
X148519737Y-212200000D01*
%TO.N,Net-(R147-Pad1)*%
X148519737Y-192550000D02*
X148519737Y-194950000D01*
%TO.N,Net-(R149-Pad1)*%
X158414474Y-209550000D02*
X158414474Y-212200000D01*
%TO.N,Net-(R151-Pad1)*%
X158414474Y-192550000D02*
X158414474Y-194950000D01*
%TO.N,Net-(R153-Pad1)*%
X188098684Y-209550000D02*
X188098684Y-212200000D01*
%TO.N,Net-(R154-Pad1)*%
X188098684Y-201050000D02*
X188098684Y-203450000D01*
%TO.N,Net-(R155-Pad1)*%
X188098684Y-192550000D02*
X188098684Y-194950000D01*
%TO.N,Net-(R157-Pad1)*%
X197993421Y-209550000D02*
X197993421Y-212200000D01*
%TO.N,Net-(R158-Pad1)*%
X197993421Y-201050000D02*
X197993421Y-203450000D01*
%TO.N,Net-(R159-Pad1)*%
X197993421Y-192550000D02*
X197993421Y-194950000D01*
%TO.N,Net-(R161-Pad1)*%
X138625000Y-209550000D02*
X138625000Y-212200000D01*
%TO.N,Net-(R163-Pad1)*%
X138625000Y-192550000D02*
X138625000Y-194950000D01*
%TO.N,Net-(R165-Pad1)*%
X163361842Y-209550000D02*
X163361842Y-212200000D01*
%TO.N,Net-(R167-Pad1)*%
X163361842Y-192550000D02*
X163361842Y-194950000D01*
%TO.N,Net-(R169-Pad1)*%
X173256579Y-209550000D02*
X173256579Y-212200000D01*
%TO.N,Net-(R170-Pad1)*%
X173256579Y-201050000D02*
X173256579Y-203450000D01*
%TO.N,Net-(R171-Pad1)*%
X173256579Y-192550000D02*
X173256579Y-194950000D01*
%TO.N,Net-(R177-Pad1)*%
X207888158Y-209550000D02*
X207888158Y-212200000D01*
%TO.N,Net-(R179-Pad1)*%
X207888158Y-192550000D02*
X207888158Y-194950000D01*
%TO.N,Net-(R181-Pad1)*%
X143572368Y-209550000D02*
X143572368Y-212200000D01*
%TO.N,Net-(R183-Pad1)*%
X143572368Y-192550000D02*
X143572368Y-194950000D01*
%TO.N,Net-(R185-Pad1)*%
X168309211Y-209550000D02*
X168309211Y-212200000D01*
%TO.N,Net-(R186-Pad1)*%
X168309211Y-201050000D02*
X168309211Y-203450000D01*
%TO.N,Net-(R187-Pad1)*%
X168309211Y-192550000D02*
X168309211Y-194950000D01*
%TO.N,Net-(R189-Pad1)*%
X183151316Y-209550000D02*
X183151316Y-212200000D01*
%TO.N,Net-(R190-Pad1)*%
X183151316Y-201050000D02*
X183151316Y-203450000D01*
%TO.N,Net-(R191-Pad1)*%
X183151316Y-192550000D02*
X183151316Y-194950000D01*
%TO.N,Net-(R193-Pad1)*%
X202940789Y-209550000D02*
X202940789Y-212200000D01*
%TO.N,Net-(R195-Pad1)*%
X202940789Y-192550000D02*
X202940789Y-194950000D01*
%TO.N,Net-(R70-Pad1)*%
X227677632Y-201050000D02*
X227677632Y-203450000D01*
%TO.N,Net-(R114-Pad1)*%
X217782895Y-201050000D02*
X217782895Y-203450000D01*
%TO.N,Net-(R130-Pad1)*%
X153467105Y-201050000D02*
X153467105Y-203450000D01*
%TO.N,Net-(R134-Pad1)*%
X178203947Y-201050000D02*
X178203947Y-203450000D01*
%TO.N,Net-(R146-Pad1)*%
X148519737Y-201050000D02*
X148519737Y-203450000D01*
%TO.N,Net-(R150-Pad1)*%
X158414474Y-201050000D02*
X158414474Y-203450000D01*
%TO.N,Net-(R162-Pad1)*%
X138625000Y-201050000D02*
X138625000Y-203450000D01*
%TO.N,Net-(R166-Pad1)*%
X163361842Y-201050000D02*
X163361842Y-203450000D01*
%TO.N,Net-(R178-Pad1)*%
X207888158Y-201050000D02*
X207888158Y-203450000D01*
%TO.N,Net-(R182-Pad1)*%
X143572368Y-201050000D02*
X143572368Y-203450000D01*
%TO.N,Net-(R194-Pad1)*%
X202940789Y-201050000D02*
X202940789Y-203450000D01*
%TD*%
%TA.AperFunction,Conductor*%
%TO.N,VDC_IN*%
G36*
X234381061Y-217000597D02*
G01*
X234557945Y-217018018D01*
X234581765Y-217022756D01*
X234661497Y-217046942D01*
X234719934Y-217085239D01*
X234748390Y-217149051D01*
X234749500Y-217165602D01*
X234749500Y-221250443D01*
X234748903Y-221262598D01*
X234736995Y-221383494D01*
X234732253Y-221407334D01*
X234696653Y-221524693D01*
X234687350Y-221547152D01*
X234629537Y-221655311D01*
X234616033Y-221675521D01*
X234538230Y-221770326D01*
X234521040Y-221787516D01*
X234426235Y-221865319D01*
X234406025Y-221878823D01*
X234297866Y-221936636D01*
X234275410Y-221945937D01*
X234216727Y-221963739D01*
X234158048Y-221981539D01*
X234134208Y-221986281D01*
X234013193Y-221998200D01*
X234006061Y-221998903D01*
X233993908Y-221999500D01*
X185488898Y-221999500D01*
X185464707Y-221997117D01*
X185386391Y-221981539D01*
X185351004Y-221974500D01*
X185351003Y-221974500D01*
X137334789Y-221974500D01*
X137334049Y-221974390D01*
X137333681Y-221974495D01*
X137298792Y-221969160D01*
X137224586Y-221946649D01*
X137202130Y-221937347D01*
X137093975Y-221879537D01*
X137073764Y-221866033D01*
X136978959Y-221788230D01*
X136961769Y-221771040D01*
X136883966Y-221676235D01*
X136870462Y-221656025D01*
X136812644Y-221547855D01*
X136803351Y-221525420D01*
X136767744Y-221408042D01*
X136763004Y-221384207D01*
X136751097Y-221263311D01*
X136750500Y-221251157D01*
X136750500Y-217124000D01*
X136770185Y-217056961D01*
X136822989Y-217011206D01*
X136874500Y-217000000D01*
X234368907Y-217000000D01*
X234381061Y-217000597D01*
G37*
%TD.AperFunction*%
%TD*%
%TA.AperFunction,Conductor*%
%TO.N,VDC_IN*%
G36*
X151879418Y-154000316D02*
G01*
X152150790Y-154019724D01*
X152168291Y-154022241D01*
X152429803Y-154079129D01*
X152446762Y-154084108D01*
X152697524Y-154177638D01*
X152713616Y-154184987D01*
X152948501Y-154313244D01*
X152963375Y-154322802D01*
X152994908Y-154346408D01*
X153177624Y-154483188D01*
X153190994Y-154494774D01*
X153380225Y-154684005D01*
X153391811Y-154697375D01*
X153552193Y-154911619D01*
X153561758Y-154926503D01*
X153690011Y-155161382D01*
X153697361Y-155177475D01*
X153790888Y-155428229D01*
X153795872Y-155445205D01*
X153852757Y-155706702D01*
X153855275Y-155724214D01*
X153874684Y-155995581D01*
X153875000Y-156004427D01*
X153875000Y-168167506D01*
X153874735Y-168175616D01*
X153858421Y-168424521D01*
X153856303Y-168440603D01*
X153808437Y-168681238D01*
X153804239Y-168696904D01*
X153725371Y-168929243D01*
X153719164Y-168944229D01*
X153610645Y-169164283D01*
X153602535Y-169178329D01*
X153466222Y-169382337D01*
X153456348Y-169395206D01*
X153291887Y-169582737D01*
X153286340Y-169588659D01*
X148713659Y-174161340D01*
X148707737Y-174166887D01*
X148520206Y-174331348D01*
X148507337Y-174341222D01*
X148303329Y-174477535D01*
X148289283Y-174485645D01*
X148069229Y-174594164D01*
X148054243Y-174600371D01*
X147821904Y-174679239D01*
X147806238Y-174683437D01*
X147565603Y-174731303D01*
X147549521Y-174733421D01*
X147300616Y-174749735D01*
X147292506Y-174750000D01*
X137754428Y-174750000D01*
X137745582Y-174749684D01*
X137474214Y-174730275D01*
X137456702Y-174727757D01*
X137195205Y-174670872D01*
X137178229Y-174665888D01*
X136927476Y-174572362D01*
X136911388Y-174565014D01*
X136815072Y-174512422D01*
X136765667Y-174463016D01*
X136750500Y-174403590D01*
X136750500Y-154346408D01*
X136770185Y-154279369D01*
X136815069Y-154237578D01*
X136911392Y-154184982D01*
X136927465Y-154177641D01*
X137178241Y-154084107D01*
X137195192Y-154079130D01*
X137456710Y-154022240D01*
X137474207Y-154019724D01*
X137745582Y-154000316D01*
X137754428Y-154000000D01*
X151870572Y-154000000D01*
X151879418Y-154000316D01*
G37*
%TD.AperFunction*%
%TD*%
%TA.AperFunction,Conductor*%
%TO.N,VDC_OUT*%
G36*
X234381061Y-154000597D02*
G01*
X234557945Y-154018018D01*
X234581765Y-154022756D01*
X234661497Y-154046942D01*
X234719934Y-154085239D01*
X234748390Y-154149051D01*
X234749500Y-154165602D01*
X234749500Y-187834396D01*
X234729815Y-187901435D01*
X234677011Y-187947190D01*
X234661496Y-187953057D01*
X234581776Y-187977240D01*
X234557934Y-187981982D01*
X234381061Y-187999403D01*
X234368907Y-188000000D01*
X136874500Y-188000000D01*
X136807461Y-187980315D01*
X136761706Y-187927511D01*
X136750500Y-187876000D01*
X136750500Y-184874000D01*
X136770185Y-184806961D01*
X136822989Y-184761206D01*
X136874500Y-184750000D01*
X159087105Y-184750000D01*
X159123098Y-184755338D01*
X159212604Y-184782490D01*
X159212610Y-184782491D01*
X159212613Y-184782492D01*
X159212624Y-184782495D01*
X159574024Y-184854381D01*
X159940750Y-184890500D01*
X159940753Y-184890500D01*
X160309247Y-184890500D01*
X160309250Y-184890500D01*
X160675976Y-184854381D01*
X160746331Y-184840386D01*
X161037375Y-184782495D01*
X161037386Y-184782492D01*
X161037386Y-184782491D01*
X161037396Y-184782490D01*
X161126901Y-184755338D01*
X161162895Y-184750000D01*
X176337105Y-184750000D01*
X176373098Y-184755338D01*
X176462604Y-184782490D01*
X176462610Y-184782491D01*
X176462613Y-184782492D01*
X176462624Y-184782495D01*
X176824024Y-184854381D01*
X177190750Y-184890500D01*
X177190753Y-184890500D01*
X177559247Y-184890500D01*
X177559250Y-184890500D01*
X177925976Y-184854381D01*
X177996331Y-184840386D01*
X178287375Y-184782495D01*
X178287386Y-184782492D01*
X178287386Y-184782491D01*
X178287396Y-184782490D01*
X178376901Y-184755338D01*
X178412895Y-184750000D01*
X193587105Y-184750000D01*
X193623098Y-184755338D01*
X193712604Y-184782490D01*
X193712610Y-184782491D01*
X193712613Y-184782492D01*
X193712624Y-184782495D01*
X194074024Y-184854381D01*
X194440750Y-184890500D01*
X194440753Y-184890500D01*
X194809247Y-184890500D01*
X194809250Y-184890500D01*
X195175976Y-184854381D01*
X195246331Y-184840386D01*
X195537375Y-184782495D01*
X195537386Y-184782492D01*
X195537386Y-184782491D01*
X195537396Y-184782490D01*
X195626901Y-184755338D01*
X195662895Y-184750000D01*
X210837105Y-184750000D01*
X210873098Y-184755338D01*
X210962604Y-184782490D01*
X210962610Y-184782491D01*
X210962613Y-184782492D01*
X210962624Y-184782495D01*
X211324024Y-184854381D01*
X211690750Y-184890500D01*
X211690753Y-184890500D01*
X212059247Y-184890500D01*
X212059250Y-184890500D01*
X212425976Y-184854381D01*
X212496331Y-184840386D01*
X212787375Y-184782495D01*
X212787386Y-184782492D01*
X212787386Y-184782491D01*
X212787396Y-184782490D01*
X212876901Y-184755338D01*
X212912895Y-184750000D01*
X219125000Y-184750000D01*
X223875000Y-180000000D01*
X223875000Y-174750000D01*
X218422202Y-169297202D01*
X218414030Y-169288186D01*
X218301277Y-169150797D01*
X218287772Y-169130585D01*
X218206878Y-168979243D01*
X218197575Y-168956785D01*
X218147757Y-168792556D01*
X218143018Y-168768728D01*
X218125597Y-168591847D01*
X218125000Y-168579693D01*
X218125000Y-155006092D01*
X218125597Y-154993938D01*
X218143018Y-154817056D01*
X218147757Y-154793232D01*
X218197577Y-154628994D01*
X218206875Y-154606549D01*
X218287775Y-154455195D01*
X218301272Y-154434995D01*
X218410149Y-154302328D01*
X218427328Y-154285149D01*
X218559995Y-154176272D01*
X218580195Y-154162775D01*
X218731549Y-154081875D01*
X218753994Y-154072577D01*
X218918232Y-154022757D01*
X218942056Y-154018018D01*
X219118939Y-154000597D01*
X219131093Y-154000000D01*
X234368907Y-154000000D01*
X234381061Y-154000597D01*
G37*
%TD.AperFunction*%
%TD*%
%TA.AperFunction,Conductor*%
%TO.N,GND*%
G36*
X179381061Y-128500597D02*
G01*
X179557941Y-128518018D01*
X179581769Y-128522757D01*
X179746001Y-128572576D01*
X179768453Y-128581877D01*
X179919798Y-128662772D01*
X179940010Y-128676277D01*
X180072666Y-128785145D01*
X180089854Y-128802333D01*
X180198722Y-128934989D01*
X180212227Y-128955201D01*
X180293121Y-129106543D01*
X180302424Y-129129001D01*
X180352240Y-129293224D01*
X180356982Y-129317065D01*
X180374403Y-129493938D01*
X180375000Y-129506092D01*
X180375000Y-134493907D01*
X180374403Y-134506061D01*
X180356982Y-134682934D01*
X180352240Y-134706775D01*
X180302424Y-134870998D01*
X180293121Y-134893456D01*
X180212227Y-135044798D01*
X180198722Y-135065010D01*
X180089854Y-135197666D01*
X180072666Y-135214854D01*
X179943164Y-135321134D01*
X179878854Y-135348447D01*
X179809987Y-135336656D01*
X179758426Y-135289504D01*
X179740499Y-135225281D01*
X179740499Y-134949988D01*
X179740498Y-134949971D01*
X179729999Y-134847193D01*
X179729998Y-134847190D01*
X179699298Y-134754544D01*
X179674814Y-134680656D01*
X179582712Y-134531334D01*
X179458656Y-134407278D01*
X179309334Y-134315176D01*
X179142797Y-134259991D01*
X179142795Y-134259990D01*
X179040010Y-134249490D01*
X178139998Y-134249490D01*
X178139980Y-134249491D01*
X178037203Y-134259990D01*
X178037200Y-134259991D01*
X177870668Y-134315175D01*
X177870663Y-134315177D01*
X177721342Y-134407279D01*
X177597289Y-134531332D01*
X177505187Y-134680653D01*
X177505185Y-134680658D01*
X177496533Y-134706769D01*
X177450001Y-134847193D01*
X177450001Y-134847194D01*
X177450000Y-134847194D01*
X177439500Y-134949973D01*
X177439500Y-135325490D01*
X177419815Y-135392529D01*
X177367011Y-135438284D01*
X177315500Y-135449490D01*
X176528955Y-135449490D01*
X176434057Y-135468366D01*
X176434026Y-135468372D01*
X176432312Y-135468714D01*
X176335664Y-135487939D01*
X176319711Y-135494546D01*
X176309554Y-135496872D01*
X176300395Y-135496317D01*
X176281880Y-135500000D01*
X173381093Y-135500000D01*
X173368939Y-135499403D01*
X173192065Y-135481982D01*
X173168224Y-135477240D01*
X173004001Y-135427424D01*
X172981543Y-135418121D01*
X172830201Y-135337227D01*
X172809989Y-135323722D01*
X172677333Y-135214854D01*
X172660145Y-135197666D01*
X172551277Y-135065010D01*
X172537772Y-135044798D01*
X172456878Y-134893456D01*
X172447575Y-134870998D01*
X172397757Y-134706769D01*
X172393018Y-134682941D01*
X172375597Y-134506061D01*
X172375000Y-134493907D01*
X172375000Y-129506092D01*
X172375597Y-129493938D01*
X172389498Y-129352799D01*
X172393018Y-129317056D01*
X172397757Y-129293232D01*
X172447577Y-129128994D01*
X172456875Y-129106549D01*
X172537775Y-128955195D01*
X172551272Y-128934995D01*
X172660149Y-128802328D01*
X172677328Y-128785149D01*
X172746837Y-128728104D01*
X172811145Y-128700793D01*
X172880013Y-128712584D01*
X172931573Y-128759736D01*
X172949500Y-128823959D01*
X172949500Y-129250001D01*
X172949501Y-129250019D01*
X172960000Y-129352796D01*
X172960001Y-129352799D01*
X173010798Y-129506092D01*
X173015186Y-129519334D01*
X173107288Y-129668656D01*
X173231344Y-129792712D01*
X173380666Y-129884814D01*
X173547203Y-129939999D01*
X173649991Y-129950500D01*
X174550008Y-129950499D01*
X174550016Y-129950498D01*
X174550019Y-129950498D01*
X174606302Y-129944748D01*
X174652797Y-129939999D01*
X174819334Y-129884814D01*
X174968656Y-129792712D01*
X175092712Y-129668656D01*
X175184814Y-129519334D01*
X175239999Y-129352797D01*
X175250500Y-129250009D01*
X175250500Y-128624000D01*
X175270185Y-128556961D01*
X175322989Y-128511206D01*
X175374500Y-128500000D01*
X179368907Y-128500000D01*
X179381061Y-128500597D01*
G37*
%TD.AperFunction*%
%TD*%
D32*
X135750000Y-129500000D02*
G75*
G02*
X140250001Y-125000000I4500000J0D01*
G01*
X135750000Y-221250000D02*
X135750000Y-129500000D01*
X137500000Y-223000000D02*
X234000000Y-223000000D01*
X137500000Y-223000714D02*
G75*
G02*
X135749286Y-221250000I0J1750714D01*
G01*
X231250000Y-125000000D02*
X140250000Y-125000000D01*
X231250000Y-125000000D02*
G75*
G02*
X235750000Y-129500000I0J-4500000D01*
G01*
X235750000Y-129500000D02*
X235750000Y-221250000D01*
X235750714Y-221249286D02*
G75*
G02*
X234000000Y-223000014I-1750714J-14D01*
G01*
D33*
X185083333Y-116304819D02*
X185273809Y-116304819D01*
X185273809Y-116304819D02*
X185369047Y-116257200D01*
X185369047Y-116257200D02*
X185416666Y-116209580D01*
X185416666Y-116209580D02*
X185511904Y-116066723D01*
X185511904Y-116066723D02*
X185559523Y-115876247D01*
X185559523Y-115876247D02*
X185559523Y-115495295D01*
X185559523Y-115495295D02*
X185511904Y-115400057D01*
X185511904Y-115400057D02*
X185464285Y-115352438D01*
X185464285Y-115352438D02*
X185369047Y-115304819D01*
X185369047Y-115304819D02*
X185178571Y-115304819D01*
X185178571Y-115304819D02*
X185083333Y-115352438D01*
X185083333Y-115352438D02*
X185035714Y-115400057D01*
X185035714Y-115400057D02*
X184988095Y-115495295D01*
X184988095Y-115495295D02*
X184988095Y-115733390D01*
X184988095Y-115733390D02*
X185035714Y-115828628D01*
X185035714Y-115828628D02*
X185083333Y-115876247D01*
X185083333Y-115876247D02*
X185178571Y-115923866D01*
X185178571Y-115923866D02*
X185369047Y-115923866D01*
X185369047Y-115923866D02*
X185464285Y-115876247D01*
X185464285Y-115876247D02*
X185511904Y-115828628D01*
X185511904Y-115828628D02*
X185559523Y-115733390D01*
X186511904Y-116304819D02*
X185940476Y-116304819D01*
X186226190Y-116304819D02*
X186226190Y-115304819D01*
X186226190Y-115304819D02*
X186130952Y-115447676D01*
X186130952Y-115447676D02*
X186035714Y-115542914D01*
X186035714Y-115542914D02*
X185940476Y-115590533D01*
D32*
X140250000Y-129000000D02*
X140250000Y-116413580D01*
X231250000Y-116413580D02*
X231250000Y-129000000D01*
X140250000Y-117000000D02*
X231250000Y-117000000D01*
X140250000Y-117000000D02*
X141376504Y-116413579D01*
X140250000Y-117000000D02*
X141376504Y-117586421D01*
X231250000Y-117000000D02*
X230123496Y-117586421D01*
X231250000Y-117000000D02*
X230123496Y-116413579D01*
D33*
X128054819Y-174666666D02*
X128054819Y-174476190D01*
X128054819Y-174476190D02*
X128007200Y-174380952D01*
X128007200Y-174380952D02*
X127959580Y-174333333D01*
X127959580Y-174333333D02*
X127816723Y-174238095D01*
X127816723Y-174238095D02*
X127626247Y-174190476D01*
X127626247Y-174190476D02*
X127245295Y-174190476D01*
X127245295Y-174190476D02*
X127150057Y-174238095D01*
X127150057Y-174238095D02*
X127102438Y-174285714D01*
X127102438Y-174285714D02*
X127054819Y-174380952D01*
X127054819Y-174380952D02*
X127054819Y-174571428D01*
X127054819Y-174571428D02*
X127102438Y-174666666D01*
X127102438Y-174666666D02*
X127150057Y-174714285D01*
X127150057Y-174714285D02*
X127245295Y-174761904D01*
X127245295Y-174761904D02*
X127483390Y-174761904D01*
X127483390Y-174761904D02*
X127578628Y-174714285D01*
X127578628Y-174714285D02*
X127626247Y-174666666D01*
X127626247Y-174666666D02*
X127673866Y-174571428D01*
X127673866Y-174571428D02*
X127673866Y-174380952D01*
X127673866Y-174380952D02*
X127626247Y-174285714D01*
X127626247Y-174285714D02*
X127578628Y-174238095D01*
X127578628Y-174238095D02*
X127483390Y-174190476D01*
X127483390Y-173619047D02*
X127435771Y-173714285D01*
X127435771Y-173714285D02*
X127388152Y-173761904D01*
X127388152Y-173761904D02*
X127292914Y-173809523D01*
X127292914Y-173809523D02*
X127245295Y-173809523D01*
X127245295Y-173809523D02*
X127150057Y-173761904D01*
X127150057Y-173761904D02*
X127102438Y-173714285D01*
X127102438Y-173714285D02*
X127054819Y-173619047D01*
X127054819Y-173619047D02*
X127054819Y-173428571D01*
X127054819Y-173428571D02*
X127102438Y-173333333D01*
X127102438Y-173333333D02*
X127150057Y-173285714D01*
X127150057Y-173285714D02*
X127245295Y-173238095D01*
X127245295Y-173238095D02*
X127292914Y-173238095D01*
X127292914Y-173238095D02*
X127388152Y-173285714D01*
X127388152Y-173285714D02*
X127435771Y-173333333D01*
X127435771Y-173333333D02*
X127483390Y-173428571D01*
X127483390Y-173428571D02*
X127483390Y-173619047D01*
X127483390Y-173619047D02*
X127531009Y-173714285D01*
X127531009Y-173714285D02*
X127578628Y-173761904D01*
X127578628Y-173761904D02*
X127673866Y-173809523D01*
X127673866Y-173809523D02*
X127864342Y-173809523D01*
X127864342Y-173809523D02*
X127959580Y-173761904D01*
X127959580Y-173761904D02*
X128007200Y-173714285D01*
X128007200Y-173714285D02*
X128054819Y-173619047D01*
X128054819Y-173619047D02*
X128054819Y-173428571D01*
X128054819Y-173428571D02*
X128007200Y-173333333D01*
X128007200Y-173333333D02*
X127959580Y-173285714D01*
X127959580Y-173285714D02*
X127864342Y-173238095D01*
X127864342Y-173238095D02*
X127673866Y-173238095D01*
X127673866Y-173238095D02*
X127578628Y-173285714D01*
X127578628Y-173285714D02*
X127531009Y-173333333D01*
X127531009Y-173333333D02*
X127483390Y-173428571D01*
D32*
X185250000Y-125000000D02*
X128163580Y-125000000D01*
X128163580Y-223000000D02*
X185250000Y-223000000D01*
X128750000Y-125000000D02*
X128750000Y-223000000D01*
X128750000Y-125000000D02*
X129336421Y-126126504D01*
X128750000Y-125000000D02*
X128163579Y-126126504D01*
X128750000Y-223000000D02*
X128163579Y-221873496D01*
X128750000Y-223000000D02*
X129336421Y-221873496D01*
D33*
X185083333Y-109554819D02*
X184511905Y-109554819D01*
X184797619Y-109554819D02*
X184797619Y-108554819D01*
X184797619Y-108554819D02*
X184702381Y-108697676D01*
X184702381Y-108697676D02*
X184607143Y-108792914D01*
X184607143Y-108792914D02*
X184511905Y-108840533D01*
X185702381Y-108554819D02*
X185797619Y-108554819D01*
X185797619Y-108554819D02*
X185892857Y-108602438D01*
X185892857Y-108602438D02*
X185940476Y-108650057D01*
X185940476Y-108650057D02*
X185988095Y-108745295D01*
X185988095Y-108745295D02*
X186035714Y-108935771D01*
X186035714Y-108935771D02*
X186035714Y-109173866D01*
X186035714Y-109173866D02*
X185988095Y-109364342D01*
X185988095Y-109364342D02*
X185940476Y-109459580D01*
X185940476Y-109459580D02*
X185892857Y-109507200D01*
X185892857Y-109507200D02*
X185797619Y-109554819D01*
X185797619Y-109554819D02*
X185702381Y-109554819D01*
X185702381Y-109554819D02*
X185607143Y-109507200D01*
X185607143Y-109507200D02*
X185559524Y-109459580D01*
X185559524Y-109459580D02*
X185511905Y-109364342D01*
X185511905Y-109364342D02*
X185464286Y-109173866D01*
X185464286Y-109173866D02*
X185464286Y-108935771D01*
X185464286Y-108935771D02*
X185511905Y-108745295D01*
X185511905Y-108745295D02*
X185559524Y-108650057D01*
X185559524Y-108650057D02*
X185607143Y-108602438D01*
X185607143Y-108602438D02*
X185702381Y-108554819D01*
X186654762Y-108554819D02*
X186750000Y-108554819D01*
X186750000Y-108554819D02*
X186845238Y-108602438D01*
X186845238Y-108602438D02*
X186892857Y-108650057D01*
X186892857Y-108650057D02*
X186940476Y-108745295D01*
X186940476Y-108745295D02*
X186988095Y-108935771D01*
X186988095Y-108935771D02*
X186988095Y-109173866D01*
X186988095Y-109173866D02*
X186940476Y-109364342D01*
X186940476Y-109364342D02*
X186892857Y-109459580D01*
X186892857Y-109459580D02*
X186845238Y-109507200D01*
X186845238Y-109507200D02*
X186750000Y-109554819D01*
X186750000Y-109554819D02*
X186654762Y-109554819D01*
X186654762Y-109554819D02*
X186559524Y-109507200D01*
X186559524Y-109507200D02*
X186511905Y-109459580D01*
X186511905Y-109459580D02*
X186464286Y-109364342D01*
X186464286Y-109364342D02*
X186416667Y-109173866D01*
X186416667Y-109173866D02*
X186416667Y-108935771D01*
X186416667Y-108935771D02*
X186464286Y-108745295D01*
X186464286Y-108745295D02*
X186511905Y-108650057D01*
X186511905Y-108650057D02*
X186559524Y-108602438D01*
X186559524Y-108602438D02*
X186654762Y-108554819D01*
D32*
X135750000Y-129000000D02*
X135750000Y-109663580D01*
X235750000Y-109663580D02*
X235750000Y-129000000D01*
X135750000Y-110250000D02*
X235750000Y-110250000D01*
X135750000Y-110250000D02*
X136876504Y-109663579D01*
X135750000Y-110250000D02*
X136876504Y-110836421D01*
X235750000Y-110250000D02*
X234623496Y-110836421D01*
X235750000Y-110250000D02*
X234623496Y-109663579D01*
M02*
