%TF.GenerationSoftware,KiCad,Pcbnew,10.0.1*%
%TF.CreationDate,2026-06-09T12:56:55+03:00*%
%TF.ProjectId,Precharge_Nauka,50726563-6861-4726-9765-5f4e61756b61,rev?*%
%TF.SameCoordinates,Original*%
%TF.FileFunction,Copper,L3,Inr*%
%TF.FilePolarity,Positive*%
%FSLAX46Y46*%
G04 Gerber Fmt 4.6, Leading zero omitted, Abs format (unit mm)*
G04 Created by KiCad (PCBNEW 10.0.1) date 2026-06-09 12:56:55*
%MOMM*%
%LPD*%
G01*
G04 APERTURE LIST*
G04 Aperture macros list*
%AMRoundRect*
0 Rectangle with rounded corners*
0 $1 Rounding radius*
0 $2 $3 $4 $5 $6 $7 $8 $9 X,Y pos of 4 corners*
0 Add a 4 corners polygon primitive as box body*
4,1,4,$2,$3,$4,$5,$6,$7,$8,$9,$2,$3,0*
0 Add four circle primitives for the rounded corners*
1,1,$1+$1,$2,$3*
1,1,$1+$1,$4,$5*
1,1,$1+$1,$6,$7*
1,1,$1+$1,$8,$9*
0 Add four rect primitives between the rounded corners*
20,1,$1+$1,$2,$3,$4,$5,0*
20,1,$1+$1,$4,$5,$6,$7,0*
20,1,$1+$1,$6,$7,$8,$9,0*
20,1,$1+$1,$8,$9,$2,$3,0*%
G04 Aperture macros list end*
%TA.AperFunction,ComponentPad*%
%ADD10O,1.600000X2.400000*%
%TD*%
%TA.AperFunction,ComponentPad*%
%ADD11C,15.000000*%
%TD*%
%TA.AperFunction,ComponentPad*%
%ADD12R,2.500000X4.500000*%
%TD*%
%TA.AperFunction,ComponentPad*%
%ADD13O,2.500000X4.500000*%
%TD*%
%TA.AperFunction,ComponentPad*%
%ADD14RoundRect,0.250001X0.499999X0.499999X-0.499999X0.499999X-0.499999X-0.499999X0.499999X-0.499999X0*%
%TD*%
%TA.AperFunction,ComponentPad*%
%ADD15C,1.500000*%
%TD*%
%TA.AperFunction,ComponentPad*%
%ADD16RoundRect,0.250000X0.550000X0.550000X-0.550000X0.550000X-0.550000X-0.550000X0.550000X-0.550000X0*%
%TD*%
%TA.AperFunction,ComponentPad*%
%ADD17C,1.600000*%
%TD*%
%TA.AperFunction,ViaPad*%
%ADD18C,0.600000*%
%TD*%
%TA.AperFunction,Profile*%
%ADD19C,0.050000*%
%TD*%
%ADD20C,0.150000*%
G04 APERTURE END LIST*
D10*
%TO.N,GND*%
%TO.C,D2*%
X179485000Y-129949990D03*
%TO.N,Net-(D2-Vin)*%
X182025000Y-129949990D03*
%TO.N,unconnected-(D2-NC-Pad3)*%
X184565000Y-129949990D03*
%TO.N,unconnected-(D2-NC-Pad5)*%
X189645000Y-129949990D03*
%TO.N,+5V*%
X192185000Y-129949990D03*
%TO.N,GND1*%
X194725000Y-129949990D03*
%TO.N,unconnected-(D2-NC-Pad8)*%
X197265000Y-129949990D03*
%TD*%
D11*
%TO.N,VDC_OUT*%
%TO.C,J3*%
X227000000Y-164400000D03*
%TD*%
D12*
%TO.N,Net-(Q4-G)*%
%TO.C,Q4*%
X182825000Y-180140000D03*
D13*
%TO.N,VDC_IN*%
X177375000Y-180140000D03*
%TO.N,VDC_OUT*%
X171925000Y-180140000D03*
%TD*%
D11*
%TO.N,VDC_IN*%
%TO.C,J2*%
X144675000Y-164400000D03*
%TD*%
D12*
%TO.N,Net-(Q3-G)*%
%TO.C,Q3*%
X200075000Y-180140000D03*
D13*
%TO.N,VDC_IN*%
X194625000Y-180140000D03*
%TO.N,VDC_OUT*%
X189175000Y-180140000D03*
%TD*%
D10*
%TO.N,GND*%
%TO.C,D3*%
X173265000Y-134050010D03*
%TO.N,Net-(D3-Vin)*%
X170725000Y-134050010D03*
%TO.N,unconnected-(D3-NC-Pad3)*%
X168185000Y-134050010D03*
%TO.N,unconnected-(D3-NC-Pad5)*%
X163105000Y-134050010D03*
%TO.N,VCC*%
X160565000Y-134050010D03*
%TO.N,VDC_OUT*%
X158025000Y-134050010D03*
%TO.N,unconnected-(D3-NC-Pad8)*%
X155485000Y-134050010D03*
%TD*%
D14*
%TO.N,GND*%
%TO.C,J1*%
X147375000Y-141420000D03*
D15*
X144375000Y-141420000D03*
%TO.N,Ready*%
X141375000Y-141420000D03*
%TO.N,+27V*%
X147375000Y-138420000D03*
X144375000Y-138420000D03*
%TO.N,Ready*%
X141375000Y-138420000D03*
%TD*%
D12*
%TO.N,Net-(Q2-G)*%
%TO.C,Q2*%
X217325000Y-180140000D03*
D13*
%TO.N,VDC_IN*%
X211875000Y-180140000D03*
%TO.N,VDC_OUT*%
X206425000Y-180140000D03*
%TD*%
D12*
%TO.N,Net-(Q5-G)*%
%TO.C,Q5*%
X165575000Y-180140000D03*
D13*
%TO.N,VDC_IN*%
X160125000Y-180140000D03*
%TO.N,VDC_OUT*%
X154675000Y-180140000D03*
%TD*%
D16*
%TO.N,Net-(R199-Pad2)*%
%TO.C,U5*%
X150625000Y-149025000D03*
D17*
%TO.N,Net-(R200-Pad1)*%
X150625000Y-146485000D03*
%TO.N,Ready*%
X143005000Y-146485000D03*
%TO.N,+27V*%
X143005000Y-149025000D03*
%TD*%
D18*
%TO.N,VDC_IN*%
X205430556Y-220750000D03*
X143075000Y-156200000D03*
X141875000Y-173000000D03*
X152675000Y-161000000D03*
X151475000Y-155000000D03*
X215319445Y-220000000D03*
X137075000Y-169400000D03*
X230152778Y-219250000D03*
X146675000Y-174200000D03*
X138275000Y-171800000D03*
X152675000Y-158600000D03*
X151475000Y-159800000D03*
X152675000Y-155000000D03*
X152675000Y-167000000D03*
X137075000Y-157400000D03*
X185652778Y-220000000D03*
X180708334Y-220750000D03*
X165875000Y-219250000D03*
X230152778Y-220750000D03*
X151475000Y-169400000D03*
X137075000Y-158600000D03*
X137075000Y-156200000D03*
X149075000Y-171800000D03*
X152675000Y-165800000D03*
X146675000Y-173000000D03*
X146097222Y-220750000D03*
X152675000Y-168200000D03*
X152675000Y-169400000D03*
X140675000Y-171800000D03*
X137075000Y-159800000D03*
X149075000Y-156200000D03*
X160930556Y-220750000D03*
X185652778Y-220750000D03*
X145475000Y-156200000D03*
X175763889Y-220750000D03*
X141152778Y-219250000D03*
X144275000Y-156200000D03*
X151475000Y-158600000D03*
X139475000Y-174200000D03*
X205430556Y-219250000D03*
X170819445Y-220000000D03*
X143075000Y-174200000D03*
X155986111Y-220000000D03*
X138275000Y-156200000D03*
X225208334Y-220000000D03*
X138275000Y-174200000D03*
X150275000Y-157400000D03*
X139475000Y-156200000D03*
X160930556Y-219250000D03*
X150275000Y-155000000D03*
X151475000Y-170600000D03*
X205430556Y-220000000D03*
X141152778Y-220750000D03*
X215319445Y-219250000D03*
X140675000Y-173000000D03*
X230152778Y-220000000D03*
X147875000Y-155000000D03*
X137075000Y-171800000D03*
X137075000Y-161000000D03*
X150275000Y-158600000D03*
X190597222Y-220000000D03*
X145475000Y-174200000D03*
X137075000Y-155000000D03*
X152675000Y-163400000D03*
X149075000Y-155000000D03*
X152675000Y-162200000D03*
X146675000Y-155000000D03*
X144275000Y-155000000D03*
X225208334Y-220750000D03*
X150275000Y-170600000D03*
X175763889Y-219250000D03*
X145475000Y-155000000D03*
X138275000Y-157400000D03*
X190597222Y-220750000D03*
X137075000Y-168200000D03*
X180708334Y-219250000D03*
X138275000Y-173000000D03*
X137075000Y-173000000D03*
X175763889Y-220000000D03*
X152675000Y-164600000D03*
X146675000Y-156200000D03*
X144275000Y-174200000D03*
X150275000Y-171800000D03*
X137075000Y-174200000D03*
X195541667Y-220750000D03*
X141152778Y-220000000D03*
X141875000Y-174200000D03*
X165875000Y-220750000D03*
X139475000Y-170600000D03*
X151041667Y-219250000D03*
X220263889Y-220750000D03*
X138275000Y-170600000D03*
X141875000Y-156200000D03*
X210375000Y-219250000D03*
X146097222Y-219250000D03*
X170819445Y-220750000D03*
X146097222Y-220000000D03*
X220263889Y-219250000D03*
X147875000Y-156200000D03*
X151041667Y-220000000D03*
X152675000Y-157400000D03*
X141875000Y-155000000D03*
X151475000Y-156200000D03*
X143075000Y-173000000D03*
X155986111Y-220750000D03*
X139475000Y-173000000D03*
X210375000Y-220000000D03*
X195541667Y-220000000D03*
X152675000Y-159800000D03*
X139475000Y-157400000D03*
X138275000Y-169400000D03*
X210375000Y-220750000D03*
X139475000Y-155000000D03*
X140675000Y-155000000D03*
X200486111Y-219250000D03*
X200486111Y-220000000D03*
X139475000Y-171800000D03*
X150275000Y-156200000D03*
X144275000Y-173000000D03*
X149075000Y-173000000D03*
X137075000Y-167000000D03*
X165875000Y-220000000D03*
X170819445Y-219250000D03*
X160930556Y-220000000D03*
X145475000Y-173000000D03*
X151475000Y-157400000D03*
X143075000Y-155000000D03*
X194125000Y-165750000D03*
X190597222Y-219250000D03*
X152675000Y-156200000D03*
X140675000Y-174200000D03*
X137075000Y-170600000D03*
X185652778Y-219250000D03*
X138275000Y-155000000D03*
X147875000Y-173000000D03*
X147875000Y-171800000D03*
X151041667Y-220750000D03*
X140675000Y-156200000D03*
X225208334Y-219250000D03*
X147875000Y-174200000D03*
X220263889Y-220000000D03*
X195541667Y-219250000D03*
X138275000Y-158600000D03*
X155986111Y-219250000D03*
X180708334Y-220000000D03*
X215319445Y-220750000D03*
X200486111Y-220750000D03*
%TO.N,VDC_OUT*%
X205875000Y-165750000D03*
X230075000Y-174200000D03*
X221675000Y-158600000D03*
X219275000Y-165800000D03*
X230075000Y-156200000D03*
X222875000Y-173000000D03*
X233675000Y-170600000D03*
X231275000Y-173000000D03*
X233675000Y-156200000D03*
X221675000Y-170600000D03*
X233675000Y-174200000D03*
X227675000Y-156200000D03*
X232475000Y-155000000D03*
X232475000Y-171800000D03*
X221675000Y-155000000D03*
X222875000Y-156200000D03*
X233675000Y-155000000D03*
X225275000Y-173000000D03*
X219275000Y-156200000D03*
X225275000Y-174200000D03*
X224075000Y-171800000D03*
X219275000Y-155000000D03*
X226475000Y-155000000D03*
X220475000Y-157400000D03*
X226475000Y-173000000D03*
X233675000Y-171800000D03*
X233675000Y-158600000D03*
X231275000Y-171800000D03*
X220475000Y-169400000D03*
X227675000Y-155000000D03*
X225275000Y-156200000D03*
X233675000Y-169400000D03*
X224075000Y-156200000D03*
X227675000Y-173000000D03*
X219275000Y-168200000D03*
X219275000Y-159800000D03*
X230075000Y-173000000D03*
X221675000Y-156200000D03*
X220475000Y-170600000D03*
X228875000Y-155000000D03*
X219275000Y-158600000D03*
X228875000Y-174200000D03*
X219275000Y-167000000D03*
X219275000Y-164600000D03*
X219275000Y-161000000D03*
X232475000Y-170600000D03*
X222875000Y-155000000D03*
X225275000Y-155000000D03*
X231275000Y-174200000D03*
X228875000Y-173000000D03*
X220475000Y-158600000D03*
X228875000Y-156200000D03*
X226475000Y-156200000D03*
X183275000Y-164800000D03*
X220475000Y-159800000D03*
X226475000Y-174200000D03*
X231275000Y-156200000D03*
X232475000Y-173000000D03*
X231275000Y-155000000D03*
X221675000Y-171800000D03*
X222875000Y-171800000D03*
X232475000Y-174200000D03*
X224075000Y-173000000D03*
X224075000Y-155000000D03*
X230075000Y-155000000D03*
X233675000Y-173000000D03*
X219275000Y-163400000D03*
X232475000Y-156200000D03*
X220475000Y-156200000D03*
X220475000Y-155000000D03*
X227675000Y-174200000D03*
X219275000Y-157400000D03*
X224075000Y-174200000D03*
X219275000Y-169400000D03*
X232475000Y-157400000D03*
X233675000Y-157400000D03*
X219275000Y-162200000D03*
X221675000Y-157400000D03*
%TO.N,VCC*%
X188375000Y-164750000D03*
%TO.N,GND*%
X177375000Y-132500000D03*
X176875000Y-131500000D03*
X174875000Y-131500000D03*
X174375000Y-132500000D03*
X175375000Y-132500000D03*
X177875000Y-131500000D03*
X176375000Y-132500000D03*
X175875000Y-131500000D03*
X139820000Y-149695000D03*
X177875000Y-133500000D03*
%TO.N,+27V*%
X178312500Y-126937500D03*
X174375000Y-137000000D03*
%TO.N,GND1*%
X217125000Y-135000000D03*
X180075000Y-151750000D03*
X173875000Y-150250000D03*
X193862500Y-152000000D03*
X206875000Y-146250000D03*
X205125000Y-152000000D03*
X219375000Y-128000000D03*
X195962500Y-146250000D03*
X189375000Y-140250000D03*
X193862500Y-149750000D03*
X217125000Y-128000000D03*
X162525000Y-146450000D03*
X183375000Y-140250000D03*
X211030000Y-134845000D03*
X205125000Y-149750000D03*
X184962500Y-145337500D03*
X219375000Y-135000000D03*
%TO.N,+5V*%
X221625000Y-128000000D03*
X189875000Y-150250000D03*
X221625000Y-135000000D03*
X186875000Y-150000000D03*
X199262500Y-144600000D03*
X207220000Y-132155000D03*
X210262500Y-144612500D03*
X155625000Y-148950000D03*
%TO.N,Net-(C6-Pad2)*%
X201375000Y-144500000D03*
X214875000Y-139000000D03*
%TO.N,Net-(C21-Pad2)*%
X214875000Y-132000000D03*
X212375000Y-144500000D03*
%TD*%
%TA.AperFunction,Conductor*%
%TO.N,+5V*%
G36*
X226841575Y-126005523D02*
G01*
X226854292Y-126009257D01*
X226866648Y-126017197D01*
X226880937Y-126020605D01*
X226895449Y-126035706D01*
X226913071Y-126047031D01*
X226919173Y-126060393D01*
X226929350Y-126070983D01*
X226933394Y-126091533D01*
X226942096Y-126110587D01*
X226940244Y-126126337D01*
X226942842Y-126139538D01*
X226934655Y-126173869D01*
X226931409Y-126182070D01*
X226917687Y-126207559D01*
X226901987Y-126229979D01*
X226901985Y-126229983D01*
X226901969Y-126230009D01*
X226677098Y-126619494D01*
X226677092Y-126619506D01*
X226489171Y-127022505D01*
X226489163Y-127022522D01*
X226487029Y-127027101D01*
X226487026Y-127027107D01*
X226487025Y-127027111D01*
X226484145Y-127035022D01*
X226484124Y-127035076D01*
X226477216Y-127054060D01*
X226477215Y-127054063D01*
X226333194Y-127449755D01*
X226216798Y-127884157D01*
X226216794Y-127884180D01*
X226138698Y-128327078D01*
X226099500Y-128775116D01*
X226099500Y-129224882D01*
X226138698Y-129672920D01*
X226216794Y-130115818D01*
X226216798Y-130115841D01*
X226333198Y-130550257D01*
X226335307Y-130557284D01*
X226337229Y-130561328D01*
X226479561Y-130952383D01*
X226487024Y-130972886D01*
X226487026Y-130972892D01*
X226487655Y-130974249D01*
X226487748Y-130974441D01*
X226677085Y-131380478D01*
X226677093Y-131380494D01*
X226677099Y-131380506D01*
X226677101Y-131380508D01*
X226740150Y-131489711D01*
X226901970Y-131769992D01*
X226901981Y-131770010D01*
X227159945Y-132138420D01*
X227267421Y-132266503D01*
X227449035Y-132482942D01*
X227767058Y-132800965D01*
X227859116Y-132878211D01*
X228111583Y-133090057D01*
X228348273Y-133255789D01*
X228479984Y-133348014D01*
X228479987Y-133348015D01*
X228479996Y-133348022D01*
X228480002Y-133348026D01*
X228825774Y-133547658D01*
X228825773Y-133547658D01*
X228849315Y-133561249D01*
X228869491Y-133572898D01*
X228869506Y-133572906D01*
X228869510Y-133572908D01*
X228869514Y-133572910D01*
X228872708Y-133574399D01*
X228882228Y-133578838D01*
X228882235Y-133578844D01*
X228882236Y-133578842D01*
X229277111Y-133762975D01*
X229699739Y-133916799D01*
X229699740Y-133916799D01*
X229699751Y-133916803D01*
X229699965Y-133916860D01*
X229818052Y-133948500D01*
X230134166Y-134033203D01*
X230577084Y-134111302D01*
X231006108Y-134148835D01*
X231012910Y-134150500D01*
X231474877Y-134150500D01*
X231501399Y-134150500D01*
X231504273Y-134148930D01*
X231519829Y-134146566D01*
X231922916Y-134111302D01*
X232365834Y-134033203D01*
X232780846Y-133922000D01*
X232800250Y-133916802D01*
X232800250Y-133916801D01*
X232800261Y-133916799D01*
X233222889Y-133762975D01*
X233630502Y-133572902D01*
X234019998Y-133348026D01*
X234388413Y-133090059D01*
X234532143Y-132969454D01*
X234562123Y-132950853D01*
X234572783Y-132946187D01*
X234642090Y-132937343D01*
X234705177Y-132967372D01*
X234741748Y-133025794D01*
X234744750Y-133036326D01*
X234749500Y-133070317D01*
X234749500Y-149858170D01*
X234744475Y-149893114D01*
X234740070Y-149908112D01*
X234730439Y-149923101D01*
X234725432Y-149940175D01*
X234702327Y-149966855D01*
X234700958Y-149968042D01*
X234646097Y-149995518D01*
X234638539Y-149997163D01*
X234612168Y-150000000D01*
X214875000Y-150000000D01*
X214875000Y-159033005D01*
X214871614Y-159044534D01*
X214869976Y-159067944D01*
X214867091Y-159077768D01*
X214857452Y-159092764D01*
X214855315Y-159100044D01*
X214844962Y-159113920D01*
X214840599Y-159118985D01*
X214829314Y-159136545D01*
X214765757Y-159165568D01*
X214716387Y-159158467D01*
X214710924Y-159158484D01*
X214709300Y-159157447D01*
X214696599Y-159155621D01*
X214657130Y-159124145D01*
X214652030Y-159120890D01*
X214651439Y-159119607D01*
X214649612Y-159118150D01*
X214646990Y-159114721D01*
X214633773Y-159093202D01*
X214626340Y-159077768D01*
X214505247Y-158826316D01*
X214505246Y-158826314D01*
X214325946Y-158540961D01*
X214115825Y-158277477D01*
X213877523Y-158039175D01*
X213614039Y-157829054D01*
X213330098Y-157650641D01*
X213329039Y-157649955D01*
X213328681Y-157649751D01*
X213025061Y-157503535D01*
X213025047Y-157503529D01*
X212706989Y-157392234D01*
X212706968Y-157392227D01*
X212706956Y-157392224D01*
X212706953Y-157392223D01*
X212619630Y-157372292D01*
X212378391Y-157317231D01*
X212043512Y-157279500D01*
X212043508Y-157279500D01*
X212043504Y-157279500D01*
X211706496Y-157279500D01*
X211706491Y-157279500D01*
X211706486Y-157279500D01*
X211371607Y-157317231D01*
X211043046Y-157392223D01*
X211043030Y-157392227D01*
X211043009Y-157392234D01*
X210724951Y-157503529D01*
X210724937Y-157503535D01*
X210421318Y-157649750D01*
X210135959Y-157829054D01*
X210135957Y-157829055D01*
X209872483Y-158039167D01*
X209634167Y-158277483D01*
X209424055Y-158540957D01*
X209424054Y-158540959D01*
X209244750Y-158826318D01*
X209098535Y-159129937D01*
X209098529Y-159129951D01*
X208987234Y-159448009D01*
X208987227Y-159448030D01*
X208987223Y-159448046D01*
X208912231Y-159776607D01*
X208874500Y-160111486D01*
X208874500Y-160448512D01*
X208912231Y-160783382D01*
X208912231Y-160783389D01*
X208912233Y-160783397D01*
X208987223Y-161111953D01*
X208987224Y-161111956D01*
X208987229Y-161111973D01*
X209059395Y-161318210D01*
X209059397Y-161318212D01*
X209066195Y-161352845D01*
X209066903Y-161366709D01*
X209050663Y-161434665D01*
X209000262Y-161483052D01*
X208994553Y-161486020D01*
X208937357Y-161500000D01*
X197569584Y-161500000D01*
X197534645Y-161494976D01*
X197521327Y-161491065D01*
X197506326Y-161481424D01*
X197489220Y-161476400D01*
X197477548Y-161462928D01*
X197462550Y-161453289D01*
X197455143Y-161437068D01*
X197443468Y-161423593D01*
X197433527Y-161389728D01*
X197432612Y-161383361D01*
X197438310Y-161324767D01*
X197512769Y-161111973D01*
X197512772Y-161111965D01*
X197512776Y-161111953D01*
X197587767Y-160783394D01*
X197587768Y-160783383D01*
X197587769Y-160783380D01*
X197625499Y-160448512D01*
X197625500Y-160448504D01*
X197625500Y-160111496D01*
X197587767Y-159776606D01*
X197512776Y-159448046D01*
X197512770Y-159448030D01*
X197485063Y-159368848D01*
X197401469Y-159129949D01*
X197255246Y-158826314D01*
X197075946Y-158540961D01*
X196865825Y-158277477D01*
X196627523Y-158039175D01*
X196364039Y-157829054D01*
X196080098Y-157650641D01*
X196079039Y-157649955D01*
X196078681Y-157649751D01*
X195775061Y-157503535D01*
X195775047Y-157503529D01*
X195456989Y-157392234D01*
X195456968Y-157392227D01*
X195456956Y-157392224D01*
X195456953Y-157392223D01*
X195369630Y-157372292D01*
X195128391Y-157317231D01*
X194793512Y-157279500D01*
X194793508Y-157279500D01*
X194793504Y-157279500D01*
X194456496Y-157279500D01*
X194456491Y-157279500D01*
X194456486Y-157279500D01*
X194121607Y-157317231D01*
X193793046Y-157392223D01*
X193793030Y-157392227D01*
X193793009Y-157392234D01*
X193474951Y-157503529D01*
X193474937Y-157503535D01*
X193171318Y-157649750D01*
X192885959Y-157829054D01*
X192885957Y-157829055D01*
X192622483Y-158039167D01*
X192384167Y-158277483D01*
X192174055Y-158540957D01*
X192174054Y-158540959D01*
X191994750Y-158826318D01*
X191848535Y-159129937D01*
X191848529Y-159129951D01*
X191737234Y-159448009D01*
X191737227Y-159448030D01*
X191737223Y-159448046D01*
X191662231Y-159776607D01*
X191624500Y-160111486D01*
X191624500Y-160448512D01*
X191662231Y-160783382D01*
X191662231Y-160783389D01*
X191662233Y-160783397D01*
X191737223Y-161111953D01*
X191737224Y-161111956D01*
X191737229Y-161111973D01*
X191809395Y-161318210D01*
X191809397Y-161318212D01*
X191816195Y-161352845D01*
X191816903Y-161366709D01*
X191800663Y-161434665D01*
X191750262Y-161483052D01*
X191744553Y-161486020D01*
X191687357Y-161500000D01*
X180319584Y-161500000D01*
X180284645Y-161494976D01*
X180271327Y-161491065D01*
X180256326Y-161481424D01*
X180239220Y-161476400D01*
X180227548Y-161462928D01*
X180212550Y-161453289D01*
X180205143Y-161437068D01*
X180193468Y-161423593D01*
X180183527Y-161389728D01*
X180182612Y-161383361D01*
X180188310Y-161324767D01*
X180262769Y-161111973D01*
X180262772Y-161111965D01*
X180262776Y-161111953D01*
X180337767Y-160783394D01*
X180337768Y-160783383D01*
X180337769Y-160783380D01*
X180375499Y-160448512D01*
X180375500Y-160448504D01*
X180375500Y-160111496D01*
X180337767Y-159776606D01*
X180262776Y-159448046D01*
X180262770Y-159448030D01*
X180235063Y-159368848D01*
X180151469Y-159129949D01*
X180005246Y-158826314D01*
X179825946Y-158540961D01*
X179615825Y-158277477D01*
X179377523Y-158039175D01*
X179114039Y-157829054D01*
X178830098Y-157650641D01*
X178829039Y-157649955D01*
X178828681Y-157649751D01*
X178525061Y-157503535D01*
X178525047Y-157503529D01*
X178206989Y-157392234D01*
X178206968Y-157392227D01*
X178206956Y-157392224D01*
X178206953Y-157392223D01*
X178119630Y-157372292D01*
X177878391Y-157317231D01*
X177543512Y-157279500D01*
X177543508Y-157279500D01*
X177543504Y-157279500D01*
X177206496Y-157279500D01*
X177206491Y-157279500D01*
X177206486Y-157279500D01*
X176871607Y-157317231D01*
X176543046Y-157392223D01*
X176543030Y-157392227D01*
X176543009Y-157392234D01*
X176224951Y-157503529D01*
X176224937Y-157503535D01*
X175921318Y-157649750D01*
X175635959Y-157829054D01*
X175635957Y-157829055D01*
X175372483Y-158039167D01*
X175134167Y-158277483D01*
X174924055Y-158540957D01*
X174924054Y-158540959D01*
X174744750Y-158826318D01*
X174598535Y-159129937D01*
X174598529Y-159129951D01*
X174487234Y-159448009D01*
X174487227Y-159448030D01*
X174487223Y-159448046D01*
X174412231Y-159776607D01*
X174374500Y-160111486D01*
X174374500Y-160448512D01*
X174412231Y-160783382D01*
X174412231Y-160783389D01*
X174412233Y-160783397D01*
X174487223Y-161111953D01*
X174487224Y-161111956D01*
X174487229Y-161111973D01*
X174559395Y-161318210D01*
X174559397Y-161318212D01*
X174566195Y-161352845D01*
X174566903Y-161366709D01*
X174550663Y-161434665D01*
X174500262Y-161483052D01*
X174494553Y-161486020D01*
X174437357Y-161500000D01*
X163069584Y-161500000D01*
X163034645Y-161494976D01*
X163021327Y-161491065D01*
X163006326Y-161481424D01*
X162989220Y-161476400D01*
X162977548Y-161462928D01*
X162962550Y-161453289D01*
X162955143Y-161437068D01*
X162943468Y-161423593D01*
X162933527Y-161389728D01*
X162932612Y-161383361D01*
X162938310Y-161324767D01*
X163012769Y-161111973D01*
X163012772Y-161111965D01*
X163012776Y-161111953D01*
X163087767Y-160783394D01*
X163087768Y-160783383D01*
X163087769Y-160783380D01*
X163125499Y-160448512D01*
X163125500Y-160448504D01*
X163125500Y-160111496D01*
X163087767Y-159776606D01*
X163012776Y-159448046D01*
X163012770Y-159448030D01*
X162985063Y-159368848D01*
X162901469Y-159129949D01*
X162755246Y-158826314D01*
X162575946Y-158540961D01*
X162365825Y-158277477D01*
X162127523Y-158039175D01*
X161864039Y-157829054D01*
X161580098Y-157650641D01*
X161579039Y-157649955D01*
X161578681Y-157649751D01*
X161275061Y-157503535D01*
X161275047Y-157503529D01*
X160956989Y-157392234D01*
X160956968Y-157392227D01*
X160956956Y-157392224D01*
X160956953Y-157392223D01*
X160869630Y-157372292D01*
X160628391Y-157317231D01*
X160293512Y-157279500D01*
X160293508Y-157279500D01*
X160293504Y-157279500D01*
X159956496Y-157279500D01*
X159956491Y-157279500D01*
X159956486Y-157279500D01*
X159621607Y-157317231D01*
X159293046Y-157392223D01*
X159293030Y-157392227D01*
X159293009Y-157392234D01*
X158974951Y-157503529D01*
X158974937Y-157503535D01*
X158671318Y-157649750D01*
X158385959Y-157829054D01*
X158385957Y-157829055D01*
X158122483Y-158039167D01*
X157884167Y-158277483D01*
X157674055Y-158540957D01*
X157674054Y-158540959D01*
X157494750Y-158826318D01*
X157348535Y-159129937D01*
X157348529Y-159129951D01*
X157237234Y-159448009D01*
X157237227Y-159448030D01*
X157237223Y-159448046D01*
X157162231Y-159776607D01*
X157124500Y-160111486D01*
X157124500Y-160448512D01*
X157162231Y-160783382D01*
X157162231Y-160783389D01*
X157237222Y-161111950D01*
X157237223Y-161111951D01*
X157301868Y-161296698D01*
X157307617Y-161320382D01*
X157308386Y-161325852D01*
X157308408Y-161326276D01*
X157308463Y-161326400D01*
X157309327Y-161332540D01*
X157308881Y-161335575D01*
X157308990Y-161337706D01*
X157308678Y-161337721D01*
X157310377Y-161356079D01*
X157310295Y-161357699D01*
X157302248Y-161380727D01*
X157299172Y-161401667D01*
X157292094Y-161409784D01*
X157287247Y-161423657D01*
X157264468Y-161441469D01*
X157253255Y-161454331D01*
X157244932Y-161456747D01*
X157232253Y-161466662D01*
X157230210Y-161467474D01*
X157193657Y-161471631D01*
X157186156Y-161473809D01*
X157182931Y-161472851D01*
X157165657Y-161474816D01*
X157163474Y-161474482D01*
X157146233Y-161470569D01*
X157009827Y-161429191D01*
X156998367Y-161425090D01*
X156987168Y-161420451D01*
X156976170Y-161415249D01*
X156950760Y-161401667D01*
X156835569Y-161340096D01*
X156825142Y-161333847D01*
X156815045Y-161327100D01*
X156805276Y-161319854D01*
X156682039Y-161218716D01*
X156673023Y-161210544D01*
X156664454Y-161201975D01*
X156656282Y-161192959D01*
X156589802Y-161111953D01*
X156589801Y-161111951D01*
X156555139Y-161069714D01*
X156547893Y-161059945D01*
X156541156Y-161049863D01*
X156534898Y-161039422D01*
X156459749Y-160898828D01*
X156454547Y-160887830D01*
X156449908Y-160876631D01*
X156445807Y-160865170D01*
X156420997Y-160783380D01*
X156420997Y-160783379D01*
X156399525Y-160712597D01*
X156396566Y-160700783D01*
X156394205Y-160688909D01*
X156392421Y-160676882D01*
X156375892Y-160509058D01*
X156375448Y-160503047D01*
X156375147Y-160496917D01*
X156375000Y-160490857D01*
X156375000Y-151828848D01*
X179274499Y-151828848D01*
X179305257Y-151983471D01*
X179305264Y-151983502D01*
X179365598Y-152129165D01*
X179365603Y-152129174D01*
X179365613Y-152129191D01*
X179453211Y-152260290D01*
X179453212Y-152260291D01*
X179453217Y-152260297D01*
X179564701Y-152371781D01*
X179564707Y-152371786D01*
X179564711Y-152371789D01*
X179695814Y-152459390D01*
X179695827Y-152459397D01*
X179841498Y-152519735D01*
X179841503Y-152519737D01*
X179996153Y-152550499D01*
X179996156Y-152550500D01*
X179996158Y-152550500D01*
X180153844Y-152550500D01*
X180153845Y-152550499D01*
X180308497Y-152519737D01*
X180454179Y-152459394D01*
X180585289Y-152371789D01*
X180696789Y-152260289D01*
X180784394Y-152129179D01*
X180805242Y-152078848D01*
X193061999Y-152078848D01*
X193092757Y-152233471D01*
X193092764Y-152233502D01*
X193153098Y-152379165D01*
X193153103Y-152379174D01*
X193153113Y-152379191D01*
X193240711Y-152510290D01*
X193240712Y-152510291D01*
X193240717Y-152510297D01*
X193352201Y-152621781D01*
X193352207Y-152621786D01*
X193352211Y-152621789D01*
X193483314Y-152709390D01*
X193483327Y-152709397D01*
X193628998Y-152769735D01*
X193629003Y-152769737D01*
X193783653Y-152800499D01*
X193783656Y-152800500D01*
X193783658Y-152800500D01*
X193941344Y-152800500D01*
X193941345Y-152800499D01*
X194095997Y-152769737D01*
X194241679Y-152709394D01*
X194372789Y-152621789D01*
X194484289Y-152510289D01*
X194571894Y-152379179D01*
X194632237Y-152233497D01*
X194662999Y-152078848D01*
X204324499Y-152078848D01*
X204355257Y-152233471D01*
X204355264Y-152233502D01*
X204415598Y-152379165D01*
X204415603Y-152379174D01*
X204415613Y-152379191D01*
X204503211Y-152510290D01*
X204503212Y-152510291D01*
X204503217Y-152510297D01*
X204614701Y-152621781D01*
X204614707Y-152621786D01*
X204614711Y-152621789D01*
X204745814Y-152709390D01*
X204745827Y-152709397D01*
X204891498Y-152769735D01*
X204891503Y-152769737D01*
X205046153Y-152800499D01*
X205046156Y-152800500D01*
X205046158Y-152800500D01*
X205203844Y-152800500D01*
X205203845Y-152800499D01*
X205358497Y-152769737D01*
X205504179Y-152709394D01*
X205635289Y-152621789D01*
X205746789Y-152510289D01*
X205834394Y-152379179D01*
X205894737Y-152233497D01*
X205925500Y-152078842D01*
X205925500Y-151921158D01*
X205925500Y-151921155D01*
X205925500Y-151920973D01*
X205925065Y-151918972D01*
X205907138Y-151828848D01*
X205895395Y-151769815D01*
X205894983Y-151767403D01*
X205894738Y-151766508D01*
X205894737Y-151766506D01*
X205894737Y-151766503D01*
X205855242Y-151671153D01*
X205855167Y-151670973D01*
X205834402Y-151620840D01*
X205834399Y-151620833D01*
X205834397Y-151620827D01*
X205834390Y-151620814D01*
X205746789Y-151489711D01*
X205746786Y-151489707D01*
X205746781Y-151489701D01*
X205635297Y-151378217D01*
X205635291Y-151378212D01*
X205635290Y-151378211D01*
X205504191Y-151290613D01*
X205504190Y-151290612D01*
X205504185Y-151290609D01*
X205504172Y-151290602D01*
X205504165Y-151290598D01*
X205358502Y-151230264D01*
X205358471Y-151230257D01*
X205203847Y-151199500D01*
X205203845Y-151199500D01*
X205203842Y-151199500D01*
X205046158Y-151199500D01*
X205046155Y-151199500D01*
X205046153Y-151199500D01*
X204891527Y-151230257D01*
X204891496Y-151230264D01*
X204745833Y-151290598D01*
X204745824Y-151290603D01*
X204745807Y-151290613D01*
X204614708Y-151378211D01*
X204614707Y-151378212D01*
X204614701Y-151378217D01*
X204503217Y-151489701D01*
X204503212Y-151489707D01*
X204503211Y-151489708D01*
X204415613Y-151620807D01*
X204415603Y-151620824D01*
X204415598Y-151620833D01*
X204355264Y-151766496D01*
X204355257Y-151766527D01*
X204324500Y-151921150D01*
X204324500Y-151921153D01*
X204324500Y-152078846D01*
X204324500Y-152078848D01*
X204324499Y-152078848D01*
X194662999Y-152078848D01*
X194663000Y-152078842D01*
X194663000Y-151921158D01*
X194663000Y-151921155D01*
X194662999Y-151921153D01*
X194632895Y-151769815D01*
X194632483Y-151767403D01*
X194632238Y-151766508D01*
X194632237Y-151766506D01*
X194632237Y-151766503D01*
X194592742Y-151671153D01*
X194592667Y-151670973D01*
X194571902Y-151620840D01*
X194571899Y-151620833D01*
X194571897Y-151620827D01*
X194571890Y-151620814D01*
X194484289Y-151489711D01*
X194484286Y-151489707D01*
X194484281Y-151489701D01*
X194372797Y-151378217D01*
X194372791Y-151378212D01*
X194372790Y-151378211D01*
X194241691Y-151290613D01*
X194241690Y-151290612D01*
X194241685Y-151290609D01*
X194241672Y-151290602D01*
X194241665Y-151290598D01*
X194096002Y-151230264D01*
X194095971Y-151230257D01*
X193941347Y-151199500D01*
X193941345Y-151199500D01*
X193941342Y-151199500D01*
X193783658Y-151199500D01*
X193783655Y-151199500D01*
X193783653Y-151199500D01*
X193629027Y-151230257D01*
X193628996Y-151230264D01*
X193483333Y-151290598D01*
X193483324Y-151290603D01*
X193483307Y-151290613D01*
X193352208Y-151378211D01*
X193352207Y-151378212D01*
X193352201Y-151378217D01*
X193240717Y-151489701D01*
X193240712Y-151489707D01*
X193240711Y-151489708D01*
X193153113Y-151620807D01*
X193153103Y-151620824D01*
X193153098Y-151620833D01*
X193092764Y-151766496D01*
X193092757Y-151766527D01*
X193062000Y-151921150D01*
X193062000Y-151921153D01*
X193062000Y-152078846D01*
X193062000Y-152078848D01*
X193061999Y-152078848D01*
X180805242Y-152078848D01*
X180844737Y-151983497D01*
X180863161Y-151890874D01*
X180875500Y-151828844D01*
X180875500Y-151671155D01*
X180875500Y-151670973D01*
X180875065Y-151668972D01*
X180865491Y-151620840D01*
X180845395Y-151519816D01*
X180844994Y-151517467D01*
X180844738Y-151516508D01*
X180844737Y-151516506D01*
X180844737Y-151516503D01*
X180844735Y-151516498D01*
X180784397Y-151370827D01*
X180784390Y-151370814D01*
X180696789Y-151239711D01*
X180696786Y-151239707D01*
X180696781Y-151239701D01*
X180585297Y-151128217D01*
X180585291Y-151128212D01*
X180585290Y-151128211D01*
X180454191Y-151040613D01*
X180454190Y-151040612D01*
X180454185Y-151040609D01*
X180454172Y-151040602D01*
X180454165Y-151040598D01*
X180308502Y-150980264D01*
X180308471Y-150980257D01*
X180153847Y-150949500D01*
X180153845Y-150949500D01*
X180153842Y-150949500D01*
X179996158Y-150949500D01*
X179996155Y-150949500D01*
X179996153Y-150949500D01*
X179841527Y-150980257D01*
X179841496Y-150980264D01*
X179695833Y-151040598D01*
X179695824Y-151040603D01*
X179695807Y-151040613D01*
X179564708Y-151128211D01*
X179564707Y-151128212D01*
X179564701Y-151128217D01*
X179453217Y-151239701D01*
X179453212Y-151239707D01*
X179453211Y-151239708D01*
X179365613Y-151370807D01*
X179365603Y-151370824D01*
X179365598Y-151370833D01*
X179305264Y-151516496D01*
X179305257Y-151516527D01*
X179274500Y-151671150D01*
X179274500Y-151671153D01*
X179274500Y-151828846D01*
X179274500Y-151828848D01*
X179274499Y-151828848D01*
X156375000Y-151828848D01*
X156375000Y-150500000D01*
X156203848Y-150328848D01*
X173074499Y-150328848D01*
X173105257Y-150483471D01*
X173105264Y-150483502D01*
X173165598Y-150629165D01*
X173165603Y-150629174D01*
X173165613Y-150629191D01*
X173253211Y-150760290D01*
X173253212Y-150760291D01*
X173253217Y-150760297D01*
X173364701Y-150871781D01*
X173364707Y-150871786D01*
X173364711Y-150871789D01*
X173495814Y-150959390D01*
X173495827Y-150959397D01*
X173641498Y-151019735D01*
X173641503Y-151019737D01*
X173796153Y-151050499D01*
X173796156Y-151050500D01*
X173796158Y-151050500D01*
X173953844Y-151050500D01*
X173953845Y-151050499D01*
X174108497Y-151019737D01*
X174254179Y-150959394D01*
X174385289Y-150871789D01*
X174496789Y-150760289D01*
X174584394Y-150629179D01*
X174644737Y-150483497D01*
X174675500Y-150328842D01*
X174675500Y-150171158D01*
X174675500Y-150171155D01*
X174675500Y-150170973D01*
X174675065Y-150168972D01*
X174667151Y-150129185D01*
X174645395Y-150019815D01*
X174644984Y-150017406D01*
X174644736Y-150016501D01*
X174636045Y-149995518D01*
X174629748Y-149980315D01*
X174607876Y-149927511D01*
X174584400Y-149870833D01*
X174584395Y-149870824D01*
X174584390Y-149870814D01*
X174556349Y-149828848D01*
X193061999Y-149828848D01*
X193092757Y-149983471D01*
X193092764Y-149983502D01*
X193153098Y-150129165D01*
X193153103Y-150129174D01*
X193153113Y-150129191D01*
X193240711Y-150260290D01*
X193240712Y-150260291D01*
X193240717Y-150260297D01*
X193352201Y-150371781D01*
X193352207Y-150371786D01*
X193352211Y-150371789D01*
X193483314Y-150459390D01*
X193483327Y-150459397D01*
X193581353Y-150500000D01*
X193629003Y-150519737D01*
X193779386Y-150549650D01*
X193781038Y-150550075D01*
X193783655Y-150550500D01*
X193941344Y-150550500D01*
X193945464Y-150550500D01*
X193953314Y-150548118D01*
X194095997Y-150519737D01*
X194241679Y-150459394D01*
X194372789Y-150371789D01*
X194484289Y-150260289D01*
X194571894Y-150129179D01*
X194632237Y-149983497D01*
X194662999Y-149828848D01*
X204324499Y-149828848D01*
X204355257Y-149983471D01*
X204355264Y-149983502D01*
X204415598Y-150129165D01*
X204415603Y-150129174D01*
X204415613Y-150129191D01*
X204503211Y-150260290D01*
X204503212Y-150260291D01*
X204503217Y-150260297D01*
X204614701Y-150371781D01*
X204614707Y-150371786D01*
X204614711Y-150371789D01*
X204745814Y-150459390D01*
X204745827Y-150459397D01*
X204843853Y-150500000D01*
X204891503Y-150519737D01*
X205041886Y-150549650D01*
X205043538Y-150550075D01*
X205046155Y-150550500D01*
X205203844Y-150550500D01*
X205207964Y-150550500D01*
X205215814Y-150548118D01*
X205358497Y-150519737D01*
X205504179Y-150459394D01*
X205635289Y-150371789D01*
X205746789Y-150260289D01*
X205834394Y-150129179D01*
X205894737Y-149983497D01*
X205925500Y-149828842D01*
X205925500Y-149671158D01*
X205925500Y-149671155D01*
X205925500Y-149670973D01*
X205925065Y-149668972D01*
X205916957Y-149628213D01*
X205899531Y-149540606D01*
X205894737Y-149516503D01*
X205894735Y-149516498D01*
X205834397Y-149370827D01*
X205834390Y-149370814D01*
X205746789Y-149239711D01*
X205746786Y-149239707D01*
X205746781Y-149239701D01*
X205635297Y-149128217D01*
X205635291Y-149128212D01*
X205635290Y-149128211D01*
X205504191Y-149040613D01*
X205504190Y-149040612D01*
X205504185Y-149040609D01*
X205504172Y-149040602D01*
X205504165Y-149040598D01*
X205358502Y-148980264D01*
X205358471Y-148980257D01*
X205203847Y-148949500D01*
X205203845Y-148949500D01*
X205203842Y-148949500D01*
X205046158Y-148949500D01*
X205046155Y-148949500D01*
X205046153Y-148949500D01*
X204891527Y-148980257D01*
X204891496Y-148980264D01*
X204745833Y-149040598D01*
X204745824Y-149040603D01*
X204745807Y-149040613D01*
X204614708Y-149128211D01*
X204614707Y-149128212D01*
X204614701Y-149128217D01*
X204503217Y-149239701D01*
X204503212Y-149239707D01*
X204503211Y-149239708D01*
X204415613Y-149370807D01*
X204415603Y-149370824D01*
X204415598Y-149370833D01*
X204355264Y-149516496D01*
X204355257Y-149516527D01*
X204324500Y-149671150D01*
X204324500Y-149671153D01*
X204324500Y-149828846D01*
X204324500Y-149828848D01*
X204324499Y-149828848D01*
X194662999Y-149828848D01*
X194663000Y-149828842D01*
X194663000Y-149671158D01*
X194663000Y-149671155D01*
X194662999Y-149671153D01*
X194637031Y-149540606D01*
X194632237Y-149516503D01*
X194632235Y-149516498D01*
X194571897Y-149370827D01*
X194571890Y-149370814D01*
X194484289Y-149239711D01*
X194484286Y-149239707D01*
X194484281Y-149239701D01*
X194372797Y-149128217D01*
X194372791Y-149128212D01*
X194372790Y-149128211D01*
X194241691Y-149040613D01*
X194241690Y-149040612D01*
X194241685Y-149040609D01*
X194241672Y-149040602D01*
X194241665Y-149040598D01*
X194096002Y-148980264D01*
X194095971Y-148980257D01*
X193941347Y-148949500D01*
X193941345Y-148949500D01*
X193941342Y-148949500D01*
X193783658Y-148949500D01*
X193783655Y-148949500D01*
X193783653Y-148949500D01*
X193629027Y-148980257D01*
X193628996Y-148980264D01*
X193483333Y-149040598D01*
X193483324Y-149040603D01*
X193483307Y-149040613D01*
X193352208Y-149128211D01*
X193352207Y-149128212D01*
X193352201Y-149128217D01*
X193240717Y-149239701D01*
X193240712Y-149239707D01*
X193240711Y-149239708D01*
X193153113Y-149370807D01*
X193153103Y-149370824D01*
X193153098Y-149370833D01*
X193092764Y-149516496D01*
X193092757Y-149516527D01*
X193062000Y-149671150D01*
X193062000Y-149671153D01*
X193062000Y-149828846D01*
X193062000Y-149828848D01*
X193061999Y-149828848D01*
X174556349Y-149828848D01*
X174496790Y-149739712D01*
X174496784Y-149739705D01*
X174385292Y-149628213D01*
X174385291Y-149628212D01*
X174385290Y-149628211D01*
X174254191Y-149540613D01*
X174254190Y-149540612D01*
X174254185Y-149540609D01*
X174254172Y-149540602D01*
X174254165Y-149540598D01*
X174108502Y-149480264D01*
X174108471Y-149480257D01*
X173953847Y-149449500D01*
X173953845Y-149449500D01*
X173953842Y-149449500D01*
X173796158Y-149449500D01*
X173796155Y-149449500D01*
X173796153Y-149449500D01*
X173641527Y-149480257D01*
X173641496Y-149480264D01*
X173495833Y-149540598D01*
X173495824Y-149540603D01*
X173495807Y-149540613D01*
X173364708Y-149628211D01*
X173364707Y-149628212D01*
X173364701Y-149628217D01*
X173253217Y-149739701D01*
X173253212Y-149739707D01*
X173253211Y-149739708D01*
X173165613Y-149870807D01*
X173165603Y-149870824D01*
X173165598Y-149870833D01*
X173105264Y-150016496D01*
X173105257Y-150016527D01*
X173074500Y-150171150D01*
X173074500Y-150171153D01*
X173074500Y-150328846D01*
X173074500Y-150328848D01*
X173074499Y-150328848D01*
X156203848Y-150328848D01*
X155875000Y-150000000D01*
X155521447Y-150000000D01*
X152014350Y-150000000D01*
X152014347Y-149999999D01*
X152014346Y-150000000D01*
X151979411Y-149994976D01*
X151966093Y-149991065D01*
X151907316Y-149953289D01*
X151878294Y-149889732D01*
X151878293Y-149889729D01*
X151877320Y-149882959D01*
X151882353Y-149826315D01*
X151914999Y-149727797D01*
X151925500Y-149625009D01*
X151925499Y-148424992D01*
X151914999Y-148322203D01*
X151859814Y-148155666D01*
X151767712Y-148006344D01*
X151643656Y-147882288D01*
X151494334Y-147790186D01*
X151494332Y-147790185D01*
X151494330Y-147790184D01*
X151494331Y-147790184D01*
X151429353Y-147768652D01*
X151429352Y-147768652D01*
X151397771Y-147752895D01*
X151387041Y-147745466D01*
X151343128Y-147691121D01*
X151335567Y-147621662D01*
X151362990Y-147563391D01*
X151368893Y-147556420D01*
X151390630Y-147536242D01*
X151472219Y-147476966D01*
X151616966Y-147332219D01*
X151616968Y-147332215D01*
X151616971Y-147332213D01*
X151676338Y-147250500D01*
X151737287Y-147166610D01*
X151830220Y-146984219D01*
X151893477Y-146789534D01*
X151925500Y-146587352D01*
X151925500Y-146528848D01*
X161724499Y-146528848D01*
X161755257Y-146683471D01*
X161755264Y-146683502D01*
X161815598Y-146829165D01*
X161815603Y-146829174D01*
X161815613Y-146829191D01*
X161903211Y-146960290D01*
X161903212Y-146960291D01*
X161903217Y-146960297D01*
X162014701Y-147071781D01*
X162014707Y-147071786D01*
X162014711Y-147071789D01*
X162145814Y-147159390D01*
X162145827Y-147159397D01*
X162222685Y-147191232D01*
X162291503Y-147219737D01*
X162423053Y-147245904D01*
X162438520Y-147248980D01*
X162441248Y-147249703D01*
X162446155Y-147250500D01*
X162603844Y-147250500D01*
X162607964Y-147250500D01*
X162615814Y-147248118D01*
X162758497Y-147219737D01*
X162882834Y-147168235D01*
X162904172Y-147159397D01*
X162904172Y-147159396D01*
X162904179Y-147159394D01*
X163035289Y-147071789D01*
X163146789Y-146960289D01*
X163234394Y-146829179D01*
X163294737Y-146683497D01*
X163325500Y-146528842D01*
X163325500Y-146371158D01*
X163325500Y-146371155D01*
X163325500Y-146370971D01*
X163325064Y-146368966D01*
X163318628Y-146336610D01*
X163317084Y-146328848D01*
X195161999Y-146328848D01*
X195192757Y-146483471D01*
X195192764Y-146483502D01*
X195253098Y-146629165D01*
X195253103Y-146629174D01*
X195253113Y-146629191D01*
X195340711Y-146760290D01*
X195340712Y-146760291D01*
X195340717Y-146760297D01*
X195452201Y-146871781D01*
X195452207Y-146871786D01*
X195452211Y-146871789D01*
X195583314Y-146959390D01*
X195583327Y-146959397D01*
X195728998Y-147019735D01*
X195729003Y-147019737D01*
X195883653Y-147050499D01*
X195883656Y-147050500D01*
X195883658Y-147050500D01*
X196041344Y-147050500D01*
X196041345Y-147050499D01*
X196195997Y-147019737D01*
X196339511Y-146960292D01*
X196341672Y-146959397D01*
X196341672Y-146959396D01*
X196341679Y-146959394D01*
X196472789Y-146871789D01*
X196584289Y-146760289D01*
X196671894Y-146629179D01*
X196732237Y-146483497D01*
X196762999Y-146328848D01*
X206074499Y-146328848D01*
X206105257Y-146483471D01*
X206105264Y-146483502D01*
X206165598Y-146629165D01*
X206165603Y-146629174D01*
X206165613Y-146629191D01*
X206253211Y-146760290D01*
X206253212Y-146760291D01*
X206253217Y-146760297D01*
X206364701Y-146871781D01*
X206364707Y-146871786D01*
X206364711Y-146871789D01*
X206495814Y-146959390D01*
X206495827Y-146959397D01*
X206641498Y-147019735D01*
X206641503Y-147019737D01*
X206796153Y-147050499D01*
X206796156Y-147050500D01*
X206796158Y-147050500D01*
X206953844Y-147050500D01*
X206953845Y-147050499D01*
X207108497Y-147019737D01*
X207252011Y-146960292D01*
X207254172Y-146959397D01*
X207254172Y-146959396D01*
X207254179Y-146959394D01*
X207385289Y-146871789D01*
X207496789Y-146760289D01*
X207584394Y-146629179D01*
X207644737Y-146483497D01*
X207675500Y-146328842D01*
X207675500Y-146171158D01*
X207675499Y-146171150D01*
X207673954Y-146163385D01*
X226274500Y-146163385D01*
X226274500Y-146163389D01*
X226274500Y-146336611D01*
X226301598Y-146507701D01*
X226355127Y-146672445D01*
X226433768Y-146826788D01*
X226535586Y-146966928D01*
X226658072Y-147089414D01*
X226798212Y-147191232D01*
X226952555Y-147269873D01*
X227117299Y-147323402D01*
X227288389Y-147350500D01*
X227288390Y-147350500D01*
X227461610Y-147350500D01*
X227461611Y-147350500D01*
X227632701Y-147323402D01*
X227797445Y-147269873D01*
X227951788Y-147191232D01*
X228091928Y-147089414D01*
X228214414Y-146966928D01*
X228316232Y-146826788D01*
X228394873Y-146672445D01*
X228448402Y-146507701D01*
X228475500Y-146336611D01*
X228475500Y-146163389D01*
X228448402Y-145992299D01*
X228394873Y-145827555D01*
X228316232Y-145673212D01*
X228214414Y-145533072D01*
X228091928Y-145410586D01*
X227951788Y-145308768D01*
X227921293Y-145293230D01*
X227797449Y-145230128D01*
X227646215Y-145180988D01*
X227646203Y-145180985D01*
X227632701Y-145176598D01*
X227632699Y-145176597D01*
X227632698Y-145176597D01*
X227618312Y-145174318D01*
X227618306Y-145174317D01*
X227528188Y-145160044D01*
X227501271Y-145155781D01*
X227485407Y-145153268D01*
X227461614Y-145149500D01*
X227461611Y-145149500D01*
X227288389Y-145149500D01*
X227288388Y-145149500D01*
X227248726Y-145155781D01*
X227248725Y-145155780D01*
X227117298Y-145176597D01*
X227117271Y-145176604D01*
X227116862Y-145176739D01*
X226994424Y-145216523D01*
X226994422Y-145216523D01*
X226952554Y-145230126D01*
X226952551Y-145230128D01*
X226798218Y-145308764D01*
X226798205Y-145308772D01*
X226723497Y-145363051D01*
X226677837Y-145396224D01*
X226677830Y-145396230D01*
X226658072Y-145410586D01*
X226658070Y-145410588D01*
X226658069Y-145410588D01*
X226535588Y-145533069D01*
X226535588Y-145533070D01*
X226535586Y-145533072D01*
X226521234Y-145552825D01*
X226521227Y-145552833D01*
X226508039Y-145570987D01*
X226508037Y-145570989D01*
X226433772Y-145673205D01*
X226433768Y-145673211D01*
X226433766Y-145673213D01*
X226433764Y-145673218D01*
X226355129Y-145827549D01*
X226301597Y-145992302D01*
X226301595Y-145992306D01*
X226283393Y-146107238D01*
X226283393Y-146107240D01*
X226274500Y-146163385D01*
X207673954Y-146163385D01*
X207645323Y-146019449D01*
X207645326Y-146019411D01*
X207644984Y-146017405D01*
X207644737Y-146016505D01*
X207644737Y-146016503D01*
X207634713Y-145992302D01*
X207621038Y-145959287D01*
X207584399Y-145870831D01*
X207584397Y-145870827D01*
X207584395Y-145870824D01*
X207584390Y-145870814D01*
X207496789Y-145739711D01*
X207496786Y-145739707D01*
X207496781Y-145739701D01*
X207385297Y-145628217D01*
X207385291Y-145628212D01*
X207385290Y-145628211D01*
X207254191Y-145540613D01*
X207254190Y-145540612D01*
X207254185Y-145540609D01*
X207254172Y-145540602D01*
X207254165Y-145540598D01*
X207108502Y-145480264D01*
X207108471Y-145480257D01*
X206953847Y-145449500D01*
X206953845Y-145449500D01*
X206953842Y-145449500D01*
X206796158Y-145449500D01*
X206796155Y-145449500D01*
X206796153Y-145449500D01*
X206641527Y-145480257D01*
X206641496Y-145480264D01*
X206495833Y-145540598D01*
X206495824Y-145540603D01*
X206495807Y-145540613D01*
X206364708Y-145628211D01*
X206364707Y-145628212D01*
X206364701Y-145628217D01*
X206253217Y-145739701D01*
X206253212Y-145739707D01*
X206253211Y-145739708D01*
X206165613Y-145870807D01*
X206165603Y-145870824D01*
X206165602Y-145870827D01*
X206165599Y-145870831D01*
X206105264Y-146016496D01*
X206105257Y-146016527D01*
X206074500Y-146171150D01*
X206074500Y-146171153D01*
X206074500Y-146328846D01*
X206074500Y-146328848D01*
X206074499Y-146328848D01*
X196762999Y-146328848D01*
X196763000Y-146328842D01*
X196763000Y-146171158D01*
X196763000Y-146171155D01*
X196762999Y-146171153D01*
X196743043Y-146070827D01*
X196732237Y-146016503D01*
X196732235Y-146016498D01*
X196732235Y-146016496D01*
X196722214Y-145992304D01*
X196722213Y-145992302D01*
X196671899Y-145870831D01*
X196671897Y-145870827D01*
X196671895Y-145870824D01*
X196671890Y-145870814D01*
X196584289Y-145739711D01*
X196584286Y-145739707D01*
X196584281Y-145739701D01*
X196472797Y-145628217D01*
X196472791Y-145628212D01*
X196472790Y-145628211D01*
X196341691Y-145540613D01*
X196341690Y-145540612D01*
X196341685Y-145540609D01*
X196341672Y-145540602D01*
X196341665Y-145540598D01*
X196196002Y-145480264D01*
X196195971Y-145480257D01*
X196041347Y-145449500D01*
X196041345Y-145449500D01*
X196041342Y-145449500D01*
X195883658Y-145449500D01*
X195883655Y-145449500D01*
X195883653Y-145449500D01*
X195729027Y-145480257D01*
X195728996Y-145480264D01*
X195583333Y-145540598D01*
X195583324Y-145540603D01*
X195583307Y-145540613D01*
X195452208Y-145628211D01*
X195452207Y-145628212D01*
X195452201Y-145628217D01*
X195340717Y-145739701D01*
X195340712Y-145739707D01*
X195340711Y-145739708D01*
X195253113Y-145870807D01*
X195253103Y-145870824D01*
X195253102Y-145870827D01*
X195253099Y-145870831D01*
X195192764Y-146016496D01*
X195192757Y-146016527D01*
X195162000Y-146171150D01*
X195162000Y-146171153D01*
X195162000Y-146328846D01*
X195162000Y-146328848D01*
X195161999Y-146328848D01*
X163317084Y-146328848D01*
X163294738Y-146216505D01*
X163294736Y-146216501D01*
X163279810Y-146180466D01*
X163275955Y-146171158D01*
X163249479Y-146107238D01*
X163234399Y-146070831D01*
X163234397Y-146070827D01*
X163234395Y-146070824D01*
X163234390Y-146070814D01*
X163146789Y-145939711D01*
X163146786Y-145939707D01*
X163146781Y-145939701D01*
X163035297Y-145828217D01*
X163035291Y-145828212D01*
X163035290Y-145828211D01*
X162904191Y-145740613D01*
X162904190Y-145740612D01*
X162904185Y-145740609D01*
X162904172Y-145740602D01*
X162904165Y-145740598D01*
X162758502Y-145680264D01*
X162758471Y-145680257D01*
X162603847Y-145649500D01*
X162603845Y-145649500D01*
X162603842Y-145649500D01*
X162446158Y-145649500D01*
X162446155Y-145649500D01*
X162446153Y-145649500D01*
X162291527Y-145680257D01*
X162291496Y-145680264D01*
X162145833Y-145740598D01*
X162145824Y-145740603D01*
X162145807Y-145740613D01*
X162014708Y-145828211D01*
X162014707Y-145828212D01*
X162014701Y-145828217D01*
X161903217Y-145939701D01*
X161903212Y-145939707D01*
X161903211Y-145939708D01*
X161815613Y-146070807D01*
X161815603Y-146070824D01*
X161815602Y-146070827D01*
X161815599Y-146070831D01*
X161755264Y-146216496D01*
X161755257Y-146216527D01*
X161724500Y-146371150D01*
X161724500Y-146371153D01*
X161724500Y-146528846D01*
X161724500Y-146528848D01*
X161724499Y-146528848D01*
X151925500Y-146528848D01*
X151925500Y-146382648D01*
X151893477Y-146180466D01*
X151893476Y-146180462D01*
X151893476Y-146180461D01*
X151832832Y-145993819D01*
X151832830Y-145993814D01*
X151830220Y-145985781D01*
X151830218Y-145985778D01*
X151830218Y-145985776D01*
X151827979Y-145981382D01*
X151827669Y-145980587D01*
X151826935Y-145979332D01*
X151771648Y-145870827D01*
X151737287Y-145803390D01*
X151729556Y-145792749D01*
X151616971Y-145637786D01*
X151472213Y-145493028D01*
X151306614Y-145372715D01*
X151287647Y-145363051D01*
X151287646Y-145363050D01*
X151287647Y-145363048D01*
X151287637Y-145363046D01*
X151124223Y-145279781D01*
X151059189Y-145258650D01*
X184162000Y-145258650D01*
X184162000Y-145416346D01*
X184192757Y-145570971D01*
X184192761Y-145570989D01*
X184192763Y-145571000D01*
X184253098Y-145716665D01*
X184253103Y-145716674D01*
X184253113Y-145716691D01*
X184340711Y-145847790D01*
X184340712Y-145847791D01*
X184340717Y-145847797D01*
X184452201Y-145959281D01*
X184452207Y-145959286D01*
X184452211Y-145959289D01*
X184583314Y-146046890D01*
X184583327Y-146046897D01*
X184728998Y-146107235D01*
X184729003Y-146107237D01*
X184883653Y-146137999D01*
X184883656Y-146138000D01*
X184883658Y-146138000D01*
X185041344Y-146138000D01*
X185041345Y-146137999D01*
X185195997Y-146107237D01*
X185332961Y-146050505D01*
X185332962Y-146050505D01*
X185335824Y-146049318D01*
X185335825Y-146049318D01*
X185335867Y-146049301D01*
X185335869Y-146049307D01*
X185335923Y-146049277D01*
X185341679Y-146046894D01*
X185472789Y-145959289D01*
X185584289Y-145847789D01*
X185671894Y-145716679D01*
X185732237Y-145570997D01*
X185732239Y-145570989D01*
X185732240Y-145570987D01*
X185763000Y-145416345D01*
X185763000Y-145258471D01*
X185762564Y-145256466D01*
X185754619Y-145216523D01*
X185732239Y-145104010D01*
X185732236Y-145104001D01*
X185693420Y-145010289D01*
X185671902Y-144958340D01*
X185671899Y-144958333D01*
X185671897Y-144958327D01*
X185671890Y-144958314D01*
X185584289Y-144827211D01*
X185584286Y-144827207D01*
X185584281Y-144827201D01*
X185472797Y-144715717D01*
X185472791Y-144715712D01*
X185472784Y-144715707D01*
X185341691Y-144628113D01*
X185341690Y-144628112D01*
X185341685Y-144628109D01*
X185341672Y-144628102D01*
X185341665Y-144628098D01*
X185222763Y-144578848D01*
X200574499Y-144578848D01*
X200605257Y-144733471D01*
X200605264Y-144733502D01*
X200665598Y-144879165D01*
X200665603Y-144879174D01*
X200665613Y-144879191D01*
X200753212Y-145010291D01*
X200753217Y-145010297D01*
X200864701Y-145121781D01*
X200864707Y-145121786D01*
X200864711Y-145121789D01*
X200995814Y-145209390D01*
X200995827Y-145209397D01*
X201141498Y-145269735D01*
X201141503Y-145269737D01*
X201259620Y-145293232D01*
X201288528Y-145298982D01*
X201291252Y-145299704D01*
X201296155Y-145300500D01*
X201453844Y-145300500D01*
X201457964Y-145300500D01*
X201465814Y-145298118D01*
X201608497Y-145269737D01*
X201754179Y-145209394D01*
X201885289Y-145121789D01*
X201996789Y-145010289D01*
X202084394Y-144879179D01*
X202144737Y-144733497D01*
X202175499Y-144578848D01*
X211574499Y-144578848D01*
X211605257Y-144733471D01*
X211605264Y-144733502D01*
X211665598Y-144879165D01*
X211665603Y-144879174D01*
X211665613Y-144879191D01*
X211753212Y-145010291D01*
X211753217Y-145010297D01*
X211864701Y-145121781D01*
X211864707Y-145121786D01*
X211864711Y-145121789D01*
X211995814Y-145209390D01*
X211995827Y-145209397D01*
X212141498Y-145269735D01*
X212141503Y-145269737D01*
X212259620Y-145293232D01*
X212288528Y-145298982D01*
X212291252Y-145299704D01*
X212296155Y-145300500D01*
X212453844Y-145300500D01*
X212457964Y-145300500D01*
X212465814Y-145298118D01*
X212608497Y-145269737D01*
X212754179Y-145209394D01*
X212885289Y-145121789D01*
X212996789Y-145010289D01*
X213084394Y-144879179D01*
X213144737Y-144733497D01*
X213175500Y-144578842D01*
X213175500Y-144421158D01*
X213175500Y-144421155D01*
X213175500Y-144420973D01*
X213175065Y-144418972D01*
X213145397Y-144269824D01*
X213144994Y-144267467D01*
X213144738Y-144266508D01*
X213144737Y-144266506D01*
X213144737Y-144266503D01*
X213144735Y-144266498D01*
X213084397Y-144120827D01*
X213084390Y-144120814D01*
X212996789Y-143989711D01*
X212996786Y-143989707D01*
X212996781Y-143989701D01*
X212885297Y-143878217D01*
X212885291Y-143878212D01*
X212885290Y-143878211D01*
X212754191Y-143790613D01*
X212754190Y-143790612D01*
X212754185Y-143790609D01*
X212754172Y-143790602D01*
X212754165Y-143790598D01*
X212608502Y-143730264D01*
X212608471Y-143730257D01*
X212453847Y-143699500D01*
X212453845Y-143699500D01*
X212453842Y-143699500D01*
X212296158Y-143699500D01*
X212296155Y-143699500D01*
X212296153Y-143699500D01*
X212141527Y-143730257D01*
X212141496Y-143730264D01*
X211995833Y-143790598D01*
X211995824Y-143790603D01*
X211995807Y-143790613D01*
X211864708Y-143878211D01*
X211864707Y-143878212D01*
X211864701Y-143878217D01*
X211753217Y-143989701D01*
X211753212Y-143989707D01*
X211753211Y-143989708D01*
X211665613Y-144120807D01*
X211665603Y-144120824D01*
X211665598Y-144120833D01*
X211605264Y-144266496D01*
X211605257Y-144266527D01*
X211574500Y-144421150D01*
X211574500Y-144421153D01*
X211574500Y-144578846D01*
X211574500Y-144578848D01*
X211574499Y-144578848D01*
X202175499Y-144578848D01*
X202175500Y-144578842D01*
X202175500Y-144421158D01*
X202175500Y-144421155D01*
X202175499Y-144421153D01*
X202145395Y-144269816D01*
X202144994Y-144267467D01*
X202144738Y-144266508D01*
X202144737Y-144266506D01*
X202144737Y-144266503D01*
X202144735Y-144266498D01*
X202084397Y-144120827D01*
X202084390Y-144120814D01*
X201996789Y-143989711D01*
X201996786Y-143989707D01*
X201996781Y-143989701D01*
X201885297Y-143878217D01*
X201885291Y-143878212D01*
X201885290Y-143878211D01*
X201754191Y-143790613D01*
X201754190Y-143790612D01*
X201754185Y-143790609D01*
X201754172Y-143790602D01*
X201754165Y-143790598D01*
X201608502Y-143730264D01*
X201608471Y-143730257D01*
X201453847Y-143699500D01*
X201453845Y-143699500D01*
X201453842Y-143699500D01*
X201296158Y-143699500D01*
X201296155Y-143699500D01*
X201296153Y-143699500D01*
X201141527Y-143730257D01*
X201141496Y-143730264D01*
X200995833Y-143790598D01*
X200995824Y-143790603D01*
X200995807Y-143790613D01*
X200864708Y-143878211D01*
X200864707Y-143878212D01*
X200864701Y-143878217D01*
X200753217Y-143989701D01*
X200753212Y-143989707D01*
X200753211Y-143989708D01*
X200665613Y-144120807D01*
X200665603Y-144120824D01*
X200665598Y-144120833D01*
X200605264Y-144266496D01*
X200605257Y-144266527D01*
X200574500Y-144421150D01*
X200574500Y-144421153D01*
X200574500Y-144578846D01*
X200574500Y-144578848D01*
X200574499Y-144578848D01*
X185222763Y-144578848D01*
X185196023Y-144567772D01*
X185196009Y-144567767D01*
X185196001Y-144567764D01*
X185195991Y-144567761D01*
X185195986Y-144567759D01*
X185041348Y-144537000D01*
X185041345Y-144537000D01*
X185041342Y-144537000D01*
X184883658Y-144537000D01*
X184883655Y-144537000D01*
X184883653Y-144537000D01*
X184729027Y-144567757D01*
X184728996Y-144567764D01*
X184583333Y-144628098D01*
X184583324Y-144628103D01*
X184583307Y-144628113D01*
X184452215Y-144715707D01*
X184452207Y-144715712D01*
X184452201Y-144715717D01*
X184340717Y-144827201D01*
X184340712Y-144827207D01*
X184340711Y-144827208D01*
X184253113Y-144958307D01*
X184253103Y-144958324D01*
X184253098Y-144958333D01*
X184192764Y-145103996D01*
X184192757Y-145104027D01*
X184162000Y-145258650D01*
X151059189Y-145258650D01*
X150929534Y-145216522D01*
X150929532Y-145216521D01*
X150929530Y-145216521D01*
X150929529Y-145216520D01*
X150754995Y-145188878D01*
X150738409Y-145186251D01*
X150727354Y-145184500D01*
X150727352Y-145184500D01*
X150522648Y-145184500D01*
X150522647Y-145184500D01*
X150498327Y-145188351D01*
X150498326Y-145188350D01*
X150320468Y-145216521D01*
X150125777Y-145279780D01*
X150125764Y-145279786D01*
X149943397Y-145372708D01*
X149943385Y-145372715D01*
X149777789Y-145493025D01*
X149633031Y-145637782D01*
X149633019Y-145637798D01*
X149609797Y-145669762D01*
X149609795Y-145669763D01*
X149609794Y-145669767D01*
X149585197Y-145695074D01*
X149578517Y-145700226D01*
X149575983Y-145702180D01*
X149510873Y-145727527D01*
X149442395Y-145713649D01*
X149395950Y-145671019D01*
X149394684Y-145669049D01*
X149393956Y-145666570D01*
X149392291Y-145664952D01*
X149387763Y-145645481D01*
X149375000Y-145602011D01*
X149375000Y-145509141D01*
X149375148Y-145503075D01*
X149375449Y-145496948D01*
X149375891Y-145490942D01*
X149383239Y-145416346D01*
X149392421Y-145323109D01*
X149394206Y-145311083D01*
X149394666Y-145308772D01*
X149396569Y-145299202D01*
X149399518Y-145287425D01*
X149445813Y-145134806D01*
X149449906Y-145123371D01*
X149454550Y-145112160D01*
X149459738Y-145101191D01*
X149534905Y-144960563D01*
X149541156Y-144950135D01*
X149547889Y-144940058D01*
X149555130Y-144930292D01*
X149656295Y-144807023D01*
X149664448Y-144798028D01*
X149673028Y-144789448D01*
X149682023Y-144781295D01*
X149805292Y-144680130D01*
X149815058Y-144672889D01*
X149825135Y-144666156D01*
X149835563Y-144659905D01*
X149976191Y-144584738D01*
X149987160Y-144579550D01*
X149998371Y-144574906D01*
X150009806Y-144570813D01*
X150162425Y-144524518D01*
X150174202Y-144521569D01*
X150186085Y-144519205D01*
X150198109Y-144517421D01*
X150365940Y-144500892D01*
X150371952Y-144500448D01*
X150378081Y-144500147D01*
X150384143Y-144500000D01*
X181875000Y-144500000D01*
X181875000Y-140328848D01*
X182574499Y-140328848D01*
X182605257Y-140483471D01*
X182605264Y-140483502D01*
X182665598Y-140629165D01*
X182665603Y-140629174D01*
X182665613Y-140629191D01*
X182753211Y-140760290D01*
X182753212Y-140760291D01*
X182753217Y-140760297D01*
X182864701Y-140871781D01*
X182864707Y-140871786D01*
X182864711Y-140871789D01*
X182995814Y-140959390D01*
X182995827Y-140959397D01*
X183141498Y-141019735D01*
X183141503Y-141019737D01*
X183296153Y-141050499D01*
X183296156Y-141050500D01*
X183296158Y-141050500D01*
X183453844Y-141050500D01*
X183453845Y-141050499D01*
X183608497Y-141019737D01*
X183754179Y-140959394D01*
X183885289Y-140871789D01*
X183996789Y-140760289D01*
X184084394Y-140629179D01*
X184144737Y-140483497D01*
X184175499Y-140328848D01*
X188574499Y-140328848D01*
X188605257Y-140483471D01*
X188605264Y-140483502D01*
X188665598Y-140629165D01*
X188665603Y-140629174D01*
X188665613Y-140629191D01*
X188753211Y-140760290D01*
X188753212Y-140760291D01*
X188753217Y-140760297D01*
X188864701Y-140871781D01*
X188864707Y-140871786D01*
X188864711Y-140871789D01*
X188995814Y-140959390D01*
X188995827Y-140959397D01*
X189141498Y-141019735D01*
X189141503Y-141019737D01*
X189296153Y-141050499D01*
X189296156Y-141050500D01*
X189296158Y-141050500D01*
X189453844Y-141050500D01*
X189453845Y-141050499D01*
X189608497Y-141019737D01*
X189754179Y-140959394D01*
X189885289Y-140871789D01*
X189996789Y-140760289D01*
X190084394Y-140629179D01*
X190144737Y-140483497D01*
X190175500Y-140328842D01*
X190175500Y-140171158D01*
X190175500Y-140171155D01*
X190175500Y-140170973D01*
X190175065Y-140168972D01*
X190145397Y-140019824D01*
X190144994Y-140017467D01*
X190144738Y-140016508D01*
X190144737Y-140016506D01*
X190144737Y-140016503D01*
X190144735Y-140016498D01*
X190084397Y-139870827D01*
X190084390Y-139870814D01*
X189996789Y-139739711D01*
X189996786Y-139739707D01*
X189996781Y-139739701D01*
X189885297Y-139628217D01*
X189885291Y-139628212D01*
X189885290Y-139628211D01*
X189754191Y-139540613D01*
X189754190Y-139540612D01*
X189754185Y-139540609D01*
X189754172Y-139540602D01*
X189754165Y-139540598D01*
X189608502Y-139480264D01*
X189608471Y-139480257D01*
X189453847Y-139449500D01*
X189453845Y-139449500D01*
X189453842Y-139449500D01*
X189296158Y-139449500D01*
X189296155Y-139449500D01*
X189296153Y-139449500D01*
X189141527Y-139480257D01*
X189141496Y-139480264D01*
X188995833Y-139540598D01*
X188995824Y-139540603D01*
X188995807Y-139540613D01*
X188864708Y-139628211D01*
X188864707Y-139628212D01*
X188864701Y-139628217D01*
X188753217Y-139739701D01*
X188753212Y-139739707D01*
X188753211Y-139739708D01*
X188665613Y-139870807D01*
X188665603Y-139870824D01*
X188665598Y-139870833D01*
X188605264Y-140016496D01*
X188605257Y-140016527D01*
X188574500Y-140171150D01*
X188574500Y-140171153D01*
X188574500Y-140328846D01*
X188574500Y-140328848D01*
X188574499Y-140328848D01*
X184175499Y-140328848D01*
X184175500Y-140328842D01*
X184175500Y-140171158D01*
X184175500Y-140171155D01*
X184175499Y-140171153D01*
X184145395Y-140019816D01*
X184144994Y-140017467D01*
X184144738Y-140016508D01*
X184144737Y-140016506D01*
X184144737Y-140016503D01*
X184144735Y-140016498D01*
X184084397Y-139870827D01*
X184084390Y-139870814D01*
X183996789Y-139739711D01*
X183996786Y-139739707D01*
X183996781Y-139739701D01*
X183885297Y-139628217D01*
X183885291Y-139628212D01*
X183885290Y-139628211D01*
X183754191Y-139540613D01*
X183754190Y-139540612D01*
X183754185Y-139540609D01*
X183754172Y-139540602D01*
X183754165Y-139540598D01*
X183608502Y-139480264D01*
X183608471Y-139480257D01*
X183453847Y-139449500D01*
X183453845Y-139449500D01*
X183453842Y-139449500D01*
X183296158Y-139449500D01*
X183296155Y-139449500D01*
X183296153Y-139449500D01*
X183141527Y-139480257D01*
X183141496Y-139480264D01*
X182995833Y-139540598D01*
X182995824Y-139540603D01*
X182995807Y-139540613D01*
X182864708Y-139628211D01*
X182864707Y-139628212D01*
X182864701Y-139628217D01*
X182753217Y-139739701D01*
X182753212Y-139739707D01*
X182753211Y-139739708D01*
X182665613Y-139870807D01*
X182665603Y-139870824D01*
X182665598Y-139870833D01*
X182605264Y-140016496D01*
X182605257Y-140016527D01*
X182574500Y-140171150D01*
X182574500Y-140171153D01*
X182574500Y-140328846D01*
X182574500Y-140328848D01*
X182574499Y-140328848D01*
X181875000Y-140328848D01*
X181875000Y-139078848D01*
X214074499Y-139078848D01*
X214105257Y-139233471D01*
X214105264Y-139233502D01*
X214165598Y-139379165D01*
X214165602Y-139379172D01*
X214165607Y-139379182D01*
X214165613Y-139379191D01*
X214253211Y-139510290D01*
X214253212Y-139510291D01*
X214253217Y-139510297D01*
X214364701Y-139621781D01*
X214364707Y-139621786D01*
X214364711Y-139621789D01*
X214495814Y-139709390D01*
X214495827Y-139709397D01*
X214569013Y-139739711D01*
X214641503Y-139769737D01*
X214641505Y-139769737D01*
X214641510Y-139769739D01*
X214725279Y-139786401D01*
X214796153Y-139800499D01*
X214796156Y-139800500D01*
X214796158Y-139800500D01*
X214953844Y-139800500D01*
X214953845Y-139800499D01*
X215108497Y-139769737D01*
X215254179Y-139709394D01*
X215385289Y-139621789D01*
X215496789Y-139510289D01*
X215584394Y-139379179D01*
X215586611Y-139373828D01*
X215643060Y-139237544D01*
X215644222Y-139234997D01*
X215644730Y-139233510D01*
X215644735Y-139233501D01*
X215644737Y-139233497D01*
X215675499Y-139078848D01*
X215675500Y-139078844D01*
X215675500Y-138920973D01*
X215675065Y-138918972D01*
X215645397Y-138769824D01*
X215644994Y-138767467D01*
X215644738Y-138766508D01*
X215644737Y-138766506D01*
X215644737Y-138766503D01*
X215644735Y-138766498D01*
X215584397Y-138620827D01*
X215584390Y-138620814D01*
X215496789Y-138489711D01*
X215496786Y-138489707D01*
X215496781Y-138489701D01*
X215385297Y-138378217D01*
X215385291Y-138378212D01*
X215385290Y-138378211D01*
X215254191Y-138290613D01*
X215254190Y-138290612D01*
X215254185Y-138290609D01*
X215254172Y-138290602D01*
X215254165Y-138290598D01*
X215108502Y-138230264D01*
X215108471Y-138230257D01*
X214953847Y-138199500D01*
X214953845Y-138199500D01*
X214953842Y-138199500D01*
X214796158Y-138199500D01*
X214796155Y-138199500D01*
X214796153Y-138199500D01*
X214641527Y-138230257D01*
X214641496Y-138230264D01*
X214495833Y-138290598D01*
X214495824Y-138290603D01*
X214495807Y-138290613D01*
X214364708Y-138378211D01*
X214364707Y-138378212D01*
X214364701Y-138378217D01*
X214253217Y-138489701D01*
X214253212Y-138489707D01*
X214253211Y-138489708D01*
X214165613Y-138620807D01*
X214165603Y-138620824D01*
X214165598Y-138620833D01*
X214105264Y-138766496D01*
X214105257Y-138766527D01*
X214074500Y-138921150D01*
X214074500Y-138921153D01*
X214074500Y-139078846D01*
X214074500Y-139078848D01*
X214074499Y-139078848D01*
X181875000Y-139078848D01*
X181875000Y-138009141D01*
X181875148Y-138003075D01*
X181875449Y-137996948D01*
X181875892Y-137990939D01*
X181892421Y-137823109D01*
X181894206Y-137811083D01*
X181896569Y-137799202D01*
X181899518Y-137787425D01*
X181945813Y-137634806D01*
X181949906Y-137623371D01*
X181954550Y-137612160D01*
X181959738Y-137601191D01*
X182034905Y-137460563D01*
X182041156Y-137450135D01*
X182047889Y-137440058D01*
X182055130Y-137430292D01*
X182156295Y-137307023D01*
X182164448Y-137298028D01*
X182173028Y-137289448D01*
X182182023Y-137281295D01*
X182305292Y-137180130D01*
X182315058Y-137172889D01*
X182325135Y-137166156D01*
X182335563Y-137159905D01*
X182476191Y-137084738D01*
X182487160Y-137079550D01*
X182498371Y-137074906D01*
X182509806Y-137070813D01*
X182662425Y-137024518D01*
X182674202Y-137021569D01*
X182686085Y-137019205D01*
X182698109Y-137017421D01*
X182865940Y-137000892D01*
X182871952Y-137000448D01*
X182878081Y-137000147D01*
X182884143Y-137000000D01*
X189375000Y-137000000D01*
X189375000Y-134923848D01*
X210229499Y-134923848D01*
X210260257Y-135078471D01*
X210260264Y-135078502D01*
X210320598Y-135224165D01*
X210320603Y-135224174D01*
X210320613Y-135224191D01*
X210408211Y-135355290D01*
X210408212Y-135355291D01*
X210408217Y-135355297D01*
X210519701Y-135466781D01*
X210519707Y-135466786D01*
X210519711Y-135466789D01*
X210650814Y-135554390D01*
X210650827Y-135554397D01*
X210796498Y-135614735D01*
X210796503Y-135614737D01*
X210951153Y-135645499D01*
X210951156Y-135645500D01*
X210951158Y-135645500D01*
X211108844Y-135645500D01*
X211108845Y-135645499D01*
X211263497Y-135614737D01*
X211409179Y-135554394D01*
X211540289Y-135466789D01*
X211651789Y-135355289D01*
X211739394Y-135224179D01*
X211799592Y-135078848D01*
X216324499Y-135078848D01*
X216355257Y-135233471D01*
X216355264Y-135233502D01*
X216415598Y-135379165D01*
X216415602Y-135379172D01*
X216415607Y-135379182D01*
X216415613Y-135379191D01*
X216503211Y-135510290D01*
X216503212Y-135510291D01*
X216503217Y-135510297D01*
X216614701Y-135621781D01*
X216614707Y-135621786D01*
X216614711Y-135621789D01*
X216745814Y-135709390D01*
X216745827Y-135709397D01*
X216891498Y-135769735D01*
X216891503Y-135769737D01*
X217046153Y-135800499D01*
X217046156Y-135800500D01*
X217046158Y-135800500D01*
X217203844Y-135800500D01*
X217203845Y-135800499D01*
X217358497Y-135769737D01*
X217504179Y-135709394D01*
X217635289Y-135621789D01*
X217746789Y-135510289D01*
X217834394Y-135379179D01*
X217844290Y-135355289D01*
X217848054Y-135346197D01*
X217848075Y-135346170D01*
X217848067Y-135346167D01*
X217861736Y-135313166D01*
X217894737Y-135233497D01*
X217925499Y-135078848D01*
X218574499Y-135078848D01*
X218605257Y-135233471D01*
X218605264Y-135233502D01*
X218665598Y-135379165D01*
X218665602Y-135379172D01*
X218665607Y-135379182D01*
X218665613Y-135379191D01*
X218753211Y-135510290D01*
X218753212Y-135510291D01*
X218753217Y-135510297D01*
X218864701Y-135621781D01*
X218864707Y-135621786D01*
X218864711Y-135621789D01*
X218995814Y-135709390D01*
X218995827Y-135709397D01*
X219141498Y-135769735D01*
X219141503Y-135769737D01*
X219296153Y-135800499D01*
X219296156Y-135800500D01*
X219296158Y-135800500D01*
X219453844Y-135800500D01*
X219453845Y-135800499D01*
X219608497Y-135769737D01*
X219754179Y-135709394D01*
X219885289Y-135621789D01*
X219996789Y-135510289D01*
X220084394Y-135379179D01*
X220094290Y-135355289D01*
X220098054Y-135346197D01*
X220098075Y-135346170D01*
X220098067Y-135346167D01*
X220111736Y-135313166D01*
X220144737Y-135233497D01*
X220175500Y-135078842D01*
X220175500Y-134921158D01*
X220175500Y-134921155D01*
X220175500Y-134920973D01*
X220175065Y-134918972D01*
X220145395Y-134769816D01*
X220144984Y-134767408D01*
X220144736Y-134766501D01*
X220144595Y-134766161D01*
X220144589Y-134766145D01*
X220084402Y-134620840D01*
X220084399Y-134620833D01*
X220084397Y-134620827D01*
X220084390Y-134620814D01*
X219996789Y-134489711D01*
X219996786Y-134489707D01*
X219996781Y-134489701D01*
X219885297Y-134378217D01*
X219885291Y-134378212D01*
X219885290Y-134378211D01*
X219754191Y-134290613D01*
X219754190Y-134290612D01*
X219754185Y-134290609D01*
X219754172Y-134290602D01*
X219754165Y-134290598D01*
X219608502Y-134230264D01*
X219608471Y-134230257D01*
X219453847Y-134199500D01*
X219453845Y-134199500D01*
X219453842Y-134199500D01*
X219296158Y-134199500D01*
X219296155Y-134199500D01*
X219296153Y-134199500D01*
X219141527Y-134230257D01*
X219141496Y-134230264D01*
X218995833Y-134290598D01*
X218995824Y-134290603D01*
X218995807Y-134290613D01*
X218864708Y-134378211D01*
X218864707Y-134378212D01*
X218864701Y-134378217D01*
X218753217Y-134489701D01*
X218753212Y-134489707D01*
X218753211Y-134489708D01*
X218665613Y-134620807D01*
X218665603Y-134620824D01*
X218665598Y-134620833D01*
X218605264Y-134766496D01*
X218605257Y-134766527D01*
X218574500Y-134921150D01*
X218574500Y-134921153D01*
X218574500Y-135078846D01*
X218574500Y-135078848D01*
X218574499Y-135078848D01*
X217925499Y-135078848D01*
X217925500Y-135078842D01*
X217925500Y-134921158D01*
X217925500Y-134921155D01*
X217925499Y-134921153D01*
X217895395Y-134769816D01*
X217894984Y-134767408D01*
X217894736Y-134766501D01*
X217894595Y-134766161D01*
X217894589Y-134766145D01*
X217834402Y-134620840D01*
X217834399Y-134620833D01*
X217834397Y-134620827D01*
X217834390Y-134620814D01*
X217746789Y-134489711D01*
X217746786Y-134489707D01*
X217746781Y-134489701D01*
X217635297Y-134378217D01*
X217635291Y-134378212D01*
X217635290Y-134378211D01*
X217504191Y-134290613D01*
X217504190Y-134290612D01*
X217504185Y-134290609D01*
X217504172Y-134290602D01*
X217504165Y-134290598D01*
X217358502Y-134230264D01*
X217358471Y-134230257D01*
X217203847Y-134199500D01*
X217203845Y-134199500D01*
X217203842Y-134199500D01*
X217046158Y-134199500D01*
X217046155Y-134199500D01*
X217046153Y-134199500D01*
X216891527Y-134230257D01*
X216891496Y-134230264D01*
X216745833Y-134290598D01*
X216745824Y-134290603D01*
X216745807Y-134290613D01*
X216614708Y-134378211D01*
X216614707Y-134378212D01*
X216614701Y-134378217D01*
X216503217Y-134489701D01*
X216503212Y-134489707D01*
X216503211Y-134489708D01*
X216415613Y-134620807D01*
X216415603Y-134620824D01*
X216415598Y-134620833D01*
X216355264Y-134766496D01*
X216355257Y-134766527D01*
X216324500Y-134921150D01*
X216324500Y-134921153D01*
X216324500Y-135078846D01*
X216324500Y-135078848D01*
X216324499Y-135078848D01*
X211799592Y-135078848D01*
X211799737Y-135078497D01*
X211830500Y-134923842D01*
X211830500Y-134766158D01*
X211830500Y-134766155D01*
X211830499Y-134766153D01*
X211826277Y-134744928D01*
X211799737Y-134611503D01*
X211775240Y-134552362D01*
X211739397Y-134465827D01*
X211739390Y-134465814D01*
X211651789Y-134334711D01*
X211651786Y-134334707D01*
X211651781Y-134334701D01*
X211540297Y-134223217D01*
X211540291Y-134223212D01*
X211540290Y-134223211D01*
X211409191Y-134135613D01*
X211409190Y-134135612D01*
X211409185Y-134135609D01*
X211409172Y-134135602D01*
X211409165Y-134135598D01*
X211263502Y-134075264D01*
X211263471Y-134075257D01*
X211108847Y-134044500D01*
X211108845Y-134044500D01*
X211108842Y-134044500D01*
X210951158Y-134044500D01*
X210951155Y-134044500D01*
X210951153Y-134044500D01*
X210796527Y-134075257D01*
X210796496Y-134075264D01*
X210650833Y-134135598D01*
X210650824Y-134135603D01*
X210650807Y-134135613D01*
X210519708Y-134223211D01*
X210519707Y-134223212D01*
X210519701Y-134223217D01*
X210408217Y-134334701D01*
X210408212Y-134334707D01*
X210408211Y-134334708D01*
X210320613Y-134465807D01*
X210320603Y-134465824D01*
X210320598Y-134465833D01*
X210260264Y-134611496D01*
X210260257Y-134611527D01*
X210229501Y-134766145D01*
X210229500Y-134766150D01*
X210229500Y-134766153D01*
X210229500Y-134923846D01*
X210229500Y-134923848D01*
X210229499Y-134923848D01*
X189375000Y-134923848D01*
X189375000Y-132078848D01*
X214074499Y-132078848D01*
X214105257Y-132233471D01*
X214105264Y-132233502D01*
X214165598Y-132379165D01*
X214165603Y-132379174D01*
X214165613Y-132379191D01*
X214253211Y-132510290D01*
X214253212Y-132510291D01*
X214253217Y-132510297D01*
X214364701Y-132621781D01*
X214364707Y-132621786D01*
X214364711Y-132621789D01*
X214495814Y-132709390D01*
X214495827Y-132709397D01*
X214641498Y-132769735D01*
X214641503Y-132769737D01*
X214746418Y-132790606D01*
X214788512Y-132798979D01*
X214791247Y-132799703D01*
X214796155Y-132800500D01*
X214953844Y-132800500D01*
X214957964Y-132800500D01*
X214965814Y-132798118D01*
X215108497Y-132769737D01*
X215254179Y-132709394D01*
X215385289Y-132621789D01*
X215496789Y-132510289D01*
X215584394Y-132379179D01*
X215644737Y-132233497D01*
X215675500Y-132078842D01*
X215675500Y-131921158D01*
X215675500Y-131921155D01*
X215675500Y-131920973D01*
X215675065Y-131918972D01*
X215649531Y-131790606D01*
X215644737Y-131766503D01*
X215644734Y-131766496D01*
X215618054Y-131702084D01*
X215618054Y-131702083D01*
X215584397Y-131620827D01*
X215584390Y-131620814D01*
X215496789Y-131489711D01*
X215496786Y-131489707D01*
X215496781Y-131489701D01*
X215385297Y-131378217D01*
X215385291Y-131378212D01*
X215385290Y-131378211D01*
X215254191Y-131290613D01*
X215254190Y-131290612D01*
X215254185Y-131290609D01*
X215254172Y-131290602D01*
X215254165Y-131290598D01*
X215108502Y-131230264D01*
X215108471Y-131230257D01*
X214953847Y-131199500D01*
X214953845Y-131199500D01*
X214953842Y-131199500D01*
X214796158Y-131199500D01*
X214796155Y-131199500D01*
X214796153Y-131199500D01*
X214641527Y-131230257D01*
X214641496Y-131230264D01*
X214495833Y-131290598D01*
X214495824Y-131290603D01*
X214495807Y-131290613D01*
X214364708Y-131378211D01*
X214364707Y-131378212D01*
X214364701Y-131378217D01*
X214253217Y-131489701D01*
X214253212Y-131489707D01*
X214253211Y-131489708D01*
X214165613Y-131620807D01*
X214165603Y-131620824D01*
X214165598Y-131620833D01*
X214105264Y-131766496D01*
X214105257Y-131766527D01*
X214074500Y-131921150D01*
X214074500Y-131921153D01*
X214074500Y-132078846D01*
X214074500Y-132078848D01*
X214074499Y-132078848D01*
X189375000Y-132078848D01*
X189375000Y-131786951D01*
X189380022Y-131752018D01*
X189383933Y-131738699D01*
X189393573Y-131723698D01*
X189394685Y-131719912D01*
X189397667Y-131717327D01*
X189421706Y-131679922D01*
X189485258Y-131650897D01*
X189485267Y-131650896D01*
X189498151Y-131649044D01*
X189535191Y-131649309D01*
X189542647Y-131650490D01*
X189542648Y-131650490D01*
X189542649Y-131650490D01*
X189747351Y-131650490D01*
X189747352Y-131650490D01*
X189949534Y-131618467D01*
X190144219Y-131555210D01*
X190326610Y-131462277D01*
X190419590Y-131394722D01*
X190492213Y-131341961D01*
X190492213Y-131341959D01*
X190492272Y-131341917D01*
X190493031Y-131341143D01*
X190636966Y-131197209D01*
X190636968Y-131197205D01*
X190636971Y-131197203D01*
X190692465Y-131120821D01*
X190757287Y-131031600D01*
X190850220Y-130849209D01*
X190913477Y-130654524D01*
X190945500Y-130452342D01*
X190945500Y-129447638D01*
X190945499Y-129447632D01*
X193424500Y-129447632D01*
X193424500Y-130452346D01*
X193441761Y-130561328D01*
X193456522Y-130654524D01*
X193519781Y-130849213D01*
X193582797Y-130972887D01*
X193582798Y-130972892D01*
X193582800Y-130972892D01*
X193591369Y-130989711D01*
X193612715Y-131031603D01*
X193733028Y-131197203D01*
X193877786Y-131341961D01*
X193986794Y-131421158D01*
X194043390Y-131462277D01*
X194159607Y-131521493D01*
X194219327Y-131551922D01*
X194219326Y-131551922D01*
X194226649Y-131555653D01*
X194230401Y-131556711D01*
X194298513Y-131578842D01*
X194420465Y-131618467D01*
X194521557Y-131634478D01*
X194622648Y-131650490D01*
X194622649Y-131650490D01*
X194827351Y-131650490D01*
X194827352Y-131650490D01*
X195029534Y-131618467D01*
X195224219Y-131555210D01*
X195406610Y-131462277D01*
X195499590Y-131394722D01*
X195572213Y-131341961D01*
X195572213Y-131341959D01*
X195572272Y-131341917D01*
X195573031Y-131341143D01*
X195716966Y-131197209D01*
X195716968Y-131197205D01*
X195716971Y-131197203D01*
X195835162Y-131034525D01*
X195835521Y-131034247D01*
X195837279Y-131031609D01*
X195837284Y-131031604D01*
X195837285Y-131031603D01*
X195837287Y-131031600D01*
X195876424Y-130954787D01*
X195896758Y-130925944D01*
X195905651Y-130916528D01*
X195965994Y-130881310D01*
X196035800Y-130884305D01*
X196089509Y-130920472D01*
X196095578Y-130927476D01*
X196112349Y-130952383D01*
X196149348Y-131024996D01*
X196149352Y-131025003D01*
X196152716Y-131031606D01*
X196273024Y-131197198D01*
X196273028Y-131197203D01*
X196417786Y-131341961D01*
X196526794Y-131421158D01*
X196583390Y-131462277D01*
X196699607Y-131521493D01*
X196759327Y-131551922D01*
X196759326Y-131551922D01*
X196766649Y-131555653D01*
X196770401Y-131556711D01*
X196838513Y-131578842D01*
X196960465Y-131618467D01*
X197061557Y-131634478D01*
X197162648Y-131650490D01*
X197162649Y-131650490D01*
X197367351Y-131650490D01*
X197367352Y-131650490D01*
X197569534Y-131618467D01*
X197764219Y-131555210D01*
X197946610Y-131462277D01*
X198039590Y-131394722D01*
X198112213Y-131341961D01*
X198112213Y-131341959D01*
X198112272Y-131341917D01*
X198113031Y-131341143D01*
X198256966Y-131197209D01*
X198256968Y-131197205D01*
X198256971Y-131197203D01*
X198312465Y-131120821D01*
X198377287Y-131031600D01*
X198470220Y-130849209D01*
X198533477Y-130654524D01*
X198565500Y-130452342D01*
X198565500Y-129447638D01*
X198533477Y-129245456D01*
X198533476Y-129245452D01*
X198533476Y-129245451D01*
X198472834Y-129058816D01*
X198472833Y-129058815D01*
X198470220Y-129050771D01*
X198470218Y-129050768D01*
X198470218Y-129050766D01*
X198467970Y-129046355D01*
X198467663Y-129045567D01*
X198466933Y-129044319D01*
X198424515Y-128961070D01*
X198416422Y-128945186D01*
X198377287Y-128868380D01*
X198327969Y-128800499D01*
X198256971Y-128702776D01*
X198112213Y-128558018D01*
X198112209Y-128558015D01*
X197957209Y-128445403D01*
X197957205Y-128445400D01*
X197946613Y-128437705D01*
X197946612Y-128437704D01*
X197946610Y-128437703D01*
X197918171Y-128423212D01*
X197889654Y-128408681D01*
X197889653Y-128408681D01*
X197764223Y-128344771D01*
X197569534Y-128281512D01*
X197569532Y-128281511D01*
X197569530Y-128281511D01*
X197569529Y-128281510D01*
X197394995Y-128253868D01*
X197376470Y-128250934D01*
X197367354Y-128249490D01*
X197367352Y-128249490D01*
X197162648Y-128249490D01*
X197138396Y-128253331D01*
X196960469Y-128281510D01*
X196960468Y-128281511D01*
X196765777Y-128344770D01*
X196765764Y-128344776D01*
X196583397Y-128437698D01*
X196583385Y-128437705D01*
X196417787Y-128558017D01*
X196417784Y-128558019D01*
X196273029Y-128702774D01*
X196273027Y-128702777D01*
X196152715Y-128868375D01*
X196152711Y-128868382D01*
X196113577Y-128945186D01*
X196113575Y-128945188D01*
X196113575Y-128945190D01*
X196093238Y-128974036D01*
X196084347Y-128983449D01*
X196024003Y-129018669D01*
X195954198Y-129015673D01*
X195900489Y-128979506D01*
X195894417Y-128972498D01*
X195877649Y-128947595D01*
X195875309Y-128943003D01*
X195837287Y-128868380D01*
X195787969Y-128800499D01*
X195716971Y-128702776D01*
X195572213Y-128558018D01*
X195572209Y-128558015D01*
X195417209Y-128445403D01*
X195417205Y-128445400D01*
X195406613Y-128437705D01*
X195406612Y-128437704D01*
X195406610Y-128437703D01*
X195378171Y-128423212D01*
X195349654Y-128408681D01*
X195349653Y-128408681D01*
X195224223Y-128344771D01*
X195029534Y-128281512D01*
X195029532Y-128281511D01*
X195029530Y-128281511D01*
X195029529Y-128281510D01*
X194854995Y-128253868D01*
X194836470Y-128250934D01*
X194827354Y-128249490D01*
X194827352Y-128249490D01*
X194622648Y-128249490D01*
X194598396Y-128253331D01*
X194420469Y-128281510D01*
X194420468Y-128281511D01*
X194225777Y-128344770D01*
X194225764Y-128344776D01*
X194043397Y-128437698D01*
X194043385Y-128437705D01*
X193877787Y-128558017D01*
X193877784Y-128558019D01*
X193733029Y-128702774D01*
X193733027Y-128702777D01*
X193612715Y-128868375D01*
X193612708Y-128868387D01*
X193519786Y-129050754D01*
X193519780Y-129050767D01*
X193456521Y-129245458D01*
X193424500Y-129447632D01*
X190945499Y-129447632D01*
X190913477Y-129245456D01*
X190913476Y-129245452D01*
X190913476Y-129245451D01*
X190852834Y-129058816D01*
X190852833Y-129058815D01*
X190850220Y-129050771D01*
X190850218Y-129050768D01*
X190850218Y-129050766D01*
X190847970Y-129046355D01*
X190847663Y-129045567D01*
X190846933Y-129044319D01*
X190804515Y-128961070D01*
X190796422Y-128945186D01*
X190757287Y-128868380D01*
X190707969Y-128800499D01*
X190636971Y-128702776D01*
X190492213Y-128558018D01*
X190492209Y-128558015D01*
X190337209Y-128445403D01*
X190337205Y-128445400D01*
X190326613Y-128437705D01*
X190326612Y-128437704D01*
X190326610Y-128437703D01*
X190298171Y-128423212D01*
X190269654Y-128408681D01*
X190269653Y-128408681D01*
X190144223Y-128344771D01*
X189949534Y-128281512D01*
X189949532Y-128281511D01*
X189949530Y-128281511D01*
X189949529Y-128281510D01*
X189774995Y-128253868D01*
X189756470Y-128250934D01*
X189747354Y-128249490D01*
X189747352Y-128249490D01*
X189542648Y-128249490D01*
X189542645Y-128249490D01*
X189536002Y-128250542D01*
X189507216Y-128251712D01*
X189503957Y-128251464D01*
X189499855Y-128250934D01*
X189498860Y-128251077D01*
X189492094Y-128250563D01*
X189464032Y-128239954D01*
X189435193Y-128231708D01*
X189431695Y-128227728D01*
X189426739Y-128225855D01*
X189408867Y-128201759D01*
X189389064Y-128179231D01*
X189389057Y-128179216D01*
X189386568Y-128173865D01*
X189385883Y-128170772D01*
X189385116Y-128169737D01*
X189384881Y-128166240D01*
X189375000Y-128121568D01*
X189375000Y-128078848D01*
X216324499Y-128078848D01*
X216355257Y-128233471D01*
X216355264Y-128233502D01*
X216415598Y-128379165D01*
X216415603Y-128379174D01*
X216415613Y-128379191D01*
X216503211Y-128510290D01*
X216503212Y-128510291D01*
X216503217Y-128510297D01*
X216614701Y-128621781D01*
X216614707Y-128621786D01*
X216614711Y-128621789D01*
X216745814Y-128709390D01*
X216745827Y-128709397D01*
X216891498Y-128769735D01*
X216891503Y-128769737D01*
X217046153Y-128800499D01*
X217046156Y-128800500D01*
X217046158Y-128800500D01*
X217203844Y-128800500D01*
X217203845Y-128800499D01*
X217358497Y-128769737D01*
X217504179Y-128709394D01*
X217635289Y-128621789D01*
X217746789Y-128510289D01*
X217834394Y-128379179D01*
X217894737Y-128233497D01*
X217925499Y-128078848D01*
X218574499Y-128078848D01*
X218605257Y-128233471D01*
X218605264Y-128233502D01*
X218665598Y-128379165D01*
X218665603Y-128379174D01*
X218665613Y-128379191D01*
X218753211Y-128510290D01*
X218753212Y-128510291D01*
X218753217Y-128510297D01*
X218864701Y-128621781D01*
X218864707Y-128621786D01*
X218864711Y-128621789D01*
X218995814Y-128709390D01*
X218995827Y-128709397D01*
X219141498Y-128769735D01*
X219141503Y-128769737D01*
X219296153Y-128800499D01*
X219296156Y-128800500D01*
X219296158Y-128800500D01*
X219453844Y-128800500D01*
X219453845Y-128800499D01*
X219608497Y-128769737D01*
X219754179Y-128709394D01*
X219885289Y-128621789D01*
X219996789Y-128510289D01*
X220084394Y-128379179D01*
X220144737Y-128233497D01*
X220175500Y-128078842D01*
X220175500Y-127921158D01*
X220175500Y-127921155D01*
X220175500Y-127920973D01*
X220175065Y-127918972D01*
X220168144Y-127884180D01*
X220145395Y-127769815D01*
X220144984Y-127767406D01*
X220144737Y-127766508D01*
X220144737Y-127766503D01*
X220132931Y-127738000D01*
X220084400Y-127620833D01*
X220084395Y-127620824D01*
X220084390Y-127620814D01*
X219996789Y-127489711D01*
X219996786Y-127489707D01*
X219996781Y-127489701D01*
X219885297Y-127378217D01*
X219885291Y-127378212D01*
X219885290Y-127378211D01*
X219754191Y-127290613D01*
X219754190Y-127290612D01*
X219754185Y-127290609D01*
X219754172Y-127290602D01*
X219754165Y-127290598D01*
X219608502Y-127230264D01*
X219608471Y-127230257D01*
X219453847Y-127199500D01*
X219453845Y-127199500D01*
X219453842Y-127199500D01*
X219296158Y-127199500D01*
X219296155Y-127199500D01*
X219296153Y-127199500D01*
X219141527Y-127230257D01*
X219141496Y-127230264D01*
X218995833Y-127290598D01*
X218995824Y-127290603D01*
X218995807Y-127290613D01*
X218864708Y-127378211D01*
X218864707Y-127378212D01*
X218864701Y-127378217D01*
X218753217Y-127489701D01*
X218753212Y-127489707D01*
X218753211Y-127489708D01*
X218665613Y-127620807D01*
X218665603Y-127620824D01*
X218665598Y-127620833D01*
X218605264Y-127766496D01*
X218605257Y-127766527D01*
X218574500Y-127921150D01*
X218574500Y-127921153D01*
X218574500Y-128078846D01*
X218574500Y-128078848D01*
X218574499Y-128078848D01*
X217925499Y-128078848D01*
X217925500Y-128078842D01*
X217925500Y-127921158D01*
X217925500Y-127921155D01*
X217925499Y-127921153D01*
X217895395Y-127769815D01*
X217894984Y-127767406D01*
X217894737Y-127766508D01*
X217894737Y-127766503D01*
X217882931Y-127738000D01*
X217834400Y-127620833D01*
X217834395Y-127620824D01*
X217834390Y-127620814D01*
X217746789Y-127489711D01*
X217746786Y-127489707D01*
X217746781Y-127489701D01*
X217635297Y-127378217D01*
X217635291Y-127378212D01*
X217635290Y-127378211D01*
X217504191Y-127290613D01*
X217504190Y-127290612D01*
X217504185Y-127290609D01*
X217504172Y-127290602D01*
X217504165Y-127290598D01*
X217358502Y-127230264D01*
X217358471Y-127230257D01*
X217203847Y-127199500D01*
X217203845Y-127199500D01*
X217203842Y-127199500D01*
X217046158Y-127199500D01*
X217046155Y-127199500D01*
X217046153Y-127199500D01*
X216891527Y-127230257D01*
X216891496Y-127230264D01*
X216745833Y-127290598D01*
X216745824Y-127290603D01*
X216745807Y-127290613D01*
X216614708Y-127378211D01*
X216614707Y-127378212D01*
X216614701Y-127378217D01*
X216503217Y-127489701D01*
X216503212Y-127489707D01*
X216503211Y-127489708D01*
X216415613Y-127620807D01*
X216415603Y-127620824D01*
X216415598Y-127620833D01*
X216355264Y-127766496D01*
X216355257Y-127766527D01*
X216324500Y-127921150D01*
X216324500Y-127921153D01*
X216324500Y-128078846D01*
X216324500Y-128078848D01*
X216324499Y-128078848D01*
X189375000Y-128078848D01*
X189375000Y-126142329D01*
X189380023Y-126107393D01*
X189384427Y-126092395D01*
X189385452Y-126090800D01*
X189422172Y-126033644D01*
X189422200Y-126033619D01*
X189422199Y-126033619D01*
X189423541Y-126032456D01*
X189478420Y-126004977D01*
X189485979Y-126003333D01*
X189512332Y-126000500D01*
X226806641Y-126000500D01*
X226841575Y-126005523D01*
G37*
%TD.AperFunction*%
%TD*%
%TA.AperFunction,Conductor*%
%TO.N,+27V*%
G36*
X185318039Y-126045185D02*
G01*
X185363794Y-126097989D01*
X185375000Y-126149500D01*
X185375000Y-128300771D01*
X185355315Y-128367810D01*
X185302511Y-128413565D01*
X185233353Y-128423509D01*
X185194705Y-128411256D01*
X185064223Y-128344771D01*
X184869534Y-128281512D01*
X184694995Y-128253868D01*
X184667352Y-128249490D01*
X184462648Y-128249490D01*
X184438329Y-128253341D01*
X184260465Y-128281512D01*
X184065776Y-128344771D01*
X183883386Y-128437705D01*
X183717786Y-128558018D01*
X183573028Y-128702776D01*
X183452715Y-128868376D01*
X183405485Y-128961070D01*
X183357510Y-129011866D01*
X183289689Y-129028661D01*
X183223554Y-129006124D01*
X183184515Y-128961070D01*
X183183883Y-128959830D01*
X183137287Y-128868380D01*
X183129556Y-128857739D01*
X183016971Y-128702776D01*
X182872213Y-128558018D01*
X182706613Y-128437705D01*
X182706612Y-128437704D01*
X182706610Y-128437703D01*
X182649653Y-128408681D01*
X182524223Y-128344771D01*
X182329534Y-128281512D01*
X182154995Y-128253868D01*
X182127352Y-128249490D01*
X181922648Y-128249490D01*
X181898329Y-128253341D01*
X181720465Y-128281512D01*
X181525776Y-128344771D01*
X181343386Y-128437705D01*
X181177786Y-128558018D01*
X181033028Y-128702776D01*
X180912715Y-128868376D01*
X180865485Y-128961070D01*
X180817510Y-129011866D01*
X180749689Y-129028661D01*
X180683554Y-129006124D01*
X180644515Y-128961070D01*
X180643883Y-128959830D01*
X180597287Y-128868380D01*
X180589556Y-128857739D01*
X180476971Y-128702776D01*
X180332213Y-128558018D01*
X180166613Y-128437705D01*
X180166612Y-128437704D01*
X180166610Y-128437703D01*
X180109653Y-128408681D01*
X179984223Y-128344771D01*
X179789534Y-128281512D01*
X179614995Y-128253868D01*
X179587352Y-128249490D01*
X179382648Y-128249490D01*
X179358329Y-128253341D01*
X179180465Y-128281512D01*
X178985776Y-128344771D01*
X178803386Y-128437705D01*
X178637786Y-128558018D01*
X178493028Y-128702776D01*
X178372715Y-128868376D01*
X178279781Y-129050766D01*
X178216522Y-129245455D01*
X178184500Y-129447638D01*
X178184500Y-130452342D01*
X178184499Y-130452342D01*
X178204590Y-130579189D01*
X178195635Y-130648482D01*
X178150639Y-130701934D01*
X178083887Y-130722573D01*
X178057926Y-130720203D01*
X177953845Y-130699500D01*
X177953842Y-130699500D01*
X177796158Y-130699500D01*
X177796155Y-130699500D01*
X177641510Y-130730261D01*
X177641498Y-130730264D01*
X177495827Y-130790602D01*
X177495814Y-130790609D01*
X177443891Y-130825304D01*
X177377214Y-130846182D01*
X177309833Y-130827698D01*
X177306109Y-130825304D01*
X177254185Y-130790609D01*
X177254172Y-130790602D01*
X177108501Y-130730264D01*
X177108489Y-130730261D01*
X176953845Y-130699500D01*
X176953842Y-130699500D01*
X176796158Y-130699500D01*
X176796155Y-130699500D01*
X176641510Y-130730261D01*
X176641498Y-130730264D01*
X176495827Y-130790602D01*
X176495814Y-130790609D01*
X176443891Y-130825304D01*
X176377214Y-130846182D01*
X176309833Y-130827698D01*
X176306109Y-130825304D01*
X176254185Y-130790609D01*
X176254172Y-130790602D01*
X176108501Y-130730264D01*
X176108489Y-130730261D01*
X175953845Y-130699500D01*
X175953842Y-130699500D01*
X175796158Y-130699500D01*
X175796155Y-130699500D01*
X175641510Y-130730261D01*
X175641498Y-130730264D01*
X175495827Y-130790602D01*
X175495814Y-130790609D01*
X175443891Y-130825304D01*
X175377214Y-130846182D01*
X175309833Y-130827698D01*
X175306109Y-130825304D01*
X175254185Y-130790609D01*
X175254172Y-130790602D01*
X175108501Y-130730264D01*
X175108489Y-130730261D01*
X174953845Y-130699500D01*
X174953842Y-130699500D01*
X174796158Y-130699500D01*
X174796155Y-130699500D01*
X174641510Y-130730261D01*
X174641498Y-130730264D01*
X174495827Y-130790602D01*
X174495814Y-130790609D01*
X174364711Y-130878210D01*
X174364707Y-130878213D01*
X174253213Y-130989707D01*
X174253210Y-130989711D01*
X174165609Y-131120814D01*
X174165602Y-131120827D01*
X174105264Y-131266498D01*
X174105261Y-131266510D01*
X174074500Y-131421153D01*
X174074500Y-131578846D01*
X174087573Y-131644568D01*
X174081346Y-131714159D01*
X174038483Y-131769337D01*
X174013411Y-131783319D01*
X173995826Y-131790603D01*
X173995814Y-131790609D01*
X173864711Y-131878210D01*
X173864707Y-131878213D01*
X173753213Y-131989707D01*
X173753210Y-131989711D01*
X173665609Y-132120814D01*
X173665602Y-132120827D01*
X173605263Y-132266500D01*
X173605259Y-132266513D01*
X173605246Y-132266583D01*
X173605228Y-132266616D01*
X173603493Y-132272337D01*
X173602407Y-132272007D01*
X173572855Y-132328491D01*
X173512137Y-132363060D01*
X173464234Y-132364854D01*
X173367352Y-132349510D01*
X173162648Y-132349510D01*
X173138329Y-132353361D01*
X172960465Y-132381532D01*
X172765776Y-132444791D01*
X172583386Y-132537725D01*
X172417786Y-132658038D01*
X172273028Y-132802796D01*
X172152715Y-132968396D01*
X172105485Y-133061090D01*
X172057510Y-133111886D01*
X171989689Y-133128681D01*
X171923554Y-133106144D01*
X171884515Y-133061090D01*
X171879356Y-133050965D01*
X171837287Y-132968400D01*
X171829556Y-132957759D01*
X171716971Y-132802796D01*
X171572213Y-132658038D01*
X171406613Y-132537725D01*
X171406612Y-132537724D01*
X171406610Y-132537723D01*
X171349653Y-132508701D01*
X171224223Y-132444791D01*
X171029534Y-132381532D01*
X170854995Y-132353888D01*
X170827352Y-132349510D01*
X170622648Y-132349510D01*
X170598329Y-132353361D01*
X170420465Y-132381532D01*
X170225776Y-132444791D01*
X170043386Y-132537725D01*
X169877786Y-132658038D01*
X169733028Y-132802796D01*
X169612715Y-132968396D01*
X169565485Y-133061090D01*
X169517510Y-133111886D01*
X169449689Y-133128681D01*
X169383554Y-133106144D01*
X169344515Y-133061090D01*
X169339356Y-133050965D01*
X169297287Y-132968400D01*
X169289556Y-132957759D01*
X169176971Y-132802796D01*
X169032213Y-132658038D01*
X168866613Y-132537725D01*
X168866612Y-132537724D01*
X168866610Y-132537723D01*
X168809653Y-132508701D01*
X168684223Y-132444791D01*
X168489534Y-132381532D01*
X168314995Y-132353888D01*
X168287352Y-132349510D01*
X168082648Y-132349510D01*
X168058329Y-132353361D01*
X167880465Y-132381532D01*
X167685776Y-132444791D01*
X167503386Y-132537725D01*
X167337786Y-132658038D01*
X167193028Y-132802796D01*
X167072715Y-132968396D01*
X166979781Y-133150786D01*
X166916522Y-133345475D01*
X166884500Y-133547658D01*
X166884500Y-134552361D01*
X166916522Y-134754544D01*
X166979781Y-134949233D01*
X167072715Y-135131623D01*
X167193028Y-135297223D01*
X167337786Y-135441981D01*
X167492749Y-135554566D01*
X167503390Y-135562297D01*
X167619607Y-135621513D01*
X167685776Y-135655228D01*
X167685778Y-135655228D01*
X167685781Y-135655230D01*
X167790137Y-135689137D01*
X167880465Y-135718487D01*
X167981557Y-135734498D01*
X168082648Y-135750510D01*
X168082649Y-135750510D01*
X168287351Y-135750510D01*
X168287352Y-135750510D01*
X168489534Y-135718487D01*
X168684219Y-135655230D01*
X168866610Y-135562297D01*
X168959590Y-135494742D01*
X169032213Y-135441981D01*
X169032215Y-135441978D01*
X169032219Y-135441976D01*
X169176966Y-135297229D01*
X169176968Y-135297225D01*
X169176971Y-135297223D01*
X169297284Y-135131624D01*
X169297285Y-135131623D01*
X169297287Y-135131620D01*
X169344516Y-135038927D01*
X169392489Y-134988133D01*
X169460310Y-134971338D01*
X169526445Y-134993875D01*
X169565485Y-135038929D01*
X169612715Y-135131624D01*
X169733028Y-135297223D01*
X169877786Y-135441981D01*
X170032749Y-135554566D01*
X170043390Y-135562297D01*
X170159607Y-135621513D01*
X170225776Y-135655228D01*
X170225778Y-135655228D01*
X170225781Y-135655230D01*
X170330137Y-135689137D01*
X170420465Y-135718487D01*
X170521557Y-135734498D01*
X170622648Y-135750510D01*
X170622649Y-135750510D01*
X170827351Y-135750510D01*
X170827352Y-135750510D01*
X171029534Y-135718487D01*
X171224219Y-135655230D01*
X171406610Y-135562297D01*
X171499590Y-135494742D01*
X171572213Y-135441981D01*
X171572215Y-135441978D01*
X171572219Y-135441976D01*
X171716966Y-135297229D01*
X171716968Y-135297225D01*
X171716971Y-135297223D01*
X171837284Y-135131624D01*
X171837285Y-135131623D01*
X171837287Y-135131620D01*
X171884516Y-135038927D01*
X171932489Y-134988133D01*
X172000310Y-134971338D01*
X172066445Y-134993875D01*
X172105485Y-135038929D01*
X172152715Y-135131624D01*
X172273028Y-135297223D01*
X172417786Y-135441981D01*
X172572749Y-135554566D01*
X172583390Y-135562297D01*
X172699607Y-135621513D01*
X172765776Y-135655228D01*
X172765778Y-135655228D01*
X172765781Y-135655230D01*
X172870137Y-135689137D01*
X172960465Y-135718487D01*
X173061557Y-135734498D01*
X173162648Y-135750510D01*
X173162649Y-135750510D01*
X173367351Y-135750510D01*
X173367352Y-135750510D01*
X173569534Y-135718487D01*
X173764219Y-135655230D01*
X173946610Y-135562297D01*
X174039590Y-135494742D01*
X174112213Y-135441981D01*
X174112215Y-135441978D01*
X174112219Y-135441976D01*
X174256966Y-135297229D01*
X174256968Y-135297225D01*
X174256971Y-135297223D01*
X174309732Y-135224600D01*
X174377287Y-135131620D01*
X174470220Y-134949229D01*
X174533477Y-134754544D01*
X174565500Y-134552362D01*
X174565500Y-133547658D01*
X174542130Y-133400109D01*
X174545422Y-133374629D01*
X174544741Y-133348947D01*
X174549826Y-133340552D01*
X174551084Y-133330818D01*
X174567630Y-133311161D01*
X174580942Y-133289188D01*
X174592108Y-133282084D01*
X174596080Y-133277366D01*
X174610117Y-133269325D01*
X174613573Y-133267634D01*
X174754179Y-133209394D01*
X174813039Y-133170064D01*
X174820514Y-133166408D01*
X174847074Y-133161866D01*
X174872785Y-133153816D01*
X174880992Y-133156067D01*
X174889384Y-133154633D01*
X174914182Y-133165172D01*
X174940165Y-133172300D01*
X174943863Y-133174676D01*
X174995821Y-133209394D01*
X174995823Y-133209395D01*
X174995825Y-133209396D01*
X175059933Y-133235950D01*
X175141503Y-133269737D01*
X175296153Y-133300499D01*
X175296156Y-133300500D01*
X175296158Y-133300500D01*
X175453844Y-133300500D01*
X175453845Y-133300499D01*
X175608497Y-133269737D01*
X175754179Y-133209394D01*
X175806110Y-133174694D01*
X175872785Y-133153816D01*
X175940165Y-133172300D01*
X175943863Y-133174676D01*
X175995821Y-133209394D01*
X175995823Y-133209395D01*
X175995825Y-133209396D01*
X176059933Y-133235950D01*
X176141503Y-133269737D01*
X176296153Y-133300499D01*
X176296156Y-133300500D01*
X176296158Y-133300500D01*
X176453844Y-133300500D01*
X176453845Y-133300499D01*
X176608497Y-133269737D01*
X176754179Y-133209394D01*
X176806110Y-133174694D01*
X176821839Y-133169768D01*
X176835340Y-133160310D01*
X176854492Y-133159544D01*
X176872785Y-133153816D01*
X176889303Y-133158151D01*
X176905154Y-133157518D01*
X176931650Y-133169266D01*
X176937819Y-133170886D01*
X176940897Y-133172695D01*
X176995821Y-133209394D01*
X177021356Y-133219970D01*
X177028775Y-133224330D01*
X177047038Y-133243779D01*
X177067812Y-133260520D01*
X177070586Y-133268857D01*
X177076602Y-133275263D01*
X177081451Y-133301498D01*
X177089877Y-133326814D01*
X177088740Y-133340935D01*
X177089301Y-133343970D01*
X177088298Y-133346419D01*
X177087573Y-133355431D01*
X177074500Y-133421153D01*
X177074500Y-133578846D01*
X177105261Y-133733489D01*
X177105264Y-133733501D01*
X177165602Y-133879172D01*
X177165609Y-133879185D01*
X177253210Y-134010288D01*
X177253213Y-134010292D01*
X177364707Y-134121786D01*
X177364711Y-134121789D01*
X177495814Y-134209390D01*
X177495827Y-134209397D01*
X177641498Y-134269735D01*
X177641503Y-134269737D01*
X177796153Y-134300499D01*
X177796156Y-134300500D01*
X177796158Y-134300500D01*
X177953844Y-134300500D01*
X177953845Y-134300499D01*
X178108497Y-134269737D01*
X178254179Y-134209394D01*
X178385289Y-134121789D01*
X178496789Y-134010289D01*
X178584394Y-133879179D01*
X178644737Y-133733497D01*
X178675500Y-133578842D01*
X178675500Y-133421158D01*
X178675500Y-133421155D01*
X178675499Y-133421153D01*
X178660446Y-133345476D01*
X178644737Y-133266503D01*
X178640573Y-133256450D01*
X178584397Y-133120827D01*
X178584390Y-133120814D01*
X178496789Y-132989711D01*
X178496786Y-132989707D01*
X178385292Y-132878213D01*
X178385288Y-132878210D01*
X178254185Y-132790609D01*
X178254179Y-132790606D01*
X178236589Y-132783320D01*
X178182186Y-132739478D01*
X178160122Y-132673184D01*
X178162425Y-132644571D01*
X178175500Y-132578842D01*
X178175500Y-132421158D01*
X178175500Y-132421155D01*
X178162426Y-132355431D01*
X178168653Y-132285840D01*
X178211515Y-132230662D01*
X178236589Y-132216679D01*
X178254179Y-132209394D01*
X178385289Y-132121789D01*
X178496789Y-132010289D01*
X178584394Y-131879179D01*
X178644737Y-131733497D01*
X178675500Y-131578842D01*
X178675500Y-131578841D01*
X178676364Y-131574498D01*
X178708749Y-131512587D01*
X178769464Y-131478013D01*
X178839234Y-131481752D01*
X178854276Y-131488205D01*
X178985771Y-131555206D01*
X178985776Y-131555207D01*
X178985781Y-131555210D01*
X179121193Y-131599208D01*
X179180465Y-131618467D01*
X179281557Y-131634478D01*
X179382648Y-131650490D01*
X179382649Y-131650490D01*
X179587351Y-131650490D01*
X179587352Y-131650490D01*
X179789534Y-131618467D01*
X179984219Y-131555210D01*
X180166610Y-131462277D01*
X180259590Y-131394722D01*
X180332213Y-131341961D01*
X180332215Y-131341958D01*
X180332219Y-131341956D01*
X180476966Y-131197209D01*
X180476968Y-131197205D01*
X180476971Y-131197203D01*
X180597284Y-131031604D01*
X180597283Y-131031604D01*
X180597287Y-131031600D01*
X180644516Y-130938907D01*
X180692489Y-130888113D01*
X180760310Y-130871318D01*
X180826445Y-130893855D01*
X180865483Y-130938907D01*
X180909348Y-131024996D01*
X180912715Y-131031604D01*
X181033028Y-131197203D01*
X181177786Y-131341961D01*
X181286787Y-131421153D01*
X181343390Y-131462277D01*
X181421553Y-131502103D01*
X181525776Y-131555208D01*
X181525778Y-131555208D01*
X181525781Y-131555210D01*
X181598513Y-131578842D01*
X181720465Y-131618467D01*
X181821557Y-131634478D01*
X181922648Y-131650490D01*
X181922649Y-131650490D01*
X182127351Y-131650490D01*
X182127352Y-131650490D01*
X182329534Y-131618467D01*
X182524219Y-131555210D01*
X182706610Y-131462277D01*
X182799590Y-131394722D01*
X182872213Y-131341961D01*
X182872215Y-131341958D01*
X182872219Y-131341956D01*
X183016966Y-131197209D01*
X183016968Y-131197205D01*
X183016971Y-131197203D01*
X183137284Y-131031604D01*
X183137283Y-131031604D01*
X183137287Y-131031600D01*
X183184516Y-130938907D01*
X183232489Y-130888113D01*
X183300310Y-130871318D01*
X183366445Y-130893855D01*
X183405483Y-130938907D01*
X183449348Y-131024996D01*
X183452715Y-131031604D01*
X183573028Y-131197203D01*
X183717786Y-131341961D01*
X183826787Y-131421153D01*
X183883390Y-131462277D01*
X183961553Y-131502103D01*
X184065776Y-131555208D01*
X184065778Y-131555208D01*
X184065781Y-131555210D01*
X184138513Y-131578842D01*
X184260465Y-131618467D01*
X184361557Y-131634478D01*
X184462648Y-131650490D01*
X184462649Y-131650490D01*
X184667351Y-131650490D01*
X184667352Y-131650490D01*
X184869534Y-131618467D01*
X185064219Y-131555210D01*
X185194705Y-131488723D01*
X185263373Y-131475827D01*
X185328114Y-131502103D01*
X185368372Y-131559209D01*
X185375000Y-131599208D01*
X185375000Y-133993907D01*
X185374403Y-134006061D01*
X185356982Y-134182934D01*
X185352240Y-134206775D01*
X185302424Y-134370998D01*
X185293121Y-134393456D01*
X185212227Y-134544798D01*
X185198722Y-134565010D01*
X185089854Y-134697666D01*
X185072666Y-134714854D01*
X184940010Y-134823722D01*
X184919798Y-134837227D01*
X184768456Y-134918121D01*
X184745998Y-134927424D01*
X184581775Y-134977240D01*
X184557934Y-134981982D01*
X184381061Y-134999403D01*
X184368907Y-135000000D01*
X179875000Y-135000000D01*
X179875000Y-141493907D01*
X179874403Y-141506061D01*
X179856982Y-141682934D01*
X179852240Y-141706775D01*
X179802424Y-141870998D01*
X179793121Y-141893456D01*
X179712227Y-142044798D01*
X179698722Y-142065010D01*
X179589854Y-142197666D01*
X179572666Y-142214854D01*
X179440010Y-142323722D01*
X179419798Y-142337227D01*
X179268456Y-142418121D01*
X179245998Y-142427424D01*
X179081775Y-142477240D01*
X179057934Y-142481982D01*
X178881061Y-142499403D01*
X178868907Y-142500000D01*
X148621208Y-142500000D01*
X148554169Y-142480315D01*
X148508414Y-142427511D01*
X148498470Y-142358353D01*
X148515670Y-142310903D01*
X148559812Y-142239337D01*
X148559813Y-142239335D01*
X148559814Y-142239334D01*
X148614999Y-142072797D01*
X148625500Y-141970008D01*
X148625500Y-140869992D01*
X148614999Y-140767203D01*
X148559814Y-140600666D01*
X148476856Y-140466172D01*
X148467713Y-140451348D01*
X148467710Y-140451344D01*
X148343655Y-140327289D01*
X148343651Y-140327286D01*
X148194337Y-140235187D01*
X148194335Y-140235186D01*
X148089025Y-140200290D01*
X148027797Y-140180001D01*
X148027795Y-140180000D01*
X147925015Y-140169500D01*
X147925008Y-140169500D01*
X146824992Y-140169500D01*
X146824984Y-140169500D01*
X146722204Y-140180000D01*
X146722203Y-140180001D01*
X146555664Y-140235186D01*
X146555662Y-140235187D01*
X146406348Y-140327286D01*
X146406344Y-140327289D01*
X146282289Y-140451344D01*
X146282286Y-140451348D01*
X146190187Y-140600662D01*
X146190186Y-140600664D01*
X146135001Y-140767203D01*
X146135000Y-140767204D01*
X146124500Y-140869984D01*
X146124500Y-141970015D01*
X146135000Y-142072795D01*
X146135001Y-142072797D01*
X146162593Y-142156065D01*
X146190186Y-142239335D01*
X146190187Y-142239337D01*
X146234330Y-142310903D01*
X146252771Y-142378295D01*
X146231849Y-142444959D01*
X146178207Y-142489728D01*
X146128792Y-142500000D01*
X145362836Y-142500000D01*
X145295797Y-142480315D01*
X145250042Y-142427511D01*
X145240098Y-142358353D01*
X145269123Y-142294797D01*
X145275155Y-142288319D01*
X145328828Y-142234646D01*
X145444524Y-142075405D01*
X145533884Y-141900025D01*
X145594709Y-141712826D01*
X145599443Y-141682934D01*
X145625500Y-141518422D01*
X145625500Y-141321577D01*
X145594709Y-141127173D01*
X145559800Y-141019737D01*
X145533884Y-140939975D01*
X145533882Y-140939972D01*
X145533882Y-140939970D01*
X145445853Y-140767204D01*
X145444524Y-140764595D01*
X145328828Y-140605354D01*
X145189646Y-140466172D01*
X145030405Y-140350476D01*
X144984892Y-140327286D01*
X144855029Y-140261117D01*
X144667826Y-140200290D01*
X144473422Y-140169500D01*
X144473417Y-140169500D01*
X144276583Y-140169500D01*
X144276578Y-140169500D01*
X144082173Y-140200290D01*
X143894970Y-140261117D01*
X143719594Y-140350476D01*
X143628741Y-140416485D01*
X143560354Y-140466172D01*
X143560352Y-140466174D01*
X143560351Y-140466174D01*
X143421174Y-140605351D01*
X143421174Y-140605352D01*
X143421172Y-140605354D01*
X143403862Y-140629179D01*
X143305476Y-140764594D01*
X143216117Y-140939970D01*
X143155290Y-141127173D01*
X143124500Y-141321577D01*
X143124500Y-141518422D01*
X143155290Y-141712826D01*
X143216117Y-141900029D01*
X143304146Y-142072795D01*
X143305476Y-142075405D01*
X143421172Y-142234646D01*
X143560354Y-142373828D01*
X143719595Y-142489524D01*
X143802455Y-142531743D01*
X143894970Y-142578882D01*
X143894972Y-142578882D01*
X143894975Y-142578884D01*
X143974779Y-142604814D01*
X144082173Y-142639709D01*
X144270398Y-142669521D01*
X144333533Y-142699450D01*
X144370464Y-142758762D01*
X144375000Y-142791994D01*
X144375000Y-145792682D01*
X144355315Y-145859721D01*
X144302511Y-145905476D01*
X144233353Y-145915420D01*
X144169797Y-145886395D01*
X144140516Y-145848978D01*
X144117286Y-145803388D01*
X143996971Y-145637786D01*
X143852213Y-145493028D01*
X143686613Y-145372715D01*
X143686612Y-145372714D01*
X143686610Y-145372713D01*
X143629653Y-145343691D01*
X143504223Y-145279781D01*
X143309534Y-145216522D01*
X143134995Y-145188878D01*
X143107352Y-145184500D01*
X142902648Y-145184500D01*
X142878329Y-145188351D01*
X142700465Y-145216522D01*
X142505776Y-145279781D01*
X142323386Y-145372715D01*
X142157786Y-145493028D01*
X142013028Y-145637786D01*
X141892715Y-145803386D01*
X141799781Y-145985776D01*
X141736522Y-146180465D01*
X141704500Y-146382648D01*
X141704500Y-146587351D01*
X141736522Y-146789534D01*
X141799781Y-146984223D01*
X141863691Y-147109653D01*
X141889036Y-147159394D01*
X141892715Y-147166613D01*
X142013028Y-147332213D01*
X142157786Y-147476971D01*
X142312749Y-147589556D01*
X142323390Y-147597287D01*
X142439607Y-147656503D01*
X142505776Y-147690218D01*
X142505778Y-147690218D01*
X142505781Y-147690220D01*
X142610137Y-147724127D01*
X142700465Y-147753477D01*
X142801557Y-147769488D01*
X142902648Y-147785500D01*
X142902649Y-147785500D01*
X143107351Y-147785500D01*
X143107352Y-147785500D01*
X143309534Y-147753477D01*
X143504219Y-147690220D01*
X143686610Y-147597287D01*
X143779590Y-147529732D01*
X143852213Y-147476971D01*
X143852215Y-147476968D01*
X143852219Y-147476966D01*
X143996966Y-147332219D01*
X143996968Y-147332215D01*
X143996971Y-147332213D01*
X144117284Y-147166614D01*
X144117285Y-147166613D01*
X144117287Y-147166610D01*
X144140515Y-147121021D01*
X144188489Y-147070226D01*
X144256310Y-147053431D01*
X144322445Y-147075968D01*
X144365897Y-147130683D01*
X144375000Y-147177317D01*
X144375000Y-148993907D01*
X144374403Y-149006061D01*
X144356982Y-149182934D01*
X144352240Y-149206775D01*
X144302424Y-149370998D01*
X144293121Y-149393456D01*
X144212227Y-149544798D01*
X144198722Y-149565010D01*
X144089854Y-149697666D01*
X144072666Y-149714854D01*
X143940010Y-149823722D01*
X143919798Y-149837227D01*
X143768456Y-149918121D01*
X143745998Y-149927424D01*
X143581775Y-149977240D01*
X143557934Y-149981982D01*
X143381061Y-149999403D01*
X143368907Y-150000000D01*
X140726609Y-150000000D01*
X140659570Y-149980315D01*
X140613815Y-149927511D01*
X140603871Y-149858353D01*
X140604992Y-149851809D01*
X140620499Y-149773846D01*
X140620500Y-149773844D01*
X140620500Y-149616155D01*
X140620499Y-149616153D01*
X140610326Y-149565010D01*
X140589737Y-149461503D01*
X140584765Y-149449500D01*
X140529397Y-149315827D01*
X140529390Y-149315814D01*
X140441789Y-149184711D01*
X140441786Y-149184707D01*
X140330292Y-149073213D01*
X140330288Y-149073210D01*
X140199185Y-148985609D01*
X140199172Y-148985602D01*
X140053501Y-148925264D01*
X140053489Y-148925261D01*
X139898845Y-148894500D01*
X139898842Y-148894500D01*
X139741158Y-148894500D01*
X139741155Y-148894500D01*
X139586510Y-148925261D01*
X139586498Y-148925264D01*
X139440827Y-148985602D01*
X139440814Y-148985609D01*
X139309711Y-149073210D01*
X139309707Y-149073213D01*
X139198213Y-149184707D01*
X139198210Y-149184711D01*
X139110609Y-149315814D01*
X139110602Y-149315827D01*
X139050264Y-149461498D01*
X139050261Y-149461510D01*
X139019500Y-149616153D01*
X139019500Y-149773846D01*
X139035008Y-149851809D01*
X139028781Y-149921400D01*
X138985918Y-149976578D01*
X138920028Y-149999822D01*
X138913391Y-150000000D01*
X136874500Y-150000000D01*
X136807461Y-149980315D01*
X136761706Y-149927511D01*
X136750500Y-149876000D01*
X136750500Y-141321577D01*
X140124500Y-141321577D01*
X140124500Y-141518422D01*
X140155290Y-141712826D01*
X140216117Y-141900029D01*
X140304146Y-142072795D01*
X140305476Y-142075405D01*
X140421172Y-142234646D01*
X140560354Y-142373828D01*
X140719595Y-142489524D01*
X140802455Y-142531743D01*
X140894970Y-142578882D01*
X140894972Y-142578882D01*
X140894975Y-142578884D01*
X140974779Y-142604814D01*
X141082173Y-142639709D01*
X141276578Y-142670500D01*
X141276583Y-142670500D01*
X141473422Y-142670500D01*
X141667826Y-142639709D01*
X141855025Y-142578884D01*
X142030405Y-142489524D01*
X142189646Y-142373828D01*
X142328828Y-142234646D01*
X142444524Y-142075405D01*
X142533884Y-141900025D01*
X142594709Y-141712826D01*
X142599443Y-141682934D01*
X142625500Y-141518422D01*
X142625500Y-141321577D01*
X142594709Y-141127173D01*
X142559800Y-141019737D01*
X142533884Y-140939975D01*
X142533882Y-140939972D01*
X142533882Y-140939970D01*
X142445853Y-140767204D01*
X142444524Y-140764595D01*
X142328828Y-140605354D01*
X142189646Y-140466172D01*
X142030405Y-140350476D01*
X141984892Y-140327286D01*
X141855029Y-140261117D01*
X141667826Y-140200290D01*
X141473422Y-140169500D01*
X141473417Y-140169500D01*
X141276583Y-140169500D01*
X141276578Y-140169500D01*
X141082173Y-140200290D01*
X140894970Y-140261117D01*
X140719594Y-140350476D01*
X140628741Y-140416485D01*
X140560354Y-140466172D01*
X140560352Y-140466174D01*
X140560351Y-140466174D01*
X140421174Y-140605351D01*
X140421174Y-140605352D01*
X140421172Y-140605354D01*
X140403862Y-140629179D01*
X140305476Y-140764594D01*
X140216117Y-140939970D01*
X140155290Y-141127173D01*
X140124500Y-141321577D01*
X136750500Y-141321577D01*
X136750500Y-138321577D01*
X140124500Y-138321577D01*
X140124500Y-138518422D01*
X140155290Y-138712826D01*
X140216117Y-138900029D01*
X140305476Y-139075405D01*
X140421172Y-139234646D01*
X140560354Y-139373828D01*
X140719595Y-139489524D01*
X140802455Y-139531743D01*
X140894970Y-139578882D01*
X140894972Y-139578882D01*
X140894975Y-139578884D01*
X140995317Y-139611487D01*
X141082173Y-139639709D01*
X141276578Y-139670500D01*
X141276583Y-139670500D01*
X141473422Y-139670500D01*
X141667826Y-139639709D01*
X141703213Y-139628211D01*
X141855025Y-139578884D01*
X142030405Y-139489524D01*
X142189646Y-139373828D01*
X142328828Y-139234646D01*
X142444524Y-139075405D01*
X142533884Y-138900025D01*
X142594709Y-138712826D01*
X142625500Y-138518422D01*
X142625500Y-138321577D01*
X142594709Y-138127173D01*
X142533882Y-137939970D01*
X142444523Y-137764594D01*
X142398916Y-137701822D01*
X142328828Y-137605354D01*
X142189646Y-137466172D01*
X142105577Y-137405092D01*
X149614500Y-137405092D01*
X149614500Y-137554907D01*
X149643723Y-137701822D01*
X149643725Y-137701830D01*
X149701051Y-137840229D01*
X149701056Y-137840238D01*
X149784280Y-137964790D01*
X149784283Y-137964794D01*
X149890205Y-138070716D01*
X149890209Y-138070719D01*
X150014761Y-138153943D01*
X150014767Y-138153946D01*
X150014768Y-138153947D01*
X150153170Y-138211275D01*
X150300092Y-138240499D01*
X150300096Y-138240500D01*
X150300097Y-138240500D01*
X150449904Y-138240500D01*
X150449905Y-138240499D01*
X150596830Y-138211275D01*
X150735232Y-138153947D01*
X150859791Y-138070719D01*
X150965719Y-137964791D01*
X151048947Y-137840232D01*
X151106275Y-137701830D01*
X151135500Y-137554903D01*
X151135500Y-137405097D01*
X151106275Y-137258170D01*
X151048947Y-137119768D01*
X151048946Y-137119767D01*
X151048943Y-137119761D01*
X150965719Y-136995209D01*
X150965716Y-136995205D01*
X150859794Y-136889283D01*
X150859790Y-136889280D01*
X150735238Y-136806056D01*
X150735229Y-136806051D01*
X150596830Y-136748725D01*
X150596822Y-136748723D01*
X150449907Y-136719500D01*
X150449903Y-136719500D01*
X150300097Y-136719500D01*
X150300092Y-136719500D01*
X150153177Y-136748723D01*
X150153169Y-136748725D01*
X150014770Y-136806051D01*
X150014761Y-136806056D01*
X149890209Y-136889280D01*
X149890205Y-136889283D01*
X149784283Y-136995205D01*
X149784280Y-136995209D01*
X149701056Y-137119761D01*
X149701051Y-137119770D01*
X149643725Y-137258169D01*
X149643723Y-137258177D01*
X149614500Y-137405092D01*
X142105577Y-137405092D01*
X142030405Y-137350476D01*
X141855029Y-137261117D01*
X141667826Y-137200290D01*
X141473422Y-137169500D01*
X141473417Y-137169500D01*
X141276583Y-137169500D01*
X141276578Y-137169500D01*
X141082173Y-137200290D01*
X140894970Y-137261117D01*
X140719594Y-137350476D01*
X140644423Y-137405092D01*
X140560354Y-137466172D01*
X140560352Y-137466174D01*
X140560351Y-137466174D01*
X140421174Y-137605351D01*
X140421174Y-137605352D01*
X140421172Y-137605354D01*
X140371485Y-137673741D01*
X140305476Y-137764594D01*
X140216117Y-137939970D01*
X140155290Y-138127173D01*
X140124500Y-138321577D01*
X136750500Y-138321577D01*
X136750500Y-137405092D01*
X137614500Y-137405092D01*
X137614500Y-137554907D01*
X137643723Y-137701822D01*
X137643725Y-137701830D01*
X137701051Y-137840229D01*
X137701056Y-137840238D01*
X137784280Y-137964790D01*
X137784283Y-137964794D01*
X137890205Y-138070716D01*
X137890209Y-138070719D01*
X138014761Y-138153943D01*
X138014767Y-138153946D01*
X138014768Y-138153947D01*
X138153170Y-138211275D01*
X138300092Y-138240499D01*
X138300096Y-138240500D01*
X138300097Y-138240500D01*
X138449904Y-138240500D01*
X138449905Y-138240499D01*
X138596830Y-138211275D01*
X138735232Y-138153947D01*
X138859791Y-138070719D01*
X138965719Y-137964791D01*
X139048947Y-137840232D01*
X139106275Y-137701830D01*
X139135500Y-137554903D01*
X139135500Y-137405097D01*
X139106275Y-137258170D01*
X139048947Y-137119768D01*
X139048946Y-137119767D01*
X139048943Y-137119761D01*
X138965719Y-136995209D01*
X138965716Y-136995205D01*
X138859794Y-136889283D01*
X138859790Y-136889280D01*
X138735238Y-136806056D01*
X138735229Y-136806051D01*
X138596830Y-136748725D01*
X138596822Y-136748723D01*
X138449907Y-136719500D01*
X138449903Y-136719500D01*
X138300097Y-136719500D01*
X138300092Y-136719500D01*
X138153177Y-136748723D01*
X138153169Y-136748725D01*
X138014770Y-136806051D01*
X138014761Y-136806056D01*
X137890209Y-136889280D01*
X137890205Y-136889283D01*
X137784283Y-136995205D01*
X137784280Y-136995209D01*
X137701056Y-137119761D01*
X137701051Y-137119770D01*
X137643725Y-137258169D01*
X137643723Y-137258177D01*
X137614500Y-137405092D01*
X136750500Y-137405092D01*
X136750500Y-133302989D01*
X136770185Y-133235950D01*
X136822989Y-133190195D01*
X136892147Y-133180251D01*
X136954204Y-133207999D01*
X137027782Y-133269738D01*
X137111585Y-133340058D01*
X137479984Y-133598014D01*
X137479991Y-133598018D01*
X137480002Y-133598026D01*
X137845035Y-133808778D01*
X137869491Y-133822898D01*
X137869506Y-133822906D01*
X137990169Y-133879172D01*
X138277111Y-134012975D01*
X138699739Y-134166799D01*
X138699745Y-134166800D01*
X138699749Y-134166802D01*
X138818052Y-134198500D01*
X139134166Y-134283203D01*
X139577084Y-134361302D01*
X140025122Y-134400499D01*
X140025123Y-134400500D01*
X140025124Y-134400500D01*
X140474877Y-134400500D01*
X140474877Y-134400499D01*
X140922916Y-134361302D01*
X141365834Y-134283203D01*
X141800261Y-134166799D01*
X142222889Y-134012975D01*
X142630502Y-133822902D01*
X143019998Y-133598026D01*
X143091931Y-133547658D01*
X154184500Y-133547658D01*
X154184500Y-134552361D01*
X154216522Y-134754544D01*
X154279781Y-134949233D01*
X154372715Y-135131623D01*
X154493028Y-135297223D01*
X154637786Y-135441981D01*
X154792749Y-135554566D01*
X154803390Y-135562297D01*
X154919607Y-135621513D01*
X154985776Y-135655228D01*
X154985778Y-135655228D01*
X154985781Y-135655230D01*
X155090137Y-135689137D01*
X155180465Y-135718487D01*
X155281557Y-135734498D01*
X155382648Y-135750510D01*
X155382649Y-135750510D01*
X155587351Y-135750510D01*
X155587352Y-135750510D01*
X155789534Y-135718487D01*
X155984219Y-135655230D01*
X156166610Y-135562297D01*
X156259590Y-135494742D01*
X156332213Y-135441981D01*
X156332215Y-135441978D01*
X156332219Y-135441976D01*
X156476966Y-135297229D01*
X156476968Y-135297225D01*
X156476971Y-135297223D01*
X156597284Y-135131624D01*
X156597285Y-135131623D01*
X156597287Y-135131620D01*
X156644516Y-135038927D01*
X156692489Y-134988133D01*
X156760310Y-134971338D01*
X156826445Y-134993875D01*
X156865485Y-135038929D01*
X156912715Y-135131624D01*
X157033028Y-135297223D01*
X157177786Y-135441981D01*
X157332749Y-135554566D01*
X157343390Y-135562297D01*
X157459607Y-135621513D01*
X157525776Y-135655228D01*
X157525778Y-135655228D01*
X157525781Y-135655230D01*
X157630137Y-135689137D01*
X157720465Y-135718487D01*
X157821557Y-135734498D01*
X157922648Y-135750510D01*
X157922649Y-135750510D01*
X158127351Y-135750510D01*
X158127352Y-135750510D01*
X158329534Y-135718487D01*
X158524219Y-135655230D01*
X158706610Y-135562297D01*
X158799590Y-135494742D01*
X158872213Y-135441981D01*
X158872215Y-135441978D01*
X158872219Y-135441976D01*
X159016966Y-135297229D01*
X159016968Y-135297225D01*
X159016971Y-135297223D01*
X159137284Y-135131624D01*
X159137285Y-135131623D01*
X159137287Y-135131620D01*
X159184516Y-135038927D01*
X159232489Y-134988133D01*
X159300310Y-134971338D01*
X159366445Y-134993875D01*
X159405485Y-135038929D01*
X159452715Y-135131624D01*
X159573028Y-135297223D01*
X159717786Y-135441981D01*
X159872749Y-135554566D01*
X159883390Y-135562297D01*
X159999607Y-135621513D01*
X160065776Y-135655228D01*
X160065778Y-135655228D01*
X160065781Y-135655230D01*
X160170137Y-135689137D01*
X160260465Y-135718487D01*
X160361557Y-135734498D01*
X160462648Y-135750510D01*
X160462649Y-135750510D01*
X160667351Y-135750510D01*
X160667352Y-135750510D01*
X160869534Y-135718487D01*
X161064219Y-135655230D01*
X161246610Y-135562297D01*
X161339590Y-135494742D01*
X161412213Y-135441981D01*
X161412215Y-135441978D01*
X161412219Y-135441976D01*
X161556966Y-135297229D01*
X161556968Y-135297225D01*
X161556971Y-135297223D01*
X161677284Y-135131624D01*
X161677285Y-135131623D01*
X161677287Y-135131620D01*
X161724516Y-135038927D01*
X161772489Y-134988133D01*
X161840310Y-134971338D01*
X161906445Y-134993875D01*
X161945485Y-135038929D01*
X161992715Y-135131624D01*
X162113028Y-135297223D01*
X162257786Y-135441981D01*
X162412749Y-135554566D01*
X162423390Y-135562297D01*
X162539607Y-135621513D01*
X162605776Y-135655228D01*
X162605778Y-135655228D01*
X162605781Y-135655230D01*
X162710137Y-135689137D01*
X162800465Y-135718487D01*
X162901557Y-135734498D01*
X163002648Y-135750510D01*
X163002649Y-135750510D01*
X163207351Y-135750510D01*
X163207352Y-135750510D01*
X163409534Y-135718487D01*
X163604219Y-135655230D01*
X163786610Y-135562297D01*
X163879590Y-135494742D01*
X163952213Y-135441981D01*
X163952215Y-135441978D01*
X163952219Y-135441976D01*
X164096966Y-135297229D01*
X164096968Y-135297225D01*
X164096971Y-135297223D01*
X164149732Y-135224600D01*
X164217287Y-135131620D01*
X164310220Y-134949229D01*
X164373477Y-134754544D01*
X164405500Y-134552362D01*
X164405500Y-133547658D01*
X164385463Y-133421153D01*
X164373477Y-133345475D01*
X164317987Y-133174695D01*
X164310220Y-133150791D01*
X164310218Y-133150788D01*
X164310218Y-133150786D01*
X164259356Y-133050965D01*
X164217287Y-132968400D01*
X164209556Y-132957759D01*
X164096971Y-132802796D01*
X163952213Y-132658038D01*
X163786613Y-132537725D01*
X163786612Y-132537724D01*
X163786610Y-132537723D01*
X163729653Y-132508701D01*
X163604223Y-132444791D01*
X163409534Y-132381532D01*
X163234995Y-132353888D01*
X163207352Y-132349510D01*
X163002648Y-132349510D01*
X162978329Y-132353361D01*
X162800465Y-132381532D01*
X162605776Y-132444791D01*
X162423386Y-132537725D01*
X162257786Y-132658038D01*
X162113028Y-132802796D01*
X161992715Y-132968396D01*
X161945485Y-133061090D01*
X161897510Y-133111886D01*
X161829689Y-133128681D01*
X161763554Y-133106144D01*
X161724515Y-133061090D01*
X161719356Y-133050965D01*
X161677287Y-132968400D01*
X161669556Y-132957759D01*
X161556971Y-132802796D01*
X161412213Y-132658038D01*
X161246613Y-132537725D01*
X161246612Y-132537724D01*
X161246610Y-132537723D01*
X161189653Y-132508701D01*
X161064223Y-132444791D01*
X160869534Y-132381532D01*
X160694995Y-132353888D01*
X160667352Y-132349510D01*
X160462648Y-132349510D01*
X160438329Y-132353361D01*
X160260465Y-132381532D01*
X160065776Y-132444791D01*
X159883386Y-132537725D01*
X159717786Y-132658038D01*
X159573028Y-132802796D01*
X159452715Y-132968396D01*
X159405485Y-133061090D01*
X159357510Y-133111886D01*
X159289689Y-133128681D01*
X159223554Y-133106144D01*
X159184515Y-133061090D01*
X159179356Y-133050965D01*
X159137287Y-132968400D01*
X159129556Y-132957759D01*
X159016971Y-132802796D01*
X158872213Y-132658038D01*
X158706613Y-132537725D01*
X158706612Y-132537724D01*
X158706610Y-132537723D01*
X158649653Y-132508701D01*
X158524223Y-132444791D01*
X158329534Y-132381532D01*
X158154995Y-132353888D01*
X158127352Y-132349510D01*
X157922648Y-132349510D01*
X157898329Y-132353361D01*
X157720465Y-132381532D01*
X157525776Y-132444791D01*
X157343386Y-132537725D01*
X157177786Y-132658038D01*
X157033028Y-132802796D01*
X156912715Y-132968396D01*
X156865485Y-133061090D01*
X156817510Y-133111886D01*
X156749689Y-133128681D01*
X156683554Y-133106144D01*
X156644515Y-133061090D01*
X156639356Y-133050965D01*
X156597287Y-132968400D01*
X156589556Y-132957759D01*
X156476971Y-132802796D01*
X156332213Y-132658038D01*
X156166613Y-132537725D01*
X156166612Y-132537724D01*
X156166610Y-132537723D01*
X156109653Y-132508701D01*
X155984223Y-132444791D01*
X155789534Y-132381532D01*
X155614995Y-132353888D01*
X155587352Y-132349510D01*
X155382648Y-132349510D01*
X155358329Y-132353361D01*
X155180465Y-132381532D01*
X154985776Y-132444791D01*
X154803386Y-132537725D01*
X154637786Y-132658038D01*
X154493028Y-132802796D01*
X154372715Y-132968396D01*
X154279781Y-133150786D01*
X154216522Y-133345475D01*
X154184500Y-133547658D01*
X143091931Y-133547658D01*
X143388413Y-133340059D01*
X143732942Y-133050965D01*
X144050965Y-132732942D01*
X144340059Y-132388413D01*
X144598026Y-132019998D01*
X144822902Y-131630502D01*
X145012975Y-131222889D01*
X145166799Y-130800261D01*
X145283203Y-130365834D01*
X145361302Y-129922916D01*
X145400500Y-129474876D01*
X145400500Y-129025124D01*
X145361302Y-128577084D01*
X145283203Y-128134166D01*
X145166799Y-127699739D01*
X145012975Y-127277111D01*
X144822902Y-126869498D01*
X144598026Y-126480002D01*
X144416406Y-126220622D01*
X144394080Y-126154417D01*
X144411090Y-126086650D01*
X144462038Y-126038837D01*
X144517982Y-126025500D01*
X185251000Y-126025500D01*
X185318039Y-126045185D01*
G37*
%TD.AperFunction*%
%TD*%
%TA.AperFunction,Conductor*%
%TO.N,VDC_IN*%
G36*
X152871917Y-154000147D02*
G01*
X152878047Y-154000448D01*
X152884058Y-154000892D01*
X153051886Y-154017421D01*
X153063910Y-154019205D01*
X153075792Y-154021568D01*
X153087584Y-154024521D01*
X153240181Y-154070810D01*
X153251629Y-154074907D01*
X153262833Y-154079548D01*
X153273818Y-154084744D01*
X153315255Y-154106893D01*
X153414421Y-154159898D01*
X153424857Y-154166153D01*
X153434946Y-154172894D01*
X153444722Y-154180144D01*
X153567959Y-154281282D01*
X153576975Y-154289454D01*
X153585544Y-154298023D01*
X153593716Y-154307039D01*
X153694854Y-154430276D01*
X153702100Y-154440045D01*
X153708847Y-154450142D01*
X153715101Y-154460577D01*
X153790249Y-154601170D01*
X153795451Y-154612168D01*
X153800090Y-154623367D01*
X153804191Y-154634827D01*
X153850471Y-154787393D01*
X153853428Y-154799199D01*
X153855794Y-154811095D01*
X153857579Y-154823129D01*
X153874104Y-154990903D01*
X153874551Y-154996970D01*
X153874850Y-155003053D01*
X153875000Y-155009141D01*
X153875000Y-164700000D01*
X180233652Y-164700000D01*
X180268587Y-164705023D01*
X180283585Y-164709427D01*
X180342350Y-164747188D01*
X180342361Y-164747200D01*
X180342363Y-164747202D01*
X180342363Y-164747204D01*
X180343677Y-164748719D01*
X180371054Y-164803177D01*
X180372940Y-164811711D01*
X180375692Y-164831978D01*
X180382809Y-164967772D01*
X180383734Y-164985403D01*
X180383734Y-164985411D01*
X180400155Y-165141652D01*
X180400156Y-165141660D01*
X180424721Y-165296761D01*
X180424732Y-165296821D01*
X180457382Y-165450431D01*
X180498283Y-165603077D01*
X180498929Y-165604908D01*
X180546590Y-165751593D01*
X180546596Y-165751608D01*
X180548029Y-165755341D01*
X180548030Y-165755344D01*
X180602904Y-165898293D01*
X180655343Y-166016070D01*
X180655349Y-166016082D01*
X180656451Y-166018557D01*
X180666780Y-166041755D01*
X180666787Y-166041770D01*
X180666796Y-166041788D01*
X180730627Y-166167063D01*
X180738096Y-166181722D01*
X180816641Y-166317765D01*
X180902197Y-166449511D01*
X180902205Y-166449522D01*
X180902211Y-166449531D01*
X180960985Y-166530426D01*
X180960990Y-166530432D01*
X180994526Y-166576592D01*
X180997708Y-166580521D01*
X181087756Y-166691720D01*
X181093391Y-166698679D01*
X181198503Y-166815418D01*
X181309582Y-166926497D01*
X181309590Y-166926504D01*
X181309595Y-166926509D01*
X181426322Y-167031610D01*
X181427489Y-167032570D01*
X181427977Y-167032949D01*
X181548400Y-167130467D01*
X181548410Y-167130474D01*
X181675489Y-167222803D01*
X181807235Y-167308359D01*
X181943278Y-167386904D01*
X182033405Y-167432825D01*
X182083125Y-167458159D01*
X182083226Y-167458211D01*
X182083237Y-167458216D01*
X182083245Y-167458220D01*
X182083759Y-167458449D01*
X182083905Y-167458514D01*
X182083906Y-167458515D01*
X182145662Y-167486011D01*
X182145668Y-167486013D01*
X182145671Y-167486014D01*
X182226719Y-167522100D01*
X182226724Y-167522102D01*
X182226742Y-167522110D01*
X182226749Y-167522112D01*
X182226752Y-167522114D01*
X182373407Y-167578410D01*
X182522807Y-167626953D01*
X182525891Y-167627955D01*
X182525892Y-167627955D01*
X182525893Y-167627956D01*
X182525899Y-167627958D01*
X182529079Y-167628633D01*
X182595145Y-167646335D01*
X182674543Y-167667610D01*
X182674546Y-167667610D01*
X182674555Y-167667613D01*
X182674572Y-167667616D01*
X182676571Y-167668152D01*
X182679301Y-167668621D01*
X182828173Y-167700266D01*
X182828186Y-167700268D01*
X182828199Y-167700271D01*
X182956727Y-167720628D01*
X182980883Y-167724454D01*
X182981440Y-167724554D01*
X182982893Y-167724775D01*
X182983661Y-167724894D01*
X182984924Y-167725010D01*
X183139581Y-167741265D01*
X183296455Y-167749487D01*
X183374999Y-167750001D01*
X188375000Y-167750000D01*
X188375052Y-167750000D01*
X188424208Y-167749677D01*
X188453544Y-167749486D01*
X188610418Y-167741264D01*
X188766646Y-167724844D01*
X188921800Y-167700270D01*
X188991841Y-167685382D01*
X189074105Y-167667897D01*
X189076906Y-167667336D01*
X189076962Y-167667325D01*
X189079892Y-167666421D01*
X189227192Y-167626952D01*
X189376592Y-167578409D01*
X189523247Y-167522113D01*
X189666755Y-167458220D01*
X189806722Y-167386903D01*
X189942764Y-167308359D01*
X190074510Y-167222802D01*
X190201597Y-167130468D01*
X190323678Y-167031609D01*
X190440418Y-166926496D01*
X190551496Y-166815418D01*
X190656609Y-166698678D01*
X190755468Y-166576597D01*
X190847802Y-166449510D01*
X190933359Y-166317764D01*
X191011903Y-166181722D01*
X191083220Y-166041755D01*
X191147113Y-165898247D01*
X191203409Y-165751592D01*
X191251952Y-165602192D01*
X191292610Y-165450456D01*
X191292616Y-165450431D01*
X191317187Y-165334827D01*
X191325270Y-165296800D01*
X191349844Y-165141646D01*
X191366264Y-164985418D01*
X191366435Y-164982166D01*
X191369723Y-164919425D01*
X191374036Y-164837118D01*
X191379118Y-164807906D01*
X191384156Y-164791151D01*
X191422308Y-164732623D01*
X191423868Y-164731288D01*
X191478478Y-164704292D01*
X191485684Y-164702749D01*
X191511647Y-164700000D01*
X202876460Y-164700000D01*
X202906315Y-164704292D01*
X202911392Y-164705021D01*
X202924711Y-164708932D01*
X202983489Y-164746706D01*
X203012515Y-164810261D01*
X203012516Y-164810274D01*
X203013431Y-164816642D01*
X203007734Y-164875230D01*
X202992270Y-164919425D01*
X202992246Y-164919496D01*
X202917387Y-165247474D01*
X202917382Y-165247502D01*
X202917381Y-165247512D01*
X202879720Y-165581775D01*
X202879720Y-165918223D01*
X202917381Y-166252486D01*
X202917382Y-166252496D01*
X202917387Y-166252522D01*
X202992247Y-166580506D01*
X202992248Y-166580509D01*
X202992251Y-166580521D01*
X202992258Y-166580542D01*
X203103359Y-166898046D01*
X203103365Y-166898060D01*
X203215287Y-167130467D01*
X203249328Y-167201154D01*
X203262937Y-167222812D01*
X203428317Y-167486014D01*
X203502000Y-167578409D01*
X203631873Y-167741265D01*
X203638074Y-167749040D01*
X203875960Y-167986926D01*
X204138986Y-168196683D01*
X204423843Y-168375670D01*
X204726950Y-168521639D01*
X204965435Y-168605088D01*
X205044481Y-168632748D01*
X205044493Y-168632752D01*
X205278943Y-168686263D01*
X205371314Y-168707347D01*
X205371313Y-168707347D01*
X205372472Y-168707611D01*
X205372481Y-168707613D01*
X205372487Y-168707613D01*
X205372495Y-168707615D01*
X205595353Y-168732724D01*
X205703786Y-168744941D01*
X205706250Y-168745280D01*
X206043214Y-168745280D01*
X206053008Y-168745280D01*
X206060606Y-168743319D01*
X206214063Y-168726029D01*
X206376798Y-168707694D01*
X206377439Y-168707626D01*
X206377514Y-168707613D01*
X206377519Y-168707613D01*
X206705507Y-168632752D01*
X207023050Y-168521639D01*
X207326157Y-168375670D01*
X207611014Y-168196683D01*
X207874040Y-167986926D01*
X208111926Y-167749040D01*
X208321683Y-167486014D01*
X208500670Y-167201157D01*
X208646639Y-166898050D01*
X208757752Y-166580507D01*
X208832613Y-166252519D01*
X208842242Y-166167063D01*
X208856360Y-166041755D01*
X208870280Y-165918211D01*
X208870280Y-165581789D01*
X208839268Y-165306543D01*
X208832615Y-165247495D01*
X208832612Y-165247477D01*
X208772795Y-164985403D01*
X208757752Y-164919493D01*
X208757748Y-164919481D01*
X208743148Y-164877757D01*
X208742016Y-164873628D01*
X208742094Y-164869235D01*
X208737760Y-164847153D01*
X208737248Y-164837122D01*
X208737052Y-164833288D01*
X208743197Y-164807573D01*
X208743266Y-164803770D01*
X208744575Y-164801811D01*
X208753292Y-164765335D01*
X208803689Y-164716949D01*
X208809425Y-164713967D01*
X208866599Y-164700000D01*
X214415857Y-164700000D01*
X214421917Y-164700147D01*
X214428047Y-164700448D01*
X214434058Y-164700892D01*
X214601886Y-164717421D01*
X214613910Y-164719205D01*
X214625792Y-164721568D01*
X214637584Y-164724521D01*
X214790181Y-164770810D01*
X214801629Y-164774907D01*
X214812833Y-164779548D01*
X214823818Y-164784744D01*
X214905771Y-164828549D01*
X214964421Y-164859898D01*
X214974857Y-164866153D01*
X214984946Y-164872894D01*
X214994721Y-164880143D01*
X215042672Y-164919496D01*
X215117959Y-164981282D01*
X215126975Y-164989454D01*
X215135544Y-164998023D01*
X215143716Y-165007039D01*
X215244854Y-165130276D01*
X215252100Y-165140045D01*
X215258847Y-165150142D01*
X215265101Y-165160577D01*
X215340249Y-165301170D01*
X215345451Y-165312168D01*
X215350090Y-165323367D01*
X215354191Y-165334827D01*
X215400471Y-165487393D01*
X215403428Y-165499199D01*
X215405794Y-165511095D01*
X215407579Y-165523129D01*
X215424104Y-165690903D01*
X215424551Y-165696970D01*
X215424850Y-165703053D01*
X215425000Y-165709141D01*
X215425000Y-171400000D01*
X221825000Y-177800000D01*
X234215857Y-177800000D01*
X234221917Y-177800147D01*
X234228047Y-177800448D01*
X234234058Y-177800892D01*
X234401886Y-177817421D01*
X234413910Y-177819205D01*
X234425792Y-177821568D01*
X234437584Y-177824521D01*
X234590173Y-177870808D01*
X234601623Y-177874904D01*
X234612831Y-177879547D01*
X234623823Y-177884747D01*
X234668232Y-177908484D01*
X234696673Y-177929381D01*
X234709315Y-177941799D01*
X234742429Y-177999049D01*
X234745508Y-178010891D01*
X234749500Y-178042099D01*
X234749500Y-221247393D01*
X234749350Y-221253482D01*
X234749051Y-221259564D01*
X234748604Y-221265630D01*
X234737591Y-221377438D01*
X234735805Y-221389477D01*
X234733442Y-221401355D01*
X234730486Y-221413156D01*
X234698421Y-221518861D01*
X234694324Y-221530313D01*
X234689683Y-221541519D01*
X234684477Y-221552526D01*
X234632407Y-221649940D01*
X234626151Y-221660377D01*
X234619417Y-221670455D01*
X234612169Y-221680228D01*
X234542092Y-221765619D01*
X234533919Y-221774636D01*
X234525350Y-221783205D01*
X234516333Y-221791378D01*
X234430942Y-221861455D01*
X234421169Y-221868703D01*
X234411091Y-221875437D01*
X234400654Y-221881693D01*
X234303236Y-221933765D01*
X234292230Y-221938970D01*
X234281034Y-221943607D01*
X234269583Y-221947704D01*
X234216729Y-221963738D01*
X234216725Y-221963739D01*
X234163868Y-221979772D01*
X234152067Y-221982728D01*
X234140188Y-221985091D01*
X234128151Y-221986877D01*
X234072654Y-221992343D01*
X234013193Y-221998200D01*
X234012148Y-221998302D01*
X234009091Y-221998604D01*
X234003028Y-221999051D01*
X233996938Y-221999351D01*
X233990857Y-221999500D01*
X185494994Y-221999500D01*
X185482835Y-221998902D01*
X185470758Y-221997712D01*
X185458726Y-221995927D01*
X185386391Y-221981539D01*
X185362799Y-221976846D01*
X185351005Y-221974500D01*
X185351004Y-221974500D01*
X185351003Y-221974500D01*
X137343953Y-221974500D01*
X137328065Y-221973478D01*
X137322817Y-221972800D01*
X137322543Y-221972679D01*
X137320950Y-221972443D01*
X137320950Y-221972439D01*
X137319956Y-221972396D01*
X137307554Y-221970499D01*
X137290308Y-221966586D01*
X137264982Y-221958903D01*
X137230408Y-221948415D01*
X137218960Y-221944318D01*
X137207748Y-221939674D01*
X137196757Y-221934475D01*
X137189075Y-221930369D01*
X137099340Y-221882404D01*
X137088917Y-221876157D01*
X137078825Y-221869414D01*
X137069057Y-221862170D01*
X136983665Y-221792092D01*
X136974648Y-221783919D01*
X136966079Y-221775350D01*
X136957906Y-221766333D01*
X136887829Y-221680942D01*
X136880583Y-221671172D01*
X136873846Y-221661090D01*
X136867588Y-221650649D01*
X136867209Y-221649940D01*
X136815517Y-221553230D01*
X136810315Y-221542231D01*
X136805681Y-221531044D01*
X136801581Y-221519586D01*
X136769513Y-221413874D01*
X136766559Y-221402086D01*
X136764187Y-221390159D01*
X136762408Y-221378164D01*
X136751392Y-221266311D01*
X136750948Y-221260297D01*
X136750647Y-221254167D01*
X136750500Y-221248107D01*
X136750500Y-178955756D01*
X150924500Y-178955756D01*
X150924500Y-181324242D01*
X150960616Y-181690962D01*
X150960619Y-181690980D01*
X151032500Y-182052363D01*
X151139481Y-182405035D01*
X151280218Y-182744802D01*
X151280453Y-182745381D01*
X151280498Y-182745476D01*
X151280500Y-182745481D01*
X151280502Y-182745486D01*
X151454202Y-183070456D01*
X151454213Y-183070474D01*
X151658931Y-183376856D01*
X151658941Y-183376870D01*
X151658952Y-183376883D01*
X151892719Y-183661729D01*
X152153268Y-183922278D01*
X152153343Y-183922345D01*
X152153864Y-183922767D01*
X152438135Y-184156063D01*
X152594416Y-184260487D01*
X152744533Y-184360792D01*
X152745206Y-184361165D01*
X152746006Y-184361579D01*
X153068432Y-184533919D01*
X153068439Y-184533923D01*
X153072986Y-184536353D01*
X153077961Y-184537997D01*
X153409971Y-184675520D01*
X153762604Y-184782490D01*
X153762610Y-184782491D01*
X153762613Y-184782492D01*
X153762624Y-184782495D01*
X153762632Y-184782496D01*
X153762637Y-184782498D01*
X153763176Y-184782625D01*
X153764452Y-184782859D01*
X153882233Y-184806286D01*
X154124024Y-184854381D01*
X154490750Y-184890500D01*
X154490753Y-184890500D01*
X154859247Y-184890500D01*
X154859250Y-184890500D01*
X155225976Y-184854381D01*
X155296331Y-184840386D01*
X155587375Y-184782495D01*
X155587383Y-184782492D01*
X155587663Y-184782437D01*
X155589089Y-184782027D01*
X155617668Y-184774232D01*
X155619394Y-184772966D01*
X155625600Y-184770900D01*
X155940029Y-184675520D01*
X156280479Y-184534501D01*
X156605468Y-184360791D01*
X156911865Y-184156063D01*
X157196719Y-183922289D01*
X157457289Y-183661719D01*
X157691063Y-183376865D01*
X157895791Y-183070468D01*
X158069501Y-182745479D01*
X158210520Y-182405029D01*
X158317490Y-182052396D01*
X158317492Y-182052386D01*
X158317495Y-182052375D01*
X158389381Y-181690975D01*
X158425500Y-181324246D01*
X158425500Y-178955753D01*
X158389381Y-178589024D01*
X158317859Y-178229452D01*
X158317859Y-178229451D01*
X158317496Y-178227628D01*
X158317495Y-178227624D01*
X158317492Y-178227613D01*
X158317491Y-178227610D01*
X158317490Y-178227604D01*
X158210520Y-177874971D01*
X158196915Y-177842125D01*
X163824500Y-177842125D01*
X163824500Y-182437876D01*
X163824659Y-182439806D01*
X163824885Y-182441454D01*
X163830907Y-182497482D01*
X163858690Y-182571971D01*
X163881202Y-182632328D01*
X163881203Y-182632330D01*
X163881204Y-182632332D01*
X163881205Y-182632333D01*
X163967450Y-182747542D01*
X163967452Y-182747544D01*
X163967455Y-182747547D01*
X164082664Y-182833793D01*
X164082671Y-182833797D01*
X164217517Y-182884091D01*
X164217516Y-182884091D01*
X164224444Y-182884835D01*
X164277127Y-182890500D01*
X166872872Y-182890499D01*
X166932483Y-182884091D01*
X167067331Y-182833796D01*
X167182546Y-182747546D01*
X167268796Y-182632331D01*
X167319091Y-182497483D01*
X167325500Y-182437873D01*
X167325499Y-178955756D01*
X168174500Y-178955756D01*
X168174500Y-181324242D01*
X168210616Y-181690962D01*
X168210619Y-181690980D01*
X168282500Y-182052363D01*
X168389481Y-182405035D01*
X168530218Y-182744802D01*
X168530453Y-182745381D01*
X168530498Y-182745476D01*
X168530500Y-182745481D01*
X168530502Y-182745486D01*
X168704202Y-183070456D01*
X168704213Y-183070474D01*
X168908931Y-183376856D01*
X168908941Y-183376870D01*
X168908952Y-183376883D01*
X169142719Y-183661729D01*
X169403268Y-183922278D01*
X169403343Y-183922345D01*
X169403864Y-183922767D01*
X169688135Y-184156063D01*
X169844416Y-184260487D01*
X169994533Y-184360792D01*
X169995206Y-184361165D01*
X169996006Y-184361579D01*
X170318432Y-184533919D01*
X170318439Y-184533923D01*
X170322986Y-184536353D01*
X170327961Y-184537997D01*
X170659971Y-184675520D01*
X171012604Y-184782490D01*
X171012610Y-184782491D01*
X171012613Y-184782492D01*
X171012624Y-184782495D01*
X171012632Y-184782496D01*
X171012637Y-184782498D01*
X171013176Y-184782625D01*
X171014452Y-184782859D01*
X171132233Y-184806286D01*
X171374024Y-184854381D01*
X171740750Y-184890500D01*
X171740753Y-184890500D01*
X172109247Y-184890500D01*
X172109250Y-184890500D01*
X172475976Y-184854381D01*
X172546331Y-184840386D01*
X172837375Y-184782495D01*
X172837383Y-184782492D01*
X172837663Y-184782437D01*
X172839089Y-184782027D01*
X172867668Y-184774232D01*
X172869394Y-184772966D01*
X172875600Y-184770900D01*
X173190029Y-184675520D01*
X173530479Y-184534501D01*
X173855468Y-184360791D01*
X174161865Y-184156063D01*
X174446719Y-183922289D01*
X174707289Y-183661719D01*
X174941063Y-183376865D01*
X175145791Y-183070468D01*
X175319501Y-182745479D01*
X175460520Y-182405029D01*
X175567490Y-182052396D01*
X175567492Y-182052386D01*
X175567495Y-182052375D01*
X175639381Y-181690975D01*
X175675500Y-181324246D01*
X175675500Y-178955753D01*
X175639381Y-178589024D01*
X175567859Y-178229452D01*
X175567859Y-178229451D01*
X175567496Y-178227628D01*
X175567495Y-178227624D01*
X175567492Y-178227613D01*
X175567491Y-178227610D01*
X175567490Y-178227604D01*
X175460520Y-177874971D01*
X175446915Y-177842125D01*
X181074500Y-177842125D01*
X181074500Y-182437876D01*
X181074659Y-182439806D01*
X181074885Y-182441454D01*
X181080907Y-182497482D01*
X181108690Y-182571971D01*
X181131202Y-182632328D01*
X181131203Y-182632330D01*
X181131204Y-182632332D01*
X181131205Y-182632333D01*
X181217450Y-182747542D01*
X181217452Y-182747544D01*
X181217455Y-182747547D01*
X181332664Y-182833793D01*
X181332671Y-182833797D01*
X181467517Y-182884091D01*
X181467516Y-182884091D01*
X181474444Y-182884835D01*
X181527127Y-182890500D01*
X184122872Y-182890499D01*
X184182483Y-182884091D01*
X184317331Y-182833796D01*
X184432546Y-182747546D01*
X184518796Y-182632331D01*
X184569091Y-182497483D01*
X184575500Y-182437873D01*
X184575499Y-178955756D01*
X185424500Y-178955756D01*
X185424500Y-181324242D01*
X185460616Y-181690962D01*
X185460619Y-181690980D01*
X185532500Y-182052363D01*
X185639481Y-182405035D01*
X185780218Y-182744802D01*
X185780453Y-182745381D01*
X185780498Y-182745476D01*
X185780500Y-182745481D01*
X185780502Y-182745486D01*
X185954202Y-183070456D01*
X185954213Y-183070474D01*
X186158931Y-183376856D01*
X186158941Y-183376870D01*
X186158952Y-183376883D01*
X186392719Y-183661729D01*
X186653268Y-183922278D01*
X186653343Y-183922345D01*
X186653864Y-183922767D01*
X186938135Y-184156063D01*
X187094416Y-184260487D01*
X187244533Y-184360792D01*
X187245206Y-184361165D01*
X187246006Y-184361579D01*
X187568432Y-184533919D01*
X187568439Y-184533923D01*
X187572986Y-184536353D01*
X187577961Y-184537997D01*
X187909971Y-184675520D01*
X188262604Y-184782490D01*
X188262610Y-184782491D01*
X188262613Y-184782492D01*
X188262624Y-184782495D01*
X188262632Y-184782496D01*
X188262637Y-184782498D01*
X188263176Y-184782625D01*
X188264452Y-184782859D01*
X188382233Y-184806286D01*
X188624024Y-184854381D01*
X188990750Y-184890500D01*
X188990753Y-184890500D01*
X189359247Y-184890500D01*
X189359250Y-184890500D01*
X189725976Y-184854381D01*
X189796331Y-184840386D01*
X190087375Y-184782495D01*
X190087383Y-184782492D01*
X190087663Y-184782437D01*
X190089089Y-184782027D01*
X190117668Y-184774232D01*
X190119394Y-184772966D01*
X190125600Y-184770900D01*
X190440029Y-184675520D01*
X190780479Y-184534501D01*
X191105468Y-184360791D01*
X191411865Y-184156063D01*
X191696719Y-183922289D01*
X191957289Y-183661719D01*
X192191063Y-183376865D01*
X192395791Y-183070468D01*
X192569501Y-182745479D01*
X192710520Y-182405029D01*
X192817490Y-182052396D01*
X192817492Y-182052386D01*
X192817495Y-182052375D01*
X192889381Y-181690975D01*
X192925500Y-181324246D01*
X192925500Y-178955753D01*
X192889381Y-178589024D01*
X192817859Y-178229452D01*
X192817859Y-178229451D01*
X192817496Y-178227628D01*
X192817495Y-178227624D01*
X192817492Y-178227613D01*
X192817491Y-178227610D01*
X192817490Y-178227604D01*
X192710520Y-177874971D01*
X192696915Y-177842125D01*
X198324500Y-177842125D01*
X198324500Y-182437876D01*
X198324659Y-182439806D01*
X198324885Y-182441454D01*
X198330907Y-182497482D01*
X198358690Y-182571971D01*
X198381202Y-182632328D01*
X198381203Y-182632330D01*
X198381204Y-182632332D01*
X198381205Y-182632333D01*
X198467450Y-182747542D01*
X198467452Y-182747544D01*
X198467455Y-182747547D01*
X198582664Y-182833793D01*
X198582671Y-182833797D01*
X198717517Y-182884091D01*
X198717516Y-182884091D01*
X198724444Y-182884835D01*
X198777127Y-182890500D01*
X201372872Y-182890499D01*
X201432483Y-182884091D01*
X201567331Y-182833796D01*
X201682546Y-182747546D01*
X201768796Y-182632331D01*
X201819091Y-182497483D01*
X201825500Y-182437873D01*
X201825499Y-178955756D01*
X202674500Y-178955756D01*
X202674500Y-181324242D01*
X202710616Y-181690962D01*
X202710619Y-181690980D01*
X202782500Y-182052363D01*
X202889481Y-182405035D01*
X203030218Y-182744802D01*
X203030453Y-182745381D01*
X203030498Y-182745476D01*
X203030500Y-182745481D01*
X203030502Y-182745486D01*
X203204202Y-183070456D01*
X203204213Y-183070474D01*
X203408931Y-183376856D01*
X203408941Y-183376870D01*
X203408952Y-183376883D01*
X203642719Y-183661729D01*
X203903268Y-183922278D01*
X203903343Y-183922345D01*
X203903864Y-183922767D01*
X204188135Y-184156063D01*
X204344416Y-184260487D01*
X204494533Y-184360792D01*
X204495206Y-184361165D01*
X204496006Y-184361579D01*
X204818432Y-184533919D01*
X204818439Y-184533923D01*
X204822986Y-184536353D01*
X204827961Y-184537997D01*
X205159971Y-184675520D01*
X205512604Y-184782490D01*
X205512610Y-184782491D01*
X205512613Y-184782492D01*
X205512624Y-184782495D01*
X205512632Y-184782496D01*
X205512637Y-184782498D01*
X205513176Y-184782625D01*
X205514452Y-184782859D01*
X205632233Y-184806286D01*
X205874024Y-184854381D01*
X206240750Y-184890500D01*
X206240753Y-184890500D01*
X206609247Y-184890500D01*
X206609250Y-184890500D01*
X206975976Y-184854381D01*
X207046331Y-184840386D01*
X207337375Y-184782495D01*
X207337383Y-184782492D01*
X207337663Y-184782437D01*
X207339089Y-184782027D01*
X207367668Y-184774232D01*
X207369394Y-184772966D01*
X207375600Y-184770900D01*
X207690029Y-184675520D01*
X208030479Y-184534501D01*
X208355468Y-184360791D01*
X208661865Y-184156063D01*
X208946719Y-183922289D01*
X209207289Y-183661719D01*
X209441063Y-183376865D01*
X209645791Y-183070468D01*
X209819501Y-182745479D01*
X209960520Y-182405029D01*
X210067490Y-182052396D01*
X210067492Y-182052386D01*
X210067495Y-182052375D01*
X210139381Y-181690975D01*
X210175500Y-181324246D01*
X210175500Y-178955753D01*
X210139381Y-178589024D01*
X210067859Y-178229452D01*
X210067859Y-178229451D01*
X210067496Y-178227628D01*
X210067495Y-178227624D01*
X210067492Y-178227613D01*
X210067491Y-178227610D01*
X210067490Y-178227604D01*
X209960520Y-177874971D01*
X209946915Y-177842125D01*
X215574500Y-177842125D01*
X215574500Y-182437876D01*
X215574659Y-182439806D01*
X215574885Y-182441454D01*
X215580907Y-182497482D01*
X215608690Y-182571971D01*
X215631202Y-182632328D01*
X215631203Y-182632330D01*
X215631204Y-182632332D01*
X215631205Y-182632333D01*
X215717450Y-182747542D01*
X215717452Y-182747544D01*
X215717455Y-182747547D01*
X215832664Y-182833793D01*
X215832671Y-182833797D01*
X215967517Y-182884091D01*
X215967516Y-182884091D01*
X215974444Y-182884835D01*
X216027127Y-182890500D01*
X218622872Y-182890499D01*
X218682483Y-182884091D01*
X218817331Y-182833796D01*
X218932546Y-182747546D01*
X219018796Y-182632331D01*
X219069091Y-182497483D01*
X219075500Y-182437873D01*
X219075499Y-177842128D01*
X219069091Y-177782517D01*
X219018796Y-177647669D01*
X219018795Y-177647668D01*
X219018793Y-177647664D01*
X219018782Y-177647649D01*
X219016392Y-177643929D01*
X219016391Y-177643928D01*
X219013489Y-177640579D01*
X218932547Y-177532455D01*
X218932544Y-177532452D01*
X218932542Y-177532450D01*
X218874616Y-177489086D01*
X218817335Y-177446206D01*
X218817332Y-177446204D01*
X218817330Y-177446203D01*
X218817328Y-177446202D01*
X218682482Y-177395908D01*
X218682483Y-177395908D01*
X218622883Y-177389501D01*
X218622881Y-177389500D01*
X218622873Y-177389500D01*
X218622864Y-177389500D01*
X218621841Y-177389500D01*
X216027123Y-177389500D01*
X216025192Y-177389659D01*
X216023545Y-177389885D01*
X215967516Y-177395908D01*
X215832666Y-177446204D01*
X215832665Y-177446205D01*
X215717456Y-177532450D01*
X215717450Y-177532456D01*
X215631205Y-177647665D01*
X215631203Y-177647668D01*
X215580908Y-177782516D01*
X215574500Y-177842125D01*
X209946915Y-177842125D01*
X209819501Y-177534521D01*
X209745411Y-177395909D01*
X209646579Y-177211006D01*
X209646165Y-177210206D01*
X209645792Y-177209533D01*
X209441068Y-176903143D01*
X209441063Y-176903135D01*
X209207778Y-176618876D01*
X209207280Y-176618270D01*
X208946729Y-176357719D01*
X208890671Y-176311713D01*
X208663175Y-176125012D01*
X208662188Y-176124179D01*
X208661871Y-176123941D01*
X208661866Y-176123938D01*
X208661860Y-176123934D01*
X208513736Y-176024960D01*
X208355482Y-175919218D01*
X208355474Y-175919213D01*
X208355468Y-175919209D01*
X208355463Y-175919206D01*
X208355456Y-175919202D01*
X208355447Y-175919197D01*
X208355440Y-175919193D01*
X208167737Y-175818864D01*
X208030486Y-175745502D01*
X208030481Y-175745500D01*
X208030476Y-175745498D01*
X208030381Y-175745453D01*
X208029802Y-175745218D01*
X207690035Y-175604481D01*
X207560210Y-175565099D01*
X207337386Y-175497507D01*
X207337375Y-175497504D01*
X207337369Y-175497502D01*
X207337360Y-175497500D01*
X207337363Y-175497500D01*
X206975980Y-175425619D01*
X206975964Y-175425616D01*
X206699772Y-175398415D01*
X206699772Y-175398414D01*
X206629892Y-175391533D01*
X206609250Y-175389500D01*
X206609247Y-175389500D01*
X206240752Y-175389500D01*
X206240750Y-175389500D01*
X206226988Y-175390855D01*
X206157109Y-175397736D01*
X206157109Y-175397737D01*
X206132073Y-175400202D01*
X205874034Y-175425616D01*
X205874018Y-175425619D01*
X205512635Y-175497500D01*
X205159963Y-175604481D01*
X204820196Y-175745218D01*
X204819621Y-175745452D01*
X204819507Y-175745505D01*
X204494552Y-175919197D01*
X204494533Y-175919208D01*
X204494527Y-175919211D01*
X204289333Y-176056317D01*
X204188143Y-176123931D01*
X204188129Y-176123941D01*
X204188121Y-176123946D01*
X204188115Y-176123952D01*
X203903269Y-176357719D01*
X203642719Y-176618269D01*
X203408952Y-176903115D01*
X203408941Y-176903129D01*
X203408937Y-176903135D01*
X203408934Y-176903139D01*
X203204211Y-177209527D01*
X203204208Y-177209533D01*
X203204197Y-177209552D01*
X203030505Y-177534507D01*
X203030452Y-177534621D01*
X203030218Y-177535196D01*
X202889481Y-177874963D01*
X202782500Y-178227635D01*
X202710619Y-178589018D01*
X202710616Y-178589036D01*
X202674500Y-178955756D01*
X201825499Y-178955756D01*
X201825499Y-177842128D01*
X201819091Y-177782517D01*
X201768796Y-177647669D01*
X201768795Y-177647668D01*
X201768793Y-177647664D01*
X201768782Y-177647649D01*
X201766392Y-177643929D01*
X201766391Y-177643928D01*
X201763489Y-177640579D01*
X201682547Y-177532455D01*
X201682544Y-177532452D01*
X201682542Y-177532450D01*
X201624616Y-177489086D01*
X201567335Y-177446206D01*
X201567332Y-177446204D01*
X201567330Y-177446203D01*
X201567328Y-177446202D01*
X201432482Y-177395908D01*
X201432483Y-177395908D01*
X201372883Y-177389501D01*
X201372881Y-177389500D01*
X201372873Y-177389500D01*
X201372864Y-177389500D01*
X201371841Y-177389500D01*
X198777123Y-177389500D01*
X198775192Y-177389659D01*
X198773545Y-177389885D01*
X198717516Y-177395908D01*
X198582666Y-177446204D01*
X198582665Y-177446205D01*
X198467456Y-177532450D01*
X198467450Y-177532456D01*
X198381205Y-177647665D01*
X198381203Y-177647668D01*
X198330908Y-177782516D01*
X198324500Y-177842125D01*
X192696915Y-177842125D01*
X192569501Y-177534521D01*
X192495411Y-177395909D01*
X192396579Y-177211006D01*
X192396165Y-177210206D01*
X192395792Y-177209533D01*
X192191068Y-176903143D01*
X192191063Y-176903135D01*
X191957778Y-176618876D01*
X191957280Y-176618270D01*
X191696729Y-176357719D01*
X191640671Y-176311713D01*
X191413175Y-176125012D01*
X191412188Y-176124179D01*
X191411871Y-176123941D01*
X191411866Y-176123938D01*
X191411860Y-176123934D01*
X191263736Y-176024960D01*
X191105482Y-175919218D01*
X191105474Y-175919213D01*
X191105468Y-175919209D01*
X191105463Y-175919206D01*
X191105456Y-175919202D01*
X191105447Y-175919197D01*
X191105440Y-175919193D01*
X190917737Y-175818864D01*
X190780486Y-175745502D01*
X190780481Y-175745500D01*
X190780476Y-175745498D01*
X190780381Y-175745453D01*
X190779802Y-175745218D01*
X190440035Y-175604481D01*
X190310210Y-175565099D01*
X190087386Y-175497507D01*
X190087375Y-175497504D01*
X190087369Y-175497502D01*
X190087360Y-175497500D01*
X190087363Y-175497500D01*
X189725980Y-175425619D01*
X189725964Y-175425616D01*
X189449772Y-175398415D01*
X189449772Y-175398414D01*
X189379892Y-175391533D01*
X189359250Y-175389500D01*
X189359247Y-175389500D01*
X188990752Y-175389500D01*
X188990750Y-175389500D01*
X188976988Y-175390855D01*
X188907109Y-175397736D01*
X188907109Y-175397737D01*
X188882073Y-175400202D01*
X188624034Y-175425616D01*
X188624018Y-175425619D01*
X188262635Y-175497500D01*
X187909963Y-175604481D01*
X187570196Y-175745218D01*
X187569621Y-175745452D01*
X187569507Y-175745505D01*
X187244552Y-175919197D01*
X187244533Y-175919208D01*
X187244527Y-175919211D01*
X187039333Y-176056317D01*
X186938143Y-176123931D01*
X186938129Y-176123941D01*
X186938121Y-176123946D01*
X186938115Y-176123952D01*
X186653269Y-176357719D01*
X186392719Y-176618269D01*
X186158952Y-176903115D01*
X186158941Y-176903129D01*
X186158937Y-176903135D01*
X186158934Y-176903139D01*
X185954211Y-177209527D01*
X185954208Y-177209533D01*
X185954197Y-177209552D01*
X185780505Y-177534507D01*
X185780452Y-177534621D01*
X185780218Y-177535196D01*
X185639481Y-177874963D01*
X185532500Y-178227635D01*
X185460619Y-178589018D01*
X185460616Y-178589036D01*
X185424500Y-178955756D01*
X184575499Y-178955756D01*
X184575499Y-177842128D01*
X184569091Y-177782517D01*
X184518796Y-177647669D01*
X184518795Y-177647668D01*
X184518793Y-177647664D01*
X184518782Y-177647649D01*
X184516392Y-177643929D01*
X184516391Y-177643928D01*
X184513489Y-177640579D01*
X184432547Y-177532455D01*
X184432544Y-177532452D01*
X184432542Y-177532450D01*
X184374616Y-177489086D01*
X184317335Y-177446206D01*
X184317332Y-177446204D01*
X184317330Y-177446203D01*
X184317328Y-177446202D01*
X184182482Y-177395908D01*
X184182483Y-177395908D01*
X184122883Y-177389501D01*
X184122881Y-177389500D01*
X184122873Y-177389500D01*
X184122864Y-177389500D01*
X184121841Y-177389500D01*
X181527123Y-177389500D01*
X181525192Y-177389659D01*
X181523545Y-177389885D01*
X181467516Y-177395908D01*
X181332666Y-177446204D01*
X181332665Y-177446205D01*
X181217456Y-177532450D01*
X181217450Y-177532456D01*
X181131205Y-177647665D01*
X181131203Y-177647668D01*
X181080908Y-177782516D01*
X181074500Y-177842125D01*
X175446915Y-177842125D01*
X175319501Y-177534521D01*
X175245411Y-177395909D01*
X175146579Y-177211006D01*
X175146165Y-177210206D01*
X175145792Y-177209533D01*
X174941068Y-176903143D01*
X174941063Y-176903135D01*
X174707778Y-176618876D01*
X174707280Y-176618270D01*
X174446729Y-176357719D01*
X174390671Y-176311713D01*
X174163175Y-176125012D01*
X174162188Y-176124179D01*
X174161871Y-176123941D01*
X174161866Y-176123938D01*
X174161860Y-176123934D01*
X174013736Y-176024960D01*
X173855482Y-175919218D01*
X173855474Y-175919213D01*
X173855468Y-175919209D01*
X173855463Y-175919206D01*
X173855456Y-175919202D01*
X173855447Y-175919197D01*
X173855440Y-175919193D01*
X173667737Y-175818864D01*
X173530486Y-175745502D01*
X173530481Y-175745500D01*
X173530476Y-175745498D01*
X173530381Y-175745453D01*
X173529802Y-175745218D01*
X173190035Y-175604481D01*
X173060210Y-175565099D01*
X172837386Y-175497507D01*
X172837375Y-175497504D01*
X172837369Y-175497502D01*
X172837360Y-175497500D01*
X172837363Y-175497500D01*
X172475980Y-175425619D01*
X172475964Y-175425616D01*
X172199772Y-175398415D01*
X172199772Y-175398414D01*
X172129892Y-175391533D01*
X172109250Y-175389500D01*
X172109247Y-175389500D01*
X171740752Y-175389500D01*
X171740750Y-175389500D01*
X171726988Y-175390855D01*
X171657109Y-175397736D01*
X171657109Y-175397737D01*
X171632073Y-175400202D01*
X171374034Y-175425616D01*
X171374018Y-175425619D01*
X171012635Y-175497500D01*
X170659963Y-175604481D01*
X170320196Y-175745218D01*
X170319621Y-175745452D01*
X170319507Y-175745505D01*
X169994552Y-175919197D01*
X169994533Y-175919208D01*
X169994527Y-175919211D01*
X169789333Y-176056317D01*
X169688143Y-176123931D01*
X169688129Y-176123941D01*
X169688121Y-176123946D01*
X169688115Y-176123952D01*
X169403269Y-176357719D01*
X169142719Y-176618269D01*
X168908952Y-176903115D01*
X168908941Y-176903129D01*
X168908937Y-176903135D01*
X168908934Y-176903139D01*
X168704211Y-177209527D01*
X168704208Y-177209533D01*
X168704197Y-177209552D01*
X168530505Y-177534507D01*
X168530452Y-177534621D01*
X168530218Y-177535196D01*
X168389481Y-177874963D01*
X168282500Y-178227635D01*
X168210619Y-178589018D01*
X168210616Y-178589036D01*
X168174500Y-178955756D01*
X167325499Y-178955756D01*
X167325499Y-177842128D01*
X167319091Y-177782517D01*
X167268796Y-177647669D01*
X167268795Y-177647668D01*
X167268793Y-177647664D01*
X167268782Y-177647649D01*
X167266392Y-177643929D01*
X167266391Y-177643928D01*
X167263489Y-177640579D01*
X167182547Y-177532455D01*
X167182544Y-177532452D01*
X167182542Y-177532450D01*
X167124616Y-177489086D01*
X167067335Y-177446206D01*
X167067332Y-177446204D01*
X167067330Y-177446203D01*
X167067328Y-177446202D01*
X166932482Y-177395908D01*
X166932483Y-177395908D01*
X166872883Y-177389501D01*
X166872881Y-177389500D01*
X166872873Y-177389500D01*
X166872864Y-177389500D01*
X166871841Y-177389500D01*
X164277123Y-177389500D01*
X164275192Y-177389659D01*
X164273545Y-177389885D01*
X164217516Y-177395908D01*
X164082666Y-177446204D01*
X164082665Y-177446205D01*
X163967456Y-177532450D01*
X163967450Y-177532456D01*
X163881205Y-177647665D01*
X163881203Y-177647668D01*
X163830908Y-177782516D01*
X163824500Y-177842125D01*
X158196915Y-177842125D01*
X158069501Y-177534521D01*
X157995411Y-177395909D01*
X157896579Y-177211006D01*
X157896165Y-177210206D01*
X157895792Y-177209533D01*
X157691068Y-176903143D01*
X157691063Y-176903135D01*
X157457778Y-176618876D01*
X157457280Y-176618270D01*
X157196729Y-176357719D01*
X157140671Y-176311713D01*
X156913175Y-176125012D01*
X156912188Y-176124179D01*
X156911871Y-176123941D01*
X156911866Y-176123938D01*
X156911860Y-176123934D01*
X156763736Y-176024960D01*
X156605482Y-175919218D01*
X156605474Y-175919213D01*
X156605468Y-175919209D01*
X156605463Y-175919206D01*
X156605456Y-175919202D01*
X156605447Y-175919197D01*
X156605440Y-175919193D01*
X156417737Y-175818864D01*
X156280486Y-175745502D01*
X156280481Y-175745500D01*
X156280476Y-175745498D01*
X156280381Y-175745453D01*
X156279802Y-175745218D01*
X155940035Y-175604481D01*
X155810210Y-175565099D01*
X155587386Y-175497507D01*
X155587375Y-175497504D01*
X155587369Y-175497502D01*
X155587360Y-175497500D01*
X155587363Y-175497500D01*
X155225980Y-175425619D01*
X155225964Y-175425616D01*
X154949772Y-175398415D01*
X154949772Y-175398414D01*
X154879892Y-175391533D01*
X154859250Y-175389500D01*
X154859247Y-175389500D01*
X154490752Y-175389500D01*
X154490750Y-175389500D01*
X154476988Y-175390855D01*
X154407109Y-175397736D01*
X154407109Y-175397737D01*
X154382073Y-175400202D01*
X154124034Y-175425616D01*
X154124018Y-175425619D01*
X153762635Y-175497500D01*
X153409963Y-175604481D01*
X153070196Y-175745218D01*
X153069621Y-175745452D01*
X153069507Y-175745505D01*
X152744552Y-175919197D01*
X152744533Y-175919208D01*
X152744527Y-175919211D01*
X152539333Y-176056317D01*
X152438143Y-176123931D01*
X152438129Y-176123941D01*
X152438121Y-176123946D01*
X152438115Y-176123952D01*
X152153269Y-176357719D01*
X151892719Y-176618269D01*
X151658952Y-176903115D01*
X151658941Y-176903129D01*
X151658937Y-176903135D01*
X151658934Y-176903139D01*
X151454211Y-177209527D01*
X151454208Y-177209533D01*
X151454197Y-177209552D01*
X151280505Y-177534507D01*
X151280452Y-177534621D01*
X151280218Y-177535196D01*
X151139481Y-177874963D01*
X151032500Y-178227635D01*
X150960619Y-178589018D01*
X150960616Y-178589036D01*
X150924500Y-178955756D01*
X136750500Y-178955756D01*
X136750500Y-154141829D01*
X136755523Y-154106893D01*
X136759927Y-154091895D01*
X136797672Y-154033144D01*
X136797700Y-154033119D01*
X136797699Y-154033119D01*
X136799041Y-154031956D01*
X136853920Y-154004477D01*
X136861479Y-154002833D01*
X136887832Y-154000000D01*
X152865857Y-154000000D01*
X152871917Y-154000147D01*
G37*
%TD.AperFunction*%
%TD*%
D19*
X135750000Y-129500000D02*
G75*
G02*
X140250001Y-125000000I4500000J0D01*
G01*
X135750000Y-221250000D02*
X135750000Y-129500000D01*
X137500000Y-223000000D02*
X234000000Y-223000000D01*
X137500000Y-223000714D02*
G75*
G02*
X135749286Y-221250000I0J1750714D01*
G01*
X231250000Y-125000000D02*
X140250000Y-125000000D01*
X231250000Y-125000000D02*
G75*
G02*
X235750000Y-129500000I0J-4500000D01*
G01*
X235750000Y-129500000D02*
X235750000Y-221250000D01*
X235750714Y-221249286D02*
G75*
G02*
X234000000Y-223000014I-1750714J-14D01*
G01*
D20*
X185083333Y-116304819D02*
X185273809Y-116304819D01*
X185273809Y-116304819D02*
X185369047Y-116257200D01*
X185369047Y-116257200D02*
X185416666Y-116209580D01*
X185416666Y-116209580D02*
X185511904Y-116066723D01*
X185511904Y-116066723D02*
X185559523Y-115876247D01*
X185559523Y-115876247D02*
X185559523Y-115495295D01*
X185559523Y-115495295D02*
X185511904Y-115400057D01*
X185511904Y-115400057D02*
X185464285Y-115352438D01*
X185464285Y-115352438D02*
X185369047Y-115304819D01*
X185369047Y-115304819D02*
X185178571Y-115304819D01*
X185178571Y-115304819D02*
X185083333Y-115352438D01*
X185083333Y-115352438D02*
X185035714Y-115400057D01*
X185035714Y-115400057D02*
X184988095Y-115495295D01*
X184988095Y-115495295D02*
X184988095Y-115733390D01*
X184988095Y-115733390D02*
X185035714Y-115828628D01*
X185035714Y-115828628D02*
X185083333Y-115876247D01*
X185083333Y-115876247D02*
X185178571Y-115923866D01*
X185178571Y-115923866D02*
X185369047Y-115923866D01*
X185369047Y-115923866D02*
X185464285Y-115876247D01*
X185464285Y-115876247D02*
X185511904Y-115828628D01*
X185511904Y-115828628D02*
X185559523Y-115733390D01*
X186511904Y-116304819D02*
X185940476Y-116304819D01*
X186226190Y-116304819D02*
X186226190Y-115304819D01*
X186226190Y-115304819D02*
X186130952Y-115447676D01*
X186130952Y-115447676D02*
X186035714Y-115542914D01*
X186035714Y-115542914D02*
X185940476Y-115590533D01*
D19*
X140250000Y-129000000D02*
X140250000Y-116413580D01*
X231250000Y-116413580D02*
X231250000Y-129000000D01*
X140250000Y-117000000D02*
X231250000Y-117000000D01*
X140250000Y-117000000D02*
X141376504Y-116413579D01*
X140250000Y-117000000D02*
X141376504Y-117586421D01*
X231250000Y-117000000D02*
X230123496Y-117586421D01*
X231250000Y-117000000D02*
X230123496Y-116413579D01*
D20*
X128054819Y-174666666D02*
X128054819Y-174476190D01*
X128054819Y-174476190D02*
X128007200Y-174380952D01*
X128007200Y-174380952D02*
X127959580Y-174333333D01*
X127959580Y-174333333D02*
X127816723Y-174238095D01*
X127816723Y-174238095D02*
X127626247Y-174190476D01*
X127626247Y-174190476D02*
X127245295Y-174190476D01*
X127245295Y-174190476D02*
X127150057Y-174238095D01*
X127150057Y-174238095D02*
X127102438Y-174285714D01*
X127102438Y-174285714D02*
X127054819Y-174380952D01*
X127054819Y-174380952D02*
X127054819Y-174571428D01*
X127054819Y-174571428D02*
X127102438Y-174666666D01*
X127102438Y-174666666D02*
X127150057Y-174714285D01*
X127150057Y-174714285D02*
X127245295Y-174761904D01*
X127245295Y-174761904D02*
X127483390Y-174761904D01*
X127483390Y-174761904D02*
X127578628Y-174714285D01*
X127578628Y-174714285D02*
X127626247Y-174666666D01*
X127626247Y-174666666D02*
X127673866Y-174571428D01*
X127673866Y-174571428D02*
X127673866Y-174380952D01*
X127673866Y-174380952D02*
X127626247Y-174285714D01*
X127626247Y-174285714D02*
X127578628Y-174238095D01*
X127578628Y-174238095D02*
X127483390Y-174190476D01*
X127483390Y-173619047D02*
X127435771Y-173714285D01*
X127435771Y-173714285D02*
X127388152Y-173761904D01*
X127388152Y-173761904D02*
X127292914Y-173809523D01*
X127292914Y-173809523D02*
X127245295Y-173809523D01*
X127245295Y-173809523D02*
X127150057Y-173761904D01*
X127150057Y-173761904D02*
X127102438Y-173714285D01*
X127102438Y-173714285D02*
X127054819Y-173619047D01*
X127054819Y-173619047D02*
X127054819Y-173428571D01*
X127054819Y-173428571D02*
X127102438Y-173333333D01*
X127102438Y-173333333D02*
X127150057Y-173285714D01*
X127150057Y-173285714D02*
X127245295Y-173238095D01*
X127245295Y-173238095D02*
X127292914Y-173238095D01*
X127292914Y-173238095D02*
X127388152Y-173285714D01*
X127388152Y-173285714D02*
X127435771Y-173333333D01*
X127435771Y-173333333D02*
X127483390Y-173428571D01*
X127483390Y-173428571D02*
X127483390Y-173619047D01*
X127483390Y-173619047D02*
X127531009Y-173714285D01*
X127531009Y-173714285D02*
X127578628Y-173761904D01*
X127578628Y-173761904D02*
X127673866Y-173809523D01*
X127673866Y-173809523D02*
X127864342Y-173809523D01*
X127864342Y-173809523D02*
X127959580Y-173761904D01*
X127959580Y-173761904D02*
X128007200Y-173714285D01*
X128007200Y-173714285D02*
X128054819Y-173619047D01*
X128054819Y-173619047D02*
X128054819Y-173428571D01*
X128054819Y-173428571D02*
X128007200Y-173333333D01*
X128007200Y-173333333D02*
X127959580Y-173285714D01*
X127959580Y-173285714D02*
X127864342Y-173238095D01*
X127864342Y-173238095D02*
X127673866Y-173238095D01*
X127673866Y-173238095D02*
X127578628Y-173285714D01*
X127578628Y-173285714D02*
X127531009Y-173333333D01*
X127531009Y-173333333D02*
X127483390Y-173428571D01*
D19*
X185250000Y-125000000D02*
X128163580Y-125000000D01*
X128163580Y-223000000D02*
X185250000Y-223000000D01*
X128750000Y-125000000D02*
X128750000Y-223000000D01*
X128750000Y-125000000D02*
X129336421Y-126126504D01*
X128750000Y-125000000D02*
X128163579Y-126126504D01*
X128750000Y-223000000D02*
X128163579Y-221873496D01*
X128750000Y-223000000D02*
X129336421Y-221873496D01*
D20*
X185083333Y-109554819D02*
X184511905Y-109554819D01*
X184797619Y-109554819D02*
X184797619Y-108554819D01*
X184797619Y-108554819D02*
X184702381Y-108697676D01*
X184702381Y-108697676D02*
X184607143Y-108792914D01*
X184607143Y-108792914D02*
X184511905Y-108840533D01*
X185702381Y-108554819D02*
X185797619Y-108554819D01*
X185797619Y-108554819D02*
X185892857Y-108602438D01*
X185892857Y-108602438D02*
X185940476Y-108650057D01*
X185940476Y-108650057D02*
X185988095Y-108745295D01*
X185988095Y-108745295D02*
X186035714Y-108935771D01*
X186035714Y-108935771D02*
X186035714Y-109173866D01*
X186035714Y-109173866D02*
X185988095Y-109364342D01*
X185988095Y-109364342D02*
X185940476Y-109459580D01*
X185940476Y-109459580D02*
X185892857Y-109507200D01*
X185892857Y-109507200D02*
X185797619Y-109554819D01*
X185797619Y-109554819D02*
X185702381Y-109554819D01*
X185702381Y-109554819D02*
X185607143Y-109507200D01*
X185607143Y-109507200D02*
X185559524Y-109459580D01*
X185559524Y-109459580D02*
X185511905Y-109364342D01*
X185511905Y-109364342D02*
X185464286Y-109173866D01*
X185464286Y-109173866D02*
X185464286Y-108935771D01*
X185464286Y-108935771D02*
X185511905Y-108745295D01*
X185511905Y-108745295D02*
X185559524Y-108650057D01*
X185559524Y-108650057D02*
X185607143Y-108602438D01*
X185607143Y-108602438D02*
X185702381Y-108554819D01*
X186654762Y-108554819D02*
X186750000Y-108554819D01*
X186750000Y-108554819D02*
X186845238Y-108602438D01*
X186845238Y-108602438D02*
X186892857Y-108650057D01*
X186892857Y-108650057D02*
X186940476Y-108745295D01*
X186940476Y-108745295D02*
X186988095Y-108935771D01*
X186988095Y-108935771D02*
X186988095Y-109173866D01*
X186988095Y-109173866D02*
X186940476Y-109364342D01*
X186940476Y-109364342D02*
X186892857Y-109459580D01*
X186892857Y-109459580D02*
X186845238Y-109507200D01*
X186845238Y-109507200D02*
X186750000Y-109554819D01*
X186750000Y-109554819D02*
X186654762Y-109554819D01*
X186654762Y-109554819D02*
X186559524Y-109507200D01*
X186559524Y-109507200D02*
X186511905Y-109459580D01*
X186511905Y-109459580D02*
X186464286Y-109364342D01*
X186464286Y-109364342D02*
X186416667Y-109173866D01*
X186416667Y-109173866D02*
X186416667Y-108935771D01*
X186416667Y-108935771D02*
X186464286Y-108745295D01*
X186464286Y-108745295D02*
X186511905Y-108650057D01*
X186511905Y-108650057D02*
X186559524Y-108602438D01*
X186559524Y-108602438D02*
X186654762Y-108554819D01*
D19*
X135750000Y-129000000D02*
X135750000Y-109663580D01*
X235750000Y-109663580D02*
X235750000Y-129000000D01*
X135750000Y-110250000D02*
X235750000Y-110250000D01*
X135750000Y-110250000D02*
X136876504Y-109663579D01*
X135750000Y-110250000D02*
X136876504Y-110836421D01*
X235750000Y-110250000D02*
X234623496Y-110836421D01*
X235750000Y-110250000D02*
X234623496Y-109663579D01*
M02*
