%TF.GenerationSoftware,KiCad,Pcbnew,10.0.1*%
%TF.CreationDate,2026-06-09T12:56:55+03:00*%
%TF.ProjectId,Precharge_Nauka,50726563-6861-4726-9765-5f4e61756b61,rev?*%
%TF.SameCoordinates,Original*%
%TF.FileFunction,Soldermask,Top*%
%TF.FilePolarity,Negative*%
%FSLAX46Y46*%
G04 Gerber Fmt 4.6, Leading zero omitted, Abs format (unit mm)*
G04 Created by KiCad (PCBNEW 10.0.1) date 2026-06-09 12:56:55*
%MOMM*%
%LPD*%
G01*
G04 APERTURE LIST*
G04 Aperture macros list*
%AMRoundRect*
0 Rectangle with rounded corners*
0 $1 Rounding radius*
0 $2 $3 $4 $5 $6 $7 $8 $9 X,Y pos of 4 corners*
0 Add a 4 corners polygon primitive as box body*
4,1,4,$2,$3,$4,$5,$6,$7,$8,$9,$2,$3,0*
0 Add four circle primitives for the rounded corners*
1,1,$1+$1,$2,$3*
1,1,$1+$1,$4,$5*
1,1,$1+$1,$6,$7*
1,1,$1+$1,$8,$9*
0 Add four rect primitives between the rounded corners*
20,1,$1+$1,$2,$3,$4,$5,0*
20,1,$1+$1,$4,$5,$6,$7,0*
20,1,$1+$1,$6,$7,$8,$9,0*
20,1,$1+$1,$8,$9,$2,$3,0*%
G04 Aperture macros list end*
%ADD10C,4.300000*%
%ADD11RoundRect,0.249999X-1.425001X0.450001X-1.425001X-0.450001X1.425001X-0.450001X1.425001X0.450001X0*%
%ADD12RoundRect,0.249999X1.425001X-0.450001X1.425001X0.450001X-1.425001X0.450001X-1.425001X-0.450001X0*%
%ADD13R,0.640000X1.900000*%
%ADD14RoundRect,0.250000X-0.350000X-0.450000X0.350000X-0.450000X0.350000X0.450000X-0.350000X0.450000X0*%
%ADD15RoundRect,0.150000X-0.512500X-0.150000X0.512500X-0.150000X0.512500X0.150000X-0.512500X0.150000X0*%
%ADD16RoundRect,0.250000X0.625000X-0.312500X0.625000X0.312500X-0.625000X0.312500X-0.625000X-0.312500X0*%
%ADD17RoundRect,0.250000X-0.625000X0.400000X-0.625000X-0.400000X0.625000X-0.400000X0.625000X0.400000X0*%
%ADD18O,1.600000X2.400000*%
%ADD19C,15.000000*%
%ADD20C,5.000000*%
%ADD21R,2.500000X4.500000*%
%ADD22O,2.500000X4.500000*%
%ADD23RoundRect,0.250000X0.350000X0.450000X-0.350000X0.450000X-0.350000X-0.450000X0.350000X-0.450000X0*%
%ADD24RoundRect,0.250000X0.450000X-0.350000X0.450000X0.350000X-0.450000X0.350000X-0.450000X-0.350000X0*%
%ADD25RoundRect,0.250000X0.475000X-0.337500X0.475000X0.337500X-0.475000X0.337500X-0.475000X-0.337500X0*%
%ADD26RoundRect,0.250000X-0.450000X0.350000X-0.450000X-0.350000X0.450000X-0.350000X0.450000X0.350000X0*%
%ADD27RoundRect,0.250000X-0.337500X-0.475000X0.337500X-0.475000X0.337500X0.475000X-0.337500X0.475000X0*%
%ADD28C,1.020000*%
%ADD29RoundRect,0.250001X0.499999X0.499999X-0.499999X0.499999X-0.499999X-0.499999X0.499999X-0.499999X0*%
%ADD30C,1.500000*%
%ADD31C,8.000000*%
%ADD32RoundRect,0.250000X-0.412500X-0.650000X0.412500X-0.650000X0.412500X0.650000X-0.412500X0.650000X0*%
%ADD33RoundRect,0.162500X-0.162500X0.617500X-0.162500X-0.617500X0.162500X-0.617500X0.162500X0.617500X0*%
%ADD34RoundRect,0.250000X-0.312500X-0.625000X0.312500X-0.625000X0.312500X0.625000X-0.312500X0.625000X0*%
%ADD35RoundRect,0.250000X0.312500X0.625000X-0.312500X0.625000X-0.312500X-0.625000X0.312500X-0.625000X0*%
%ADD36RoundRect,0.150000X0.150000X-0.587500X0.150000X0.587500X-0.150000X0.587500X-0.150000X-0.587500X0*%
%ADD37RoundRect,0.162500X0.162500X-0.825000X0.162500X0.825000X-0.162500X0.825000X-0.162500X-0.825000X0*%
%ADD38RoundRect,0.250000X-0.625000X0.312500X-0.625000X-0.312500X0.625000X-0.312500X0.625000X0.312500X0*%
%ADD39RoundRect,0.150000X0.587500X0.150000X-0.587500X0.150000X-0.587500X-0.150000X0.587500X-0.150000X0*%
%ADD40RoundRect,0.250000X0.550000X0.550000X-0.550000X0.550000X-0.550000X-0.550000X0.550000X-0.550000X0*%
%ADD41C,1.600000*%
%ADD42RoundRect,0.250000X0.412500X0.650000X-0.412500X0.650000X-0.412500X-0.650000X0.412500X-0.650000X0*%
%TA.AperFunction,Profile*%
%ADD43C,0.050000*%
%TD*%
%ADD44C,0.150000*%
G04 APERTURE END LIST*
D10*
%TO.C,H2*%
X231250000Y-129000000D03*
%TD*%
%TO.C,H1*%
X140250000Y-129250000D03*
%TD*%
D11*
%TO.C,R102*%
X202940789Y-203500000D03*
X202940789Y-209600000D03*
%TD*%
D12*
%TO.C,R38*%
X207888158Y-201050000D03*
X207888158Y-194950000D03*
%TD*%
%TO.C,R99*%
X193046053Y-192550000D03*
X193046053Y-186450000D03*
%TD*%
D13*
%TO.C,D1*%
X187145000Y-152250000D03*
X185875000Y-152250000D03*
X184605000Y-152250000D03*
X184605000Y-163750000D03*
X185875000Y-163750000D03*
X187145000Y-163750000D03*
%TD*%
D14*
%TO.C,R36*%
X159125000Y-174500000D03*
X161125000Y-174500000D03*
%TD*%
D12*
%TO.C,R107*%
X143572368Y-192550000D03*
X143572368Y-186450000D03*
%TD*%
%TO.C,R37*%
X207888158Y-192550000D03*
X207888158Y-186450000D03*
%TD*%
%TO.C,R75*%
X183151316Y-192550000D03*
X183151316Y-186450000D03*
%TD*%
D14*
%TO.C,R17*%
X205875000Y-152000000D03*
X207875000Y-152000000D03*
%TD*%
D12*
%TO.C,R80*%
X138625000Y-201050000D03*
X138625000Y-194950000D03*
%TD*%
%TO.C,R55*%
X217782895Y-192550000D03*
X217782895Y-186450000D03*
%TD*%
D11*
%TO.C,R98*%
X193046053Y-203500000D03*
X193046053Y-209600000D03*
%TD*%
D12*
%TO.C,R63*%
X227677632Y-192550000D03*
X227677632Y-186450000D03*
%TD*%
D11*
%TO.C,R40*%
X207888158Y-212200000D03*
X207888158Y-218300000D03*
%TD*%
D15*
%TO.C,U6*%
X196987500Y-145300000D03*
X196987500Y-146250000D03*
X196987500Y-147200000D03*
X199262500Y-147200000D03*
X199262500Y-145300000D03*
%TD*%
D12*
%TO.C,R59*%
X222730263Y-192550000D03*
X222730263Y-186450000D03*
%TD*%
D16*
%TO.C,R11*%
X200125000Y-156962500D03*
X200125000Y-154037500D03*
%TD*%
%TO.C,R5*%
X198625000Y-162962500D03*
X198625000Y-160037500D03*
%TD*%
D17*
%TO.C,R30*%
X200125000Y-173450000D03*
X200125000Y-176550000D03*
%TD*%
D11*
%TO.C,R93*%
X178203947Y-212200000D03*
X178203947Y-218300000D03*
%TD*%
D12*
%TO.C,R119*%
X168309211Y-192550000D03*
X168309211Y-186450000D03*
%TD*%
%TO.C,R103*%
X202940789Y-192550000D03*
X202940789Y-186450000D03*
%TD*%
D11*
%TO.C,R78*%
X138625000Y-203500000D03*
X138625000Y-209600000D03*
%TD*%
%TO.C,R121*%
X212835526Y-212200000D03*
X212835526Y-218300000D03*
%TD*%
D18*
%TO.C,D2*%
X179485000Y-129949990D03*
X182025000Y-129949990D03*
X184565000Y-129949990D03*
X189645000Y-129949990D03*
X192185000Y-129949990D03*
X194725000Y-129949990D03*
X197265000Y-129949990D03*
%TD*%
D19*
%TO.C,J3*%
X227000000Y-164400000D03*
%TD*%
D11*
%TO.C,R54*%
X217782895Y-203500000D03*
X217782895Y-209600000D03*
%TD*%
D17*
%TO.C,R33*%
X182875000Y-173450000D03*
X182875000Y-176550000D03*
%TD*%
D20*
%TO.C,Q4*%
X177375000Y-160280000D03*
D21*
X182825000Y-180140000D03*
D22*
X177375000Y-180140000D03*
X171925000Y-180140000D03*
%TD*%
D19*
%TO.C,J2*%
X144675000Y-164400000D03*
%TD*%
D11*
%TO.C,R117*%
X168309211Y-212200000D03*
X168309211Y-218300000D03*
%TD*%
D12*
%TO.C,R120*%
X168309211Y-201050000D03*
X168309211Y-194950000D03*
%TD*%
D23*
%TO.C,R21*%
X214875000Y-131000000D03*
X212875000Y-131000000D03*
%TD*%
D12*
%TO.C,R56*%
X217782895Y-201050000D03*
X217782895Y-194950000D03*
%TD*%
D23*
%TO.C,R201*%
X163125000Y-149700000D03*
X161125000Y-149700000D03*
%TD*%
D12*
%TO.C,R83*%
X197993421Y-192550000D03*
X197993421Y-186450000D03*
%TD*%
%TO.C,R52*%
X153467105Y-201050000D03*
X153467105Y-194950000D03*
%TD*%
D11*
%TO.C,R97*%
X193046053Y-212200000D03*
X193046053Y-218300000D03*
%TD*%
%TO.C,R66*%
X148519737Y-203500000D03*
X148519737Y-209600000D03*
%TD*%
D20*
%TO.C,Q3*%
X194625000Y-160280000D03*
D21*
X200075000Y-180140000D03*
D22*
X194625000Y-180140000D03*
X189175000Y-180140000D03*
%TD*%
D11*
%TO.C,R58*%
X222730263Y-203500000D03*
X222730263Y-209600000D03*
%TD*%
D17*
%TO.C,R29*%
X217375000Y-173400000D03*
X217375000Y-176500000D03*
%TD*%
D11*
%TO.C,R73*%
X183151316Y-212200000D03*
X183151316Y-218300000D03*
%TD*%
D24*
%TO.C,R203*%
X139820000Y-148700000D03*
X139820000Y-146700000D03*
%TD*%
D12*
%TO.C,R64*%
X227677632Y-201050000D03*
X227677632Y-194950000D03*
%TD*%
%TO.C,R47*%
X173256579Y-192550000D03*
X173256579Y-186450000D03*
%TD*%
D11*
%TO.C,R174*%
X232625000Y-203500000D03*
X232625000Y-209600000D03*
%TD*%
D14*
%TO.C,R35*%
X176375000Y-174500000D03*
X178375000Y-174500000D03*
%TD*%
D25*
%TO.C,C17*%
X183375000Y-143287500D03*
X183375000Y-141212500D03*
%TD*%
D12*
%TO.C,R43*%
X188098684Y-192550000D03*
X188098684Y-186450000D03*
%TD*%
D26*
%TO.C,R25*%
X185375000Y-141250000D03*
X185375000Y-143250000D03*
%TD*%
D14*
%TO.C,R12*%
X199325000Y-152000000D03*
X201325000Y-152000000D03*
%TD*%
D18*
%TO.C,D3*%
X173265000Y-134050010D03*
X170725000Y-134050010D03*
X168185000Y-134050010D03*
X163105000Y-134050010D03*
X160565000Y-134050010D03*
X158025000Y-134050010D03*
X155485000Y-134050010D03*
%TD*%
D16*
%TO.C,R20*%
X207875000Y-156962500D03*
X207875000Y-154037500D03*
%TD*%
D12*
%TO.C,R68*%
X148519737Y-201050000D03*
X148519737Y-194950000D03*
%TD*%
%TO.C,R91*%
X163361842Y-192550000D03*
X163361842Y-186450000D03*
%TD*%
D24*
%TO.C,R2*%
X219375000Y-138000000D03*
X219375000Y-136000000D03*
%TD*%
D14*
%TO.C,R3*%
X194825000Y-152000000D03*
X196825000Y-152000000D03*
%TD*%
%TO.C,R31*%
X210875000Y-174500000D03*
X212875000Y-174500000D03*
%TD*%
D12*
%TO.C,R175*%
X232625000Y-192550000D03*
X232625000Y-186450000D03*
%TD*%
D11*
%TO.C,R46*%
X173256579Y-203500000D03*
X173256579Y-209600000D03*
%TD*%
D12*
%TO.C,R104*%
X202940789Y-201050000D03*
X202940789Y-194950000D03*
%TD*%
D11*
%TO.C,R86*%
X158414474Y-203500000D03*
X158414474Y-209600000D03*
%TD*%
D27*
%TO.C,C6*%
X199287500Y-149750000D03*
X201362500Y-149750000D03*
%TD*%
D23*
%TO.C,R199*%
X154882500Y-148950000D03*
X152882500Y-148950000D03*
%TD*%
D11*
%TO.C,R45*%
X173256579Y-212200000D03*
X173256579Y-218300000D03*
%TD*%
D12*
%TO.C,R48*%
X173256579Y-201050000D03*
X173256579Y-194950000D03*
%TD*%
D28*
%TO.C,J1*%
X150375000Y-137480000D03*
X138375000Y-137480000D03*
D29*
X147375000Y-141420000D03*
D30*
X144375000Y-141420000D03*
X141375000Y-141420000D03*
X147375000Y-138420000D03*
X144375000Y-138420000D03*
X141375000Y-138420000D03*
%TD*%
D11*
%TO.C,R89*%
X163361842Y-212200000D03*
X163361842Y-218300000D03*
%TD*%
D12*
%TO.C,R51*%
X153467105Y-192550000D03*
X153467105Y-186450000D03*
%TD*%
D31*
%TO.C,J4*%
X227375000Y-146250000D03*
%TD*%
D11*
%TO.C,R122*%
X212835526Y-203500000D03*
X212835526Y-209600000D03*
%TD*%
D24*
%TO.C,R28*%
X219375000Y-131000000D03*
X219375000Y-129000000D03*
%TD*%
D11*
%TO.C,R106*%
X143572368Y-203500000D03*
X143572368Y-209600000D03*
%TD*%
D12*
%TO.C,R108*%
X143572368Y-201050000D03*
X143572368Y-194950000D03*
%TD*%
%TO.C,R96*%
X178203947Y-201050000D03*
X178203947Y-194950000D03*
%TD*%
D14*
%TO.C,R200*%
X152882500Y-146700000D03*
X154882500Y-146700000D03*
%TD*%
D11*
%TO.C,R90*%
X163361842Y-203500000D03*
X163361842Y-209600000D03*
%TD*%
%TO.C,R118*%
X168309211Y-203500000D03*
X168309211Y-209600000D03*
%TD*%
D23*
%TO.C,R198*%
X210875000Y-128250000D03*
X208875000Y-128250000D03*
%TD*%
D32*
%TO.C,C20*%
X184312500Y-168750000D03*
X187437500Y-168750000D03*
%TD*%
D12*
%TO.C,R44*%
X188098684Y-201050000D03*
X188098684Y-194950000D03*
%TD*%
D11*
%TO.C,R57*%
X222730263Y-212200000D03*
X222730263Y-218300000D03*
%TD*%
D20*
%TO.C,Q2*%
X211875000Y-160280000D03*
D21*
X217325000Y-180140000D03*
D22*
X211875000Y-180140000D03*
X206425000Y-180140000D03*
%TD*%
D11*
%TO.C,R53*%
X217782895Y-212200000D03*
X217782895Y-218300000D03*
%TD*%
D12*
%TO.C,R79*%
X138625000Y-192550000D03*
X138625000Y-186450000D03*
%TD*%
D33*
%TO.C,U3*%
X186862500Y-146400000D03*
X185912500Y-146400000D03*
X184962500Y-146400000D03*
X184962500Y-149100000D03*
X186862500Y-149100000D03*
%TD*%
D26*
%TO.C,R27*%
X221625000Y-129000000D03*
X221625000Y-131000000D03*
%TD*%
D11*
%TO.C,R41*%
X188098684Y-212200000D03*
X188098684Y-218300000D03*
%TD*%
%TO.C,R49*%
X153467105Y-212200000D03*
X153467105Y-218300000D03*
%TD*%
D34*
%TO.C,R4*%
X194912500Y-165750000D03*
X197837500Y-165750000D03*
%TD*%
D20*
%TO.C,Q5*%
X160125000Y-160280000D03*
D21*
X165575000Y-180140000D03*
D22*
X160125000Y-180140000D03*
X154675000Y-180140000D03*
%TD*%
D16*
%TO.C,R19*%
X207875000Y-162962500D03*
X207875000Y-160037500D03*
%TD*%
D11*
%TO.C,R94*%
X178203947Y-203500000D03*
X178203947Y-209600000D03*
%TD*%
D12*
%TO.C,R123*%
X212835526Y-192550000D03*
X212835526Y-186450000D03*
%TD*%
%TO.C,R67*%
X148519737Y-192550000D03*
X148519737Y-186450000D03*
%TD*%
%TO.C,R87*%
X158414474Y-192550000D03*
X158414474Y-186450000D03*
%TD*%
D11*
%TO.C,R81*%
X197993421Y-212200000D03*
X197993421Y-218300000D03*
%TD*%
%TO.C,R61*%
X227677632Y-212200000D03*
X227677632Y-218300000D03*
%TD*%
D35*
%TO.C,R22*%
X221837500Y-148000000D03*
X218912500Y-148000000D03*
%TD*%
D16*
%TO.C,R10*%
X202125000Y-162962500D03*
X202125000Y-160037500D03*
%TD*%
D26*
%TO.C,R16*%
X173875000Y-151000000D03*
X173875000Y-153000000D03*
%TD*%
D23*
%TO.C,R197*%
X209625000Y-138750000D03*
X207625000Y-138750000D03*
%TD*%
D14*
%TO.C,R26*%
X210375000Y-152000000D03*
X212375000Y-152000000D03*
%TD*%
D11*
%TO.C,R85*%
X158414474Y-212200000D03*
X158414474Y-218300000D03*
%TD*%
D12*
%TO.C,R100*%
X193046053Y-201050000D03*
X193046053Y-194950000D03*
%TD*%
D11*
%TO.C,R42*%
X188098684Y-203500000D03*
X188098684Y-209600000D03*
%TD*%
D26*
%TO.C,R15*%
X176125000Y-151000000D03*
X176125000Y-153000000D03*
%TD*%
D12*
%TO.C,R88*%
X158414474Y-201050000D03*
X158414474Y-194950000D03*
%TD*%
D11*
%TO.C,R82*%
X197993421Y-203500000D03*
X197993421Y-209600000D03*
%TD*%
D17*
%TO.C,R34*%
X165625000Y-173450000D03*
X165625000Y-176550000D03*
%TD*%
D27*
%TO.C,C21*%
X210337500Y-149750000D03*
X212412500Y-149750000D03*
%TD*%
D12*
%TO.C,R95*%
X178203947Y-192550000D03*
X178203947Y-186450000D03*
%TD*%
%TO.C,R76*%
X183151316Y-201050000D03*
X183151316Y-194950000D03*
%TD*%
%TO.C,R84*%
X197993421Y-201050000D03*
X197993421Y-194950000D03*
%TD*%
D23*
%TO.C,R8*%
X214875000Y-138000000D03*
X212875000Y-138000000D03*
%TD*%
D26*
%TO.C,R202*%
X161132500Y-145700000D03*
X161132500Y-147700000D03*
%TD*%
D27*
%TO.C,C3*%
X194787500Y-149750000D03*
X196862500Y-149750000D03*
%TD*%
D11*
%TO.C,R62*%
X227677632Y-203500000D03*
X227677632Y-209600000D03*
%TD*%
D36*
%TO.C,Q1*%
X178175000Y-152687500D03*
X180075000Y-152687500D03*
X179125000Y-150812500D03*
%TD*%
D25*
%TO.C,C1*%
X217125000Y-138037500D03*
X217125000Y-135962500D03*
%TD*%
D24*
%TO.C,R14*%
X182125000Y-153000000D03*
X182125000Y-151000000D03*
%TD*%
D11*
%TO.C,R50*%
X153467105Y-203500000D03*
X153467105Y-209600000D03*
%TD*%
%TO.C,R173*%
X232625000Y-212200000D03*
X232625000Y-218300000D03*
%TD*%
D37*
%TO.C,U1*%
X207220000Y-136037500D03*
X208490000Y-136037500D03*
X209760000Y-136037500D03*
X211030000Y-136037500D03*
X211030000Y-130962500D03*
X209760000Y-130962500D03*
X208490000Y-130962500D03*
X207220000Y-130962500D03*
%TD*%
D38*
%TO.C,R23*%
X215875000Y-149037500D03*
X215875000Y-151962500D03*
%TD*%
D12*
%TO.C,R176*%
X232625000Y-201050000D03*
X232625000Y-194950000D03*
%TD*%
D11*
%TO.C,R74*%
X183151316Y-203500000D03*
X183151316Y-209600000D03*
%TD*%
D35*
%TO.C,R9*%
X205087500Y-165750000D03*
X202162500Y-165750000D03*
%TD*%
D15*
%TO.C,U7*%
X207987500Y-145300000D03*
X207987500Y-146250000D03*
X207987500Y-147200000D03*
X210262500Y-147200000D03*
X210262500Y-145300000D03*
%TD*%
D26*
%TO.C,R13*%
X189875000Y-151000000D03*
X189875000Y-153000000D03*
%TD*%
D39*
%TO.C,Q6*%
X158820000Y-147650000D03*
X158820000Y-145750000D03*
X156945000Y-146700000D03*
%TD*%
D11*
%TO.C,R65*%
X148519737Y-212200000D03*
X148519737Y-218300000D03*
%TD*%
D40*
%TO.C,U5*%
X150625000Y-149025000D03*
D41*
X150625000Y-146485000D03*
X143005000Y-146485000D03*
X143005000Y-149025000D03*
%TD*%
D35*
%TO.C,R24*%
X213587500Y-155000000D03*
X210662500Y-155000000D03*
%TD*%
D42*
%TO.C,C9*%
X187437500Y-166250000D03*
X184312500Y-166250000D03*
%TD*%
D34*
%TO.C,R18*%
X206912500Y-165750000D03*
X209837500Y-165750000D03*
%TD*%
D25*
%TO.C,C4*%
X189375000Y-143287500D03*
X189375000Y-141212500D03*
%TD*%
D12*
%TO.C,R60*%
X222730263Y-201050000D03*
X222730263Y-194950000D03*
%TD*%
D11*
%TO.C,R77*%
X138625000Y-212200000D03*
X138625000Y-218300000D03*
%TD*%
%TO.C,R39*%
X207888158Y-203500000D03*
X207888158Y-209600000D03*
%TD*%
D27*
%TO.C,C5*%
X212837500Y-136000000D03*
X214912500Y-136000000D03*
%TD*%
D12*
%TO.C,R124*%
X212835526Y-201050000D03*
X212835526Y-194950000D03*
%TD*%
D11*
%TO.C,R105*%
X143572368Y-212200000D03*
X143572368Y-218300000D03*
%TD*%
D26*
%TO.C,R1*%
X221625000Y-136000000D03*
X221625000Y-138000000D03*
%TD*%
D16*
%TO.C,R6*%
X196875000Y-156962500D03*
X196875000Y-154037500D03*
%TD*%
D14*
%TO.C,R32*%
X193625000Y-174500000D03*
X195625000Y-174500000D03*
%TD*%
D27*
%TO.C,C15*%
X205837500Y-149750000D03*
X207912500Y-149750000D03*
%TD*%
D26*
%TO.C,R7*%
X187375000Y-141250000D03*
X187375000Y-143250000D03*
%TD*%
D27*
%TO.C,C16*%
X212837500Y-129000000D03*
X214912500Y-129000000D03*
%TD*%
D11*
%TO.C,R101*%
X202940789Y-212200000D03*
X202940789Y-218300000D03*
%TD*%
D12*
%TO.C,R92*%
X163361842Y-201050000D03*
X163361842Y-194950000D03*
%TD*%
D25*
%TO.C,C22*%
X217125000Y-131037500D03*
X217125000Y-128962500D03*
%TD*%
D43*
X135750000Y-129500000D02*
G75*
G02*
X140250001Y-125000000I4500000J0D01*
G01*
X135750000Y-221250000D02*
X135750000Y-129500000D01*
X137500000Y-223000000D02*
X234000000Y-223000000D01*
X137500000Y-223000714D02*
G75*
G02*
X135749286Y-221250000I0J1750714D01*
G01*
X231250000Y-125000000D02*
X140250000Y-125000000D01*
X231250000Y-125000000D02*
G75*
G02*
X235750000Y-129500000I0J-4500000D01*
G01*
X235750000Y-129500000D02*
X235750000Y-221250000D01*
X235750714Y-221249286D02*
G75*
G02*
X234000000Y-223000014I-1750714J-14D01*
G01*
D44*
X185083333Y-116304819D02*
X185273809Y-116304819D01*
X185273809Y-116304819D02*
X185369047Y-116257200D01*
X185369047Y-116257200D02*
X185416666Y-116209580D01*
X185416666Y-116209580D02*
X185511904Y-116066723D01*
X185511904Y-116066723D02*
X185559523Y-115876247D01*
X185559523Y-115876247D02*
X185559523Y-115495295D01*
X185559523Y-115495295D02*
X185511904Y-115400057D01*
X185511904Y-115400057D02*
X185464285Y-115352438D01*
X185464285Y-115352438D02*
X185369047Y-115304819D01*
X185369047Y-115304819D02*
X185178571Y-115304819D01*
X185178571Y-115304819D02*
X185083333Y-115352438D01*
X185083333Y-115352438D02*
X185035714Y-115400057D01*
X185035714Y-115400057D02*
X184988095Y-115495295D01*
X184988095Y-115495295D02*
X184988095Y-115733390D01*
X184988095Y-115733390D02*
X185035714Y-115828628D01*
X185035714Y-115828628D02*
X185083333Y-115876247D01*
X185083333Y-115876247D02*
X185178571Y-115923866D01*
X185178571Y-115923866D02*
X185369047Y-115923866D01*
X185369047Y-115923866D02*
X185464285Y-115876247D01*
X185464285Y-115876247D02*
X185511904Y-115828628D01*
X185511904Y-115828628D02*
X185559523Y-115733390D01*
X186511904Y-116304819D02*
X185940476Y-116304819D01*
X186226190Y-116304819D02*
X186226190Y-115304819D01*
X186226190Y-115304819D02*
X186130952Y-115447676D01*
X186130952Y-115447676D02*
X186035714Y-115542914D01*
X186035714Y-115542914D02*
X185940476Y-115590533D01*
D43*
X140250000Y-129000000D02*
X140250000Y-116413580D01*
X231250000Y-116413580D02*
X231250000Y-129000000D01*
X140250000Y-117000000D02*
X231250000Y-117000000D01*
X140250000Y-117000000D02*
X141376504Y-116413579D01*
X140250000Y-117000000D02*
X141376504Y-117586421D01*
X231250000Y-117000000D02*
X230123496Y-117586421D01*
X231250000Y-117000000D02*
X230123496Y-116413579D01*
D44*
X128054819Y-174666666D02*
X128054819Y-174476190D01*
X128054819Y-174476190D02*
X128007200Y-174380952D01*
X128007200Y-174380952D02*
X127959580Y-174333333D01*
X127959580Y-174333333D02*
X127816723Y-174238095D01*
X127816723Y-174238095D02*
X127626247Y-174190476D01*
X127626247Y-174190476D02*
X127245295Y-174190476D01*
X127245295Y-174190476D02*
X127150057Y-174238095D01*
X127150057Y-174238095D02*
X127102438Y-174285714D01*
X127102438Y-174285714D02*
X127054819Y-174380952D01*
X127054819Y-174380952D02*
X127054819Y-174571428D01*
X127054819Y-174571428D02*
X127102438Y-174666666D01*
X127102438Y-174666666D02*
X127150057Y-174714285D01*
X127150057Y-174714285D02*
X127245295Y-174761904D01*
X127245295Y-174761904D02*
X127483390Y-174761904D01*
X127483390Y-174761904D02*
X127578628Y-174714285D01*
X127578628Y-174714285D02*
X127626247Y-174666666D01*
X127626247Y-174666666D02*
X127673866Y-174571428D01*
X127673866Y-174571428D02*
X127673866Y-174380952D01*
X127673866Y-174380952D02*
X127626247Y-174285714D01*
X127626247Y-174285714D02*
X127578628Y-174238095D01*
X127578628Y-174238095D02*
X127483390Y-174190476D01*
X127483390Y-173619047D02*
X127435771Y-173714285D01*
X127435771Y-173714285D02*
X127388152Y-173761904D01*
X127388152Y-173761904D02*
X127292914Y-173809523D01*
X127292914Y-173809523D02*
X127245295Y-173809523D01*
X127245295Y-173809523D02*
X127150057Y-173761904D01*
X127150057Y-173761904D02*
X127102438Y-173714285D01*
X127102438Y-173714285D02*
X127054819Y-173619047D01*
X127054819Y-173619047D02*
X127054819Y-173428571D01*
X127054819Y-173428571D02*
X127102438Y-173333333D01*
X127102438Y-173333333D02*
X127150057Y-173285714D01*
X127150057Y-173285714D02*
X127245295Y-173238095D01*
X127245295Y-173238095D02*
X127292914Y-173238095D01*
X127292914Y-173238095D02*
X127388152Y-173285714D01*
X127388152Y-173285714D02*
X127435771Y-173333333D01*
X127435771Y-173333333D02*
X127483390Y-173428571D01*
X127483390Y-173428571D02*
X127483390Y-173619047D01*
X127483390Y-173619047D02*
X127531009Y-173714285D01*
X127531009Y-173714285D02*
X127578628Y-173761904D01*
X127578628Y-173761904D02*
X127673866Y-173809523D01*
X127673866Y-173809523D02*
X127864342Y-173809523D01*
X127864342Y-173809523D02*
X127959580Y-173761904D01*
X127959580Y-173761904D02*
X128007200Y-173714285D01*
X128007200Y-173714285D02*
X128054819Y-173619047D01*
X128054819Y-173619047D02*
X128054819Y-173428571D01*
X128054819Y-173428571D02*
X128007200Y-173333333D01*
X128007200Y-173333333D02*
X127959580Y-173285714D01*
X127959580Y-173285714D02*
X127864342Y-173238095D01*
X127864342Y-173238095D02*
X127673866Y-173238095D01*
X127673866Y-173238095D02*
X127578628Y-173285714D01*
X127578628Y-173285714D02*
X127531009Y-173333333D01*
X127531009Y-173333333D02*
X127483390Y-173428571D01*
D43*
X185250000Y-125000000D02*
X128163580Y-125000000D01*
X128163580Y-223000000D02*
X185250000Y-223000000D01*
X128750000Y-125000000D02*
X128750000Y-223000000D01*
X128750000Y-125000000D02*
X129336421Y-126126504D01*
X128750000Y-125000000D02*
X128163579Y-126126504D01*
X128750000Y-223000000D02*
X128163579Y-221873496D01*
X128750000Y-223000000D02*
X129336421Y-221873496D01*
D44*
X185083333Y-109554819D02*
X184511905Y-109554819D01*
X184797619Y-109554819D02*
X184797619Y-108554819D01*
X184797619Y-108554819D02*
X184702381Y-108697676D01*
X184702381Y-108697676D02*
X184607143Y-108792914D01*
X184607143Y-108792914D02*
X184511905Y-108840533D01*
X185702381Y-108554819D02*
X185797619Y-108554819D01*
X185797619Y-108554819D02*
X185892857Y-108602438D01*
X185892857Y-108602438D02*
X185940476Y-108650057D01*
X185940476Y-108650057D02*
X185988095Y-108745295D01*
X185988095Y-108745295D02*
X186035714Y-108935771D01*
X186035714Y-108935771D02*
X186035714Y-109173866D01*
X186035714Y-109173866D02*
X185988095Y-109364342D01*
X185988095Y-109364342D02*
X185940476Y-109459580D01*
X185940476Y-109459580D02*
X185892857Y-109507200D01*
X185892857Y-109507200D02*
X185797619Y-109554819D01*
X185797619Y-109554819D02*
X185702381Y-109554819D01*
X185702381Y-109554819D02*
X185607143Y-109507200D01*
X185607143Y-109507200D02*
X185559524Y-109459580D01*
X185559524Y-109459580D02*
X185511905Y-109364342D01*
X185511905Y-109364342D02*
X185464286Y-109173866D01*
X185464286Y-109173866D02*
X185464286Y-108935771D01*
X185464286Y-108935771D02*
X185511905Y-108745295D01*
X185511905Y-108745295D02*
X185559524Y-108650057D01*
X185559524Y-108650057D02*
X185607143Y-108602438D01*
X185607143Y-108602438D02*
X185702381Y-108554819D01*
X186654762Y-108554819D02*
X186750000Y-108554819D01*
X186750000Y-108554819D02*
X186845238Y-108602438D01*
X186845238Y-108602438D02*
X186892857Y-108650057D01*
X186892857Y-108650057D02*
X186940476Y-108745295D01*
X186940476Y-108745295D02*
X186988095Y-108935771D01*
X186988095Y-108935771D02*
X186988095Y-109173866D01*
X186988095Y-109173866D02*
X186940476Y-109364342D01*
X186940476Y-109364342D02*
X186892857Y-109459580D01*
X186892857Y-109459580D02*
X186845238Y-109507200D01*
X186845238Y-109507200D02*
X186750000Y-109554819D01*
X186750000Y-109554819D02*
X186654762Y-109554819D01*
X186654762Y-109554819D02*
X186559524Y-109507200D01*
X186559524Y-109507200D02*
X186511905Y-109459580D01*
X186511905Y-109459580D02*
X186464286Y-109364342D01*
X186464286Y-109364342D02*
X186416667Y-109173866D01*
X186416667Y-109173866D02*
X186416667Y-108935771D01*
X186416667Y-108935771D02*
X186464286Y-108745295D01*
X186464286Y-108745295D02*
X186511905Y-108650057D01*
X186511905Y-108650057D02*
X186559524Y-108602438D01*
X186559524Y-108602438D02*
X186654762Y-108554819D01*
D43*
X135750000Y-129000000D02*
X135750000Y-109663580D01*
X235750000Y-109663580D02*
X235750000Y-129000000D01*
X135750000Y-110250000D02*
X235750000Y-110250000D01*
X135750000Y-110250000D02*
X136876504Y-109663579D01*
X135750000Y-110250000D02*
X136876504Y-110836421D01*
X235750000Y-110250000D02*
X234623496Y-110836421D01*
X235750000Y-110250000D02*
X234623496Y-109663579D01*
M02*
